<svg xmlns="http://www.w3.org/2000/svg" xmlns:xlink="http://www.w3.org/1999/xlink" viewBox="0 0 585.02 808.24"><defs><style>.cls-1{fill:#82c190;}.cls-2{fill:url(#Degradado_sin_nombre_6);}.cls-3{fill:#747678;}.cls-4{fill:#d52b1e;}.cls-5{fill:#fff;}.cls-6{fill:#009b3a;}.cls-7{clip-path:url(#clip-path);}</style><linearGradient id="Degradado_sin_nombre_6" x1="267.04" y1="223.77" x2="543.34" y2="223.77" gradientUnits="userSpaceOnUse"><stop offset="0.12" stop-color="#8b0304"/><stop offset="0.18" stop-color="#9d0d0a"/><stop offset="0.29" stop-color="#bc1d15"/><stop offset="0.39" stop-color="#ce271c"/><stop offset="0.45" stop-color="#d52b1e"/><stop offset="1" stop-color="#d52b1e"/></linearGradient><clipPath id="clip-path"><path class="cls-1" d="M405.18,657.19c-6.08-3.88-16.49-3.24-26.09,2.21s-15.48,14.06-15.27,21.27c6.08,3.88,22.76-.17,28.41-3.63C400.07,672.23,405.4,664.4,405.18,657.19Z"/></clipPath></defs><g id="Capa_2" data-name="Capa 2"><g id="Capa_2-2" data-name="Capa 2"><path class="cls-2" d="M534.59,19.53s-51-6.45-144.5,17.71C321.68,56.29,278,73.73,259.82,81.57c5.5,30.94,8.29,74.1,8.29,126.73-.27,106-14.19,163.73-16.85,173.78-1.69,8.53-3.32,14.79-4.64,21.17-2.07,14.22,10,30,56.55,24.34,56.93-6.76,70.39-27.52,144.51-27.43,55.55-.12,86.91,14.72,86.91,14.72-62.21-117-132.46-196-132.46-196S457.1,106,534.59,19.53Z"/><path class="cls-3" d="M314.85,381.18c.15-5.39-3.64-9.31-10.92-11.69-5.21-1.7-16.32-6.63-49.78-4.3-2.21,17.2-7.63,36.63-7.68,39.27,5.55-20.74,52.17-12.71,58.45-13.35A9.93,9.93,0,0,0,314.85,381.18Z"/><path class="cls-4" d="M331.81,208.3c0-72.47-5.28-127-15.65-156.36C303.3,11.83,269.6-.11,245.65,0,168.42,0,70,33.13,17.45,53.62c9.2,9.51,17,21.94,22.12,38,13,36.84,19.63,105.21,19.63,196.09-.12,50.14-2.68,91.66-6,124.62a5.73,5.73,0,0,1-.08,1.08C163.16,373,230,365.76,273.46,365.76c29.85,0,43.84,6.37,41.07,17.92C314.53,383.68,331.52,325.5,331.81,208.3Z"/><path class="cls-5" d="M273.23,212.16q10.41,12.53,10.41,33.19,0,20.82-10.85,34.78t-35,21.33q-24.15,7.38-63.63,7.37-13.59,0-31.3-1.23t-31.75-3.25V97.27a316.85,316.85,0,0,1,35.29-5.78,336,336,0,0,1,36.87-2.17q49,0,71.8,14.9t22.77,45.55q0,16.64-9,29a45.28,45.28,0,0,1-24.15,17Q262.82,199.65,273.23,212.16Zm-108-80.62v44.83h26.6q18.51,0,26.32-5.71t7.81-17.86q0-8.38-3.47-13.52t-11.13-7.59c-5.12-1.64-12-2.46-20.68-2.46A142.13,142.13,0,0,0,165.21,131.54Zm50,134.49q9.47-2.75,13.45-8.31t4-14.68q0-13.46-8.38-19.52t-27.77-6.08H165.21v50.33q10.85,1,24.15,1Q205.7,268.78,215.17,266Z"/><path class="cls-3" d="M96.77,564.87q6.21,7.47,6.21,19.81t-6.47,20.77Q90,613.79,75.62,618.18t-38,4.4q-8.12,0-18.68-.73T0,619.91V496.29a188.29,188.29,0,0,1,21.06-3.45,200.73,200.73,0,0,1,22-1.3q29.25,0,42.86,8.9t13.59,27.19a28.67,28.67,0,0,1-5.35,17.3,27.06,27.06,0,0,1-14.42,10.15Q90.55,557.41,96.77,564.87ZM32.29,516.75v26.76H48.17q11,0,15.71-3.41t4.66-10.66a14.16,14.16,0,0,0-2.07-8.07,12.11,12.11,0,0,0-6.65-4.53,41.65,41.65,0,0,0-12.34-1.47A84.81,84.81,0,0,0,32.29,516.75ZM62.11,597q5.65-1.63,8-5a14.75,14.75,0,0,0,2.37-8.76q0-8-5-11.65T50.93,568H32.29v30q6.47.62,14.41.61Q56.45,598.67,62.11,597ZM203,620.94l-9.23-31.5H149l-9.15,31.5H107.73l39.62-127.76h48.52l39.62,127.76Zm-46.44-57.57H186.2l-14.85-50.6Zm186.72,1.5q6.21,7.47,6.21,19.81t-6.47,20.77q-6.48,8.34-20.9,12.73t-38,4.4q-8.12,0-18.68-.73t-19-1.94V496.29a188.29,188.29,0,0,1,21.06-3.45,200.56,200.56,0,0,1,22-1.3q29.26,0,42.86,8.9t13.6,27.19a28.74,28.74,0,0,1-5.35,17.3,27.09,27.09,0,0,1-14.42,10.15Q337.09,557.41,343.31,564.87Zm-64.49-48.12v26.76H294.7q11.06,0,15.72-3.41t4.66-10.66a14.16,14.16,0,0,0-2.07-8.07,12.11,12.11,0,0,0-6.65-4.53A41.72,41.72,0,0,0,294,515.37,84.81,84.81,0,0,0,278.82,516.75ZM308.65,597q5.66-1.63,8-5a14.75,14.75,0,0,0,2.37-8.76q0-8-5-11.65T297.47,568H278.82v30q6.48.62,14.42.61Q303,598.67,308.65,597Zm87.92-2.33h61.72v26.24H363.85V493.18h93.58v26.24H396.57v23.14h52v26.25h-52Zm152.54,26.24-30.22-44.72c-1.73,0-4.09-.05-7.08-.17-2-.11-3.42-.17-4.4-.17v45.06H474.87V496.29a197.26,197.26,0,0,1,20.54-3.45,185.44,185.44,0,0,1,21.49-1.3q28.58,0,42.91,10.4t14.33,31.81q.09,13.21-6.09,22.54a39.44,39.44,0,0,1-17.65,14.33L585,620.94Zm-41.7-69.83a104.65,104.65,0,0,0,12.69.78q11.74,0,17.44-4.27t5.7-13.87q0-9.32-5.62-13.72t-17.09-4.4a74.51,74.51,0,0,0-13.12,1.12Z"/><path class="cls-6" d="M58.35,758.76h61.51l-2.48,14.08H38.79l21-119.08h77.77l-2.48,14.08H74.38l-6.51,36.93h52.61L118,718.85H65.38Z"/><path class="cls-6" d="M187.69,728.5,212,772.84h-19l-17.59-32.27-28.89,32.27H127.75l39.71-44.09L143.84,685.3h19L180,716.6l28-31.3h18.54Z"/><path class="cls-6" d="M239.5,685.3H254L253.4,695h.9A36.61,36.61,0,0,1,266,686.87a35.58,35.58,0,0,1,14.41-2.94q10.2,0,17.35,4.43t10.13,14.16q3,9.74.3,24.94-4.11,23.32-17.84,35.12t-36.51,11.78a103.89,103.89,0,0,1-12.9-1l-6.14,34.84h-17Zm39.81,68.19q8.43-7.69,11.42-24.66T289,705q-4.74-7-15.44-7a28.89,28.89,0,0,0-11.14,2.29,27.36,27.36,0,0,0-9.77,7l-9.25,52.46a51.76,51.76,0,0,0,6.19,1,60.16,60.16,0,0,0,6.87.4Q270.89,761.17,279.31,753.49Z"/><path class="cls-6" d="M427.65,685.1h14.13L441,696.76h1a34.81,34.81,0,0,1,12.53-9.41,36.48,36.48,0,0,1,14.95-3.22,38.65,38.65,0,0,1,7.07.64l-2.71,15.37a52.33,52.33,0,0,0-8-.56,36.13,36.13,0,0,0-13.78,2.9,32.65,32.65,0,0,0-11.95,8.2l-10.92,62h-17Z"/><path class="cls-6" d="M534.39,758.71,532,772.55a74.57,74.57,0,0,1-14.83,1.61q-30.22,0-24.89-30.25l8-45.3h-16l2.39-13.51h16l8.5-31.54h14l-5.56,31.54h26.64l-2.39,13.51H517.21l-7.52,42.65q-1.8,10.22,1.61,14.48T523.7,760A54.38,54.38,0,0,0,534.39,758.71Z"/><path class="cls-4" d="M363.82,703.34a24.32,24.32,0,1,1-24.32,24.32,24.35,24.35,0,0,1,24.32-24.32m0-20.09a44.41,44.41,0,1,0,44.41,44.41,44.41,44.41,0,0,0-44.41-44.41Z"/><path class="cls-1" d="M405.18,657.19c-6.08-3.88-16.49-3.24-26.09,2.21s-15.48,14.06-15.27,21.27c6.08,3.88,22.76-.17,28.41-3.63C400.07,672.23,405.4,664.4,405.18,657.19Z"/><g class="cls-7"><path class="cls-6" d="M426.52,656.47c-9.51-3-27.3.48-43.5,9.47-16.49,9.15-27.52,22.21-28.75,31.83,8.9,4,25.63,1,42.07-8.36S425.37,666.14,426.52,656.47Z"/></g></g></g></svg>