<svg xmlns="http://www.w3.org/2000/svg" xmlns:xlink="http://www.w3.org/1999/xlink" viewBox="0 0 1173.26 408.69"><defs><style>.cls-1{fill:#82c190;}.cls-2{fill:#009b3a;}.cls-3{fill:#d52b1e;}.cls-4{clip-path:url(#clip-path);}.cls-5{fill:url(#Degradado_sin_nombre_3);}.cls-6{fill:#747678;}.cls-7{fill:#fff;}</style><clipPath id="clip-path"><path class="cls-1" d="M921.38,235c-7-4.46-19-3.73-30,2.54S873.56,253.67,873.81,262c7,4.47,26.18-.19,32.68-4.17C915.51,252.26,921.63,243.25,921.38,235Z"/></clipPath><linearGradient id="Degradado_sin_nombre_3" x1="221.25" y1="198.36" x2="466.17" y2="198.36" gradientUnits="userSpaceOnUse"><stop offset="0.13" stop-color="#8b0304"/><stop offset="0.17" stop-color="#9d0d0a"/><stop offset="0.26" stop-color="#bc1d15"/><stop offset="0.33" stop-color="#ce271c"/><stop offset="0.39" stop-color="#d52b1e"/><stop offset="1" stop-color="#d52b1e"/></linearGradient></defs><g id="Capa_2" data-name="Capa 2"><g id="Capa_2-2" data-name="Capa 2"><path class="cls-2" d="M522.47,351.78h70.75L590.37,368H500l24.15-137h89.46l-2.86,16.19H540.91l-7.49,42.48h60.51l-2.86,16.19H530.56Z"/><path class="cls-2" d="M671.23,317l27.93,51H677.27L657,330.86,623.81,368H602.29L648,317.26l-27.18-50h21.9l19.68,36,32.18-36h21.33Z"/><path class="cls-2" d="M730.82,267.29h16.63l-.64,11.1h1a42.32,42.32,0,0,1,13.48-9.3,41,41,0,0,1,16.57-3.37q11.75,0,20,5.09t11.64,16.28q3.42,11.21.35,28.69-4.74,26.84-20.52,40.39t-42,13.56a118.89,118.89,0,0,1-14.84-1.11l-7.07,40.07H705.89Zm45.79,78.43q9.69-8.85,13.13-28.37t-2-27.43q-5.44-8-17.76-8a33.1,33.1,0,0,0-12.82,2.64,31.57,31.57,0,0,0-11.23,8l-10.64,60.34a60.31,60.31,0,0,0,7.12,1.2,69.31,69.31,0,0,0,7.9.46Q766.93,354.55,776.61,345.72Z"/><path class="cls-2" d="M947.22,267.06h16.26l-.86,13.42h1.12a39.82,39.82,0,0,1,14.41-10.83,42,42,0,0,1,17.19-3.7,43.16,43.16,0,0,1,8.14.74l-3.12,17.67a59.53,59.53,0,0,0-9.19-.65,41.6,41.6,0,0,0-15.85,3.34,37.51,37.51,0,0,0-13.74,9.43L949,367.74H929.47Z"/><path class="cls-2" d="M1070,351.73l-2.81,15.91a85,85,0,0,1-17,1.86q-34.77,0-28.63-34.8l9.18-52.1h-18.41l2.74-15.54h18.42l9.77-36.28h16.17l-6.4,36.28h30.63l-2.74,15.54h-30.63l-8.65,49q-2.07,11.75,1.86,16.66t14.26,4.9A62.52,62.52,0,0,0,1070,351.73Z"/><path class="cls-3" d="M873.8,288a28,28,0,1,1-28,28,28,28,0,0,1,28-28m0-23.11A51.08,51.08,0,1,0,924.88,316a51.08,51.08,0,0,0-51.08-51.08Z"/><path class="cls-1" d="M921.38,235c-7-4.46-19-3.73-30,2.54S873.56,253.67,873.81,262c7,4.47,26.18-.19,32.68-4.17C915.51,252.26,921.63,243.25,921.38,235Z"/><g class="cls-4"><path class="cls-2" d="M945.92,234.13c-10.93-3.49-31.39.56-50,10.9-19,10.52-31.65,25.54-33.06,36.61,10.23,4.57,29.47,1.11,48.38-9.62S944.6,245.26,945.92,234.13Z"/></g><path class="cls-5" d="M458.42,17.32S413.23,11.6,330.33,33C269.68,49.9,231,65.36,214.85,72.31c4.87,27.42,7.34,65.68,7.34,112.33-.23,94-12.57,145.14-14.93,154.06-1.5,7.55-2.94,13.11-4.11,18.76-1.84,12.61,8.84,26.62,50.13,21.57,50.46-6,62.4-24.39,128.1-24.31,49.24-.1,77,13,77,13C403.27,264.09,341,194,341,194S389.73,94,458.42,17.32Z"/><path class="cls-6" d="M263.63,337.9c.13-4.78-3.23-8.26-9.68-10.37-4.62-1.51-14.47-5.87-44.13-3.81-2,15.25-6.76,32.47-6.8,34.82,4.92-18.4,46.24-11.28,51.81-11.84A8.8,8.8,0,0,0,263.63,337.9Z"/><path class="cls-3" d="M278.67,184.64c0-64.23-4.69-112.56-13.88-138.6C253.39,10.49,223.52-.1,202.29,0,133.83,0,46.56,29.37,0,47.54,8.15,56,15.06,67,19.61,81.18,31.14,113.84,37,174.45,37,255c-.11,44.45-2.38,81.26-5.32,110.47a5.17,5.17,0,0,1-.07,1c97.54-35.75,156.82-42.2,195.32-42.2,26.46,0,38.86,5.65,36.41,15.88C263.35,340.11,278.41,288.54,278.67,184.64Z"/><path class="cls-7" d="M226.74,188.07q9.22,11.1,9.22,29.42t-9.61,30.83q-9.61,12.36-31,18.91t-56.4,6.53q-12.06,0-27.76-1.09T83,269.79V86.22a284.3,284.3,0,0,1,31.28-5.12A297.27,297.27,0,0,1,147,79.18q43.45,0,63.65,13.21t20.19,40.38q0,14.73-8,25.69a40.17,40.17,0,0,1-21.41,15.07Q217.5,177,226.74,188.07ZM131,116.6v39.74h23.58q16.41,0,23.33-5.06t6.93-15.83q0-7.42-3.08-12t-9.87-6.72q-6.8-2.17-18.33-2.19A126.54,126.54,0,0,0,131,116.6Zm44.29,119.22c5.6-1.62,9.56-4.07,11.92-7.37s3.52-7.63,3.52-13q0-11.92-7.43-17.3t-24.61-5.39H131v44.61q9.61.9,21.41.9Q166.87,238.26,175.27,235.82Z"/><path class="cls-6" d="M611.34,129.5q7.17,8.58,7.15,22.79t-7.44,23.9q-7.45,9.6-24,14.65t-43.71,5.07q-9.35,0-21.51-.84T500,192.83V50.56a218.39,218.39,0,0,1,24.24-4,231.11,231.11,0,0,1,25.34-1.5q33.68,0,49.33,10.25t15.64,31.29a33,33,0,0,1-6.16,19.91,31,31,0,0,1-16.59,11.68Q604.19,120.89,611.34,129.5ZM537.13,74.11v30.8h18.28q12.72,0,18.08-3.93t5.36-12.27c0-3.84-.78-6.93-2.37-9.28a14,14,0,0,0-7.66-5.21q-5.27-1.69-14.21-1.7A97.56,97.56,0,0,0,537.13,74.11Zm34.33,92.39c4.34-1.25,7.41-3.15,9.24-5.71s2.73-5.91,2.73-10.09q0-9.22-5.77-13.41t-19.07-4.16H537.13v34.56q7.46.7,16.59.7Q564.94,168.39,571.46,166.5ZM733.64,194,723,157.76H671.45L660.92,194H624l45.6-147H725.4L771,194Zm-53.45-66.26h34.08L697.18,69.53Zm214.89,1.74q7.15,8.58,7.15,22.79t-7.45,23.9q-7.44,9.6-24,14.65T827,195.91q-9.33,0-21.5-.84t-21.81-2.24V50.56a218,218,0,0,1,24.24-4,230.82,230.82,0,0,1,25.34-1.5q33.68,0,49.32,10.25t15.65,31.29a33,33,0,0,1-6.16,19.91,31.09,31.09,0,0,1-16.59,11.68Q887.92,120.89,895.08,129.5ZM820.87,74.11v30.8h18.27q12.72,0,18.09-3.93t5.36-12.27a16.27,16.27,0,0,0-2.38-9.28q-2.38-3.54-7.66-5.21t-14.2-1.7A97.39,97.39,0,0,0,820.87,74.11Zm34.32,92.39q6.51-1.87,9.24-5.71t2.73-10.09q0-9.22-5.76-13.41t-19.07-4.16H820.87v34.56q7.44.7,16.59.7Q848.68,168.39,855.19,166.5Zm101.19-2.67h71V194H918.72V47h107.7V77.19h-70v26.62h59.8V134h-59.8ZM1131.93,194l-34.77-51.46q-3,0-8.15-.2c-2.25-.13-3.94-.19-5.07-.19V194h-37.45V50.56a228.89,228.89,0,0,1,23.64-4,213.49,213.49,0,0,1,24.74-1.5q32.89,0,49.38,12t16.49,36.61q.1,15.19-7,25.94t-20.31,16.48L1173.26,194Zm-48-80.36a122.13,122.13,0,0,0,14.61.89q13.52,0,20.07-4.92t6.55-15.95q0-10.73-6.45-15.79T1099,72.82a86.16,86.16,0,0,0-15.1,1.29Z"/></g></g></svg>