<svg xmlns="http://www.w3.org/2000/svg" viewBox="0 0 203.18 208.42"><defs><style>.cls-1,.cls-2,.cls-6{fill:none;stroke:#000;}.cls-1,.cls-2,.cls-3,.cls-5,.cls-6{stroke-miterlimit:10;}.cls-1{stroke-width:2.5px;}.cls-2{stroke-width:2px;}.cls-3{fill:#d12b1e;stroke:#d12b1e;stroke-width:1.21px;}.cls-4,.cls-5{fill:#d52b1e;}.cls-5{stroke:#d52b1e;stroke-width:1.02px;}.cls-6{stroke-linecap:round;stroke-width:4px;}</style></defs><g id="Capa_2" data-name="Capa 2"><g id="cuadro_frutas" data-name="cuadro frutas"><polyline class="cls-1" points="175.05 178.37 170.37 204.64 163.1 193.39 152.41 201.45 156.46 178.64"/><polyline class="cls-1" points="176.92 189.28 185.51 201.19 187.17 187.9 200.31 190.53 186.57 171.44"/><path class="cls-1" d="M193.83,140.86a6.9,6.9,0,0,0-3.67-7.81,6.24,6.24,0,0,1-3.35-3.63,6.94,6.94,0,0,0-6.17-4.57,6,6,0,0,1-4.41-2.35,6.89,6.89,0,0,0-8.43-1.81,6,6,0,0,1-4.91.07,6.88,6.88,0,0,0-7.7,1.94,6.17,6.17,0,0,1-4.46,2.23,6.93,6.93,0,0,0-6.25,5,5.76,5.76,0,0,1-3,3.78,6.88,6.88,0,0,0-3.69,7.81,6,6,0,0,1-.82,5,6.91,6.91,0,0,0-.12,7.66,6.26,6.26,0,0,1,.87,4.84,6.91,6.91,0,0,0,4,7.69,6,6,0,0,1,3.54,3.89,6.91,6.91,0,0,0,6,4.91,5.65,5.65,0,0,1,4,2,6.85,6.85,0,0,0,8.51,1.58,6,6,0,0,1,5.4-.09,6.88,6.88,0,0,0,7.81-1.63,6.14,6.14,0,0,1,4.06-2,6.93,6.93,0,0,0,6.05-5.23,5.94,5.94,0,0,1,3.35-4.22,6.89,6.89,0,0,0,3.93-7.73,5.71,5.71,0,0,1,.7-4.36,6.9,6.9,0,0,0-.22-7.81A6,6,0,0,1,193.83,140.86Z"/><circle class="cls-2" cx="165.87" cy="149.97" r="22.31"/><polygon points="162.79 137.34 167.66 145.5 176.92 143.38 170.66 150.54 175.54 158.7 166.81 154.96 160.55 162.11 161.4 152.65 152.67 148.91 161.93 146.8 162.79 137.34"/><path class="cls-3" d="M52.69,144.12H41.35v11.79H51.2v3.15H41.35v15.23H38.93V141H52.69Zm19.84,30.23-7.25-14.27a7.22,7.22,0,0,0,4.16-3.27,12.21,12.21,0,0,0,1.39-6.24c0-3.38-.73-5.85-2.17-7.46S65,140.69,62,140.69a21.76,21.76,0,0,0-6,.89v32.66h2.42V160.31a29.87,29.87,0,0,0,3.13.19h1.21l7,13.79ZM60,157.58a8,8,0,0,1-1.55-.25V144a15.19,15.19,0,0,1,1.78-.37,15.67,15.67,0,0,1,1.94-.12,8,8,0,0,1,3.63.72,4.34,4.34,0,0,1,2,2.23,10.47,10.47,0,0,1,.66,4,7.54,7.54,0,0,1-1.65,5.36,7,7,0,0,1-5.22,1.7H60Zm18.29,1.16h10v-3.08h-10V144.1H89.77V141H75.85v33.29H89.91v-3.1H78.3Zm19.69,16a8.18,8.18,0,0,0,4.34-1.12,7,7,0,0,0,2.73-3.22,12.44,12.44,0,0,0,.94-5.11,10.28,10.28,0,0,0-1.46-5.8,9,9,0,0,0-4.58-3.38l-1.21-.44a8.57,8.57,0,0,1-2.42-1.39,4.3,4.3,0,0,1-1.3-1.9,8.16,8.16,0,0,1-.4-2.77A6.31,6.31,0,0,1,96,145.21a5.48,5.48,0,0,1,4.18-1.51,11.52,11.52,0,0,1,4.83,1v-3.15a11.23,11.23,0,0,0-2.27-.69,13.23,13.23,0,0,0-2.59-.26,8.32,8.32,0,0,0-4.41,1.1,6.89,6.89,0,0,0-2.7,3.19,12.56,12.56,0,0,0-.89,5,10.42,10.42,0,0,0,1.41,5.77,8.5,8.5,0,0,0,4.29,3.29l1.21.48a9.64,9.64,0,0,1,2.63,1.4,4.53,4.53,0,0,1,1.41,1.91,8,8,0,0,1,.45,2.82c0,4-1.86,6-5.49,6a13,13,0,0,1-2.77-.34,12.09,12.09,0,0,1-2.8-1v3.15a12.39,12.39,0,0,0,2.73,1A11.68,11.68,0,0,0,98,174.72Zm14.16-.43V158.86H124v15.43h2.42V141H124v14.51H112.15V141h-2.42v33.29Z"/><path class="cls-4" d="M42.74,72.32H50v62.94H38.7V91.33L29,100.77V85.71Z"/><path class="cls-4" d="M58.73,128.13q-4.62-8-4.61-24.19t4.61-24.18q4.6-8,13.11-8t13.17,8q4.63,8,4.63,24.18T85,128.13q-4.62,7.94-13.17,7.94T58.73,128.13Zm16.81-7a13.23,13.23,0,0,0,2.19-5.93A66.1,66.1,0,0,0,78.5,104a66,66,0,0,0-.77-11.32,13.31,13.31,0,0,0-2.19-6,4.68,4.68,0,0,0-7.33,0A13.27,13.27,0,0,0,66,92.64a68.2,68.2,0,0,0-.75,11.24A68.2,68.2,0,0,0,66,115.21a13.32,13.32,0,0,0,2.2,5.93,4.73,4.73,0,0,0,6.65.7A4.21,4.21,0,0,0,75.54,121.14Z"/><path class="cls-4" d="M97,128.13q-4.6-8-4.61-24.19T97,79.76q4.64-8,13.12-8t13.17,8q4.62,8,4.63,24.18t-4.63,24.19q-4.62,8-13.17,8T97,128.13Zm16.82-7a13.23,13.23,0,0,0,2.19-5.93,65.09,65.09,0,0,0,.76-11.24A65.94,65.94,0,0,0,116,92.65a13.31,13.31,0,0,0-2.19-6,4.72,4.72,0,0,0-6.63-.71,4.77,4.77,0,0,0-.71.71,13.37,13.37,0,0,0-2.21,5.94,66.09,66.09,0,0,0-.75,11.24,67.14,67.14,0,0,0,.75,11.33,13.32,13.32,0,0,0,2.2,5.93,4.73,4.73,0,0,0,6.65.7A4.63,4.63,0,0,0,113.79,121.14Z"/><path class="cls-5" d="M141.9,84.44a11.55,11.55,0,0,1-.48,3.4,9.68,9.68,0,0,1-1.33,2.79,6.43,6.43,0,0,1-2,1.89,4.69,4.69,0,0,1-2.41.7,4.53,4.53,0,0,1-2.38-.7,6.66,6.66,0,0,1-2-1.89,9.92,9.92,0,0,1-1.32-2.79,11.5,11.5,0,0,1-.48-3.4,12,12,0,0,1,.48-3.41,10.15,10.15,0,0,1,1.32-2.78,6.89,6.89,0,0,1,2-1.92,4.27,4.27,0,0,1,2.38-.72,4.51,4.51,0,0,1,2.41.7,6.39,6.39,0,0,1,2,1.88A9.71,9.71,0,0,1,141.42,81,12,12,0,0,1,141.9,84.44Zm-6.18,5.68a2.87,2.87,0,0,0,1.55-.44,4.58,4.58,0,0,0,1.28-1.24,6.55,6.55,0,0,0,.89-1.82,7.37,7.37,0,0,0,0-4.36,6.13,6.13,0,0,0-.88-1.82,4.73,4.73,0,0,0-1.29-1.27,2.83,2.83,0,0,0-3.11,0,4.62,4.62,0,0,0-1.29,1.24,6.56,6.56,0,0,0-.88,1.85,7.81,7.81,0,0,0-.31,2.21,7.27,7.27,0,0,0,.31,2.18,6.81,6.81,0,0,0,.88,1.82,4.52,4.52,0,0,0,1.29,1.25A3,3,0,0,0,135.72,90.12Zm1.46,23.35h-1.94L150,75.23H152Zm14.4-18.37a4.56,4.56,0,0,1,2.38.7,6.14,6.14,0,0,1,1.93,1.9,9.58,9.58,0,0,1,1.29,2.79,12,12,0,0,1,.47,3.42,12.15,12.15,0,0,1-.47,3.44,9.54,9.54,0,0,1-1.29,2.83,6.29,6.29,0,0,1-1.93,1.88,4.43,4.43,0,0,1-4.78,0,6.43,6.43,0,0,1-2-1.88,9.91,9.91,0,0,1-1.33-2.83,12.53,12.53,0,0,1-.48-3.44,11.33,11.33,0,0,1,.5-3.42,10.71,10.71,0,0,1,1.34-2.79,6.46,6.46,0,0,1,2-1.9,4.47,4.47,0,0,1,2.38-.73Zm0,3.07a2.8,2.8,0,0,0-1.59.47,4.52,4.52,0,0,0-1.26,1.28,6,6,0,0,0-.86,1.85,7.94,7.94,0,0,0-.32,2.22,7.16,7.16,0,0,0,.34,2.15,6.55,6.55,0,0,0,.89,1.82,4.52,4.52,0,0,0,1.29,1.25,2.87,2.87,0,0,0,1.51.45,2.83,2.83,0,0,0,1.54-.48,4.36,4.36,0,0,0,1.26-1.27,7.13,7.13,0,0,0,.86-1.83,7.81,7.81,0,0,0,0-4.39,7.13,7.13,0,0,0-.86-1.83,4.41,4.41,0,0,0-1.26-1.25,2.94,2.94,0,0,0-1.58-.46Z"/><path d="M93.6,32.77A40.92,40.92,0,0,0,79.49,12.65c-7.1-5.56-15.32-8-23.56-11.24C54.51,14.14,52.44,30.31,59,42A35.78,35.78,0,0,0,76.25,57.35a33.22,33.22,0,0,0,8.14,2.31,12.44,12.44,0,0,0,1.43.13C82.46,46.94,67.68,22.65,68.41,22.07s17.28,23.78,20.75,37.2a8.27,8.27,0,0,0,3.36-2.35C98.58,49.9,93.65,32.94,93.6,32.77Z"/><path d="M127.8,0l-6.63,2.81c-7.61,3.36-17,7.79-20.32,15.73A35.52,35.52,0,0,0,98.76,37c0,.2,0,.41.07.62.28,2.38.66,5.65,3.43,7.31.09.06.2.11.31.17.56-9.36,12.43-26.46,13.16-25.86S106.46,37,106,45.74a8.86,8.86,0,0,0,2.07-.46,29.78,29.78,0,0,0,11.1-7.18c.45-.43.89-.88,1.31-1.34C129.94,26.42,127.8,0,127.8,0Z"/><path class="cls-6" d="M129.58,39.91a88,88,0,0,1,48.2,73.56"/><path class="cls-6" d="M147.56,184.94A88,88,0,1,1,48,41.14"/></g></g></svg>