<svg xmlns="http://www.w3.org/2000/svg" viewBox="0 0 195.25 207.97"><defs><style>.cls-1{fill:#d12b1e;}</style></defs><g id="Capa_2" data-name="Capa 2"><g id="textos"><path d="M58.1,165.24a13.27,13.27,0,0,0-1.16-2.62,74.9,74.9,0,0,1-31.2-42.55H24.09A76.47,76.47,0,0,0,58.1,165.24Z"/><path d="M192.5,103.9a6.57,6.57,0,0,1,1.17-2.49,7.77,7.77,0,0,0,1.58-4,7.77,7.77,0,0,0-1.58-4,6.61,6.61,0,0,1-1.17-2.5,6.63,6.63,0,0,1,.84-2.67,7.69,7.69,0,0,0,1-4.13,7.85,7.85,0,0,0-2.11-3.74,6.63,6.63,0,0,1-1.5-2.32,6.58,6.58,0,0,1,.46-2.76,7.6,7.6,0,0,0,.45-4.23,7.72,7.72,0,0,0-2.6-3.41,6.56,6.56,0,0,1-1.8-2.1,6.49,6.49,0,0,1,.07-2.79,7.61,7.61,0,0,0-.14-4.26,7.78,7.78,0,0,0-3-3,6.62,6.62,0,0,1-2.08-1.84,6.44,6.44,0,0,1-.3-2.76,7.66,7.66,0,0,0-.73-4.21,7.75,7.75,0,0,0-3.41-2.58,6.44,6.44,0,0,1-2.31-1.53,6.39,6.39,0,0,1-.68-2.7,7.83,7.83,0,0,0-1.29-4.07,7.76,7.76,0,0,0-3.73-2.09,6.62,6.62,0,0,1-2.5-1.2,6.7,6.7,0,0,1-1-2.59,7.78,7.78,0,0,0-1.83-3.86,7.76,7.76,0,0,0-4-1.56,6.41,6.41,0,0,1-2.65-.86,6.65,6.65,0,0,1-1.37-2.41,7.73,7.73,0,0,0-2.34-3.58,7.73,7.73,0,0,0-4.14-1,6.57,6.57,0,0,1-2.75-.49,6.58,6.58,0,0,1-1.68-2.2,7.79,7.79,0,0,0-2.81-3.24,7.63,7.63,0,0,0-4.24-.43,6.62,6.62,0,0,1-2.79-.11,6.69,6.69,0,0,1-2-1.95,7.73,7.73,0,0,0-3.22-2.82,7.55,7.55,0,0,0-4.26.15,6.55,6.55,0,0,1-2.78.27,6.52,6.52,0,0,1-2.21-1.66,7.78,7.78,0,0,0-3.59-2.35,7.65,7.65,0,0,0-4.19.73,6.55,6.55,0,0,1-2.72.65,6.48,6.48,0,0,1-2.41-1.34A7.83,7.83,0,0,0,104.29,0a7.64,7.64,0,0,0-4.05,1.29,6.56,6.56,0,0,1-2.61,1A6.54,6.54,0,0,1,95,1.3,7.61,7.61,0,0,0,91,0a7.83,7.83,0,0,0-3.88,1.84,6.59,6.59,0,0,1-2.42,1.34A6.55,6.55,0,0,1,82,2.54a7.65,7.65,0,0,0-4.19-.73,7.78,7.78,0,0,0-3.59,2.35A6.52,6.52,0,0,1,72,5.82a6.55,6.55,0,0,1-2.78-.27,7.52,7.52,0,0,0-4.25-.15A7.75,7.75,0,0,0,61.7,8.22a6.57,6.57,0,0,1-2,1.95,6.57,6.57,0,0,1-2.78.11,7.67,7.67,0,0,0-4.25.43A7.84,7.84,0,0,0,49.9,14a6.73,6.73,0,0,1-1.69,2.2,6.52,6.52,0,0,1-2.74.49,7.68,7.68,0,0,0-4.15,1A7.63,7.63,0,0,0,39,21.23a6.51,6.51,0,0,1-1.38,2.41A6.51,6.51,0,0,1,35,24.5a7.76,7.76,0,0,0-4,1.56,7.78,7.78,0,0,0-1.83,3.86,6.43,6.43,0,0,1-1,2.58,6.46,6.46,0,0,1-2.51,1.21A7.69,7.69,0,0,0,21.9,35.8a7.65,7.65,0,0,0-1.29,4.07,6.71,6.71,0,0,1-.68,2.7,6.58,6.58,0,0,1-2.31,1.53,7.78,7.78,0,0,0-3.42,2.58,7.63,7.63,0,0,0-.72,4.2,6.46,6.46,0,0,1-.31,2.77,6.51,6.51,0,0,1-2.08,1.84,7.72,7.72,0,0,0-3,3,7.61,7.61,0,0,0-.14,4.26A6.67,6.67,0,0,1,8,65.56a6.61,6.61,0,0,1-1.81,2.09A7.72,7.72,0,0,0,3.6,71.07,7.6,7.6,0,0,0,4,75.3a6.58,6.58,0,0,1,.46,2.76A6.49,6.49,0,0,1,3,80.38,7.75,7.75,0,0,0,.9,84.12a7.6,7.6,0,0,0,1,4.13,6.6,6.6,0,0,1,.83,2.67,6.61,6.61,0,0,1-1.17,2.5,7.77,7.77,0,0,0-1.58,4,7.77,7.77,0,0,0,1.58,4,6.57,6.57,0,0,1,1.17,2.49,6.64,6.64,0,0,1-.83,2.68,7.58,7.58,0,0,0-1,4.13A7.79,7.79,0,0,0,3,114.45a6.35,6.35,0,0,1,1.5,2.32A6.53,6.53,0,0,1,4,119.52a7.64,7.64,0,0,0-.44,4.24,7.75,7.75,0,0,0,2.59,3.41A6.63,6.63,0,0,1,8,129.27a6.67,6.67,0,0,1-.08,2.79,7.61,7.61,0,0,0,.14,4.26,7.78,7.78,0,0,0,3,3,6.49,6.49,0,0,1,2.08,1.83,6.48,6.48,0,0,1,.31,2.77,7.67,7.67,0,0,0,.72,4.21,7.78,7.78,0,0,0,3.41,2.57,6.41,6.41,0,0,1,2.32,1.54,6.62,6.62,0,0,1,.68,2.7A7.73,7.73,0,0,0,21.89,159a7.83,7.83,0,0,0,3.73,2.08,6.6,6.6,0,0,1,2.51,1.21,6.56,6.56,0,0,1,1,2.58A7.74,7.74,0,0,0,31,168.76a7.67,7.67,0,0,0,4,1.56,6.66,6.66,0,0,1,2.65.86A6.42,6.42,0,0,1,39,173.6a7.83,7.83,0,0,0,2.34,3.58,7.86,7.86,0,0,0,4.15,1,6.52,6.52,0,0,1,2.74.49,6.62,6.62,0,0,1,1.69,2.2,7.74,7.74,0,0,0,2.8,3.23,7.55,7.55,0,0,0,4.24.43,6.75,6.75,0,0,1,2.79.12,3.29,3.29,0,0,1,1,.78c0-1-.06-2-.12-3.15a8.45,8.45,0,0,0-3.88-.27,6.08,6.08,0,0,1-2.86-.15,6,6,0,0,1-1.79-2.27,8.24,8.24,0,0,0-2.55-3.08,8.16,8.16,0,0,0-3.93-.86,6.1,6.1,0,0,1-2.82-.55,6,6,0,0,1-1.46-2.48,8.15,8.15,0,0,0-2.11-3.41,8.2,8.2,0,0,0-3.77-1.38,6.07,6.07,0,0,1-2.72-.93,6,6,0,0,1-1.11-2.65A8.21,8.21,0,0,0,30,160.59a8.22,8.22,0,0,0-3.55-1.87,6.06,6.06,0,0,1-2.57-1.29,5.94,5.94,0,0,1-.74-2.78A8.18,8.18,0,0,0,22,150.8a8.13,8.13,0,0,0-3.25-2.34,6.09,6.09,0,0,1-2.38-1.63A6,6,0,0,1,16,144a8.27,8.27,0,0,0-.59-4,8.23,8.23,0,0,0-2.9-2.75,6,6,0,0,1-2.14-1.94,6.06,6.06,0,0,1,0-2.87,8.16,8.16,0,0,0,0-4,8.21,8.21,0,0,0-2.49-3.13A6.17,6.17,0,0,1,6,123.08a6,6,0,0,1,.44-2.83,8.2,8.2,0,0,0,.51-4,8.16,8.16,0,0,0-2-3.43,6.05,6.05,0,0,1-1.53-2.45,6,6,0,0,1,.81-2.74,8.2,8.2,0,0,0,1-3.9,8.11,8.11,0,0,0-1.55-3.67,6,6,0,0,1-1.19-2.65,6,6,0,0,1,1.19-2.64,8.1,8.1,0,0,0,1.55-3.68,8.13,8.13,0,0,0-1-3.89,6,6,0,0,1-.81-2.74A6,6,0,0,1,4.94,82a8.2,8.2,0,0,0,2-3.44,8.16,8.16,0,0,0-.51-4A6.05,6.05,0,0,1,6,71.75a6.11,6.11,0,0,1,1.86-2.22,8.18,8.18,0,0,0,2.49-3.12,8.2,8.2,0,0,0,0-4,6.15,6.15,0,0,1,0-2.86,6,6,0,0,1,2.14-1.94,8.17,8.17,0,0,0,2.9-2.76,8.26,8.26,0,0,0,.59-4A5.93,5.93,0,0,1,16.36,48a5.89,5.89,0,0,1,2.38-1.63A8.17,8.17,0,0,0,22,44a8.17,8.17,0,0,0,1.12-3.86,6,6,0,0,1,.74-2.77,6.06,6.06,0,0,1,2.57-1.29A8.24,8.24,0,0,0,30,34.23a8.22,8.22,0,0,0,1.63-3.66,6,6,0,0,1,1.11-2.66A6,6,0,0,1,35.44,27a8.21,8.21,0,0,0,3.77-1.39,8.06,8.06,0,0,0,2.11-3.4,6.16,6.16,0,0,1,1.46-2.49,6,6,0,0,1,2.82-.54,8.23,8.23,0,0,0,3.93-.86,8.1,8.1,0,0,0,2.55-3.09A6,6,0,0,1,53.87,13a6.06,6.06,0,0,1,2.86-.16,8.23,8.23,0,0,0,4-.31,8.23,8.23,0,0,0,2.95-2.71,6,6,0,0,1,2.08-2A6,6,0,0,1,68.63,8a8.17,8.17,0,0,0,4,.24A8.12,8.12,0,0,0,75.93,6a6,6,0,0,1,2.34-1.69,6,6,0,0,1,2.79.62,8.28,8.28,0,0,0,4,.79,8.3,8.3,0,0,0,3.56-1.8,6.09,6.09,0,0,1,2.56-1.37,6.2,6.2,0,0,1,2.67,1,8.14,8.14,0,0,0,3.82,1.32,8.21,8.21,0,0,0,3.82-1.32,6.2,6.2,0,0,1,2.67-1,6.06,6.06,0,0,1,2.55,1.37,8.28,8.28,0,0,0,3.57,1.8,8.24,8.24,0,0,0,4-.79A6,6,0,0,1,117,4.29,6,6,0,0,1,119.32,6a8.19,8.19,0,0,0,3.29,2.28,8.21,8.21,0,0,0,4-.24,6,6,0,0,1,2.85-.24,6,6,0,0,1,2.08,2,8.31,8.31,0,0,0,2.95,2.71,8.23,8.23,0,0,0,4,.31,6.11,6.11,0,0,1,2.87.16,6.13,6.13,0,0,1,1.78,2.26,8.13,8.13,0,0,0,2.56,3.09,8.21,8.21,0,0,0,3.92.86,5.94,5.94,0,0,1,2.82.55,6,6,0,0,1,1.46,2.48A8.25,8.25,0,0,0,156,25.61,8.35,8.35,0,0,0,159.81,27a6,6,0,0,1,2.73.92,6,6,0,0,1,1.1,2.66,8.18,8.18,0,0,0,1.64,3.66,8.15,8.15,0,0,0,3.54,1.88,6.1,6.1,0,0,1,2.58,1.29,6,6,0,0,1,.74,2.78A8.17,8.17,0,0,0,173.26,44a8.13,8.13,0,0,0,3.25,2.34A6.09,6.09,0,0,1,178.89,48a6,6,0,0,1,.35,2.85,8.23,8.23,0,0,0,.59,4,8.2,8.2,0,0,0,2.91,2.76,6,6,0,0,1,2.13,1.94,5.9,5.9,0,0,1,0,2.86,8.32,8.32,0,0,0,0,4,8.21,8.21,0,0,0,2.5,3.12,6,6,0,0,1,1.85,2.22,6,6,0,0,1-.43,2.83,8.29,8.29,0,0,0-.52,4,8.3,8.3,0,0,0,2,3.44,5.92,5.92,0,0,1,1.54,2.45A6,6,0,0,1,191,87.2,8.24,8.24,0,0,0,190,91.09a8.22,8.22,0,0,0,1.55,3.68,6,6,0,0,1,1.19,2.64,6,6,0,0,1-1.19,2.65,8.23,8.23,0,0,0-1.55,3.67,8.31,8.31,0,0,0,1.05,3.9,6,6,0,0,1,.82,2.74,6,6,0,0,1-1.54,2.45,8.27,8.27,0,0,0-2,3.43,8.33,8.33,0,0,0,.52,4,6,6,0,0,1,.43,2.83,6,6,0,0,1-1.85,2.21,8.22,8.22,0,0,0-2.5,3.13,8.28,8.28,0,0,0,0,4,5.94,5.94,0,0,1,0,2.87,6.09,6.09,0,0,1-2.13,1.94,8.12,8.12,0,0,0-2.91,2.76,8.23,8.23,0,0,0-.59,4,6,6,0,0,1-.35,2.85,6.09,6.09,0,0,1-2.38,1.63,8.13,8.13,0,0,0-3.25,2.34,8.29,8.29,0,0,0-1.13,3.85,6.06,6.06,0,0,1-.73,2.78,6.1,6.1,0,0,1-2.58,1.29,8,8,0,0,0-3.54,1.88,8.18,8.18,0,0,0-1.64,3.66,5.92,5.92,0,0,1-1.11,2.65,5.84,5.84,0,0,1-2.72.93,6.14,6.14,0,0,0-5.88,4.79,6,6,0,0,1-1.46,2.48,6.07,6.07,0,0,1-2.82.55,6.17,6.17,0,0,0-6.48,3.94,6,6,0,0,1-1.79,2.27,6,6,0,0,1-2.86.15,8.24,8.24,0,0,0-4,.32,8,8,0,0,0-2.87,2.61c.42.52,1,1.21,1.62,2l.29-.37a6.57,6.57,0,0,1,2-2,6.62,6.62,0,0,1,2.79-.11,5.82,5.82,0,0,0,7.05-3.67,6.48,6.48,0,0,1,1.68-2.2,6.52,6.52,0,0,1,2.74-.49,7.86,7.86,0,0,0,4.15-1,7.78,7.78,0,0,0,2.34-3.58,6.64,6.64,0,0,1,1.37-2.42,6.56,6.56,0,0,1,2.65-.85,5.82,5.82,0,0,0,5.8-5.43,3.86,3.86,0,0,1,3.54-3.79,7.75,7.75,0,0,0,3.73-2.08,7.83,7.83,0,0,0,1.29-4.07,6.51,6.51,0,0,1,.67-2.7,6.73,6.73,0,0,1,2.32-1.54,7.73,7.73,0,0,0,3.41-2.57,7.56,7.56,0,0,0,.72-4.21,6.64,6.64,0,0,1,.31-2.77,6.49,6.49,0,0,1,2.08-1.83,7.78,7.78,0,0,0,3-3,7.61,7.61,0,0,0,.14-4.26,6.49,6.49,0,0,1-.07-2.79,6.56,6.56,0,0,1,1.8-2.1,7.77,7.77,0,0,0,2.6-3.41,7.6,7.6,0,0,0-.45-4.23,6.6,6.6,0,0,1-.46-2.76,6.63,6.63,0,0,1,1.5-2.32,7.89,7.89,0,0,0,2.11-3.74,7.66,7.66,0,0,0-1-4.13A6.67,6.67,0,0,1,192.5,103.9Z"/><path class="cls-1" d="M116.37,181.71a138.55,138.55,0,0,1,16.57,24.52s-3.93-1.86-10.87-1.84c-9.28,0-11,2.58-18.08,3.43-5.68.69-7.25-1.17-7.09-2.91.34-2.41,6.52-1.57,7.31-1.65a1.25,1.25,0,0,0,1.24-1.25c0-.67-.46-1.16-1.37-1.46-.65-.21-2.06-.69-6.24-.4h0c-5.42.27-13.27,1.54-25.13,5.89a.57.57,0,0,0,0-.13c.42-4.13.74-9.32.75-15.59,0-11.37-.83-19.92-2.45-24.53A12,12,0,0,0,68.25,161c6.57-2.56,18.88-6.71,28.54-6.71a9,9,0,0,1,8.82,6.5c.1.28.2.59.29.91,1.09,3.84,1.64,10.25,1.64,18.54,0,3.16-.11,6-.27,8.45a94.8,94.8,0,0,0,.67-27.5c2.14-.7,4.11-1.46,6.92-2.24,11.7-3,18.08-2.21,18.08-2.21C123.24,167.6,116.37,181.71,116.37,181.71ZM101.55,185a6.29,6.29,0,0,0-1.31-4.15,6.1,6.1,0,0,0-3.56-2.05,5.69,5.69,0,0,0,3-2.13,6,6,0,0,0,1.12-3.62,6.33,6.33,0,0,0-2.85-5.7q-2.85-1.86-9-1.86a42.15,42.15,0,0,0-4.61.27,39.09,39.09,0,0,0-4.41.72v25.9c1.17.17,2.49.31,4,.41s2.78.15,3.91.15a27.8,27.8,0,0,0,8-.92,8.39,8.39,0,0,0,4.38-2.67A6.89,6.89,0,0,0,101.55,185Zm-8.2-9.34a2.59,2.59,0,0,0,1-2.23,3,3,0,0,0-.44-1.7,2.54,2.54,0,0,0-1.39-.94,8.58,8.58,0,0,0-2.59-.31,17.1,17.1,0,0,0-3.18.29v5.6h3.33A5.71,5.71,0,0,0,93.35,175.68Zm.76,6.61a6.12,6.12,0,0,0-3.47-.76H86.73v6.3c.91.08,1.91.12,3,.12a12.06,12.06,0,0,0,3.23-.34,3,3,0,0,0,1.68-1,3,3,0,0,0,.5-1.84A2.81,2.81,0,0,0,94.11,182.29Z"/><path d="M120.81,110.64h-6.15V84.32h6.15Zm2.27,6.44h-6.14V143.4h6.14Zm-66,5.51H68.3v-5.51H51V143.4h6.15v-9.94h9.52V128H57.11ZM54.9,100.27l6.42,10.37H54.66l-5.6-9.21c-.32,0-.76,0-1.31,0l-.82,0v9.28h-6V85a32.58,32.58,0,0,1,3.8-.71,30.63,30.63,0,0,1,4-.27q5.3,0,8,2.15c1.77,1.42,2.65,3.61,2.65,6.55a8.75,8.75,0,0,1-1.13,4.64A7.45,7.45,0,0,1,54.9,100.27Zm-1.33-7.59a3.55,3.55,0,0,0-1-2.83,4.74,4.74,0,0,0-3.17-.91,12.07,12.07,0,0,0-2.43.24v7.07a17,17,0,0,0,2.35.16,5,5,0,0,0,3.24-.88A3.5,3.5,0,0,0,53.57,92.68Zm27.29,12.55H69.42V99.9h9.63V94.49H69.42V89.73H80.7V84.32H63.35v26.32H80.86Zm57.83,38.17V122.72H146v-5.64H125.21v5.64h7.32V143.4ZM99.86,106.78,105,93.25v17.39h5.73V84.32h-7.51L97.47,99.76l-6-15.44H84v26.32h5.73V93.82l5.17,13Zm-80.52-22A35.75,35.75,0,0,1,26.91,84c3.7,0,6.46.79,8.27,2.35s2.72,4,2.72,7.35c0,3.18-.88,5.6-2.65,7.23s-4.36,2.46-7.78,2.46c-.32,0-.76,0-1.32,0l-.67,0v7.33H19.34Zm6.14,13.35a15.35,15.35,0,0,0,2.05.15,4.56,4.56,0,0,0,3.36-1.07A4.86,4.86,0,0,0,32,93.73a5,5,0,0,0-1.08-3.57,4.55,4.55,0,0,0-3.39-1.11,10.23,10.23,0,0,0-2,.16ZM175.85,84.32h-7.5l-5.78,15.44-6-15.44h-7.51v26.32h5.73V93.82l5.17,13h5l5.17-13.53v17.39h5.73ZM135,111q5.3,0,7.8-2.87t2.49-8.73V84.32h-6V100a6.46,6.46,0,0,1-1.06,4.1,4.66,4.66,0,0,1-6.44,0,6.39,6.39,0,0,1-1.07-4.1V84.32h-6.14V99.4q0,5.89,2.52,8.74T135,111ZM102.9,143.76q5.3,0,7.8-2.87t2.49-8.73V117.08h-6V132.8a6.46,6.46,0,0,1-1.06,4.1,4.66,4.66,0,0,1-6.44,0,6.39,6.39,0,0,1-1.07-4.1V117.08H92.47v15.08q0,5.9,2.52,8.74T102.9,143.76Zm-26-.36h-6V117.72A32.38,32.38,0,0,1,74.7,117a30.51,30.51,0,0,1,4-.27q5.3,0,8,2.15c1.77,1.42,2.66,3.61,2.66,6.55a8.84,8.84,0,0,1-1.13,4.64A7.5,7.5,0,0,1,84.9,133l6.41,10.37H84.66l-5.61-9.21c-.32,0-.75,0-1.31,0l-.82,0Zm0-14.39a17.12,17.12,0,0,0,2.36.16,4.94,4.94,0,0,0,3.23-.88,3.51,3.51,0,0,0,1.06-2.85,3.58,3.58,0,0,0-1-2.83,4.76,4.76,0,0,0-3.17-.91,12.09,12.09,0,0,0-2.44.24Z"/><path d="M171.17,120.07h-1.66a74.76,74.76,0,0,1-24.95,38c-.83,1-2.26,2.7-4,5A76.51,76.51,0,0,0,171.17,120.07Z"/><path d="M83.21,27.12l5.72,5.74-4.31,1-5-5.11-.85.18-.54.1,1.41,6L75.71,36,71.83,19.33a23.6,23.6,0,0,1,2.35-1,20.31,20.31,0,0,1,2.54-.77,8.3,8.3,0,0,1,5.47.18,5.28,5.28,0,0,1,2.72,3.84,5.85,5.85,0,0,1,0,3.17A5,5,0,0,1,83.21,27.12Zm-2-4.71a2.36,2.36,0,0,0-1.1-1.67,3.09,3.09,0,0,0-2.19-.11,8.2,8.2,0,0,0-1.54.52l1.07,4.58A11.39,11.39,0,0,0,79,25.47a3.3,3.3,0,0,0,2-1.06A2.34,2.34,0,0,0,81.2,22.41Zm30,11.91,5-4.7,1.78,6.62,4.32,1.22-2.88-10.34,7.15-6.63-4.22-1.19L118,23.35l-1.56-5.72-4.34-1.23,2.68,9.47-7.58,7,0,.35ZM66.48,20.78,56.07,25.73l7.52,15.8,10.5-5-1.54-3.25-6.87,3.27-1.52-3.2,5.78-2.75L68.4,27.35l-5.78,2.76-1.36-2.86L68,24ZM157.7,74.32l12.63-5.44,1.92,4.47,3.44-1.48-5.46-12.69-3.44,1.48,1.92,4.46-12.63,5.44ZM108,19.49l.24-3.58L96.7,15.14,95.55,32.6l11.61.76v-.17l-.27-.08.29-.27.21-3.06-7.59-.5.23-3.54,6.39.42.24-3.58-6.39-.42.21-3.17ZM55.1,34.58a3.34,3.34,0,0,1-.56,2.18A3.57,3.57,0,0,1,57,36.55a4.35,4.35,0,0,1,2.25,1.69A4.83,4.83,0,0,1,60.37,41a4.94,4.94,0,0,1-1,3A14.77,14.77,0,0,1,56,47.25q-.8.61-1.89,1.32c-.73.48-1.4.88-2,1.21L41.84,36.34a24.19,24.19,0,0,1,3.82-3.74q2.87-2.19,4.93-2.24a4.31,4.31,0,0,1,3.6,1.93A4.23,4.23,0,0,1,55.1,34.58Zm-3.36,1.74a1.8,1.8,0,0,0-.43-1.51,2.13,2.13,0,0,0-.88-.72,1.51,1.51,0,0,0-1,0,4.89,4.89,0,0,0-1.33.77,9.79,9.79,0,0,0-1.37,1.29l2.23,2.91,1.55-1.19A3.16,3.16,0,0,0,51.74,36.32Zm1,4L51,41.72,53.47,45a16.49,16.49,0,0,0,1.46-1,6.23,6.23,0,0,0,1.37-1.33,1.74,1.74,0,0,0,.37-1.14,2.17,2.17,0,0,0-.49-1.13,1.93,1.93,0,0,0-1.46-.89A3.29,3.29,0,0,0,52.79,40.32Zm-18,2.7,16.57,7.42-2.55,3.08-4.05-1.88-3.52,4.24,2.6,3.63-2.53,3L30.94,47.62Zm.13,4,4.17,5.82,2.33-2.8Zm-3.41,12a3.37,3.37,0,0,1,.44,2.21A3.55,3.55,0,0,1,34.06,60a4.54,4.54,0,0,1,2.77.54,4.83,4.83,0,0,1,2.17,2,5,5,0,0,1,.4,3.08,15.13,15.13,0,0,1-1.57,4.45c-.3.59-.68,1.26-1.13,2s-.88,1.4-1.29,2L20.3,66.44a23.07,23.07,0,0,1,1.82-5q1.62-3.21,3.46-4.16a4.31,4.31,0,0,1,4.08.18A4.21,4.21,0,0,1,31.48,59.09Zm-2.28,3a1.76,1.76,0,0,0-1-1.17,2.22,2.22,0,0,0-1.1-.27,1.54,1.54,0,0,0-.92.45,4.79,4.79,0,0,0-.87,1.27,9.54,9.54,0,0,0-.67,1.76l3.27,1.65.88-1.75A3.06,3.06,0,0,0,29.2,62.12Zm1.66,5.2,3.67,1.85c.29-.45.58-1,.88-1.54a6.32,6.32,0,0,0,.65-1.8,1.7,1.7,0,0,0-.16-1.19,2.12,2.12,0,0,0-.94-.8,1.92,1.92,0,0,0-1.7-.17,3.3,3.3,0,0,0-1.36,1.6Zm108.7-38.67c.57,1.48.32,3.2-.73,5.15A6.21,6.21,0,0,1,135,37.19a7.36,7.36,0,0,1-5.33-1l-.76-.44-.39-.22-2.31,4.29-3.59-1.95,8.15-15.09a23.12,23.12,0,0,1,4.69,1.9C137.63,25.83,139,27.16,139.56,28.65Zm-3.73.87a3,3,0,0,0-1.63-1.72,6.53,6.53,0,0,0-1.22-.53l-2.83,5.24a10.32,10.32,0,0,0,1.15.73,3.08,3.08,0,0,0,2.3.44A3.23,3.23,0,0,0,135.33,32,3.3,3.3,0,0,0,135.83,29.52Zm28.69,20.55a8.37,8.37,0,0,1,1.85,5.16,5.26,5.26,0,0,1-2.57,3.93,5.83,5.83,0,0,1-3,1.14,5,5,0,0,1-2.85-.66l-3.23,7.43-2.52-3.63,2.91-6.55-.48-.73c-.13-.21-.22-.36-.29-.46l-5.07,3.51L147,55.92l14-9.73a22.74,22.74,0,0,1,3.49,3.88Zm-1.75,4.32a3.15,3.15,0,0,0-.7-2.07,8.48,8.48,0,0,0-1-1.24l-3.87,2.68a13,13,0,0,0,.81,1.35,3.32,3.32,0,0,0,1.7,1.43,2.92,2.92,0,0,0,3.11-2.15Zm-8.32-14.74a6.63,6.63,0,0,1,0,4A11.71,11.71,0,0,1,151.86,48a11.71,11.71,0,0,1-4,3.07,6.65,6.65,0,0,1-4,.46,8.85,8.85,0,0,1-6.13-5.46,6.6,6.6,0,0,1,0-4,11.6,11.6,0,0,1,2.59-4.34,11.61,11.61,0,0,1,4-3.07,6.64,6.64,0,0,1,4-.47,8.89,8.89,0,0,1,6.13,5.47Zm-4.82-.77a3.06,3.06,0,0,0-2.81-.82,6.93,6.93,0,0,0-3.34,2.38,7.39,7.39,0,0,0-2.08,3.69,3.38,3.38,0,0,0,3.95,3.54,6.9,6.9,0,0,0,3.33-2.37,7.32,7.32,0,0,0,2.07-3.69A3,3,0,0,0,149.63,38.88Z"/><path d="M60.67,67.5l-1.3-3.16-1.3,3.16-3.39.25L57.27,70l-.8,3.31,2.9-1.78,2.9,1.78L61.47,70l2.6-2.21Zm60.8-3.41L119.37,59l-2.1,5.12-5.52.42L116,68.09l-1.31,5.38,4.71-2.91,4.71,2.91-1.31-5.38L127,64.51Zm-37.3-5.65,7.45,6.32-2.31,9.49,8.32-5.12,8.31,5.12-2.31-9.49,7.45-6.32-9.74-.74-3.71-9-3.72,9Zm53,9.06-1.3-3.16-1.3,3.16-3.4.25,2.6,2.21-.8,3.31,2.9-1.78,2.9,1.78L138,70l2.6-2.21ZM78,64.09,75.88,59l-2.1,5.12-5.52.42,4.22,3.58-1.31,5.38,4.71-2.91,4.71,2.91-1.31-5.38,4.22-3.58Z"/></g></g></svg>