<svg xmlns="http://www.w3.org/2000/svg" viewBox="0 0 215.28 222.34"><defs><style>.cls-1,.cls-3{fill:none;stroke-miterlimit:10;}.cls-1{stroke:#d52b1e;stroke-width:4.13px;}.cls-2{fill:#d52b1e;}.cls-3{stroke:#000;stroke-width:4.13px;}</style></defs><g id="Capa_2" data-name="Capa 2"><g id="Capa_7" data-name="Capa 7"><polyline class="cls-1" points="194.44 1.55 212.65 23.82 194.44 47.6"/><path class="cls-1" d="M49.63,195.22c0-101,61.07-171.4,163-171.4"/><circle class="cls-2" cx="49.63" cy="208.69" r="13.65"/><polyline class="cls-3" points="43.05 170.44 2.06 170.44 2.06 2.06 170.44 2.06 170.44 17.32"/><polyline class="cls-3" points="170.44 39.76 170.44 170.44 58.81 170.44"/><polyline class="cls-3" points="1.5 23.07 22.87 23.07 22.87 44.12 43.59 44.12 43.59 65.17 22.87 65.17 22.87 86.21"/><polyline class="cls-3" points="43.59 2.06 43.59 23.07 64.92 23.07 64.92 97.79"/><polyline class="cls-3" points="65.2 86.25 43.88 86.25 43.88 107.26 22.87 107.26 22.87 128.31 52.33 128.31"/><line class="cls-3" x1="22.87" y1="149.35" x2="45.4" y2="149.35"/><polyline class="cls-3" points="106.73 149.79 106.73 128.31 85.97 128.31 85.97 107.26 85.97 107.26"/><polyline class="cls-3" points="170.44 128.53 127.78 128.53 127.78 107.26 106.73 107.26 106.73 86.25"/><polyline class="cls-3" points="92.61 86.25 128.06 86.25 128.06 53.31"/><polyline class="cls-3" points="85.69 20.74 85.69 44.12 113.48 44.12"/><polyline class="cls-3" points="106.73 2.06 106.73 23.07 148.82 23.07"/><polyline class="cls-3" points="170.44 65.19 149.11 65.19 149.11 107.26"/><polyline class="cls-3" points="149.11 149.35 64.64 149.35 61.74 149.35"/><line class="cls-3" x1="64.64" y1="65.19" x2="87.73" y2="65.19"/><line class="cls-3" x1="86.17" y1="149.35" x2="86.17" y2="171.88"/></g></g></svg>