<svg xmlns="http://www.w3.org/2000/svg" viewBox="0 0 526.7 522.99"><defs><style>.cls-1{fill:#fff;}.cls-2{fill:#d52b1e;}.cls-3{fill:#0000d4;}.cls-4{fill:none;stroke:#000;stroke-miterlimit:10;stroke-width:0.5px;}</style></defs><g id="Capa_2" data-name="Capa 2"><g id="Capa_1-2" data-name="Capa 1"><path class="cls-1" d="M526.7,523H55.65A55.65,55.65,0,0,1,0,467.34V0H471.05c30.74,0,55.65,21.2,55.65,51.93Z"/><path class="cls-1" d="M242.47,342.28a1.53,1.53,0,0,0-.07.55c0,.39.29.6.34.18s-.07-1.37-.27-.73"/><path d="M248.84,147.76a1,1,0,0,1,.58.28.87.87,0,0,1,.32.56.28.28,0,0,1,0,.08l0,0-.09.06-.29.09-.06,0h-.05L249,149c-.2.05-.42.12-.66.2a1.58,1.58,0,0,0-.78.52,1.33,1.33,0,0,0-.26.81,2.33,2.33,0,0,0,.25,1,6.75,6.75,0,0,0,.51.84.54.54,0,0,1,.13.29.92.92,0,0,1-.09.32l0,.09a2.65,2.65,0,0,0-.19,1,.92.92,0,0,1-.24.52l-.16.21a3.81,3.81,0,0,0-.47.69,2,2,0,0,0-.24.94,1.71,1.71,0,0,0,.43,1.19,2.74,2.74,0,0,0,.45.41l.13.1.06,0h0a1.17,1.17,0,0,0,.54.64,1.74,1.74,0,0,0,.79.17,4.05,4.05,0,0,0,.72-.08,1.49,1.49,0,0,0,.71-.35,1.55,1.55,0,0,0,.42-.6,3.65,3.65,0,0,0,.21-1.37,3,3,0,0,0-.67-1.67c-.11-.17-.24-.33-.36-.49a5.29,5.29,0,0,1-.44-.63.29.29,0,0,1,0-.17,1.48,1.48,0,0,1,.37-.88s.06-.06,0-.06h0c.09,0,.25-.12.47-.23s.4-.21.65-.32a4.6,4.6,0,0,1,1.56-.44,1.44,1.44,0,0,0,.93-.32,1,1,0,0,0,.35-.78,2.07,2.07,0,0,0-.21-.83c-.06-.14-.14-.29-.21-.42l-.08-.17a.19.19,0,0,1,0-.12.14.14,0,0,1,0-.1.34.34,0,0,1,.17-.06.11.11,0,0,1,0,.05,4.57,4.57,0,0,1,.33,1,2.21,2.21,0,0,0,.26.6,1.23,1.23,0,0,0,.42.4,1.87,1.87,0,0,0,1,.21h.5a4.71,4.71,0,0,1,.59,0,2.34,2.34,0,0,1,1.18.39,4.37,4.37,0,0,1,1,1.19l.27.43c.08.14.15.25.21.34a1.51,1.51,0,0,0,.57.52,2.46,2.46,0,0,0,.5.16l.43.09.51.11a4.08,4.08,0,0,0,.8.09h0a1.51,1.51,0,0,0,1-.35,1.55,1.55,0,0,0,.25-.26.52.52,0,0,1,.15-.14c.2,0,.51,0,.85,0a4.29,4.29,0,0,1,1,.1,1.12,1.12,0,0,1,.59.27,3.1,3.1,0,0,0,1,.8,8.41,8.41,0,0,0,1,.38l.27.09a3.66,3.66,0,0,0,1.11.16,5.51,5.51,0,0,0,1.78-.31,3.58,3.58,0,0,0,1.47-.9,1.33,1.33,0,0,1,.61-.39,2.51,2.51,0,0,1,.76-.09h.71a5.84,5.84,0,0,0,1.26-.14l.16,0,.42-.08-.06.17a2.67,2.67,0,0,0-.07.45v.14a1.07,1.07,0,0,0,.23.68,1,1,0,0,0,.54.31l.36.05.14,0v.05a1.67,1.67,0,0,0,.1.57.93.93,0,0,0,.34.49.89.89,0,0,0,.5.15,2.35,2.35,0,0,0,.67-.14,2.14,2.14,0,0,1,.59-.1,1.47,1.47,0,0,1,.36,0,7.4,7.4,0,0,1,1,.33l.07,0a2.25,2.25,0,0,0,.9.19,1.09,1.09,0,0,1,.92.48,1.44,1.44,0,0,0-.31.3,1.24,1.24,0,0,0-.22.57.15.15,0,0,1-.05.11l-.08.08a1.58,1.58,0,0,0-.31.36,1.21,1.21,0,0,0-.15.55l-.16.09-.1,0a1.38,1.38,0,0,0-.29.22.77.77,0,0,0-.07,1l0,.07.06.07a1.18,1.18,0,0,0,.89.44,1.6,1.6,0,0,0,.8-.26c.16-.09.34-.22.55-.37l.13-.09a1,1,0,0,1,.61-.16,5.87,5.87,0,0,1,1,.14l.55.1h.05l.13,0v0h0l.06,0h0l.08,0a2.16,2.16,0,0,1,.75.32l.41.29c.21.15.44.32.73.51l.53.33.85.53a6.42,6.42,0,0,1,1.13.89.67.67,0,0,1,.17.27h0a6.24,6.24,0,0,0,.06,1,1.89,1.89,0,0,0,.42,1,1.08,1.08,0,0,0,.75.31.88.88,0,0,1,.5.28,5.92,5.92,0,0,1,.75.83,5.28,5.28,0,0,0,2.66,1.88,8.7,8.7,0,0,0,1.09.25,13.26,13.26,0,0,1,1.38.26l.15,0a1.91,1.91,0,0,0,.51.1h.07l.13,0,.12,0a1.77,1.77,0,0,0,.23-.12,1.65,1.65,0,0,1,.88-.29,1.86,1.86,0,0,1,.45.06,4.1,4.1,0,0,0,.95.18h0a1.12,1.12,0,0,0,.47-.11,2.72,2.72,0,0,0,.37-.22.47.47,0,0,1,.25,0,5.24,5.24,0,0,1,.84.11l.72.11a3.22,3.22,0,0,1,.83.26l.06,0,.25.11.06,0,0,0,.46.21c.28.14.55.27.81.38a3.77,3.77,0,0,0,1.4.37h0a.9.9,0,0,1,.36.06,1.09,1.09,0,0,1,.29.18l.17.14a5.47,5.47,0,0,0,1,.73,1.6,1.6,0,0,1,.6.66l0,.06a3.2,3.2,0,0,0,.88,1.06,3.29,3.29,0,0,0,1.27.56,2.83,2.83,0,0,1,.53.15h.06l.05,0,.14,0,.08,0a1,1,0,0,1,.24.15.31.31,0,0,1,.12.14,1.62,1.62,0,0,1,.07.38c0,.13,0,.26.05.38.05.27.18.68.35,1.24l.23.76a20.73,20.73,0,0,1,.67,2.76,3.44,3.44,0,0,0,.42,1.28,1.91,1.91,0,0,0,.74.7,3.3,3.3,0,0,0,.9.25l.4.07a.75.75,0,0,1,.57.68.8.8,0,0,1,0,.26c-.24.59-.43,1-.86,1.9l-.31.64a2.64,2.64,0,0,1-1,1.17,6.55,6.55,0,0,1-1.06.51l-.41.18a1.86,1.86,0,0,0-.83.67,1.63,1.63,0,0,0-.26.89,1.81,1.81,0,0,0,.26.93,1.45,1.45,0,0,0,.72.63l0,.08,0,.1a1.44,1.44,0,0,0,.35.61,1,1,0,0,0,.75.28,1,1,0,0,0,.72-.33,1.45,1.45,0,0,0,.31-.62,4.92,4.92,0,0,0,.11-1.25v-.51a.29.29,0,0,1,0-.14.47.47,0,0,1,.12-.14l.23-.18a3.44,3.44,0,0,0,.47-.4,1.61,1.61,0,0,0,.39-.81.93.93,0,0,1,.05-.2l.36.12a.86.86,0,0,1,.41.33,1.35,1.35,0,0,1,.19.4,2,2,0,0,0,.28.65,2.93,2.93,0,0,0,.43.56l.19.17a.82.82,0,0,0,.45.14l.2,0a.81.81,0,0,0,.49-.38l.05,0a2.53,2.53,0,0,1,.65-.06c.25,0,.52,0,.8,0a.54.54,0,0,1,.34.11.4.4,0,0,1,.07.25,1.43,1.43,0,0,1-.15.59,5.56,5.56,0,0,1-.89,1.29,4.78,4.78,0,0,1-1.15,1,1.37,1.37,0,0,0-.57.62,1.69,1.69,0,0,0-.15.72,1.81,1.81,0,0,0,.14.72,1,1,0,0,0,.77.68h.08a1,1,0,0,0,.34-.07.76.76,0,0,0,.19-.12l.05,0,.08-.08a3.45,3.45,0,0,1,.47-.4l.3-.22.45-.34a3.89,3.89,0,0,0,1.38-1.56,3.57,3.57,0,0,1,1-1.47.76.76,0,0,1,.15-.09h0c.15,0,.45.07.57.09l.78.18.25.05a10.58,10.58,0,0,0,2.14.35h.24a.45.45,0,0,1,.35.16l.16.15a3.18,3.18,0,0,0,.52.42,1.69,1.69,0,0,0,.85.23,3.48,3.48,0,0,1,1.22.39l.16.07a5,5,0,0,0,2,.57.82.82,0,0,1,.39.07.63.63,0,0,1,.2.22q.11.15.21.33a6.14,6.14,0,0,0,.75,1.09,1,1,0,0,1,.16.24.77.77,0,0,1-.12.13l-.18.15a3.92,3.92,0,0,0-.42.4,1.3,1.3,0,0,0-.32.75v.12a1.12,1.12,0,0,0,.34.84,1.1,1.1,0,0,0,1.41.1,1.1,1.1,0,0,0,.42-.64,4.64,4.64,0,0,1,.12-.45l0-.07.6-.1.21,0c.41-.07.88-.15,1.18-.22a2.65,2.65,0,0,1,.59.12c.24.07.54.18.91.32l1,.41.56.23a2.26,2.26,0,0,0,.54.14l.08,0a.52.52,0,0,1,.2.08,2.31,2.31,0,0,1,.29.28,1.12,1.12,0,0,0,.87.37,3.36,3.36,0,0,0,1.19-.33l.16-.06a3.85,3.85,0,0,1,1.44-.32h.11a4.66,4.66,0,0,1,1.53.52,23.8,23.8,0,0,1,2.34,1.36,40.85,40.85,0,0,1,4.91,3.79,6.6,6.6,0,0,0,4.48,2.05,7.17,7.17,0,0,0,1.38-.15l.35-.06h.08a1.34,1.34,0,0,1,.89.5,2.55,2.55,0,0,1,.6,1q.07.28.15.69c.07.33.14.71.25,1.13a11.54,11.54,0,0,0,1.05,2.79,2.18,2.18,0,0,1,.31,1,2.68,2.68,0,0,1-.35,1.15,4.73,4.73,0,0,0-.54,1.7,6,6,0,0,1-.91,2.37,12.35,12.35,0,0,1-1.8,2.29,11.42,11.42,0,0,0-1.24,1.53l0,0a5.51,5.51,0,0,1-.91,1.09,1.24,1.24,0,0,1-.61.27,1.85,1.85,0,0,0-1.32.84,3.27,3.27,0,0,0-.31.66c0,.09-.07.19-.12.28a.46.46,0,0,1-.15.22,2.6,2.6,0,0,0-.68.76,8.62,8.62,0,0,0-.54,1c-.29.64-.57,1.35-.81,2l-.11.27a1.2,1.2,0,0,1-.47.64,1.08,1.08,0,0,1-.59.15,2.6,2.6,0,0,1-.68-.1l-.08,0a.52.52,0,0,0-.17,0,.77.77,0,0,0-.74,1,1,1,0,0,0-.1.17,4.76,4.76,0,0,0-.25.6l-.05.15a4.57,4.57,0,0,1-.42,1,1.51,1.51,0,0,0-.28.85,2,2,0,0,0,.19.77l0,.08a4.55,4.55,0,0,1,.2.53,1,1,0,0,1,0,.28,1.89,1.89,0,0,1-.14.56,4.51,4.51,0,0,0-.28,1.07,4.37,4.37,0,0,0-.06.72,12.27,12.27,0,0,0,.59,3.12,2.09,2.09,0,0,1,.07.53,1.86,1.86,0,0,1-.35,1l-.06.08a3.27,3.27,0,0,0-.56,1.33,4.16,4.16,0,0,0,0,.54c0,.25,0,.53,0,.83s0,.62,0,.93a3.68,3.68,0,0,1-.1,1,.76.76,0,0,1-.27.44,2.86,2.86,0,0,0-1.21,1.79,9.4,9.4,0,0,0-.23,2.37,10.19,10.19,0,0,1,0,1.25.49.49,0,0,1-.08.24,1.41,1.41,0,0,1-.23.18,2.46,2.46,0,0,0-.78,1,10.69,10.69,0,0,0-.49,1.24l0,.1a5.3,5.3,0,0,1-1.94,2.68,2,2,0,0,0-.69.89,2.57,2.57,0,0,0-.15.92c0,.17,0,.35,0,.53s0,.29,0,.44a1.48,1.48,0,0,1,0,.33.54.54,0,0,1-.11.18l-.1.1a5,5,0,0,0-.9,1,4.26,4.26,0,0,0-.49,1.78.25.25,0,0,1-.07.12,1,1,0,0,1-.39.18,6.27,6.27,0,0,1-1.59.16c-.39,0-.78,0-1.13,0l-.77,0a3.3,3.3,0,0,0-.51,0l-.11,0-.42.07a.82.82,0,0,0-.3-.47.8.8,0,0,0-.47-.15.92.92,0,0,0-.28.05,1.13,1.13,0,0,0-.22.11,3.94,3.94,0,0,0-.5.33,4.65,4.65,0,0,0-.86.86,1,1,0,0,1-.56.34,3.8,3.8,0,0,1-.51.14l-.71.2a1.12,1.12,0,0,0-.68.51,1.24,1.24,0,0,0-.17.67v.15l-.14-.05-.06,0a2.68,2.68,0,0,0-.87-.2h0a1,1,0,0,0-.44.09.57.57,0,0,0-.18.12l-.06.05a.65.65,0,0,0-.13.16,1,1,0,0,1-.44.31,9.86,9.86,0,0,1-1,.37l-.34.12c-.31.11-.52.18-.71.23a1.33,1.33,0,0,0-.49.22,1.11,1.11,0,0,0-.26.28,1.39,1.39,0,0,0-.11.19l-.13.21a.4.4,0,0,1-.15.13,3,3,0,0,1-.42.17l-.15.06a4.49,4.49,0,0,0-1.13.5,2.06,2.06,0,0,0-.76.9l-.17.4-.24.54a.66.66,0,0,1-.17.25s0,0-.13,0h-.11l-.16,0-.41,0h-.12a.79.79,0,0,0-.71.76,2.85,2.85,0,0,0,.13.72l0,.19c0,.12.05.22.06.27h0l-.15.18L324,275a2.35,2.35,0,0,0-.37.59,1.29,1.29,0,0,0-.11.55,1.89,1.89,0,0,0,0,.32c0,.12,0,.27,0,.45a5.13,5.13,0,0,1-.05.65,4.62,4.62,0,0,0-.07.79,2.73,2.73,0,0,0,.3,1.3c.08.17.18.33.29.52s.18.3.28.47a.68.68,0,0,1,.09.28.41.41,0,0,1,0,.16l-.1.21-.07.14a2.91,2.91,0,0,0-.32,1.37,1.76,1.76,0,0,1-.56,1.06,10.4,10.4,0,0,1-.95.93l-.29.26a3.47,3.47,0,0,0-.69.77,8.85,8.85,0,0,1-.64.8c-.17.19-.34.4-.51.61a5.3,5.3,0,0,0-1.21,2.15,8.22,8.22,0,0,1-.72,1.82,1.21,1.21,0,0,0-.05-.18.56.56,0,0,0-.09-.17l0-.06a.53.53,0,0,0-.12-.14,1.16,1.16,0,0,0-.78-.25h0a4.44,4.44,0,0,0-.76.09,2.26,2.26,0,0,0-.63.19,1,1,0,0,0-.44.46,2.72,2.72,0,0,0-.22.75c0,.16-.07.35-.12.58a1.29,1.29,0,0,1-.32.56,3.28,3.28,0,0,1-.63.53l-.48.32a4.37,4.37,0,0,0-1,.77,3.19,3.19,0,0,0-.76,2.22q0,.3,0,.63v.09a1.93,1.93,0,0,1-.28.88l0,.09a4.08,4.08,0,0,0-.49,1.74,2.52,2.52,0,0,1-.9,1.51c-.31.33-.68.64-1,1s-.55.49-.79.72l-.17.16-.05,0-.46.47a12.84,12.84,0,0,1-3,2.51,2.31,2.31,0,0,1-1.06.32,2,2,0,0,1-.51-.07l-.13,0-.61-.13a4.47,4.47,0,0,0-.71,0,4.89,4.89,0,0,0-.54,0c-.17,0-.38,0-.67,0h-.41a4.34,4.34,0,0,1-2.12-.59,4.27,4.27,0,0,0-.9-.41,3.51,3.51,0,0,0-1-.11,5.93,5.93,0,0,1-1.33-.11h-.11l-.13,0-.06,0h-.07l-.05,0-.18,0a3.05,3.05,0,0,0-1-.19,1.25,1.25,0,0,0-.86.3,1.38,1.38,0,0,0-.45.83,1.8,1.8,0,0,0,0,.27.93.93,0,0,0,.13.48,1,1,0,0,0,.22.24l.11.08a1.58,1.58,0,0,0,.72.13h.83a1.77,1.77,0,0,1,.86.45l.5.44.55.47a.89.89,0,0,1,.42.62.85.85,0,0,1-.22.48l-.15.19-.08.1a1,1,0,0,0-.21.34.76.76,0,0,0,0,.42s0,.06,0,.08l0,.07.05.13,0,.06c0,.12.11.3.18.58a1.78,1.78,0,0,0,1,1.19,3,3,0,0,0,.54.2,2.74,2.74,0,0,1,.38.15.21.21,0,0,1,.11.08.77.77,0,0,1,.06.33,4,4,0,0,1-.69,1.75,4.54,4.54,0,0,1-.8,1l-.23.24A4.15,4.15,0,0,0,295,318.6a1.61,1.61,0,0,1-.58.67,8.83,8.83,0,0,1-1.33.84,10.14,10.14,0,0,1-2.62,1,6.61,6.61,0,0,0-1.47.41l-.3.12a5.24,5.24,0,0,1-1.84.35,7.06,7.06,0,0,0-2.16.32c-.24.07-.44.15-.63.22a3.7,3.7,0,0,1-.5.17,3.25,3.25,0,0,1-.69.08,2.06,2.06,0,0,1-.4,0l-.1,0h0a1.14,1.14,0,0,0-.78-.32,1,1,0,0,0-.49.13v0a.82.82,0,0,0-.48-.41.88.88,0,0,0-.24,0,.78.78,0,0,0-.39.1l-.06,0a1.57,1.57,0,0,0-.29.27,2.23,2.23,0,0,0-.38.67,1.62,1.62,0,0,0-.12.58.59.59,0,0,0,0,.14v.06a.66.66,0,0,0,.08.21,1,1,0,0,0,.25.3,3.75,3.75,0,0,0,.56.35,1.06,1.06,0,0,0-.09.33,4.78,4.78,0,0,1-.11.69,1.68,1.68,0,0,1-.25.59l-.05.06a5.39,5.39,0,0,0-.47.6,1.72,1.72,0,0,0-.33,1,1.11,1.11,0,0,0,.2.63,2.69,2.69,0,0,0,.24.33l.05.05a1.25,1.25,0,0,1,.31.59h0l0,.09a1.85,1.85,0,0,1-.35.29,4.58,4.58,0,0,1-1.11.54,2.16,2.16,0,0,1-.49.11,2.46,2.46,0,0,0-1,.23,1.23,1.23,0,0,1-.52.14h-.11l-.41,0-.32,0a2.73,2.73,0,0,1-.37-.07,1.38,1.38,0,0,0-.58-.43,2.86,2.86,0,0,0-.67-.19l-.15,0-.17,0a.69.69,0,0,1-.11-.13,1.33,1.33,0,0,0-.71-.45,2.61,2.61,0,0,0-.74-.09,4,4,0,0,0-.77.07,1.11,1.11,0,0,0-.4.15.71.71,0,0,0-.14.1l0,.05-.11.12a1.22,1.22,0,0,0-.18.73v.21c0,.07,0,.15,0,.24s0,.18,0,.28a1.77,1.77,0,0,0,0,.23,1.54,1.54,0,0,0,.27,1l.22.24.1.1a2.52,2.52,0,0,1-.1.29l-.05.14a2.9,2.9,0,0,0-.24,1.08v.11a1.42,1.42,0,0,0,.31.77,1.56,1.56,0,0,0,.58.41,2.66,2.66,0,0,0,1,.2l0,.06.1.14a.93.93,0,0,0-.44.11,1,1,0,0,0-.23.18.8.8,0,0,0-.15.21l-.06,0a1.12,1.12,0,0,0-.32.2.81.81,0,0,0-.25.41.31.31,0,0,0,0,.13.57.57,0,0,0,0,.13.93.93,0,0,0,.21.54,1.37,1.37,0,0,0,.36.3,5.6,5.6,0,0,0,.5.26l.14.07h0a6.07,6.07,0,0,0-.68.09,1.09,1.09,0,0,0-.58.31,1.22,1.22,0,0,0-.25.48,1.08,1.08,0,0,0-.05.21,1.25,1.25,0,0,1-.12.34.53.53,0,0,1-.23.21,1.29,1.29,0,0,0-.54.49,1.2,1.2,0,0,0-.17.62,2.82,2.82,0,0,0,.23,1,1.78,1.78,0,0,1,.15.58,1.94,1.94,0,0,1-.13.79.86.86,0,0,1-.36.42,1.5,1.5,0,0,0-.69.88,3.89,3.89,0,0,0-.14,1,3.53,3.53,0,0,1-.4-.08l-.44-.09h-.21a1.55,1.55,0,0,0-.7.18,4.08,4.08,0,0,0-.55.37,3,3,0,0,1-.88.5,3,3,0,0,0-1.48,1.21l-.25.36a3,3,0,0,1-.5.62,2.25,2.25,0,0,0-.72,1,4,4,0,0,0-.2,1.28,5.44,5.44,0,0,0,0,.57,2.76,2.76,0,0,0,.17.7,1.49,1.49,0,0,0,.35.52,2.59,2.59,0,0,0,.69.42l.21.1a1.14,1.14,0,0,1,.46.38,2.07,2.07,0,0,1,.17.24c.12.17.24.36.42.58a1.94,1.94,0,0,0,.74.55,3.16,3.16,0,0,0,.83.2c.33,0,.67.05,1,.06h.57l.22,0v.23a3.48,3.48,0,0,0,0,.61.69.69,0,0,1,0,.2.65.65,0,0,1-.1.3l0,.09a3.34,3.34,0,0,0-.28.64,1.59,1.59,0,0,0-.09.48v.08a.77.77,0,0,0,.26.51c-.1.09-.22.17-.3.23-.25.18-.55.36-.87.55l-.44.27a13.44,13.44,0,0,0-1.41,1.07l-.1.09a8.64,8.64,0,0,1-1.33,1,2.14,2.14,0,0,0-.84.91,6.07,6.07,0,0,0-.48,1.23,15.54,15.54,0,0,0-.42,2.72.86.86,0,0,1-.1.36.47.47,0,0,1-.18.16,2.59,2.59,0,0,1-.87.18,3.75,3.75,0,0,0-.68.09.94.94,0,0,0-.47.24,5.87,5.87,0,0,1-.67.48,8.26,8.26,0,0,0-.94.69,1.9,1.9,0,0,0-.57,1.07,5.5,5.5,0,0,0-.11,1.16c0,.42,0,.82.05,1.12v.05a2.64,2.64,0,0,0,.2.78,8.58,8.58,0,0,0,.39.92,21.55,21.55,0,0,0,1,1.91c.12.19.27.43.42.63l-.39-.15-.1,0a4.82,4.82,0,0,1-.57-.22,1.73,1.73,0,0,0-.89-.19h-.9a1.52,1.52,0,0,0-.56-.22c-.16,0-.36-.06-.59-.08-.42,0-.93,0-1.41,0h-4.05a3.26,3.26,0,0,1-.54,0,.77.77,0,0,1-.31-.09l0-.05a1.45,1.45,0,0,0-.34-.59,1.94,1.94,0,0,0-.43-.33l-.2-.1a2.43,2.43,0,0,1-.46-.3.22.22,0,0,1,0-.14,3.45,3.45,0,0,1,.09-.55,3.52,3.52,0,0,0,.13-.78v-.05a2.32,2.32,0,0,1,0-.44,1,1,0,0,1,.21-.3.93.93,0,0,0,.26-.58,1,1,0,0,0-.25-.69l-.14-.15,0,0a1,1,0,0,0-.13-.27l0,0a1.12,1.12,0,0,0-.36-.28,3.91,3.91,0,0,0-.83-.26,2.43,2.43,0,0,0-.51-.06h0a1,1,0,0,0-.66.21,1.38,1.38,0,0,0-.29.3,1.83,1.83,0,0,1-.28-.1.36.36,0,0,1-.09-.12,1.08,1.08,0,0,1-.08-.42,1,1,0,0,1,0-.23,2.12,2.12,0,0,0,0-.24,1,1,0,0,0-.17-.57,1.29,1.29,0,0,0-.32-.34l-.16-.11-.13-.09v0c0-.08,0-.17,0-.28a7.34,7.34,0,0,1,0-.88c0-.36,0-.74,0-1.07s.05-.55.06-.64h0l.25-.06a2.47,2.47,0,0,0,.35-.1,1.31,1.31,0,0,0,.58-.38,5.2,5.2,0,0,1,1-.94,2,2,0,0,0,.64-.78,2.16,2.16,0,0,0,.16-.86c0-.13,0-.28,0-.39l.14-.08a2.13,2.13,0,0,0,.31-.18,1.14,1.14,0,0,0,.42-.51,1.46,1.46,0,0,0,.14-.6,1.7,1.7,0,0,0-.13-.63,2.24,2.24,0,0,0-.12-.29l-.09-.23a1.46,1.46,0,0,0-.37-.53v0a.91.91,0,0,1,.18-.39,1.92,1.92,0,0,0,.37-.86v-.05l.19-.08a4.7,4.7,0,0,0,.53-.22,1.28,1.28,0,0,0,.53-.5,1.3,1.3,0,0,0,.15-.63,4.75,4.75,0,0,0-.09-.71,2.81,2.81,0,0,1-.08-.6s0,0,0,0l.08,0a1.49,1.49,0,0,0,.36-.19l.05-.05a1,1,0,0,0,.29-.67.89.89,0,0,1,.07-.28,1.8,1.8,0,0,0,.11-.57,1,1,0,0,0-.21-.57,1.66,1.66,0,0,0-.5-.42l.32-.2a1,1,0,0,0,.34-.31.88.88,0,0,0,.1-.22.57.57,0,0,0,0-.18.94.94,0,0,0-.15-.57c-.05-.09-.12-.19-.19-.3l0-.06c0-.06-.09-.14-.11-.14h0a.75.75,0,0,1,.15-.13l.3-.19a5.57,5.57,0,0,0,.61-.39,1.4,1.4,0,0,0,.35-.33.75.75,0,0,0,.07-.12l0-.05a.84.84,0,0,0-.13-.89,3.4,3.4,0,0,0-.27-.27l-.06-.05a1,1,0,0,1-.25-.28,1.91,1.91,0,0,0-.31-.43,2.21,2.21,0,0,0,.85-.36,1.52,1.52,0,0,0,.69-1.18.76.76,0,0,0,0-.21v-.07a.81.81,0,0,0-.22-.38l-.06-.06-.11-.08a1.6,1.6,0,0,0-.66-.23,5.2,5.2,0,0,0-.69-.06c-.14,0-.29,0-.41,0a1,1,0,0,1,.18-.49,1.26,1.26,0,0,0,.21-.68,1.76,1.76,0,0,0-.17-.7.64.64,0,0,1-.07-.31,1.27,1.27,0,0,0,0-.28,1.6,1.6,0,0,0-.31-.89.58.58,0,0,1-.1-.22,2.15,2.15,0,0,0,.07-.53,1.15,1.15,0,0,0-.23-.72,1.51,1.51,0,0,0-.48-.41.83.83,0,0,1,0-.2,5.63,5.63,0,0,1-.06-.92c0-.3,0-.58,0-.82v-.39l.06,0a2.87,2.87,0,0,1,.39-.2l.2-.1a1,1,0,0,0,.36-.27.75.75,0,0,0,.18-.52,1.16,1.16,0,0,0-.06-.33.3.3,0,0,1,0-.12,1.29,1.29,0,0,0-.14-.64A2.11,2.11,0,0,0,249,334a1,1,0,0,1-.09-.13.81.81,0,0,1,0-.2,4.75,4.75,0,0,1,0-.6c0-.39,0-.8,0-1.14,0-.15,0-.29,0-.42q0-.47,0-.78c0-.11,0-.2,0-.26a1.93,1.93,0,0,1,.23-1,2.48,2.48,0,0,0,.34-1.15c0-.39.05-.83.05-1.12v-.73a1.39,1.39,0,0,1,0-.32l.07-.05a1.39,1.39,0,0,0,.62-.55,1.44,1.44,0,0,0,.23-.8,1.91,1.91,0,0,0-.12-.65.66.66,0,0,1,0-.25,1.08,1.08,0,0,1,.39-.85.66.66,0,0,1,.25-.1h.06a1.44,1.44,0,0,0,.56-.18,1.63,1.63,0,0,0,.48-.44,1.15,1.15,0,0,0,.24-.69,1.53,1.53,0,0,0-.24-.78,2.68,2.68,0,0,0-.18-.28l-.06-.09a1.84,1.84,0,0,0,0-.33,2.46,2.46,0,0,0-.45-1.32,1.83,1.83,0,0,1-.11-.73c0-.34,0-.71.06-1s0-.57,0-.76a1.56,1.56,0,0,0,0-.44.36.36,0,0,0,0-.11.43.43,0,0,1,0-.17,1.27,1.27,0,0,1,0-.32c0-.11,0-.22,0-.32a1.22,1.22,0,0,1,.14-.45.55.55,0,0,1,.33-.29,1.77,1.77,0,0,0,.88-.65l.1-.12a1.09,1.09,0,0,1,.21-.24,1.89,1.89,0,0,0,.91-1.62v-.36a2.86,2.86,0,0,0,0-.46,1.24,1.24,0,0,0-.25-.57.47.47,0,0,0-.15-.13l-.07-.06,0,0v-.07c0-.11,0-.22,0-.34s0-.29,0-.41a1.18,1.18,0,0,1,.16-.48l.12-.22c.09-.18.19-.36.26-.54a14.59,14.59,0,0,1,.73-1.65,2.57,2.57,0,0,1,.28-.44l.12-.19a3,3,0,0,0,.43-1,2.42,2.42,0,0,0,.1-.7c0-.09,0-.18,0-.27a1.15,1.15,0,0,1,0-.19.93.93,0,0,1,.09-.39,1.32,1.32,0,0,0,.16-.63s0,0,0-.05a.74.74,0,0,0-.17-.42.88.88,0,0,0-.44-.3l-.19-.06-.34-.12c-.09,0-.11-.07-.12-.1a.57.57,0,0,1,.12-.31,1.34,1.34,0,0,0,.27-.79,1,1,0,0,0-.21-.55,2.51,2.51,0,0,0-.4-.38.43.43,0,0,1-.16-.33c0-.12,0-.23,0-.34s0-.26,0-.34-.08-.35-.13-.54a4.68,4.68,0,0,1-.14-.61.81.81,0,0,0-.1-.37,1.13,1.13,0,0,0-.12-.18l-.05-.06-.12-.09a.82.82,0,0,1-.11-.1,2.37,2.37,0,0,1-.2-.27,1,1,0,0,1-.15-.42,1,1,0,0,1,0-.21,3.06,3.06,0,0,0,.07-.4,1,1,0,0,1,.17-.43,2.51,2.51,0,0,1,.38-.48,1.7,1.7,0,0,0,.43-.94q0-.18.06-.39c0-.16,0-.35.08-.54a1.48,1.48,0,0,1,.08-.29.81.81,0,0,1,.24-.08l.17,0a1.11,1.11,0,0,0,.66-.54,1.54,1.54,0,0,0,.16-.67,1.37,1.37,0,0,0-.21-.77.3.3,0,0,1,0-.18,2.15,2.15,0,0,1,.09-.53,1.32,1.32,0,0,0,.06-.39,1,1,0,0,0-.13-.51A2.11,2.11,0,0,0,255,288a.67.67,0,0,1-.15-.27.49.49,0,0,1,0-.12.32.32,0,0,1,.08-.2c.08-.1.21-.22.36-.37l.12-.1a1.64,1.64,0,0,0,.43-.65,1.73,1.73,0,0,0,.11-.66,4.6,4.6,0,0,0,0-.5c0-.1,0-.2,0-.3v-.06a.59.59,0,0,1,.14-.38,2.37,2.37,0,0,1,.46-.43,5.76,5.76,0,0,0,1.29-1.43,3.33,3.33,0,0,0,.58-1.74.5.5,0,0,1,.17-.29.8.8,0,0,1,.25-.16h.18a1.37,1.37,0,0,0,.84-.26,1.91,1.91,0,0,0,.57-.64,1.14,1.14,0,0,0,.18-.61,1.17,1.17,0,0,0-.29-.76,2.4,2.4,0,0,0-.46-.42,1,1,0,0,1-.25-.21.7.7,0,0,1-.06-.35.21.21,0,0,1,.07-.16l.16-.15a1.22,1.22,0,0,0,.27-.31.72.72,0,0,0,.12-.4,2.41,2.41,0,0,0-.15-.74,6.24,6.24,0,0,0-.32-.79,1.28,1.28,0,0,1-.13-.56.51.51,0,0,1,.05-.28,1.47,1.47,0,0,0,.49-1.05,1.5,1.5,0,0,0-.43-1c-.07-.09-.08-.13-.07-.13h0a.44.44,0,0,1,.08-.11l.07-.1.07,0,.28-.16,0,0a4.56,4.56,0,0,0,.91-.64,3.48,3.48,0,0,1,.82-.5,7.22,7.22,0,0,1,1-.36,1.48,1.48,0,0,0,.89-.65,1.71,1.71,0,0,0,.2-.86,1.21,1.21,0,0,1,.18-.74,1.76,1.76,0,0,0,.25-.85c0-.09,0-.19,0-.3s0-.45.06-.8v-.11a1,1,0,0,0-.17-.58l0-.05a.9.9,0,0,0-.41-.27l-.06,0a1.15,1.15,0,0,0-.33,0,5.18,5.18,0,0,0-.73.09,3.09,3.09,0,0,1-.59.08l-.17,0-.08,0a.59.59,0,0,1,0-.19c0-.14,0-.28,0-.44a5.8,5.8,0,0,0-.1-.95,6.18,6.18,0,0,0-.49-1.46l0-.06a5.22,5.22,0,0,1-.33-1,5,5,0,0,0-.31-1.2,1.81,1.81,0,0,0-.79-.92.34.34,0,0,1-.05-.08,2.94,2.94,0,0,1-.13-.44,3,3,0,0,0-.48-1.26.53.53,0,0,1-.12-.32.28.28,0,0,1,0-.15,1.24,1.24,0,0,0,.53-1,1.36,1.36,0,0,0-.18-.68.65.65,0,0,1,.08-.17l0-.06a4.27,4.27,0,0,0,.27-.6,1.32,1.32,0,0,0,.06-.39,1.12,1.12,0,0,0-.15-.56,1.54,1.54,0,0,0-.34-.4,6.47,6.47,0,0,0-.82-.55,1,1,0,0,1-.37-.46,2.12,2.12,0,0,1-.13-.74c0-.11,0-.21,0-.32a3,3,0,0,0,0-.51,2.32,2.32,0,0,0-.18-.94,1.18,1.18,0,0,0-.69-.66.83.83,0,0,1-.07-.13,2.14,2.14,0,0,1-.1-.22,3.3,3.3,0,0,0-.22-.46,1.68,1.68,0,0,0-.51-.55.76.76,0,0,0-.62-.3.92.92,0,0,0-.28.05,2.4,2.4,0,0,0-.36.18,1.38,1.38,0,0,0-.6,1.23c0,.09,0,.19,0,.29a1.1,1.1,0,0,1,0,.18.6.6,0,0,1,0,.24,2.14,2.14,0,0,1-.21.36.32.32,0,0,1-.28.13.75.75,0,0,1-.29-.06,2,2,0,0,0-.5-.15,2.84,2.84,0,0,0-.92-1.07,4.56,4.56,0,0,0-.76-.39l-.32-.15-.09,0a2.24,2.24,0,0,1-.54-.33c-.08-.07-.16-.19-.26-.57a2,2,0,0,0-1-1.2c-.16-.1-.34-.19-.53-.29a6.19,6.19,0,0,1-.57-.3c-.53-.34-1-.58-1.5-.85l-.71-.39a18.65,18.65,0,0,0-3-1.34,8.09,8.09,0,0,1-2.64-1.52,6,6,0,0,0-1.68-1l-.37-.16a2,2,0,0,1-1-1.13,3.82,3.82,0,0,0-.9-1.28,8.32,8.32,0,0,0-1.23-1,2.55,2.55,0,0,1-1.09-1.56.51.51,0,0,1,0-.18l.05-.06.14-.13a3.57,3.57,0,0,0,.38-.39,1.1,1.1,0,0,0,.24-.64,1.56,1.56,0,0,0-.42-1,4.88,4.88,0,0,0-.48-.54l-.12-.13a1.84,1.84,0,0,1-.34-.55l0-.08a6.53,6.53,0,0,0-.83-1.34,5.36,5.36,0,0,0-1-1.1l-.46-.3-.56-.35a.88.88,0,0,1-.29-.29.67.67,0,0,1,0-.26,3.42,3.42,0,0,1,0-.44,3,3,0,0,0,.05-.61v-.08a2.72,2.72,0,0,0-.31-1.22,6,6,0,0,0-.79-1.11,6.66,6.66,0,0,1-1.34-2.7,5.46,5.46,0,0,0-.87-1.72,6.29,6.29,0,0,1-.88-1.71l0-.06a14.43,14.43,0,0,0-.54-1.54,4.53,4.53,0,0,0-.64-1c-.16-.21-.33-.4-.5-.6a9.08,9.08,0,0,1-1.18-1.68,12,12,0,0,0-2.69-3.09,5,5,0,0,0-1-.66,10.22,10.22,0,0,0-1.18-.43l-.1,0a1.24,1.24,0,0,0,.52-.52,1.46,1.46,0,0,0,.15-.69c0-.09,0-.21,0-.37a1.36,1.36,0,0,0-.41-.9,2,2,0,0,1-.36-.56l-.1-.25a5.59,5.59,0,0,1-.22-.52,5.44,5.44,0,0,1-.17-.66,2.69,2.69,0,0,1,0-.44.93.93,0,0,1,.09-.42,1,1,0,0,1,.33-.37,2.9,2.9,0,0,0,.79-.89l.15-.26a6.13,6.13,0,0,1,.4-.67,1.82,1.82,0,0,1,.79-.59l.06,0,.07,0,0,0,.07,0,.09,0c.25-.09.51-.16.75-.23l.31-.09a1.54,1.54,0,0,0,.62-.34.86.86,0,0,0,.26-.55,1.06,1.06,0,0,0-.26-.74h0l.17-.08a1.13,1.13,0,0,0,.42-.3.23.23,0,0,0,.07-.1.87.87,0,0,0-.13-1.07,1.47,1.47,0,0,1-.1-.13l-.14-.17a.79.79,0,0,0-.69-.65h-.08a.79.79,0,0,0-.73.51,1.31,1.31,0,0,0-.07.27.64.64,0,0,1-.13.29,3,3,0,0,1-.31.31l0,0h0a4.09,4.09,0,0,1-.28-.33,2.18,2.18,0,0,0-.48-.55,3.35,3.35,0,0,0-.57-.36.93.93,0,0,0,.39-.34.58.58,0,0,0,.1-.21l0-.08a.75.75,0,0,0,0-.2,1.12,1.12,0,0,0-.23-.69,2.33,2.33,0,0,0-.5-.49,1,1,0,0,1-.06-.3c0-.14,0-.29,0-.44a6.15,6.15,0,0,0-.06-.75V192a.1.1,0,0,1,0-.07.44.44,0,0,1,.16-.12l.39-.16a2.9,2.9,0,0,0,.47-.21,1.52,1.52,0,0,0,.73-1,4.31,4.31,0,0,0,.09-1v0a2.44,2.44,0,0,1,.34-.18l.32-.15a1.22,1.22,0,0,0,.5-.48,1.33,1.33,0,0,0,.14-.6,4.07,4.07,0,0,0-.17-.95,2.2,2.2,0,0,1-.11-.56.39.39,0,0,1,.08-.28,1.22,1.22,0,0,1,.49-.17l.26,0a2.24,2.24,0,0,0,.47-.1,1.23,1.23,0,0,0,.6-.4s.05-.06.2-.1l.6-.1.22,0a1,1,0,0,0,.72-.44,1.23,1.23,0,0,0,.2-.7,2.33,2.33,0,0,0,0-.41,6,6,0,0,0-.19-.69V183a4.49,4.49,0,0,1,.62-.36,1.4,1.4,0,0,0,.59-.53,1.19,1.19,0,0,0,.16-.62,1.94,1.94,0,0,0,0-.33c0-.05,0-.1,0-.17l.09-.05a3.57,3.57,0,0,1,.48-.18l.33-.1a8.41,8.41,0,0,0,.94-.33,2.86,2.86,0,0,0,1.05-.94,6.34,6.34,0,0,0,.64-1.14,4.66,4.66,0,0,1,.41-.76l.14-.22.36-.56a1.31,1.31,0,0,0,.19-.66.91.91,0,0,0-.15-.5,1.39,1.39,0,0,0-.26-.3l-.09-.09a2.62,2.62,0,0,1-.28-.29l0,0,.07-.09a2,2,0,0,0,.34-1l0-.32c0-.21,0-.36,0-.48a1.59,1.59,0,0,0-.07-.5,2,2,0,0,0-.2-.5,4.62,4.62,0,0,1-.33-1.12c0-.14-.06-.28-.1-.43a.32.32,0,0,1,0-.08l0-.05.14-.13a1.79,1.79,0,0,0,.24-.22,1.15,1.15,0,0,0,.3-.73,1.09,1.09,0,0,0-.38-.81h0V168a5.58,5.58,0,0,0-.28-1.84,3.25,3.25,0,0,0-.51-.86l-.1-.13c-.14-.18-.3-.39-.49-.67l0-.07a.64.64,0,0,0,0-.07v0c0-.06,0-.13,0-.22V164a.73.73,0,0,0,.54,0l.06,0,.05,0a2.86,2.86,0,0,0,.29-.21l.26-.23.15-.14a1.23,1.23,0,0,0,.36-.56,1.53,1.53,0,0,0,.07-.49c0-.06,0-.13,0-.18v-.08a1.27,1.27,0,0,0,0-.2.9.9,0,0,0,.4.09,1,1,0,0,0,.66-.25,1.72,1.72,0,0,0,.37-.44,2,2,0,0,0,.32-1,.49.49,0,0,1,.05-.16,3,3,0,0,1,.24-.31l.36-.37c.16-.16.32-.32.46-.48l.28-.33a5.64,5.64,0,0,1,.45-.51,1.59,1.59,0,0,1,.82-.45,1.41,1.41,0,0,0,.88-.58,1.63,1.63,0,0,0,.25-.91,4.47,4.47,0,0,0-.28-1.38.62.62,0,0,1,0-.23,1.37,1.37,0,0,1,.31-.79,4,4,0,0,1,.85-.85l.25-.19.33-.25c.11-.07.14-.07.15-.07l.15,0c.11.05.26.14.46.26a1.7,1.7,0,0,0,.93.33h0a1,1,0,0,0,.62-.24,1.22,1.22,0,0,0,.32-.44,2.32,2.32,0,0,0,.14-.35,2.44,2.44,0,0,1,.14-.34c0-.06.05-.07.05-.07s.08,0,.22,0a8.1,8.1,0,0,1,.83.07l.45.06.49,0a1.57,1.57,0,0,0,.94-.26,1.37,1.37,0,0,0,.34-.41l0-.06a.16.16,0,0,1,.05-.06l.32-.17.39-.18.2-.09a13.06,13.06,0,0,0,1.34-.71,2.18,2.18,0,0,0,.71-.64,4.64,4.64,0,0,1,1.39-1.25.64.64,0,0,1,.27-.1m25.64,3.64h0m8,1.87.13.08a.82.82,0,0,0-.09.67,2,2,0,0,0,.1.26h-.13a.75.75,0,0,0-.26,0,1.07,1.07,0,0,0,.09-.27,3.37,3.37,0,0,0,.11-.59l0-.18,0,0m-56,27.63h0m-5.95,8.45h0m101.57.09h0M259,255.94h0m58.23,37.37-.28.28a3.7,3.7,0,0,1,.28-.28m-42.57,42.3h.18l.06.18a2.62,2.62,0,0,0,.1.3,1.53,1.53,0,0,1,.09.61c0,.17,0,.35,0,.55v.08s0,.05,0,.07l-.5.06-.27,0h-.11a.34.34,0,0,1-.21-.05.74.74,0,0,1-.13-.27,2.54,2.54,0,0,0-.11-.26l0,0,.13-.06.12-.09a1,1,0,0,0,.27-.36,2,2,0,0,0,.14-.69.49.49,0,0,1,.29-.06m-25.9,18.9h0m-5.09,10.7h0m16.05,17a1,1,0,0,0,.46.11h0s.05,0,.05,0a2.43,2.43,0,0,1,.19.29c.06.11.13.23.21.35a4.07,4.07,0,0,0,.75.81c.31.29.72.63,1.17,1,.88.71,1.87,1.44,2.51,1.86.34.22.63.44.89.63l.53.38a2.58,2.58,0,0,0,1.51.52h.12l.84,0a5.22,5.22,0,0,1,1.15.1,1.94,1.94,0,0,0-.33.5,1.11,1.11,0,0,1-.24.05,8,8,0,0,1-1.18.07h-1.06a1.64,1.64,0,0,0-.73.14.84.84,0,0,0-.43.43h0l-.31-.14a1.81,1.81,0,0,1-.62-.47,1.4,1.4,0,0,0-1.1-.54,1.62,1.62,0,0,0-1.07.44.71.71,0,0,1-.25,0,2.2,2.2,0,0,1-.77-.15,2.89,2.89,0,0,0-1.15-.32h0a1.32,1.32,0,0,0-.72.2,1,1,0,0,1-.35-.16l-.07-.05v-6M248.84,147a1.39,1.39,0,0,0-.63.19,5.37,5.37,0,0,0-1.69,1.53,1.65,1.65,0,0,1-.46.39,12.3,12.3,0,0,1-1.26.66l-.6.28a2.94,2.94,0,0,0-.41.22,1,1,0,0,0-.27.28,1.16,1.16,0,0,1-.2.27.72.72,0,0,1-.48.11l-.39,0c-.59-.06-1-.13-1.37-.13a1.25,1.25,0,0,0-.58.11.91.91,0,0,0-.39.43c-.12.25-.19.51-.28.69a.51.51,0,0,1-.13.19.14.14,0,0,1-.13.05h0a1.07,1.07,0,0,1-.49-.2,3.87,3.87,0,0,0-.57-.32,1.17,1.17,0,0,0-.46-.12h0a1.09,1.09,0,0,0-.58.2l-.62.47a4.7,4.7,0,0,0-1,1,2.17,2.17,0,0,0-.45,1.24,1.26,1.26,0,0,0,.08.47,4,4,0,0,1,.24,1.14.8.8,0,0,1-.12.47.6.6,0,0,1-.41.26,2.53,2.53,0,0,0-1.19.65c-.29.29-.52.61-.76.89s-.56.55-.82.84a2.87,2.87,0,0,0-.34.46,1.08,1.08,0,0,0-.15.53,1.44,1.44,0,0,1-.2.62,1.36,1.36,0,0,1-.2.25.32.32,0,0,1-.17.07h0a.2.2,0,0,1-.14-.06,1,1,0,0,1-.22-.31,8.5,8.5,0,0,0-.91-1.47l-.23-.28-.13.34a1.94,1.94,0,0,0-.12.6V160h0v0a.45.45,0,0,1,0,.19.59.59,0,0,0-.09.3.65.65,0,0,0,.07.29,1.09,1.09,0,0,1,.06.39.44.44,0,0,0,.1.24.46.46,0,0,0,.28.15c.05,0,.08,0,.1.06a.4.4,0,0,1,.08.16.9.9,0,0,1,0,.22c0,.08,0,.17,0,.26a1.09,1.09,0,0,1,0,.26.53.53,0,0,1-.13.2l-.4.36-.18.13-.05,0a1.25,1.25,0,0,0-.28-.36.79.79,0,0,0-.18-.14.38.38,0,0,0-.22-.07h0a.29.29,0,0,0-.21.09.37.37,0,0,0-.08.2v.7c0,.13,0,.25,0,.35s0,.09,0,.13v0h0a.2.2,0,0,1-.08.1l-.18.11.12.18c.05.09.12.19.2.31h0a9.42,9.42,0,0,0,.64.88,2.3,2.3,0,0,1,.39.66,5,5,0,0,1,.23,1.55v.28a.8.8,0,0,0,0,.3.63.63,0,0,0,.21.28.29.29,0,0,1,.13.22.32.32,0,0,1-.1.22c-.09.1-.22.19-.35.32a.83.83,0,0,0-.22.86,7.29,7.29,0,0,0,.48,1.7,1.81,1.81,0,0,1,.15.38.88.88,0,0,1,0,.29c0,.16,0,.38,0,.75a1.32,1.32,0,0,1-.22.63l-.16.24a.59.59,0,0,0-.1.33.8.8,0,0,0,.15.42,3.16,3.16,0,0,0,.49.52l.14.15a.26.26,0,0,1,0,.11.44.44,0,0,1-.09.24c-.17.29-.33.52-.48.76a6,6,0,0,0-.47.86,5.23,5.23,0,0,1-.55,1,2.26,2.26,0,0,1-.75.68,10,10,0,0,1-1.17.39,4.53,4.53,0,0,0-.59.23,1,1,0,0,0-.43.35.7.7,0,0,0-.1.38c0,.2.05.37,0,.51a.43.43,0,0,1-.05.23.7.7,0,0,1-.28.24,5,5,0,0,0-.75.44.75.75,0,0,0-.22.25.56.56,0,0,0-.09.31.8.8,0,0,0,.05.26,6.34,6.34,0,0,1,.18.67v0a2.32,2.32,0,0,1,0,.24.43.43,0,0,1-.06.26.28.28,0,0,1-.21.11,8.29,8.29,0,0,0-.88.15,1.09,1.09,0,0,0-.59.33.47.47,0,0,1-.26.18,4.63,4.63,0,0,1-.62.11,1.84,1.84,0,0,0-.86.34,1.14,1.14,0,0,0-.36.89,3.14,3.14,0,0,0,.15.8,2.93,2.93,0,0,1,.13.69.54.54,0,0,1-.05.24.38.38,0,0,1-.17.16,4.5,4.5,0,0,0-.78.41.67.67,0,0,0-.23.27,1,1,0,0,0-.07.38,3.61,3.61,0,0,1-.07.8.79.79,0,0,1-.35.54c-.2.11-.53.2-.84.36a1.17,1.17,0,0,0-.41.33.83.83,0,0,0-.19.55.86.86,0,0,0,0,.16c0,.39,0,.8.08,1.17a2.1,2.1,0,0,0,.11.51.78.78,0,0,0,.32.4,1,1,0,0,1,.28.25.35.35,0,0,1,.08.22l0,.08a.22.22,0,0,1-.1.08,1.5,1.5,0,0,0-.4.3.67.67,0,0,0-.18.44.54.54,0,0,0,.12.33,1,1,0,0,0,.32.25,2.37,2.37,0,0,1,.57.33,2.11,2.11,0,0,1,.35.4,2.74,2.74,0,0,0,.39.45.82.82,0,0,0,.56.26h0a.64.64,0,0,0,.44-.18,5.65,5.65,0,0,0,.49-.49,1.49,1.49,0,0,0,.29-.65,1.3,1.3,0,0,1,0-.13.84.84,0,0,0,.12.29l.26.35a.48.48,0,0,1,.11.19h0a.39.39,0,0,1-.14.08,5.62,5.62,0,0,0-.61.31.67.67,0,0,0-.2.17.36.36,0,0,0-.11.25.41.41,0,0,0,.07.22,1.07,1.07,0,0,0,.16.14,1.1,1.1,0,0,1,.23.2c.07.08.1.15.09.18s0,0,0,.07a.77.77,0,0,1-.28.14c-.33.1-.72.2-1.11.34h0l-.17.07-.06,0-.16.06h0a2.52,2.52,0,0,0-1.11.86,11,11,0,0,0-.58,1,2,2,0,0,1-.59.67,1.82,1.82,0,0,0-.57.65,1.85,1.85,0,0,0-.16.76,3.06,3.06,0,0,0,.07.59,4.92,4.92,0,0,0,.2.77c.07.22.17.43.34.82a2.6,2.6,0,0,0,.5.78.9.9,0,0,1,.14.19.58.58,0,0,1,.06.23c0,.12,0,.23,0,.32a.72.72,0,0,1-.06.33.6.6,0,0,1-.26.23,1.36,1.36,0,0,0-.36.27.62.62,0,0,0-.18.42.59.59,0,0,0,.22.44,2.08,2.08,0,0,0,.6.3,8.71,8.71,0,0,1,1.09.39,4.45,4.45,0,0,1,.84.57,11.29,11.29,0,0,1,2.48,2.83,14.47,14.47,0,0,0,1.76,2.41,3.67,3.67,0,0,1,.55.83,15,15,0,0,1,.52,1.51,7.1,7.1,0,0,0,1,1.9,4.43,4.43,0,0,1,.76,1.48,7.35,7.35,0,0,0,1.5,3,5.61,5.61,0,0,1,.7,1,1.92,1.92,0,0,1,.22.89v.06c0,.32-.09.66-.09,1a1.34,1.34,0,0,0,.14.63,1.6,1.6,0,0,0,.54.57c.48.33.76.46,1,.64a4.4,4.4,0,0,1,.9.95,6,6,0,0,1,.74,1.19,2.87,2.87,0,0,0,.51.84c.19.2.4.41.56.61a1,1,0,0,1,.25.51.29.29,0,0,1-.07.18c-.15.18-.31.3-.46.45a.9.9,0,0,0-.2.27.79.79,0,0,0-.09.38,2,2,0,0,0,0,.32,3.39,3.39,0,0,0,1.42,2,7.89,7.89,0,0,1,1.11.91,2.83,2.83,0,0,1,.71,1,2.86,2.86,0,0,0,1.41,1.59,7.16,7.16,0,0,1,1.89,1,8.8,8.8,0,0,0,2.88,1.66,17.06,17.06,0,0,1,2.86,1.29c.87.47,1.44.74,2.17,1.21.4.24.8.4,1.12.59a1.27,1.27,0,0,1,.62.75,1.9,1.9,0,0,0,.46.92,3.38,3.38,0,0,0,.83.51,7.61,7.61,0,0,1,1,.49,2.21,2.21,0,0,1,.79,1l.05.12h.14a1.36,1.36,0,0,1,.56.11,1.49,1.49,0,0,0,.61.13h0a1.08,1.08,0,0,0,.92-.48,2.52,2.52,0,0,0,.29-.49,1.2,1.2,0,0,0,.1-.55,2.35,2.35,0,0,0,0-.26,1.5,1.5,0,0,1,0-.2.65.65,0,0,1,.24-.57.91.91,0,0,1,.22-.11.93.93,0,0,0,.23.21.75.75,0,0,1,.23.26c.1.17.18.4.29.62a1.33,1.33,0,0,0,.18.3.7.7,0,0,0,.31.22.41.41,0,0,1,.26.26,1.48,1.48,0,0,1,.11.61,3,3,0,0,1,0,.41,2.77,2.77,0,0,0,0,.42,2.9,2.9,0,0,0,.19,1,1.74,1.74,0,0,0,.69.83,5.43,5.43,0,0,1,.71.47.93.93,0,0,1,.17.19.45.45,0,0,1,.05.18.5.5,0,0,1,0,.16,3.48,3.48,0,0,1-.24.52,1.2,1.2,0,0,0-.18.56.7.7,0,0,0,.1.36.6.6,0,0,1,.1.3.49.49,0,0,1-.2.4.74.74,0,0,0-.28.33,1.2,1.2,0,0,0-.1.47,1.34,1.34,0,0,0,.29.81,2.49,2.49,0,0,1,.33,1,3.65,3.65,0,0,0,.18.56.9.9,0,0,0,.38.44,1.11,1.11,0,0,1,.46.55,4.37,4.37,0,0,1,.25,1,5.08,5.08,0,0,0,.42,1.21,6,6,0,0,1,.44,1.3c.1.5.07,1,.13,1.35a1.08,1.08,0,0,0,.2.55.89.89,0,0,0,.55.32,1.66,1.66,0,0,0,.32,0,4.29,4.29,0,0,0,.73-.09,4,4,0,0,1,.59-.08h.14l.05,0s0,0,0,.13v.07c-.06.49-.07.83-.09,1.07a1,1,0,0,1-.12.48,2,2,0,0,0-.31,1.18.88.88,0,0,1-.09.46.71.71,0,0,1-.45.3,7.87,7.87,0,0,0-1.07.41,3.73,3.73,0,0,0-1,.63,4.32,4.32,0,0,1-.78.54l-.36.23a1,1,0,0,0-.26.23,2.34,2.34,0,0,0-.18.23.81.81,0,0,0-.15.45,1,1,0,0,0,.28.63.77.77,0,0,1,.23.5.73.73,0,0,1-.26.48,1.19,1.19,0,0,0-.28.84,2,2,0,0,0,.21.91,6.14,6.14,0,0,1,.28.68,1.93,1.93,0,0,1,.11.49v0c0,.06-.18.16-.33.31a1,1,0,0,0-.28.7,1.42,1.42,0,0,0,.18.77,1.57,1.57,0,0,0,.46.43,1.67,1.67,0,0,1,.31.27.47.47,0,0,1,.11.27.43.43,0,0,1-.07.21,1.43,1.43,0,0,1-.34.4.66.66,0,0,1-.41.12h-.14a1.2,1.2,0,0,0-.82.37,1.33,1.33,0,0,0-.41.78,2.47,2.47,0,0,1-.44,1.37,5.12,5.12,0,0,1-1.12,1.25,3,3,0,0,0-.61.57,1.36,1.36,0,0,0-.3.86v.09c0,.29.05.55.05.77a1.14,1.14,0,0,1-.06.39.82.82,0,0,1-.24.35,5.9,5.9,0,0,0-.56.56,1.14,1.14,0,0,0-.24.68,2.11,2.11,0,0,0,0,.25,1.28,1.28,0,0,0,.32.63l.12.17a.47.47,0,0,1,0,.17.67.67,0,0,1,0,.17,2.82,2.82,0,0,0-.12.74,1,1,0,0,0,.19.64.7.7,0,0,1,.06.29.68.68,0,0,1-.07.32.3.3,0,0,1-.19.16,2.06,2.06,0,0,0-.64.24.86.86,0,0,0-.25.31,2,2,0,0,0-.15.47c-.07.37-.09.69-.14.94a1,1,0,0,1-.21.53,2.85,2.85,0,0,0-.49.62,1.73,1.73,0,0,0-.29.78c0,.1,0,.2-.05.3a1.38,1.38,0,0,0,0,.37,1.64,1.64,0,0,0,.26.82,2.17,2.17,0,0,0,.3.4,1.61,1.61,0,0,0,.26.23h0a.55.55,0,0,1,0,.09c0,.42.22.87.28,1.22,0,.15,0,.41.07.68a1.24,1.24,0,0,0,.45.82,1.27,1.27,0,0,1,.26.24c.05.06.05.08.05.1a.77.77,0,0,1-.15.34,1.38,1.38,0,0,0-.24.72.83.83,0,0,0,.14.47.94.94,0,0,0,.43.34,5.44,5.44,0,0,0,.59.22c.07,0,.1,0,.1.05h0v0a.74.74,0,0,1-.09.26,1.73,1.73,0,0,0-.16.73c0,.16,0,.3,0,.45a2.11,2.11,0,0,1-.07.5,2.6,2.6,0,0,1-.33.74,5.63,5.63,0,0,0-.44.69,16.76,16.76,0,0,0-.77,1.73,5.3,5.3,0,0,1-.34.67,1.84,1.84,0,0,0-.25.85c0,.22,0,.49,0,.75a1.22,1.22,0,0,0,.06.42.53.53,0,0,0,.32.32l.08.06a.34.34,0,0,1,.07.19,1.69,1.69,0,0,1,0,.33c0,.12,0,.24,0,.36a1.14,1.14,0,0,1-.51.95,1.92,1.92,0,0,0-.53.54,1.1,1.1,0,0,1-.53.4,1.34,1.34,0,0,0-.76.65,2,2,0,0,0-.24.76,6.38,6.38,0,0,0-.08.71,1.13,1.13,0,0,0,.1.49v0s0,.11,0,.21c0,.4-.1,1.14-.1,1.8a2.28,2.28,0,0,0,.23,1.15,1.55,1.55,0,0,1,.33.9.81.81,0,0,1-.05.3v.09a.67.67,0,0,0,.11.3c.08.13.19.26.27.4a.82.82,0,0,1,.13.38.36.36,0,0,1-.08.23.89.89,0,0,1-.25.24.86.86,0,0,1-.36.09,1.27,1.27,0,0,0-.58.25,1.82,1.82,0,0,0-.71,1.46,1.77,1.77,0,0,0,.08.52,1,1,0,0,1,.08.39.71.71,0,0,1-.11.39.7.7,0,0,1-.31.27.89.89,0,0,0-.45.47,1.63,1.63,0,0,0-.08.58c0,.12,0,.24,0,.37v.37c0,.32,0,.7,0,1a1.87,1.87,0,0,1-.2.76,2.77,2.77,0,0,0-.38,1.49c0,.22,0,.57,0,1.05,0,.12,0,.25,0,.38,0,.32,0,.76,0,1.18a4.93,4.93,0,0,0,0,.69,1.21,1.21,0,0,0,.14.52c.11.16.19.25.22.31a.59.59,0,0,1,0,.29.93.93,0,0,0,.06.33.87.87,0,0,1,0,.13s0,0-.11.07-.44.21-.65.33a1.56,1.56,0,0,0-.28.23.53.53,0,0,0-.14.35c0,.05,0,.24,0,.48s0,.54,0,.85a6.8,6.8,0,0,0,.07,1,2.33,2.33,0,0,0,.11.42.56.56,0,0,0,.26.31,1,1,0,0,1,.31.22.45.45,0,0,1,.07.27,1.1,1.1,0,0,1,0,.33,1.5,1.5,0,0,0,0,.2,1.23,1.23,0,0,0,.24.65.82.82,0,0,1,.17.45.45.45,0,0,1,0,.11.83.83,0,0,0,0,.22,1.64,1.64,0,0,0,.14.56,1,1,0,0,1,.11.39.48.48,0,0,1-.09.27,1.7,1.7,0,0,0-.3.91.82.82,0,0,0,.16.52.75.75,0,0,0,.53.26c.34,0,.76,0,1.07.08a1,1,0,0,1,.35.1l.06.06,0,.07v0a.82.82,0,0,1-.36.56,1.32,1.32,0,0,1-.73.24h0a3.87,3.87,0,0,1-.71-.13,3,3,0,0,0-.71-.15.39.39,0,0,0-.22.06.29.29,0,0,0-.11.11.39.39,0,0,0,0,.14v.12a.93.93,0,0,0,.09.47.72.72,0,0,0,.52.34,3.67,3.67,0,0,1,.67.16.78.78,0,0,1,.45.41,1.9,1.9,0,0,0,.48.55l.18.18s0,.07,0,.08l0,.05-.17.15c-.34.24-.65.4-.9.57a1.56,1.56,0,0,0-.33.29.77.77,0,0,0-.16.42v0a1.25,1.25,0,0,0,.29.66,2,2,0,0,1,.16.24.42.42,0,0,1,.06.14v0s0,0-.09.07a4.93,4.93,0,0,0-.53.36.88.88,0,0,0-.21.22.54.54,0,0,0,0,.65,1.34,1.34,0,0,0,.36.29,1.26,1.26,0,0,1,.3.24.22.22,0,0,1,.05.14,1.36,1.36,0,0,1-.07.28,1.79,1.79,0,0,0-.11.49c0,.11,0,.12-.06.15a.34.34,0,0,1-.14.08,1,1,0,0,0-.38.21.78.78,0,0,0-.2.6,4.08,4.08,0,0,0,.08.73,3.67,3.67,0,0,1,.08.57.55.55,0,0,1,0,.25.43.43,0,0,1-.21.18c-.32.16-.54.22-.74.32a.68.68,0,0,0-.27.24,1,1,0,0,0-.13.39,1,1,0,0,1-.24.53,1.45,1.45,0,0,0-.3.74,1.41,1.41,0,0,0,0,.18.56.56,0,0,0,.07.3.65.65,0,0,0,.11.15.61.61,0,0,1,.26.33c.08.18.15.34.2.48a1,1,0,0,1,.08.35.8.8,0,0,1-.07.31.44.44,0,0,1-.16.18c-.12.08-.29.15-.45.26a.76.76,0,0,0-.23.21.61.61,0,0,0-.11.35v.1c0,.12,0,.24,0,.36a1.42,1.42,0,0,1-.1.55,1.18,1.18,0,0,1-.39.47,6.16,6.16,0,0,0-1.16,1.06.52.52,0,0,1-.24.15c-.16.06-.38.08-.59.16a.81.81,0,0,0-.31.18.69.69,0,0,0-.21.35,5.61,5.61,0,0,0-.09.8c0,.34,0,.73,0,1.12a9.46,9.46,0,0,0,0,1,2.84,2.84,0,0,0,.05.36.92.92,0,0,0,.11.29,1.58,1.58,0,0,0,.48.39.52.52,0,0,1,.13.13.26.26,0,0,1,0,.17.45.45,0,0,1,0,.11,2.16,2.16,0,0,0,0,.35,1.68,1.68,0,0,0,.16.75.9.9,0,0,0,.47.49,1.61,1.61,0,0,0,.66.19h0a.6.6,0,0,0,.49-.25,1.18,1.18,0,0,1,.19-.22.34.34,0,0,1,.21-.05,1.6,1.6,0,0,1,.32,0,2.7,2.7,0,0,1,.64.2.33.33,0,0,1,.11.07h0a.42.42,0,0,0,.11.26c.07.08.15.15.2.22a.3.3,0,0,1,.08.15s0,.05-.06.12a1.44,1.44,0,0,0-.38.6,2.5,2.5,0,0,0,0,.7,3.24,3.24,0,0,1-.1.6,2.93,2.93,0,0,0-.12.73,1,1,0,0,0,.28.71,4,4,0,0,0,.79.51,1.17,1.17,0,0,1,.27.19.59.59,0,0,1,.15.27.92.92,0,0,0,.3.44,1.42,1.42,0,0,0,.68.26,5,5,0,0,0,.65,0h4.05c.49,0,1,0,1.34,0a4.41,4.41,0,0,1,.49.07.83.83,0,0,1,.28.1,1.22,1.22,0,0,0,.67.15l.68,0h0a1.2,1.2,0,0,1,.51.09,4.67,4.67,0,0,0,.78.31,3,3,0,0,1,.71.33,3.21,3.21,0,0,1,.65.58l.14.16.16-.15a.87.87,0,0,0,.22-.63,1.71,1.71,0,0,0-.46-1.15,6.89,6.89,0,0,1-.52-.77,19.5,19.5,0,0,1-1-1.83c-.14-.32-.27-.61-.36-.86a2.23,2.23,0,0,1-.15-.56c0-.29-.06-.7-.06-1.12a5.24,5.24,0,0,1,.09-1,1.16,1.16,0,0,1,.31-.64c.58-.5,1.18-.77,1.63-1.19a.34.34,0,0,1,.14-.05,3.23,3.23,0,0,1,.58-.08,3,3,0,0,0,1.14-.26,1.28,1.28,0,0,0,.47-.43,1.43,1.43,0,0,0,.23-.72,12.82,12.82,0,0,1,.4-2.57,4.89,4.89,0,0,1,.4-1.07,1.47,1.47,0,0,1,.52-.59,8.3,8.3,0,0,0,1.47-1.07,15.06,15.06,0,0,1,1.42-1.09c.45-.28.95-.56,1.34-.84a3.15,3.15,0,0,0,.51-.41.75.75,0,0,0,.23-.49v-.06a.55.55,0,0,0-.12-.3.82.82,0,0,0-.23-.17h0v0a.78.78,0,0,1,.05-.23,2.78,2.78,0,0,1,.28-.62,1.28,1.28,0,0,0,.17-.65,2.26,2.26,0,0,0,0-.35,2.56,2.56,0,0,1,0-.47c0-.11,0-.22,0-.34a.78.78,0,0,0-.07-.25.66.66,0,0,0-.32-.32,1.56,1.56,0,0,0-.56-.12c-.52,0-1.06,0-1.52-.06a2.09,2.09,0,0,1-.62-.15,1,1,0,0,1-.44-.32c-.27-.33-.4-.57-.57-.8a1.84,1.84,0,0,0-.74-.6,3.69,3.69,0,0,1-.71-.39.79.79,0,0,1-.17-.25,2.1,2.1,0,0,1-.11-.5,3.87,3.87,0,0,1,0-.48,3,3,0,0,1,.16-1,1.46,1.46,0,0,1,.45-.69,5.76,5.76,0,0,0,.91-1.14,2.27,2.27,0,0,1,1.07-.92,3.87,3.87,0,0,0,1.17-.66,4.72,4.72,0,0,1,.4-.27.75.75,0,0,1,.34-.09h.09a7.72,7.72,0,0,0,1,.19h0a.66.66,0,0,0,.46-.16.74.74,0,0,0,.23-.52,4.07,4.07,0,0,1,.1-.87.78.78,0,0,1,.38-.46,1.71,1.71,0,0,0,.65-.76,2.88,2.88,0,0,0,.19-1.1,2.64,2.64,0,0,0-.2-.87,2,2,0,0,1-.18-.69.36.36,0,0,1,.06-.23.57.57,0,0,1,.24-.21,1.39,1.39,0,0,0,.54-.5,2.63,2.63,0,0,0,.23-.72.52.52,0,0,1,.09-.17.26.26,0,0,1,.16-.08c.32-.07.67-.07,1-.12a1.2,1.2,0,0,0,.42-.12.52.52,0,0,0,.27-.38c0-.06,0-.12,0-.17a.58.58,0,0,0-.05-.26.59.59,0,0,0-.27-.27,3.43,3.43,0,0,0-.39-.2c-.23-.12-.47-.22-.63-.32a.66.66,0,0,1-.17-.14.08.08,0,0,1,0-.06v0a.15.15,0,0,1,0-.06s.1,0,.22-.1a.67.67,0,0,0,.34-.36l0,0,.1,0h0a.93.93,0,0,1,.39.11.78.78,0,0,1,.26.21s.05.13.09.23a1.3,1.3,0,0,0,.31.52,1.06,1.06,0,0,0,.75.27h.18a3.79,3.79,0,0,0,1.05-.15.6.6,0,0,0,.33-.28,1.07,1.07,0,0,0,.11-.45c0-.24,0-.46,0-.67a2.34,2.34,0,0,0-.15-.92,6,6,0,0,0-.21-.57.73.73,0,0,0-.28-.27,1.09,1.09,0,0,0-.47-.11h-.09a1.25,1.25,0,0,0-.8.24.82.82,0,0,0-.29.63.93.93,0,0,1-.06.34l-.05.08h0s-.09,0-.21-.13a3.83,3.83,0,0,1-.42-.55.67.67,0,0,0-.23-.21.66.66,0,0,0-.34-.08h0a2,2,0,0,1-.74-.13.79.79,0,0,1-.29-.2.58.58,0,0,1-.13-.33v-.08a2.26,2.26,0,0,1,.18-.77,2.49,2.49,0,0,0,.22-.77.55.55,0,0,0-.11-.34c-.15-.19-.29-.3-.36-.4a.76.76,0,0,1-.13-.51,1,1,0,0,1,0-.17c0-.12,0-.23,0-.33s0-.33,0-.45a.63.63,0,0,1,0-.28l.05,0a.37.37,0,0,1,.15-.05,3.28,3.28,0,0,1,.63-.06,2.09,2.09,0,0,1,.53.06.46.46,0,0,1,.29.17,2.51,2.51,0,0,0,.21.23.79.79,0,0,0,.32.18,2.61,2.61,0,0,0,.37.08,2.72,2.72,0,0,1,.52.15.63.63,0,0,1,.29.2.65.65,0,0,0,.29.23,2.92,2.92,0,0,0,.59.12l.73.08h.2a2.11,2.11,0,0,0,.83-.2,1.5,1.5,0,0,1,.65-.17,2.56,2.56,0,0,0,.73-.15,5.62,5.62,0,0,0,1.31-.63,2.52,2.52,0,0,0,.51-.45,1,1,0,0,0,.23-.57v-.09a2.08,2.08,0,0,0-.49-1,2.61,2.61,0,0,1-.24-.3.4.4,0,0,1-.07-.21,1,1,0,0,1,.2-.55,5.92,5.92,0,0,1,.46-.59,2.14,2.14,0,0,0,.41-.89,4.91,4.91,0,0,0,.14-.83.6.6,0,0,1,.07-.18.74.74,0,0,0,.12-.33.48.48,0,0,0-.13-.31,1.57,1.57,0,0,0-.33-.23,3.18,3.18,0,0,1-.48-.29l-.07-.07v-.06a.93.93,0,0,1,.08-.3,1.29,1.29,0,0,1,.24-.43.47.47,0,0,1,.13-.12h0a.49.49,0,0,1,0,.13,1.24,1.24,0,0,0,.2.57.51.51,0,0,0,.4.23h0a.39.39,0,0,0,.28-.13.48.48,0,0,0,.1-.29.15.15,0,0,1,.06-.12.17.17,0,0,1,.13,0,.34.34,0,0,1,.23.1,1.09,1.09,0,0,0,.47.23,2.65,2.65,0,0,0,.58.06,4,4,0,0,0,.86-.1c.34-.08.7-.25,1.19-.4a6,6,0,0,1,1.93-.29h0a5.94,5.94,0,0,0,2.1-.4,7.23,7.23,0,0,1,1.61-.49,10.48,10.48,0,0,0,2.87-1,9,9,0,0,0,1.47-.92,2.34,2.34,0,0,0,.84-1.06,3.35,3.35,0,0,1,.9-1.39,7.74,7.74,0,0,0,1.14-1.36,4.56,4.56,0,0,0,.79-2.13,1.71,1.71,0,0,0-.11-.63,1,1,0,0,0-.5-.49c-.3-.15-.64-.22-.91-.35a1.16,1.16,0,0,1-.35-.25.88.88,0,0,1-.22-.43,5.47,5.47,0,0,0-.22-.68,1.16,1.16,0,0,1-.06-.16v0h0a.7.7,0,0,1,.08-.12,3.34,3.34,0,0,0,.24-.29,1.55,1.55,0,0,0,.39-1,1.6,1.6,0,0,0-.72-1.24c-.31-.25-.67-.6-1.05-.9a2.53,2.53,0,0,0-1.27-.62h-.93a1,1,0,0,1-.32,0l0,0s0,0,0-.08a.65.65,0,0,1,0-.11.64.64,0,0,1,.19-.4.49.49,0,0,1,.35-.11h0a2.36,2.36,0,0,1,.72.15l.27.08h0l.07,0,.07,0,.27.07h0a7,7,0,0,0,1.5.12h0a2.7,2.7,0,0,1,.78.08,2.78,2.78,0,0,1,.73.34,5.11,5.11,0,0,0,2.45.69h.48c.55,0,.83-.07,1.19-.07h0a4.86,4.86,0,0,1,.58.05c.26,0,.47.1.69.15a2.87,2.87,0,0,0,.68.09h0a3.11,3.11,0,0,0,1.41-.4,15.91,15.91,0,0,0,3.65-3.13h0l.21-.2c.54-.52,1.25-1.08,1.84-1.68a3.33,3.33,0,0,0,1.12-2,3.46,3.46,0,0,1,.41-1.44,2.85,2.85,0,0,0,.4-1.31v-.15q0-.3,0-.57a2.35,2.35,0,0,1,.56-1.7,9.63,9.63,0,0,1,1.36-1,4,4,0,0,0,.78-.65,2.17,2.17,0,0,0,.49-.91,7.94,7.94,0,0,1,.27-1.14.29.29,0,0,1,.13-.14,1.59,1.59,0,0,1,.39-.1,3.38,3.38,0,0,1,.62-.08h0a.49.49,0,0,1,.25.05l0,.06a.41.41,0,0,1,0,.14.45.45,0,0,1,0,.11.77.77,0,0,1-.14.37,3.55,3.55,0,0,1-.54.6,5,5,0,0,0-.67.7,6,6,0,0,0-.55,1,1.85,1.85,0,0,1-.79.75,6.81,6.81,0,0,0-1.36,1,4.11,4.11,0,0,0-.46.5.92.92,0,0,0-.2.48.36.36,0,0,0,.07.23.32.32,0,0,0,.23.1h0a.6.6,0,0,0,.27-.07c.26-.13.58-.36.9-.52a7,7,0,0,0,.83-.56,21,21,0,0,0,1.86-1.51c.3-.27.57-.53.79-.77a2.67,2.67,0,0,0,.45-.66c.14-.38.45-.93.76-1.55a8.49,8.49,0,0,0,.79-2,5.05,5.05,0,0,1,1.05-1.83,16.94,16.94,0,0,0,1.21-1.5,3.8,3.8,0,0,1,.55-.59,16.6,16.6,0,0,0,1.31-1.25,2.49,2.49,0,0,0,.75-1.58,2.26,2.26,0,0,1,.24-1c.07-.13.13-.26.19-.4a1.06,1.06,0,0,0,.1-.45,1.36,1.36,0,0,0-.19-.65c-.22-.4-.41-.68-.55-1a2,2,0,0,1-.22-1,4.46,4.46,0,0,1,.06-.66,4.69,4.69,0,0,0,.06-.77c0-.37-.05-.6,0-.76a.65.65,0,0,1,.05-.27,1.49,1.49,0,0,1,.25-.38c.21-.26.35-.4.45-.53a2.39,2.39,0,0,0,.13-.21.64.64,0,0,0,0-.24,3.13,3.13,0,0,0-.14-.68,3.71,3.71,0,0,1-.1-.51h.06l.49,0h.18a1,1,0,0,0,.5-.11,1.29,1.29,0,0,0,.49-.58c.13-.26.26-.58.44-1a1.28,1.28,0,0,1,.48-.57,4.54,4.54,0,0,1,1.1-.46,4.53,4.53,0,0,0,.55-.23,1.2,1.2,0,0,0,.43-.41l.22-.38.07-.08.25-.09.75-.24c.63-.22,1.07-.37,1.41-.52a1.77,1.77,0,0,0,.76-.59l.05-.06h.12a2.24,2.24,0,0,1,.6.16,4.1,4.1,0,0,0,.8.22h.07a.63.63,0,0,0,.19,0,.37.37,0,0,0,.19-.2.58.58,0,0,0,0-.22c0-.2-.05-.4,0-.58a.56.56,0,0,1,.05-.28.46.46,0,0,1,.26-.17c.46-.15.86-.22,1.22-.33a1.79,1.79,0,0,0,.94-.63,4,4,0,0,1,.72-.7,3.1,3.1,0,0,1,.39-.27l.13-.06v.08a.85.85,0,0,0,0,.23.47.47,0,0,0,.24.26.7.7,0,0,0,.32.06,5.54,5.54,0,0,0,.84-.11l.38,0c.46,0,1.17.05,1.9.05a6.94,6.94,0,0,0,1.81-.19,1.74,1.74,0,0,0,.68-.34,1,1,0,0,0,.33-.64,3.5,3.5,0,0,1,.39-1.45,5.22,5.22,0,0,1,.88-1,1.17,1.17,0,0,0,.3-.51,1.73,1.73,0,0,0,.07-.55c0-.33,0-.66,0-1a1.69,1.69,0,0,1,.1-.64,1.26,1.26,0,0,1,.43-.55,6.09,6.09,0,0,0,2.21-3,11.19,11.19,0,0,1,.49-1.26,1.69,1.69,0,0,1,.54-.71,2.38,2.38,0,0,0,.34-.27,1.18,1.18,0,0,0,.28-.68,11.18,11.18,0,0,0,.05-1.35,8.66,8.66,0,0,1,.2-2.17,2.11,2.11,0,0,1,.89-1.34,1.49,1.49,0,0,0,.59-.89,4.45,4.45,0,0,0,.13-1.18c0-.62-.06-1.26-.06-1.76a3,3,0,0,1,0-.44,2.74,2.74,0,0,1,.51-1.1,2.57,2.57,0,0,0,.47-1.41,2.91,2.91,0,0,0-.1-.74,11.56,11.56,0,0,1-.56-2.91,4.18,4.18,0,0,1,.05-.61,3.64,3.64,0,0,1,.25-.93,2.39,2.39,0,0,0,.18-.81,1.69,1.69,0,0,0-.07-.48,5.06,5.06,0,0,0-.27-.72,1.25,1.25,0,0,1-.13-.46.76.76,0,0,1,.15-.42,5.93,5.93,0,0,0,.56-1.29,4.68,4.68,0,0,1,.2-.5.52.52,0,0,1,.07-.11.26.26,0,0,0,.15-.07.28.28,0,0,0,.08-.19.87.87,0,0,0,0-.19c0-.08-.07-.15-.1-.22h0a3.61,3.61,0,0,0,.89.13,1.87,1.87,0,0,0,1-.27,2,2,0,0,0,.78-1c.26-.66.57-1.49.9-2.2a7.88,7.88,0,0,1,.49-.93,1.69,1.69,0,0,1,.45-.53,1.31,1.31,0,0,0,.43-.54,6.76,6.76,0,0,1,.38-.85,1.07,1.07,0,0,1,.8-.49,2.07,2.07,0,0,0,.95-.43,6.25,6.25,0,0,0,1.07-1.24,10.92,10.92,0,0,1,1.18-1.48,13,13,0,0,0,1.91-2.43,6.65,6.65,0,0,0,1-2.71,4.2,4.2,0,0,1,.46-1.44,3.41,3.41,0,0,0,.43-1.48,3,3,0,0,0-.4-1.4,10.86,10.86,0,0,1-1-2.61c-.19-.77-.28-1.41-.39-1.84a3.39,3.39,0,0,0-.79-1.33,2.13,2.13,0,0,0-1.46-.75l-.19,0a9.9,9.9,0,0,1-1.62.21h0a5.81,5.81,0,0,1-4-1.85,40.39,40.39,0,0,0-5-3.87,23.56,23.56,0,0,0-2.43-1.41,5.42,5.42,0,0,0-1.83-.6h-.15a4.75,4.75,0,0,0-1.72.37,4,4,0,0,1-1.07.34h0a.33.33,0,0,1-.29-.12,2.3,2.3,0,0,0-.41-.38,1.16,1.16,0,0,0-.51-.22,2.3,2.3,0,0,1-.49-.12c-.26-.1-.9-.38-1.55-.63-.33-.13-.67-.25-1-.35a3.06,3.06,0,0,0-.8-.15.58.58,0,0,0-.19,0c-.28.07-.72.14-1.12.21s-.77.12-.94.16a.55.55,0,0,0-.28.15.88.88,0,0,0-.23.4c-.06.15-.1.34-.16.56a.3.3,0,0,1-.11.17.39.39,0,0,1-.18.06.43.43,0,0,1-.23-.09.4.4,0,0,1-.1-.3v-.07h0a.49.49,0,0,1,.14-.29,5.08,5.08,0,0,1,.52-.47,1.84,1.84,0,0,0,.26-.29.76.76,0,0,0,.12-.41,1.21,1.21,0,0,0-.35-.76,10.09,10.09,0,0,1-.9-1.35,1.38,1.38,0,0,0-.47-.46,1.51,1.51,0,0,0-.77-.17h0a4.39,4.39,0,0,1-1.69-.5,4.58,4.58,0,0,0-1.7-.53.85.85,0,0,1-.45-.12,3.44,3.44,0,0,1-.56-.49,1.31,1.31,0,0,0-.87-.35h-.24a10.7,10.7,0,0,1-2-.33l-1-.23a4.5,4.5,0,0,0-.75-.11h-.11a1.17,1.17,0,0,0-.51.23,4.32,4.32,0,0,0-1.27,1.81,3.36,3.36,0,0,1-1.13,1.23l-.75.56a3.94,3.94,0,0,0-.59.51l-.05,0h0a.44.44,0,0,1-.13-.19,1.1,1.1,0,0,1-.08-.43,1,1,0,0,1,.08-.39.53.53,0,0,1,.24-.27,5.57,5.57,0,0,0,1.36-1.19,7.09,7.09,0,0,0,1-1.48,2.38,2.38,0,0,0,.22-.92,1.13,1.13,0,0,0-.27-.77,1.21,1.21,0,0,0-.86-.37c-.3,0-.59,0-.86,0a3.28,3.28,0,0,0-.87.09,1.26,1.26,0,0,0-.33.16.58.58,0,0,0-.18.23l-.1-.08a2.55,2.55,0,0,1-.32-.42,1.51,1.51,0,0,1-.17-.37,2.22,2.22,0,0,0-.32-.72,1.7,1.7,0,0,0-.77-.61,2.12,2.12,0,0,0-.72-.18h0a.64.64,0,0,0-.48.22,1.3,1.3,0,0,0-.25.64.76.76,0,0,1-.21.42,7.11,7.11,0,0,1-.61.51,1.27,1.27,0,0,0-.3.35,1.08,1.08,0,0,0-.13.52v.51A4.76,4.76,0,0,1,317,191a.61.61,0,0,1-.13.28.19.19,0,0,1-.16.08c-.13,0-.16,0-.2-.07a1.24,1.24,0,0,1-.18-.41,1.14,1.14,0,0,0-.17-.3.72.72,0,0,0-.34-.24.7.7,0,0,1-.31-.29,1.12,1.12,0,0,1-.15-.54.78.78,0,0,1,.14-.46,1,1,0,0,1,.48-.39,10.07,10.07,0,0,0,1.58-.75,3.41,3.41,0,0,0,1.25-1.48c.66-1.4.88-1.85,1.18-2.59a1.54,1.54,0,0,0,.11-.55,1.51,1.51,0,0,0-1.13-1.42,6.81,6.81,0,0,1-1.16-.28,1,1,0,0,1-.44-.41,2.68,2.68,0,0,1-.31-1,22.15,22.15,0,0,0-.69-2.86c-.26-.87-.5-1.59-.56-1.93a4.56,4.56,0,0,0-.17-.9,1.19,1.19,0,0,0-.34-.45,1.79,1.79,0,0,0-.41-.25v0l-.29-.1h0l-.12,0h0a5.56,5.56,0,0,0-.6-.17,2.63,2.63,0,0,1-1-.43,2.74,2.74,0,0,1-.71-.89,2.24,2.24,0,0,0-.9-.94,6.46,6.46,0,0,1-1.09-.79,1.84,1.84,0,0,0-.48-.3A1.66,1.66,0,0,0,309,170h0a3.06,3.06,0,0,1-1.08-.31c-.4-.17-.83-.38-1.26-.58h0l-.1-.05h0l-.32-.15h0a4.74,4.74,0,0,0-1-.32c-.7-.09-1.22-.21-1.67-.22h0a1.27,1.27,0,0,0-.69.18,1.52,1.52,0,0,1-.26.16.29.29,0,0,1-.16,0h0a4.11,4.11,0,0,1-.74-.15,2.59,2.59,0,0,0-.64-.09h0a2.32,2.32,0,0,0-1.27.41l-.1.05h-.05a4.25,4.25,0,0,1-.47-.11c-.29-.07-.74-.17-1.45-.28a5.07,5.07,0,0,1-1-.22h0a4.45,4.45,0,0,1-2.28-1.61,6.39,6.39,0,0,0-.84-.94,1.69,1.69,0,0,0-1-.47.25.25,0,0,1-.21-.08,1.17,1.17,0,0,1-.2-.54,5.86,5.86,0,0,1-.05-.86,1.21,1.21,0,0,0-.37-.78,6.61,6.61,0,0,0-1.28-1l-1.39-.87c-.48-.31-.8-.57-1.13-.79a2.94,2.94,0,0,0-1-.43h0l-.16,0h-.08l-.19,0h0a10.11,10.11,0,0,0-1.7-.25h0a1.74,1.74,0,0,0-1.05.3l-.63.43a.94.94,0,0,1-.41.15h0c-.1,0-.18,0-.31-.18l0-.07.09-.06a3.21,3.21,0,0,0,.39-.24.65.65,0,0,0,.19-.21.63.63,0,0,0,.09-.31.48.48,0,0,1,.05-.24,1.53,1.53,0,0,1,.26-.27.93.93,0,0,0,.27-.57.52.52,0,0,1,.08-.2,1.68,1.68,0,0,1,.27-.24.88.88,0,0,0,.16-.17.49.49,0,0,0,.08-.28.68.68,0,0,0-.09-.33,1.82,1.82,0,0,0-1.66-1h0a1.41,1.41,0,0,1-.62-.14,9.31,9.31,0,0,0-1.17-.37,2.24,2.24,0,0,0-.55-.07,2.84,2.84,0,0,0-.8.13,2.53,2.53,0,0,1-.46.11h0s0,0-.06-.1a1.09,1.09,0,0,1-.05-.32c0-.13,0-.21,0-.35a.36.36,0,0,0,0-.14.38.38,0,0,0-.16-.19,1.23,1.23,0,0,0-.23-.09,5.59,5.59,0,0,0-.71-.1c-.08,0-.12,0-.13-.07s-.05-.06-.05-.18v-.09c0-.13,0-.22,0-.29l0-.08,0,0a.53.53,0,0,1,.18,0h0l.6,0a3.39,3.39,0,0,0,1.18-.19,1.09,1.09,0,0,0,.4-.25.69.69,0,0,0,.17-.44.43.43,0,0,0-.08-.24.54.54,0,0,0-.31-.19,2.17,2.17,0,0,0-.38,0,16.86,16.86,0,0,0-1.82.19,13.28,13.28,0,0,0-1.44.24,5.55,5.55,0,0,1-1.11.12h-.71a3.4,3.4,0,0,0-1,.12,2.17,2.17,0,0,0-1,.62,2.81,2.81,0,0,1-1.15.68,4.73,4.73,0,0,1-1.52.27h0a2.72,2.72,0,0,1-.85-.12c-.56-.19-.92-.3-1.2-.43a2.46,2.46,0,0,1-.78-.62,1.89,1.89,0,0,0-1-.51,5.49,5.49,0,0,0-1.2-.12,7.88,7.88,0,0,0-.93.05.81.81,0,0,0-.46.19c-.16.14-.25.29-.36.39a.76.76,0,0,1-.55.16,3.51,3.51,0,0,1-.63-.07l-.93-.2a1.56,1.56,0,0,1-.33-.11.64.64,0,0,1-.27-.26c-.1-.15-.24-.39-.47-.74a5,5,0,0,0-1.17-1.39,3.09,3.09,0,0,0-1.56-.55,5.55,5.55,0,0,0-.68,0h-.52a1.1,1.1,0,0,1-.58-.1.41.41,0,0,1-.18-.17,1.17,1.17,0,0,1-.14-.36,5.18,5.18,0,0,0-.42-1.2.87.87,0,0,0-.31-.32.91.91,0,0,0-.43-.1h0a1,1,0,0,0-.67.26.91.91,0,0,0-.3.67,1,1,0,0,0,.12.47c.08.17.19.37.28.56a1.47,1.47,0,0,1,.14.5.26.26,0,0,1-.09.21.84.84,0,0,1-.45.13,5.54,5.54,0,0,0-1.84.5l-.69.34-.41.2a1,1,0,0,0-.32.24,2.35,2.35,0,0,0-.58,1.42,1.1,1.1,0,0,0,.14.55c.2.36.55.76.84,1.19a2.34,2.34,0,0,1,.53,1.21,3,3,0,0,1-.15,1.08.86.86,0,0,1-.22.32.82.82,0,0,1-.35.17,3.06,3.06,0,0,1-.56.06h0a.87.87,0,0,1-.41-.08.37.37,0,0,1-.18-.21.81.81,0,0,0-.29-.38,4.08,4.08,0,0,1-.49-.41,1,1,0,0,1-.24-.69,1.29,1.29,0,0,1,.15-.59,7.24,7.24,0,0,1,.56-.79,1.57,1.57,0,0,0,.39-1,2,2,0,0,1,.15-.68,1.74,1.74,0,0,0,.17-.68,1.25,1.25,0,0,0-.28-.75,4.8,4.8,0,0,1-.43-.71,1.69,1.69,0,0,1-.18-.65.58.58,0,0,1,.1-.35.9.9,0,0,1,.41-.25l.8-.25h.06l.05,0,.7-.21-.12,0,.1-.07a.88.88,0,0,0,.32-.72,1.62,1.62,0,0,0-.59-1.13,1.77,1.77,0,0,0-1.09-.47Zm7.76.31a.46.46,0,0,0-.3.11.4.4,0,0,0-.16.32.39.39,0,0,0,.07.23.59.59,0,0,0,.18.17,2.81,2.81,0,0,1,.65.55.49.49,0,0,0,.18.11,1.87,1.87,0,0,0,.73.17l.21,0a.35.35,0,0,0,.2-.13h0a.41.41,0,0,0,.08-.25.72.72,0,0,0-.17-.43.81.81,0,0,0-.38-.27h0a.7.7,0,0,0-.11-.17.68.68,0,0,0-.32-.15h-.1l-.33-.08-.15,0,0,0h0a.33.33,0,0,0-.21-.08Zm2.9.51a.28.28,0,0,0-.15,0,.2.2,0,0,0-.08.08l-.09.1a.49.49,0,0,0-.13.3.3.3,0,0,0,.05.15.28.28,0,0,0,.11.13.91.91,0,0,1,.21.2,1.12,1.12,0,0,0,.16.13.43.43,0,0,0,.24.08.58.58,0,0,0,.28,0,.35.35,0,0,0,.21-.31.55.55,0,0,0-.07-.25,1.48,1.48,0,0,0-.3-.37,1.25,1.25,0,0,0-.19-.15.46.46,0,0,0-.25-.08Zm25.08,2.82h0a.3.3,0,0,0-.18.07.52.52,0,0,0-.1.11,2.21,2.21,0,0,0-.26.24,1.71,1.71,0,0,0-.21.26.59.59,0,0,0-.11.33v.1h0a.42.42,0,0,0,.16.23.53.53,0,0,0,.23.06h0a.7.7,0,0,0,.34-.1.74.74,0,0,0,.26-.24.79.79,0,0,0,.11-.29,1.22,1.22,0,0,0,0-.32,1,1,0,0,0,0-.24.37.37,0,0,0-.07-.12.26.26,0,0,0-.19-.09Zm-.45,1h0l.09-.15-.09.15Zm0,0h0ZM274.07,151a.33.33,0,0,0-.26.14.63.63,0,0,0-.11.28h0l0,.06a.42.42,0,0,1-.28.07,1.29,1.29,0,0,0-.66.17.58.58,0,0,0-.29.45v.07h0a.48.48,0,0,0,.15.25,1.24,1.24,0,0,0,.79.25,1.83,1.83,0,0,0,.69-.15,1.09,1.09,0,0,0,.57-.53.52.52,0,0,0,0-.21,1,1,0,0,0-.17-.55.87.87,0,0,0-.17-.21.39.39,0,0,0-.27-.11ZM283,152h0a.29.29,0,0,0-.22.11.76.76,0,0,0-.08.11c-.08,0-.23.11-.38.2a2.06,2.06,0,0,0-.33.27.71.71,0,0,0-.23.39c0,.22-.07.52-.13.75a.88.88,0,0,1-.11.27c0,.05-.06.06-.09.06a1.82,1.82,0,0,0-.6.22,1.22,1.22,0,0,0-.25.2.45.45,0,0,0-.15.3.37.37,0,0,0,.05.18.48.48,0,0,0,.2.15l.26.07a13.52,13.52,0,0,0,1.6.17,1.62,1.62,0,0,0,.51-.06.63.63,0,0,0,.21-.12.51.51,0,0,0,.13-.24s0,0,0-.07a2.41,2.41,0,0,1,.26-.14.54.54,0,0,0,.19-.16.49.49,0,0,0,.09-.28,1.34,1.34,0,0,0-.12-.43,7.05,7.05,0,0,1-.35-1.12,3.78,3.78,0,0,0-.15-.5,1.14,1.14,0,0,0-.1-.19l-.09-.09A.25.25,0,0,0,283,152Zm0,.62a.64.64,0,0,0,0-.07h0a.64.64,0,0,1,0,.07Zm.52,1.67a1.16,1.16,0,0,0-.06-.16l-.15-.38.15.38a1.16,1.16,0,0,1,.06.16Zm-1,.75h0ZM258.9,378.36v10.27l.06.06a3.33,3.33,0,0,0,.35.28,1.63,1.63,0,0,0,.78.29.73.73,0,0,0,.35-.09.75.75,0,0,1,.39-.11h0a2.4,2.4,0,0,1,.83.25,2.93,2.93,0,0,0,1.08.22,1.08,1.08,0,0,0,.75-.22,1,1,0,0,1,.57-.26h0a.65.65,0,0,1,.49.27,2.61,2.61,0,0,0,.88.67l.37.17.2.09a1.5,1.5,0,0,1,.38.43l.23.34.14-.38a.75.75,0,0,0,.05-.26c0-.21,0-.38,0-.49a.39.39,0,0,1,0-.13s0,0,.07-.06a.9.9,0,0,1,.38-.06h1.06a9,9,0,0,0,1.3-.07,2.23,2.23,0,0,0,.51-.13,1.37,1.37,0,0,0,.2-.13.48.48,0,0,0,.13-.23,1.18,1.18,0,0,1,.29-.43,2.52,2.52,0,0,0,.21-.25.57.57,0,0,0,.12-.33.38.38,0,0,0-.1-.27,1,1,0,0,0-.26-.17,4.81,4.81,0,0,0-1.8-.26l-.89,0h-.09a1.8,1.8,0,0,1-1.05-.39c-.38-.25-.82-.61-1.44-1s-1.59-1.12-2.44-1.81c-.42-.34-.82-.68-1.13-1a4.57,4.57,0,0,1-.62-.64c-.19-.3-.29-.53-.44-.72a.83.83,0,0,0-.28-.24.93.93,0,0,0-.39-.08h0a.38.38,0,0,1-.26-.15.53.53,0,0,1-.13-.28v0h.06a.5.5,0,0,0,.24-.06.59.59,0,0,0,.22-.28,1.27,1.27,0,0,0,.05-.34,1.87,1.87,0,0,0-.17-.76,1.1,1.1,0,0,0-.48-.56.71.71,0,0,1-.23-.16,1.62,1.62,0,0,0-.19-.22l-.35-.34Z"/><path class="cls-2" d="M239.28,345.59a.32.32,0,0,1,0-.16.4.4,0,0,1,.09-.24l.15-.16.28-.24a.68.68,0,0,1,.39-.17,3.11,3.11,0,0,1,.43,0c.25,0,.46,0,.47,0h0a.84.84,0,0,1,.37.1.74.74,0,0,1,.22.21c.08.12.11.2.18.25a1.85,1.85,0,0,1,.06-.26.75.75,0,0,1,.13-.25.43.43,0,0,1,.32-.14.67.67,0,0,1,.46.2.64.64,0,0,1,.23.49v.07a1.93,1.93,0,0,1,0,.27.39.39,0,0,1-.17.24.44.44,0,0,1-.19.07h-.28c-.09,0-.11,0-.12,0v0a.33.33,0,0,0,.08.17,1.21,1.21,0,0,1,.27.5,2.23,2.23,0,0,1,.09.63,1.22,1.22,0,0,1-.05.4.59.59,0,0,1-.26.28l-.23.11a.49.49,0,0,0-.26.27,2.27,2.27,0,0,0-.16.58,1.67,1.67,0,0,1-.05.19.42.42,0,0,1-.11.16.26.26,0,0,1-.17.06.26.26,0,0,1-.14,0l-.08-.07-.08-.15a1.69,1.69,0,0,1-.08-.34,1.73,1.73,0,0,1,0-.32A.83.83,0,0,1,241,348a1.08,1.08,0,0,1,.3-.35l0-.05,0,0a.81.81,0,0,0-.24-.09.43.43,0,0,1-.2-.15.41.41,0,0,1-.09-.19,2,2,0,0,1,0-.31v-.06a1.19,1.19,0,0,1-.36-.2.73.73,0,0,1-.29-.51.37.37,0,0,0,0-.14l0-.05s-.17-.08-.43-.1l-.2,0A.36.36,0,0,1,239.28,345.59Zm2.11-2.95a.36.36,0,0,0,.26.19h.11l.16,0a.31.31,0,0,0,.17-.17.42.42,0,0,0,0-.18,1.79,1.79,0,0,0,0-.24,2.47,2.47,0,0,0-.08-.46,1,1,0,0,0-.09-.24.53.53,0,0,0-.1-.12.27.27,0,0,0-.19-.07.31.31,0,0,0-.24.12.91.91,0,0,0-.13.22l0,0v.18a3,3,0,0,0,0,.48A1,1,0,0,0,241.39,342.64Zm-.49,1.23a.4.4,0,0,0,.19.22.49.49,0,0,0,.23.06.46.46,0,0,0,.2,0,.49.49,0,0,0,.16-.2,1,1,0,0,0,.06-.22v-.06a1.69,1.69,0,0,0-.09-.46,1.47,1.47,0,0,0-.1-.22.41.41,0,0,0-.09-.1.27.27,0,0,0-.18-.07.33.33,0,0,0-.14,0,.47.47,0,0,0-.12.13,1.16,1.16,0,0,0-.06.15h0a2.29,2.29,0,0,0-.09.55A1,1,0,0,0,240.9,343.87Zm-3.83,27.2a.3.3,0,0,0,.18.06.37.37,0,0,0,.15,0,.38.38,0,0,0,.13-.16.71.71,0,0,0,0-.17,5.73,5.73,0,0,0,.07-.62.45.45,0,0,1,.11-.25.82.82,0,0,0,.15-.27,1.2,1.2,0,0,1,.1-.27l0,0a.16.16,0,0,1,.1,0,1,1,0,0,0,1-.87v-.1A.53.53,0,0,0,239,368a.66.66,0,0,0-.32-.26,1.43,1.43,0,0,0-.43-.11,3.94,3.94,0,0,0-.7-.13.52.52,0,0,0-.27,0,.79.79,0,0,0-.24.21l.17.12-.17-.12s-.1.14-.21.32a2.91,2.91,0,0,0-.3.58,3.08,3.08,0,0,0-.16.88,1.48,1.48,0,0,0,.08.49,3.32,3.32,0,0,0,.28.62,2.11,2.11,0,0,0,.18.27A.63.63,0,0,0,237.07,371.07Zm.74,3.36s0,0,.14-.07a4.77,4.77,0,0,0,.75-.18A1.52,1.52,0,0,0,239,374a.49.49,0,0,0,.14-.11.32.32,0,0,0,.1-.16h0l.1-.08a3.45,3.45,0,0,0,.32-.21.66.66,0,0,0,.25-.41V373a.68.68,0,0,0-.1-.35.37.37,0,0,0-.12-.13.32.32,0,0,0-.2-.06.3.3,0,0,0-.25.11.61.61,0,0,0-.15.23h0a.29.29,0,0,1-.11.14.56.56,0,0,1-.38.13c-.26,0-.56-.05-.81-.05a1,1,0,0,0-.33.05.42.42,0,0,0-.27.24c0,.08-.11.24-.18.41a1.47,1.47,0,0,0-.13.54.46.46,0,0,0,.07.27.37.37,0,0,0,.26.16l.14,0a.37.37,0,0,0,.26-.09A.82.82,0,0,0,237.81,374.43Zm2.2,2.1a.46.46,0,0,0,.13-.31.47.47,0,0,0-.12-.3.82.82,0,0,0-.28-.19.59.59,0,0,1-.25-.2,1.34,1.34,0,0,1-.15-.44.63.63,0,0,0-.14-.25.43.43,0,0,0-.29-.13h0a2.46,2.46,0,0,0-.43,0,1.55,1.55,0,0,0-.37,0,.63.63,0,0,0-.34.23.74.74,0,0,0-.15.45,1.26,1.26,0,0,0,.26.69c.11.16.15.34.3.53a.67.67,0,0,0,.31.22,1.3,1.3,0,0,0,.48.08,1.67,1.67,0,0,0,.76-.18A.8.8,0,0,0,240,376.53Zm1.21,0h0a2.65,2.65,0,0,0-.65-.12.65.65,0,0,0-.3.06.57.57,0,0,0-.14.13.46.46,0,0,0,0,.2v.05a.57.57,0,0,0,.16.35,1.71,1.71,0,0,0,.36.24.41.41,0,0,1,.2.21,1.06,1.06,0,0,0,.22.38.45.45,0,0,0,.34.17.4.4,0,0,0,.23-.08.39.39,0,0,0,.12-.19l.06-.06.24-.15a.45.45,0,0,0,.15-.13.35.35,0,0,0,.09-.24l0-.07.16-.22a.7.7,0,0,0,.14-.36.32.32,0,0,0,0-.14,1.26,1.26,0,0,0-.22-.39,1.29,1.29,0,0,0-.17-.15A.4.4,0,0,0,242,376a.34.34,0,0,0-.24.11.43.43,0,0,0-.09.21,1,1,0,0,0,0,.17,1.51,1.51,0,0,0,0,.32,1.37,1.37,0,0,1,0,.16h0v0s0-.08-.1-.16a.58.58,0,0,0-.28-.19h0Zm2.7,5.78a1.29,1.29,0,0,0,.37.06.32.32,0,0,0,.16,0,.25.25,0,0,0,.16-.17.77.77,0,0,0,0-.15c0-.37-.32-.73-.92-.91a8,8,0,0,1-.87-.3,1.84,1.84,0,0,1-.52-.28.84.84,0,0,0-.38-.27l-.65-.22c-.06,0-.31-.16-.61-.29l-.54-.21a2,2,0,0,0-.51-.1.49.49,0,0,0-.27.07.34.34,0,0,0-.14.29,1.06,1.06,0,0,0,.21.7,1.32,1.32,0,0,0,.65.35c.27.07.56.11.84.16a2.16,2.16,0,0,1,.66.2,9.54,9.54,0,0,0,1.19.63c.18.08.46.21.74.32Zm16.31,8.92a2.13,2.13,0,0,1-.35-.82.93.93,0,0,1,0-.23,1.69,1.69,0,0,1,.08-.5,1,1,0,0,1,.23-.4s0,0,.06-.05h-.14a1.53,1.53,0,0,1-.78-.28,3.33,3.33,0,0,1-.35-.28l-.06-.06V379h0a.34.34,0,0,0-.17,0h-.1a.84.84,0,0,0-.28.06.28.28,0,0,0-.11.08l-.13.1a.65.65,0,0,1-.29.06h-.19a3.41,3.41,0,0,1-.8-.25h-.1l-.27,0-.16,0h0v.06c0,.06,0,.13,0,.21a1.2,1.2,0,0,1-.24.5.66.66,0,0,1-.41.19h-.17l-.34,0a2.92,2.92,0,0,0-.51,0,1.06,1.06,0,0,0-.35.12s0,0,0,.07a.69.69,0,0,1-.12.32.6.6,0,0,1-.24.16c-.16,0-.3.06-.35.09h0v.05c0,.17,0,.41.07.66a3.59,3.59,0,0,0,.16.68.46.46,0,0,0,.16.22l.07,0a4,4,0,0,0,.52,0,.57.57,0,0,0,.29-.1.32.32,0,0,0,.1-.14.55.55,0,0,1,.25-.27.75.75,0,0,1,.32-.06,1.86,1.86,0,0,1,.42,0l.31,0h.32a.69.69,0,0,1,.34.13.39.39,0,0,1,.13.28.64.64,0,0,1-.12.34,3.06,3.06,0,0,1-.4.59,1.1,1.1,0,0,1-.75.34,3.44,3.44,0,0,0-.64.12,1.06,1.06,0,0,0-.43.23.25.25,0,0,0-.07.16v0a.76.76,0,0,1,0,.15c0,.19,0,.36,0,.49a.45.45,0,0,0,.06.26.6.6,0,0,0,.36.19,2.33,2.33,0,0,1,1.2.7.51.51,0,0,1,.13.32.41.41,0,0,1-.05.18.34.34,0,0,1-.12.12,1.33,1.33,0,0,1-.24.1l-.32.07a4.59,4.59,0,0,1-.76.06,1.69,1.69,0,0,1-.89-.18,1.15,1.15,0,0,1-.4-.35.81.81,0,0,1-.16-.47,1.32,1.32,0,0,1,.09-.42.51.51,0,0,0,0-.2.64.64,0,0,0-.09-.31,4,4,0,0,1-.17-.4,3,3,0,0,0-.24-.47l-.17-.28a1.67,1.67,0,0,1-.42.62,2.3,2.3,0,0,1-.37.23,2.39,2.39,0,0,0-.33.2.36.36,0,0,0-.09.09h0v0a.54.54,0,0,0,.11.12,2.75,2.75,0,0,0,.5.31,2,2,0,0,1,.39.2.44.44,0,0,1,.15.32.5.5,0,0,1,0,.16.5.5,0,0,1-.23.3.62.62,0,0,1-.34.09,1.09,1.09,0,0,1-.85-.44,2.17,2.17,0,0,0-1-.87,2.78,2.78,0,0,0-1-.13h0a4.61,4.61,0,0,1-.52,0,1.57,1.57,0,0,1-.42-.11l-.18-.06a.33.33,0,0,0-.07.11,2.72,2.72,0,0,1-.32.46c-.12.15-.24.31-.32.43a.56.56,0,0,0-.08.15h0a.13.13,0,0,0,.1,0l.12-.17a.71.71,0,0,1,.15-.15.34.34,0,0,1,.17-.05.42.42,0,0,1,.27.12.48.48,0,0,0,.31.15h0s0,0,0-.06a.56.56,0,0,1,.21-.27.55.55,0,0,1,.33-.11.9.9,0,0,1,.63.31l.48.42a1.85,1.85,0,0,1,.41.44.32.32,0,0,1,.05.18.3.3,0,0,1-.08.2.41.41,0,0,1-.18.1.55.55,0,0,0-.19.16,1.78,1.78,0,0,1-.27.3.45.45,0,0,1-.32.13.58.58,0,0,1-.34-.13,1.09,1.09,0,0,0-.62-.14,1.28,1.28,0,0,0-.36,0,.34.34,0,0,0-.15.08h0l0,.06.29.36a.29.29,0,0,0,.16.11l.19,0,.34,0a6.07,6.07,0,0,0,.78-.11,4.68,4.68,0,0,1,.76-.1.8.8,0,0,1,.27,0,.4.4,0,0,1,.24.17.41.41,0,0,1,0,.21.55.55,0,0,1-.09.29,1.24,1.24,0,0,1-.18.22c-.13.13-.28.25-.39.35h0c.24,0,.42.06.61.11a1.67,1.67,0,0,1,.7.36,5.56,5.56,0,0,0,.69.44,1.65,1.65,0,0,0,.64.22h0V390c0-.16,0-.35,0-.54a.9.9,0,0,1,.07-.39.57.57,0,0,1,.35-.29,1,1,0,0,1,.36-.05h.63a1.94,1.94,0,0,1,.35,0,.47.47,0,0,1,.29.2.5.5,0,0,1,.06.24,1.37,1.37,0,0,1,0,.19,1.94,1.94,0,0,1-.25.52.64.64,0,0,0-.13.28l0,.06a.74.74,0,0,0,.18.12,5.89,5.89,0,0,1,1,.64,4.24,4.24,0,0,0,.83.51.63.63,0,0,0,.26.05.48.48,0,0,0,.18,0,.1.1,0,0,0,.06,0l0,0a.61.61,0,0,0-.16-.13,1.18,1.18,0,0,1-.39-.33.63.63,0,0,1-.15-.38.38.38,0,0,1,.13-.3.45.45,0,0,1,.31-.11,1.16,1.16,0,0,1,.52.15,4.64,4.64,0,0,1,.75.49,3.29,3.29,0,0,0,.5.36.63.63,0,0,0,.25.07,1,1,0,0,1,.46.13,2.12,2.12,0,0,1,.38.29,3.42,3.42,0,0,0,.9.59l.31.1a1.67,1.67,0,0,0-.3-.3A4.31,4.31,0,0,1,260.23,391.24Zm3.33-1.24a.93.93,0,0,1-.19-.54s0,0,0-.08a1.24,1.24,0,0,1-.64.15,2.93,2.93,0,0,1-1.08-.22,2.47,2.47,0,0,0-.83-.25.74.74,0,0,0-.37.1h0a.39.39,0,0,1,.26.11.72.72,0,0,1,.16.25c.09.22.16.43.22.58a.66.66,0,0,0,.16.3.26.26,0,0,0,.14,0,.73.73,0,0,0,.22,0l.59-.2a1.76,1.76,0,0,1,.49-.12.5.5,0,0,1,.28.08.56.56,0,0,1,.21.22.88.88,0,0,0,.28.3.7.7,0,0,0,.33.13l.07,0a.14.14,0,0,0,.06-.07c.05-.11.07-.16.06-.18v0l-.08-.09C263.84,390.34,263.71,390.21,263.56,390Zm2.54.42.15.06a1.26,1.26,0,0,0-.24-.23l-.2-.09c-.11-.05-.24-.1-.37-.17s-1.53.44-.88-.67c0,0,0,0,0,0a2.82,2.82,0,0,0,.57.53c.16.11.35.2.61.37A2.61,2.61,0,0,0,266.1,390.42Zm-18.7-5.87c-.16-.58.2-.69.72-.69a4.64,4.64,0,0,1,1.44.3c.58.17,1.71.55,1.79-.25a9.09,9.09,0,0,1,.47-2.51,2.74,2.74,0,0,0,.53-1.27c.05-.5.24-.89.6-.89s.83.42,1,.06a1.48,1.48,0,0,1,1.18-.72c.5,0,1.39-.08,1.58-.5s.61-1.07,1.19-.57a3.51,3.51,0,0,0,1.87.8.26.26,0,0,0,.19-.08,3.65,3.65,0,0,0-.69-.62,16.19,16.19,0,0,0-1.5-.65c-.52-.27-1.44.07-1.85-.2a8.36,8.36,0,0,0-3-.24h-3.29c-.52,0-1.27,0-1.44-.59s-.79-.61-1.27-1.06,0-1.3,0-1.88a1.3,1.3,0,0,1,.38-1.17c.38-.41-.27-.68-.27-.89s-.31-.34-.93-.48-.72,0-.92.31-.55.17-.93,0a1.26,1.26,0,0,1-.48-1.37c.1-.62-.44-.62-.68-1a10.08,10.08,0,0,1,0-3.35c.14-.59,1-.35,1.3-.76a6.18,6.18,0,0,1,1.13-1,1.5,1.5,0,0,0,.55-1.57c-.07-.58.72-.51.93-1s0-.79-.21-1.31-.48-.27-.41-.85.48-.72.55-1.27.34-.44,1-.79.2-1.09.2-1.92.76-.41.79-1,.51-.86-.27-1.34-.24-.82.34-1.16-.34-.86-.31-1.34.58-.62,1.3-1.13-.17-.72-.44-1.27-.79-.58-1.27-.68-.45-.41-.45-.72,1,.17,1.58.17,1.27-.41,1.3-1-1-.48-1.68-.55-.61-.79-.24-1.37-.24-.93-.1-1.51-.51-.85-.38-1.4,0-.82-.44-1.06-.28-2.61-.28-2.92.55-.51,1-.71.14-.35.14-.72-.1-.42-.31-.72a6.88,6.88,0,0,1-.1-2.26c0-.69,0-1.2,0-1.44a2.62,2.62,0,0,1,.34-1.37,5.59,5.59,0,0,0,.27-2.3c0-.58-.07-1,.41-1.23a1,1,0,0,0,.45-1.3,1.62,1.62,0,0,1,.55-1.75c.51-.38.78,0,1.23-.62s-.45-1.23-.38-1.47a1.55,1.55,0,0,0-.31-1.37c-.44-.65,0-2.77-.13-3.15a2,2,0,0,1,0-1.1,1.41,1.41,0,0,1,.85-1.23c.62-.2.69-.72,1.1-1a1.34,1.34,0,0,0,.62-1.13c0-.41.07-1-.31-1.13s-.21-.79-.21-1.3.41-1,.59-1.44a16.07,16.07,0,0,1,.75-1.71,5.53,5.53,0,0,0,.79-1.47c.2-.76-.11-1,.2-1.65s-.14-.54-.72-.82-.51-.79-.24-1.23.28-.58-.2-1-.38-1-.45-1.37-.24-.82-.27-1.2-.21-.14-.62-.82-.17-.93-.14-1.37a2.46,2.46,0,0,1,.72-1.27c.31-.31.28-.86.41-1.58s.42-.71.9-.85.47-.86.3-1.1-.2-.58,0-1.2-.34-.65-.45-1.23.21-.82.72-1.3.35-1,.31-1.68.38-1,.82-1.34a5.32,5.32,0,0,0,1.17-1.3,2.85,2.85,0,0,0,.48-1.47,1.16,1.16,0,0,1,1.06-1,1,1,0,0,0,1-.62c.27-.44-.07-.78-.41-1a1,1,0,0,1-.55-1c0-.62.61-.75.61-1a3.57,3.57,0,0,0-.41-1.27,1.45,1.45,0,0,1,0-1.5.82.82,0,0,0,0-1.27c-.48-.55-.07-.86.07-1.06s.89-.52,1.37-1a5.76,5.76,0,0,1,2-1,.88.88,0,0,0,.69-1,1.9,1.9,0,0,1,.27-1.07c.21-.3.14-.68.24-1.64s-1.2-.16-2-.34-.51-1-.72-2-.72-1.68-.85-2.5-.31-1.44-.82-1.71-.42-1.41-.83-1.92a.92.92,0,0,1,0-1.3.73.73,0,0,0,.17-1c-.24-.37.17-.72.34-1.26s-.31-.83-1-1.24a2.1,2.1,0,0,1-.76-2.09c.11-.72,0-1.37-.48-1.5s-.48-1.06-1-1.37a.63.63,0,0,1-.25-.3,1.62,1.62,0,0,0-.42.19.92.92,0,0,0-.32,1,1.46,1.46,0,0,1-.34,1.17,1,1,0,0,1-1.27.27,1.87,1.87,0,0,0-.64-.13l.08.21c.5,1.38.28,2.43.8,3.21a4.44,4.44,0,0,1,.66,2.92c-.22.53-.71.39-.71,1.19s.27.86.41,1.88a6.21,6.21,0,0,1-.25,2.76,5.66,5.66,0,0,0-.19,2c0,.66,0,1.27-.5,1.6s-1.1.88-.61,1.41.94.77.61,1.21a2,2,0,0,0-.47,1.55,10,10,0,0,1,0,1.38c0,.8,0,1.77.22,2s-.19.49-.66.94.08.91.19,1.76a3.74,3.74,0,0,1-.33,2.32,5.07,5.07,0,0,0-.69,2.13c-.06.94.08,1.1-.33,1.68a1.73,1.73,0,0,0-.5,1.41c0,.83.47,1.16-.05,1.71s-1,.94-.94,1.49-.09,1,.38,1.5a1.34,1.34,0,0,1,.25,1.54c-.19.58-.85,1.13-1.19,1.66a2.46,2.46,0,0,0-.3,2.1c.22,1.07.17,1.49.47,1.82s.28.28.25,1.05-.11,1.08.19,1.6a1.59,1.59,0,0,1,.2,1.44c-.14.74-.28,1-.64,1.27s-.39.69-.33,1.65a3,3,0,0,1-.39,2.13c-.38.44-.08.44-.44,1.44a12,12,0,0,0-.64,2.12c-.16.83-.55.39-.82,1.55s-.72,1.19-.92,2.15a5.73,5.73,0,0,1-.85,2.65,2.3,2.3,0,0,0-.55,1.66.8.8,0,0,1-.72.72c-.33,0-1.05,0-1.11.58a6.25,6.25,0,0,0,.72,2.68c.39.55.42.49.39,1.38a9.36,9.36,0,0,0,.19,2.59,3,3,0,0,1-.3,2.27c-.39.33-1.08,1-1.08,1.66a4.2,4.2,0,0,1-.33,2.23,1.9,1.9,0,0,0-.39,1.82c.28.56.42.92.69,1.44s.94,1.24.2,1.27-1.38-.36-1.44.44.66,1.13.14,1.41a.9.9,0,0,0-.44,1.19,2.18,2.18,0,0,1,0,1.41c-.17.38-.5,1,0,1.4s1.79.67,1.82.23a1.35,1.35,0,0,1,.47-1.11c.33-.19.61-.63.25-1s-1-.67-.72-1,.75-.44.66-1,.5-.36.45-.89-.61-.69.11-1a1.29,1.29,0,0,0,.91-1.05c0-.33.63,0,.91,0s.58.42.36.67-.69.6-.28.94,1.33.6.56.85-1-.11-.86.91.44,1.49-.08,2.24-1.19,1.66-.89,2a1.24,1.24,0,0,1,.28,1.44c-.3.58-.88,1.57-.11,1.69s.16.66-.22.77-.64.47-.5,1.1a8.23,8.23,0,0,1,.08,1.8c0,.44.31,1-.36,1.16s-1,0-.85.58.72.47.38,1.16-.41,1.57-.63,1.13-.36-1-.66-1.1-1,.08-1-.64.06-1-.41-1.21-.25-.53-.61.38-.41,1.16-1,1.35-1.08.56-.69.81.3.49-.31.71-.71.47-1.16,1-1.15.88-.66,1.44,1,.63,1,0,.77-.6,1.16-.19.5.61,1.11.41,1.21-.52,1.38-.16.3,1.27-.2,1.54-.36,1.16-.55,1.55,0,.83.61.94,1.16.33,1.49,0a.69.69,0,0,1,1.1.22c.11.39.75,1.22.17,1.27a2.24,2.24,0,0,1-1.63-.58.93.93,0,0,0-1.21-.24c-.45.3-.81.24-.58.74s.82.66,1,.83.61.44-.11.72-1.65.11-1.65-.33-.33-.34-.33-.89.88-1.16.11-1.05-.89.72-1.27.33-.83-.16-1,.34-.55,1.6-.33,2.09.61.39,1,.06.94-.66.94-.06.33.83-.49,1.22-1.22.88-1.11,1.27.89,1.6,1.38.88.11-2,.78-1.21.27,1.16,0,1.55.16.88-1,.82-1.77.17-.83.5,1.6.66,1.77.33,1.1.66,1.16-.16.11-1.55.83-1.61.44.45.38,1.05.5.94-.22,1.16-1.65.61-.94,1.11,1.55.83.78,1-1.33.44-1.16.72-.72.33-.72.77.44,1.55.83,1.22.94-.78,1.38-.28-.17,1.6.39,1.33,1.27-.44,1.32.05-.55.42-.58.69-.69.42-1.1.69-1.3.45-.69.83,1.21.83,1.21.47-.05-.85.44-.85.94-.36.94.19.2.83.64.77.91.2,1-.38.28-.75.75-.67.72.09.72.5a.74.74,0,0,1-.61.74c-.36.12,0,.53-.42.64s-.41-.19-1-.19-.86,0-1.1.44-.83.94-.31,1.19.33.74,1,.69.39-.31.52.16-.88.8-.47,1.13.81.67,1.19.56.53-.22.58.16-.22.78.28,1,.77.49,1,.19a3.5,3.5,0,0,1,1-.75,15.9,15.9,0,0,1,1.63-1.24c.72-.38,1.05-.58.49-.74s-1.29-.67-1.74-.33a2.65,2.65,0,0,1-1.79.55c-.39-.17-1.22-1-.06-1.08a15.8,15.8,0,0,0,1.8-.19,2.48,2.48,0,0,1,1.6.27c.44.33,1,.58,1,1.16s.36.94-.58,1.16a7.36,7.36,0,0,0-1.68.67c-.36.13-.64.85-.91,1.13a1.14,1.14,0,0,1-1.33.27,13.09,13.09,0,0,0-2.15-.52c-.33,0-.89.11-.89.55s0,.67.42.94,1,.5.63.86.09.47.69.49,1.5.11,1.63-.27S247.57,385.13,247.4,384.55Z"/><path d="M156.07,430V410.94h-7.13v-2.65h17.37v2.65h-7.13V430Z"/><path d="M178.85,423h-10a6.63,6.63,0,0,0,.63,2.87,3.38,3.38,0,0,0,1.68,1.55,7.28,7.28,0,0,0,2.92.49,16,16,0,0,0,4-.6v2.41a17.1,17.1,0,0,1-4.39.61q-4,0-6-2t-2-6.32q0-4,1.77-6.14a6.2,6.2,0,0,1,5-2.09,5.69,5.69,0,0,1,4.75,2.08c1.1,1.39,1.64,3.47,1.64,6.24Zm-9.08-5.9a6.81,6.81,0,0,0-1,4H176a7.18,7.18,0,0,0-.93-4,3,3,0,0,0-2.61-1.19A3.14,3.14,0,0,0,169.77,417.09Z"/><path d="M182,414h2.54l.24,2.13h.17a4.9,4.9,0,0,1,2-1.71,5.69,5.69,0,0,1,2.59-.59,7,7,0,0,1,1.29.12v2.8a9.39,9.39,0,0,0-1.46-.1,5.79,5.79,0,0,0-2.38.53,4.55,4.55,0,0,0-1.89,1.5V430H182Z"/><path d="M193,414h2.55l.23,2.13H196a4.87,4.87,0,0,1,1.95-1.71,5.75,5.75,0,0,1,2.59-.59,6.88,6.88,0,0,1,1.29.12v2.8a9.26,9.26,0,0,0-1.45-.1,5.84,5.84,0,0,0-2.39.53,4.55,4.55,0,0,0-1.89,1.5V430H193Z"/><path d="M204.24,410.47a1.64,1.64,0,0,1-.51-1.3,1.73,1.73,0,0,1,.51-1.33,2.16,2.16,0,0,1,1.5-.47,2.19,2.19,0,0,1,1.5.47,1.73,1.73,0,0,1,.51,1.33,1.64,1.64,0,0,1-.51,1.3,2.19,2.19,0,0,1-1.5.46A2.16,2.16,0,0,1,204.24,410.47ZM204.19,430V414h3.08v16Z"/><path d="M220.44,427.49V430a12.16,12.16,0,0,1-2.61.3c-3.62,0-5.44-1.84-5.44-5.53v-8.27h-2.88V414h2.88l.53-5.75h2.53V414h4.79v2.47h-4.79v7.79a3.75,3.75,0,0,0,.75,2.64,3.15,3.15,0,0,0,2.36.78A9.46,9.46,0,0,0,220.44,427.49Z"/><path d="M223.71,428.27q-1.87-2-1.87-6.2t1.86-6.23a7.71,7.71,0,0,1,10.47,0q1.86,2,1.86,6.21t-1.87,6.21a7.67,7.67,0,0,1-10.45,0Zm8.21-1.69a7.63,7.63,0,0,0,1-4.48c0-2.14-.34-3.66-1-4.55a4,4,0,0,0-5.95,0,7.56,7.56,0,0,0-1,4.49,7.8,7.8,0,0,0,1,4.55,3.47,3.47,0,0,0,3,1.34A3.51,3.51,0,0,0,231.92,426.58Z"/><path d="M239.37,414h2.54l.23,2.13h.18a4.87,4.87,0,0,1,2-1.71,5.75,5.75,0,0,1,2.59-.59,6.88,6.88,0,0,1,1.29.12v2.8a9.26,9.26,0,0,0-1.45-.1,5.87,5.87,0,0,0-2.39.53,4.55,4.55,0,0,0-1.89,1.5V430h-3Z"/><path d="M250.59,410.47a1.64,1.64,0,0,1-.51-1.3,1.73,1.73,0,0,1,.51-1.33,2.63,2.63,0,0,1,3,0,1.73,1.73,0,0,1,.51,1.33,1.64,1.64,0,0,1-.51,1.3,2.68,2.68,0,0,1-3,0Zm0,19.56V414h3.07v16Z"/><path d="M258.83,428.27q-1.87-2-1.88-6.2t1.86-6.23a7.72,7.72,0,0,1,10.48,0c1.23,1.36,1.86,3.43,1.86,6.21s-.63,4.83-1.88,6.21a7.66,7.66,0,0,1-10.44,0Zm8.2-1.69a7.55,7.55,0,0,0,1-4.48c0-2.14-.33-3.66-1-4.55a4,4,0,0,0-5.95,0,7.64,7.64,0,0,0-1,4.49c0,2.14.33,3.65,1,4.55a4,4,0,0,0,6,0Z"/><path d="M283.76,427.66q-2.65-2.64-2.66-8.46t2.72-8.44c1.8-1.84,4.41-2.75,7.8-2.75a18.33,18.33,0,0,1,4.69.6v2.64a16.65,16.65,0,0,0-4.51-.6,9.07,9.07,0,0,0-4.13.84,5.47,5.47,0,0,0-2.48,2.72,15.07,15.07,0,0,0,0,10,5.38,5.38,0,0,0,2.44,2.69,8.87,8.87,0,0,0,4,.81,13.89,13.89,0,0,0,4.66-.78v2.65a15.19,15.19,0,0,1-4.92.78C288.07,430.31,285.52,429.43,283.76,427.66Z"/><path d="M299.23,406.29h3.06v9.49h.16a6.18,6.18,0,0,1,2.14-1.49,7,7,0,0,1,2.65-.5,5,5,0,0,1,3.71,1.4,6.12,6.12,0,0,1,1.38,4.44V430h-3.06V419.8a3.46,3.46,0,0,0-.78-2.54,3,3,0,0,0-2.23-.76,5.36,5.36,0,0,0-2.17.46,4.64,4.64,0,0,0-1.8,1.4V430h-3.06Z"/><path d="M316.36,410.47a1.64,1.64,0,0,1-.51-1.3,1.73,1.73,0,0,1,.51-1.33,2.19,2.19,0,0,1,1.5-.47,2.16,2.16,0,0,1,1.5.47,1.74,1.74,0,0,1,.52,1.33,1.64,1.64,0,0,1-.52,1.3,2.16,2.16,0,0,1-1.5.46A2.19,2.19,0,0,1,316.36,410.47Zm0,19.56V414h3.07v16Z"/><path d="M323.53,430V406.29h3.06V430Z"/><path d="M343.09,423H333a6.79,6.79,0,0,0,.62,2.87,3.36,3.36,0,0,0,1.69,1.55,7.28,7.28,0,0,0,2.92.49,16.11,16.11,0,0,0,4-.6v2.41a17.16,17.16,0,0,1-4.39.61q-4,0-6-2t-2-6.32q0-4,1.77-6.14a6.19,6.19,0,0,1,5-2.09,5.69,5.69,0,0,1,4.75,2.08q1.64,2.08,1.64,6.24Zm-9.09-5.9a6.9,6.9,0,0,0-1,4h7.18a7.18,7.18,0,0,0-.93-4,3,3,0,0,0-2.61-1.19A3.14,3.14,0,0,0,334,417.09Z"/><path d="M346.22,414h2.55l.23,1.77h.16a6.43,6.43,0,0,1,2.22-1.49,7,7,0,0,1,2.7-.53,5.15,5.15,0,0,1,3.83,1.41,6.08,6.08,0,0,1,1.4,4.44V430h-3.06V419.8a3.51,3.51,0,0,0-.77-2.55,3,3,0,0,0-2.24-.77,5.42,5.42,0,0,0-2.15.47,4.45,4.45,0,0,0-1.82,1.4V430h-3Z"/><path d="M364.37,428.27q-1.87-2-1.87-6.2t1.86-6.23a7.71,7.71,0,0,1,10.47,0q1.86,2,1.86,6.21t-1.87,6.21a7.67,7.67,0,0,1-10.45,0Zm8.21-1.69a7.63,7.63,0,0,0,1-4.48c0-2.14-.34-3.66-1-4.55a4,4,0,0,0-5.95,0,7.56,7.56,0,0,0-1,4.49,7.8,7.8,0,0,0,1,4.55,3.46,3.46,0,0,0,3,1.34A3.52,3.52,0,0,0,372.58,426.58Z"/><path d="M60.44,104.25q-4.32-3.89-4.31-12a17.81,17.81,0,0,1,2-8.82A12.73,12.73,0,0,1,64,78a22,22,0,0,1,9.45-1.83,30.43,30.43,0,0,1,6.66.7v6.57a29,29,0,0,0-6-.63,13.08,13.08,0,0,0-5.42,1,6.45,6.45,0,0,0-3.14,3,12,12,0,0,0-1,5.34,12.21,12.21,0,0,0,1,5.4,6.24,6.24,0,0,0,3.05,3,12.71,12.71,0,0,0,5.29,1,23.17,23.17,0,0,0,6.22-.91v6.58a22.25,22.25,0,0,1-3.34.7,25.46,25.46,0,0,1-3.66.27Q64.75,108.14,60.44,104.25Z"/><path d="M87.12,106.81a9.18,9.18,0,0,1-4.05-4,13.87,13.87,0,0,1-1.41-6.54q0-5.9,3-8.94c2-2,4.93-3,8.68-3a13.75,13.75,0,0,1,6.35,1.36,9.12,9.12,0,0,1,4,4,14.19,14.19,0,0,1,1.38,6.55,13.92,13.92,0,0,1-1.41,6.56,9.25,9.25,0,0,1-4,4,13.43,13.43,0,0,1-6.27,1.36A13.61,13.61,0,0,1,87.12,106.81Zm8.38-5.1a3.36,3.36,0,0,0,1.26-1.86,11.85,11.85,0,0,0,.43-3.59,12.12,12.12,0,0,0-.43-3.62,3.31,3.31,0,0,0-1.26-1.88,4.32,4.32,0,0,0-4.22,0A3.33,3.33,0,0,0,90,92.63a11.9,11.9,0,0,0-.43,3.59A12.07,12.07,0,0,0,90,99.84a3.4,3.4,0,0,0,1.26,1.87,4.39,4.39,0,0,0,4.22,0Z"/><path d="M108.65,84.66h6.49l.53,2.25H116a8.11,8.11,0,0,1,2.91-2,9.8,9.8,0,0,1,3.68-.68,7.7,7.7,0,0,1,5.87,2.28q2.16,2.28,2.16,7.1v14.06h-7.9V94.16a3.41,3.41,0,0,0-.68-2.4,2.71,2.71,0,0,0-2-.71,5,5,0,0,0-1.93.39,4.19,4.19,0,0,0-1.56,1.08v15.2h-7.9Z"/><path d="M139.49,106.81a9.18,9.18,0,0,1-4.05-4,13.87,13.87,0,0,1-1.4-6.54q0-5.9,3-8.94c2-2,4.93-3,8.68-3a13.75,13.75,0,0,1,6.35,1.36,9.07,9.07,0,0,1,4,4,14.19,14.19,0,0,1,1.38,6.55,13.92,13.92,0,0,1-1.41,6.56,9.23,9.23,0,0,1-4,4,15.21,15.21,0,0,1-12.55,0Zm8.39-5.1a3.46,3.46,0,0,0,1.26-1.86,12.18,12.18,0,0,0,.43-3.59,12.45,12.45,0,0,0-.43-3.62,3.41,3.41,0,0,0-1.26-1.88,4.34,4.34,0,0,0-4.23,0,3.38,3.38,0,0,0-1.26,1.87,11.9,11.9,0,0,0-.43,3.59,12.07,12.07,0,0,0,.43,3.62,3.45,3.45,0,0,0,1.26,1.87,4.41,4.41,0,0,0,4.23,0Z"/><path d="M163.71,105.15q-3.21-3-3.21-8.91t3.4-9q3.4-3,9.82-3a24.61,24.61,0,0,1,5.31.53V91a25,25,0,0,0-4.18-.38c-2.19,0-3.77.44-4.76,1.32a5.44,5.44,0,0,0-1.48,4.25,5.76,5.76,0,0,0,1.41,4.34,6.06,6.06,0,0,0,4.31,1.33,13.72,13.72,0,0,0,2.11-.16c.71-.12,1.57-.29,2.59-.53v6.16a18.46,18.46,0,0,1-2.8.62,21.83,21.83,0,0,1-3.15.22Q166.93,108.16,163.71,105.15Z"/><path d="M202.7,98.43H189a4.46,4.46,0,0,0,.75,2.28,3.56,3.56,0,0,0,2,1.2,15.74,15.74,0,0,0,3.81.36,29.7,29.7,0,0,0,5.84-.67v5.84a34.15,34.15,0,0,1-7,.72,19.51,19.51,0,0,1-7.57-1.25,8.46,8.46,0,0,1-4.32-3.89,14.61,14.61,0,0,1-1.4-6.84,14.48,14.48,0,0,1,1.3-6.41,9.09,9.09,0,0,1,3.79-4.08,12.24,12.24,0,0,1,6.09-1.41c3.41,0,6,1,7.76,3.15s2.65,5.09,2.65,9Zm-12.92-8.16A6.84,6.84,0,0,0,189,94h6.43a6.88,6.88,0,0,0-.8-3.72,2.71,2.71,0,0,0-2.37-1.09A2.8,2.8,0,0,0,189.78,90.27Z"/><path d="M249,86.55q2.13,2.28,2.13,7.15v14H243.2V94.14a3.37,3.37,0,0,0-.67-2.38,2.43,2.43,0,0,0-1.86-.71,4.51,4.51,0,0,0-1.57.28,3.65,3.65,0,0,0-1.3.86c0,.53,0,.94,0,1.24v14.29H230.1V94.14a3.6,3.6,0,0,0-.61-2.38,2.22,2.22,0,0,0-1.78-.71,4.15,4.15,0,0,0-1.77.39,3.44,3.44,0,0,0-1.36,1.1v15.18h-7.91V84.66h6.5l.52,2.25h.36a8.32,8.32,0,0,1,6.39-2.63,7.81,7.81,0,0,1,3.4.72,5.91,5.91,0,0,1,2.48,2.18A9,9,0,0,1,239.5,85a9.6,9.6,0,0,1,3.67-.72A7.53,7.53,0,0,1,249,86.55Z"/><path d="M270.48,85.26a6.7,6.7,0,0,1,3.59,3.21,13.23,13.23,0,0,1,1.16,6v13.2h-6.48l-.54-2.19h-.36a5.8,5.8,0,0,1-2.48,2,8.67,8.67,0,0,1-3.43.64,9.22,9.22,0,0,1-4.11-.86,6.2,6.2,0,0,1-2.63-2.4,6.8,6.8,0,0,1-.91-3.55,6.28,6.28,0,0,1,2.41-5.27c1.6-1.24,4.14-2,7.6-2.17l3.23-.21a4,4,0,0,0-.53-2.06,2.77,2.77,0,0,0-1.56-1.09,9.76,9.76,0,0,0-2.91-.34,23.74,23.74,0,0,0-3.1.23,22,22,0,0,0-3.16.67V85.25a26.11,26.11,0,0,1,3.79-.71,32.27,32.27,0,0,1,3.94-.26A17.81,17.81,0,0,1,270.48,85.26ZM261.57,82l4.81-8.2h8.34l-6,8.2Zm4.58,20.58a4.2,4.2,0,0,0,1.38-.74V98l-2.39.17a4.11,4.11,0,0,0-2.35.72,2.11,2.11,0,0,0-.74,1.71,2,2,0,0,0,.66,1.61,2.89,2.89,0,0,0,1.9.56A5.42,5.42,0,0,0,266.15,102.53Z"/><path d="M279.09,107.13v-5.7a23.81,23.81,0,0,0,3.64.78,28.8,28.8,0,0,0,3.95.27,6.35,6.35,0,0,0,2.77-.43,1.35,1.35,0,0,0,.82-1.27,1.19,1.19,0,0,0-.34-.92,2.38,2.38,0,0,0-1.21-.46l-4-.7A8.38,8.38,0,0,1,280,96.45a6.43,6.43,0,0,1-1.53-4.54,6.6,6.6,0,0,1,1.26-4,8,8,0,0,1,3.84-2.64,18.88,18.88,0,0,1,6.38-.94,29.86,29.86,0,0,1,3.41.2,21.22,21.22,0,0,1,3,.56v5.7a22.24,22.24,0,0,0-2.94-.57,25,25,0,0,0-3.24-.21,8.49,8.49,0,0,0-3.44.48,1.45,1.45,0,0,0-.95,1.3,1,1,0,0,0,.35.84,2.78,2.78,0,0,0,1.22.47l3.95.69A8.66,8.66,0,0,1,296,95.89a6.26,6.26,0,0,1,1.58,4.62,6.75,6.75,0,0,1-1.27,4.09,8,8,0,0,1-3.69,2.63,16.18,16.18,0,0,1-5.8.93A26.24,26.24,0,0,1,279.09,107.13Z"/><path d="M315.18,106.92a8.64,8.64,0,0,1-3.45-3.79,14.56,14.56,0,0,1-1.28-6.47q0-6,3.29-9.19t9.59-3.21c.63,0,1.4,0,2.29.13V73.75h7.91v34h-6.62l-.49-2.4h-.33a7.07,7.07,0,0,1-2.55,2.07,7.88,7.88,0,0,1-3.51.75A9.73,9.73,0,0,1,315.18,106.92Zm9-5.48a3.79,3.79,0,0,0,1.44-.83V90.42a11.53,11.53,0,0,0-2.27-.21,4.79,4.79,0,0,0-3.76,1.37c-.81.91-1.22,2.41-1.22,4.49s.35,3.54,1,4.39a3.71,3.71,0,0,0,3,1.27A5.44,5.44,0,0,0,324.18,101.44Z"/><path d="M358.64,98.43H344.92a4.37,4.37,0,0,0,.74,2.28,3.59,3.59,0,0,0,2,1.2,15.8,15.8,0,0,0,3.81.36,29.79,29.79,0,0,0,5.85-.67v5.84a34.32,34.32,0,0,1-7,.72,19.51,19.51,0,0,1-7.57-1.25,8.53,8.53,0,0,1-4.32-3.89,14.62,14.62,0,0,1-1.39-6.84,14.63,14.63,0,0,1,1.29-6.41,9.14,9.14,0,0,1,3.79-4.08,12.26,12.26,0,0,1,6.1-1.41c3.4,0,6,1,7.75,3.15s2.65,5.09,2.65,9Zm-12.91-8.16A6.67,6.67,0,0,0,344.9,94h6.43a7,7,0,0,0-.81-3.72,2.69,2.69,0,0,0-2.37-1.09A2.77,2.77,0,0,0,345.73,90.27Z"/><path d="M376.27,104.25q-4.31-3.89-4.3-12a17.81,17.81,0,0,1,2-8.82A12.81,12.81,0,0,1,379.86,78a22,22,0,0,1,9.44-1.83,30.59,30.59,0,0,1,6.67.7v6.57a29,29,0,0,0-6-.63,13.13,13.13,0,0,0-5.43,1,6.43,6.43,0,0,0-3.13,3,12,12,0,0,0-1,5.34,12.35,12.35,0,0,0,1,5.4,6.22,6.22,0,0,0,3.06,3,12.71,12.71,0,0,0,5.29,1,23.17,23.17,0,0,0,6.22-.91v6.58a22.13,22.13,0,0,1-3.35.7,25.22,25.22,0,0,1-3.65.27Q380.59,108.14,376.27,104.25Z"/><path d="M399.33,73.75h7.9V86.89h.36A7.29,7.29,0,0,1,410.25,85a8.53,8.53,0,0,1,3.45-.67,7.88,7.88,0,0,1,3.92,1,6.65,6.65,0,0,1,2.71,3.06,12.37,12.37,0,0,1,1,5.35v14.06h-7.9V94.2a3.49,3.49,0,0,0-.68-2.43,2.67,2.67,0,0,0-2-.72,5,5,0,0,0-1.93.39,4.19,4.19,0,0,0-1.56,1.08v15.2h-7.9Z"/><path d="M426,80.87a4.32,4.32,0,0,1,0-5.93,5.43,5.43,0,0,1,3.62-1,5.36,5.36,0,0,1,3.59,1,4.32,4.32,0,0,1,0,5.93,5.36,5.36,0,0,1-3.59,1A5.43,5.43,0,0,1,426,80.87Zm-.36,26.85V84.66h7.93v23.06Z"/><path d="M438.1,107.72v-34H446v34Z"/><path d="M471.12,98.43H457.4a4.37,4.37,0,0,0,.74,2.28,3.59,3.59,0,0,0,2,1.2,15.8,15.8,0,0,0,3.81.36,29.79,29.79,0,0,0,5.85-.67v5.84a34.24,34.24,0,0,1-7,.72,19.51,19.51,0,0,1-7.57-1.25,8.53,8.53,0,0,1-4.32-3.89,14.62,14.62,0,0,1-1.39-6.84,14.63,14.63,0,0,1,1.29-6.41,9.14,9.14,0,0,1,3.79-4.08,12.26,12.26,0,0,1,6.1-1.41c3.4,0,6,1,7.75,3.15s2.65,5.09,2.65,9Zm-12.91-8.16a6.75,6.75,0,0,0-.83,3.72h6.43a7,7,0,0,0-.81-3.72,2.69,2.69,0,0,0-2.37-1.09A2.77,2.77,0,0,0,458.21,90.27Z"/><rect class="cls-1" x="236.15" y="446.72" width="54.4" height="37.1"/><rect class="cls-2" x="236.15" y="465.46" width="54.4" height="18.35"/><rect class="cls-3" x="236.15" y="446.72" width="18.74" height="18.74"/><polygon class="cls-1" points="245.52 450.92 246.8 454.87 250.95 454.87 247.6 457.31 248.88 461.26 245.52 458.82 242.16 461.26 243.45 457.31 240.09 454.87 244.24 454.87 245.52 450.92"/><rect class="cls-4" x="236.15" y="446.72" width="54.4" height="37.1"/></g></g></svg>