<?xml version="1.0" encoding="utf-8"?>
<!-- Generator: Adobe Illustrator 26.2.1, SVG Export Plug-In . SVG Version: 6.00 Build 0)  -->
<svg version="1.1" id="Capa_1" xmlns="http://www.w3.org/2000/svg" xmlns:xlink="http://www.w3.org/1999/xlink" x="0px" y="0px"
	 viewBox="0 0 466.4 684.9" style="enable-background:new 0 0 466.4 684.9;" xml:space="preserve">
<style type="text/css">
	.st0{fill:#FFFFFF;}
	.st1{fill:url(#SVGID_1_);}
	.st2{fill:#747678;}
	.st3{fill:#D52B1E;}
	.st4{fill:#009B3A;}
	.st5{fill:#82C190;}
	.st6{clip-path:url(#SVGID_00000098216224928678504600000003028031927762117814_);}
</style>
<g id="Capa_2_00000021818374764930052870000004598325512610385541_">
	<g id="Capa_1-2">
		<polygon class="st0" points="466.4,0 0,0 0,684.9 466.4,585.2 		"/>
		
			<linearGradient id="SVGID_1_" gradientUnits="userSpaceOnUse" x1="219.44" y1="441.8595" x2="368.84" y2="441.8595" gradientTransform="matrix(1 0 0 -1 0 686)">
			<stop  offset="0.12" style="stop-color:#8B0304"/>
			<stop  offset="0.18" style="stop-color:#9D0D0A"/>
			<stop  offset="0.29" style="stop-color:#BC1D15"/>
			<stop  offset="0.39" style="stop-color:#CE271C"/>
			<stop  offset="0.45" style="stop-color:#D52B1E"/>
			<stop  offset="1" style="stop-color:#D52B1E"/>
		</linearGradient>
		<path class="st1" d="M364.1,133.7c0,0-27.6-3.5-78.1,9.6c-37,10.3-60.6,19.7-70.4,24c3,16.7,4.5,40.1,4.5,68.5
			c-0.1,57.3-7.7,88.5-9.1,94c-0.9,4.6-1.8,8-2.5,11.4c-1.1,7.7,5.4,16.2,30.6,13.2c30.8-3.6,38.1-14.9,78.1-14.8c30-0.1,47,8,47,8
			c-33.6-63.2-71.6-106-71.6-106S322.2,180.4,364.1,133.7z"/>
		<path class="st2" d="M245.3,329.2c0.1-2.9-2-5-5.9-6.3c-2.8-0.9-8.8-3.6-26.9-2.3c-1.2,9.3-4.1,19.8-4.1,21.2
			c3-11.2,28.2-6.9,31.6-7.2C242.9,334.6,245.3,332.2,245.3,329.2z"/>
		<path class="st3" d="M254.5,235.8c0-39.2-2.9-68.7-8.5-84.6c-7-21.7-25.2-28.1-38.1-28.1c-41.8,0-95,17.9-123.4,29
			c5.5,5.8,9.6,12.8,12,20.5c7,19.9,10.6,56.9,10.6,106c-0.1,27.1-1.4,49.6-3.2,67.4c0,0.2,0,0.4,0,0.6
			c59.5-21.8,95.7-25.7,119.1-25.7c16.1,0,23.7,3.5,22.2,9.7C245.1,330.6,254.3,299.1,254.5,235.8z"/>
		<path class="st0" d="M222.8,237.8c3.8,4.5,5.6,10.5,5.6,17.9c0,7.5-2,13.7-5.9,18.8c-3.9,5-10.2,8.9-18.9,11.5s-20.2,4-34.4,4
			c-4.9,0-10.5-0.2-16.9-0.7c-6.4-0.4-12.1-1-17.2-1.8v-112c6.3-1.4,12.7-2.4,19.1-3.1c6.6-0.8,13.3-1.1,19.9-1.2
			c17.7,0,30.6,2.7,38.8,8.1s12.3,13.6,12.3,24.6c0.1,5.6-1.6,11.1-4.8,15.7c-3.2,4.4-7.8,7.7-13.1,9.2
			C213.9,230.4,219,233.3,222.8,237.8z M164.4,194.2v24.2h14.4c6.7,0,11.4-1,14.2-3.1s4.2-5.3,4.2-9.7c0.1-2.6-0.5-5.1-1.9-7.3
			c-1.5-2-3.6-3.5-6-4.1c-3.6-1-7.4-1.4-11.2-1.3C173.5,193,168.9,193.4,164.4,194.2L164.4,194.2z M191.4,267c3.4-1,5.8-2.5,7.3-4.5
			c1.5-2.4,2.3-5.1,2.1-7.9c0-4.9-1.5-8.4-4.5-10.6c-3-2.2-8-3.3-15-3.3h-16.9v27.2c3.9,0.4,8.3,0.5,13.1,0.5
			C182.1,268.6,186.8,268.1,191.4,267L191.4,267z"/>
		<path class="st2" d="M127.4,428.5c2.2,2.7,3.4,6.3,3.4,10.7c0.1,4-1.1,8-3.5,11.2c-2.3,3-6.1,5.3-11.3,6.9s-12.1,2.4-20.5,2.4
			c-2.9,0-6.3-0.1-10.1-0.4s-7.2-0.6-10.2-1v-66.8c3.8-0.8,7.6-1.5,11.4-1.9c4-0.4,7.9-0.7,11.9-0.7c10.5,0,18.3,1.6,23.2,4.8
			s7.3,8.1,7.4,14.7c0.1,3.4-0.9,6.6-2.9,9.4c-1.9,2.6-4.7,4.6-7.8,5.5C121.8,423.9,125,425.8,127.4,428.5z M92.5,402.5V417h8.6
			c4,0,6.8-0.6,8.5-1.8s2.5-3.1,2.5-5.8c0.1-1.5-0.3-3.1-1.1-4.4c-0.9-1.2-2.2-2.1-3.6-2.5c-2.2-0.6-4.4-0.9-6.7-0.8
			C98,401.8,95.2,402,92.5,402.5L92.5,402.5z M108.6,446c1.7-0.4,3.2-1.3,4.3-2.7c0.9-1.4,1.4-3.1,1.3-4.7c0-2.9-0.9-5-2.7-6.3
			c-1.8-1.3-4.8-2-9-2H92.5v16.3c2.3,0.2,4.9,0.3,7.8,0.3C103.1,446.9,105.9,446.6,108.6,446L108.6,446z M184.8,458.9l-5-17h-24.2
			l-5,17h-17.3l21.4-69.1H181l21.4,69.1L184.8,458.9z M159.7,427.8h16l-8-27.4L159.7,427.8z M260.7,428.6c2.2,2.7,3.4,6.3,3.4,10.7
			c0.1,4-1.1,8-3.5,11.2c-2.3,3-6.1,5.3-11.3,6.9c-5.2,1.6-12,2.4-20.5,2.4c-2.9,0-6.3-0.1-10.1-0.4s-7.2-0.6-10.2-1v-66.9
			c3.8-0.8,7.6-1.5,11.4-1.9c4-0.4,7.9-0.7,11.9-0.7c10.6,0,18.3,1.6,23.2,4.8c4.9,3.2,7.4,8.1,7.4,14.7c0.1,3.4-0.9,6.6-2.9,9.4
			c-1.9,2.7-4.7,4.6-7.8,5.5C255.1,423.9,258.3,425.8,260.7,428.6L260.7,428.6z M225.8,402.6V417h8.6c4,0,6.8-0.6,8.5-1.8
			c1.7-1.2,2.5-3.1,2.5-5.8c0.1-1.5-0.3-3.1-1.1-4.4c-0.9-1.2-2.1-2.1-3.6-2.5c-2.2-0.6-4.4-0.9-6.7-0.8
			C231.3,401.8,228.5,402,225.8,402.6L225.8,402.6z M242,446c1.7-0.4,3.2-1.3,4.3-2.7c0.9-1.4,1.4-3.1,1.3-4.7c0-2.9-0.9-5-2.7-6.3
			s-4.8-2-9-2h-10.1v16.2c2.3,0.2,4.9,0.3,7.8,0.3C236.4,446.9,239.2,446.6,242,446L242,446z M289.5,444.7h33.4v14.2h-51.1v-69.1
			h50.6V404h-32.9v12.5h28.1v14.2h-28.1L289.5,444.7z M372,458.9l-16.3-24.2c-0.9,0-2.2,0-3.8-0.1c-1.1-0.1-1.9-0.1-2.4-0.1v24.4
			h-17.6v-67.4c3.7-0.8,7.4-1.4,11.1-1.9c3.9-0.5,7.7-0.7,11.6-0.7c10.3,0,18,1.9,23.2,5.6c5.2,3.7,7.8,9.5,7.8,17.2
			c0.5,8.7-4.7,16.8-12.8,19.9l18.7,27.2H372z M349.5,421.1c2.3,0.3,4.6,0.4,6.9,0.4c4.2,0,7.4-0.8,9.4-2.3c2.1-1.5,3.1-4,3.1-7.5
			c0-3.3-1-5.8-3-7.4s-5.1-2.4-9.2-2.4c-2.4,0-4.7,0.2-7.1,0.6L349.5,421.1z"/>
		<path class="st4" d="M106.6,533.4h33.3l-1.3,7.6H96l11.3-64.4h42.1l-1.4,7.6h-32.8l-3.5,20h28.4l-1.3,7.6h-28.5L106.6,533.4z"/>
		<path class="st4" d="M176.5,517l13.1,24h-10.3l-9.5-17.4L154.2,541h-10.1l21.5-23.8l-12.8-23.5h10.3l9.2,16.9l15.1-16.9h10
			L176.5,517z"/>
		<path class="st4" d="M204.6,493.7h7.8l-0.3,5.2h0.5c1.8-1.9,4-3.3,6.3-4.4c2.5-1.1,5.1-1.6,7.8-1.6c3.3-0.1,6.5,0.7,9.4,2.4
			c2.7,1.8,4.7,4.5,5.5,7.7c1.1,3.5,1.1,8,0.2,13.5c-1.5,8.4-4.7,14.8-9.6,19c-4.9,4.2-11.5,6.4-19.7,6.4c-2.3,0-4.7-0.2-7-0.5
			l-3.3,18.8h-9.2L204.6,493.7z M226.1,530.5c3-2.8,5.1-7.2,6.2-13.3c1.1-6.1,0.8-10.4-0.9-12.9c-1.7-2.5-4.5-3.8-8.4-3.8
			c-2.1,0-4.1,0.4-6,1.2c-2,0.8-3.8,2.1-5.3,3.8l-5,28.4c1.1,0.3,2.2,0.4,3.3,0.6c1.2,0.1,2.5,0.2,3.7,0.2
			C218.9,534.7,223,533.3,226.1,530.5L226.1,530.5z"/>
		<path class="st4" d="M306.3,493.6h7.6l-0.4,6.3h0.5c1.8-2.2,4.2-3.9,6.8-5.1c2.5-1.2,5.3-1.8,8.1-1.8c1.3,0,2.6,0.1,3.8,0.3
			l-1.5,8.3c-1.4-0.2-2.9-0.3-4.3-0.3c-2.6,0-5.1,0.6-7.5,1.6c-2.5,1-4.7,2.5-6.5,4.4l-5.9,33.5h-9.2L306.3,493.6z"/>
		<path class="st4" d="M364,533.4l-1.3,7.5c-2.6,0.6-5.3,0.8-8,0.9c-10.9,0-15.4-5.5-13.5-16.4l4.3-24.5h-8.7l1.3-7.3h8.7l4.6-17.1
			h7.6l-3,17.1h14.4l-1.3,7.3h-14.4l-4.1,23c-0.7,3.7-0.4,6.3,0.9,7.8c1.2,1.5,3.5,2.3,6.7,2.3C360.2,534,362.1,533.8,364,533.4z"/>
		<path class="st3" d="M271.8,503.4c7.3,0,13.1,5.9,13.1,13.1c0,7.3-5.9,13.2-13.1,13.2s-13.1-5.9-13.1-13.2l0,0
			C258.6,509.3,264.5,503.4,271.8,503.4 M271.8,492.6c-13.3,0-24,10.7-24,24c0,13.3,10.7,24,24,24s24-10.7,24-24
			C295.8,503.3,285,492.6,271.8,492.6L271.8,492.6z"/>
		<path class="st5" d="M294.1,478.5c-3.3-2.1-8.9-1.8-14.1,1.2s-8.4,7.6-8.2,11.5c3.3,2.1,12.3-0.1,15.4-2
			C291.4,486.6,294.2,482.4,294.1,478.5z"/>
		<g>
			<defs>
				<path id="SVGID_00000011742565718662717860000015176610080415737242_" d="M294.1,478.5c-3.3-2.1-8.9-1.8-14.1,1.2
					s-8.4,7.6-8.2,11.5c3.3,2.1,12.3-0.1,15.4-2C291.4,486.6,294.2,482.4,294.1,478.5z"/>
			</defs>
			<clipPath id="SVGID_00000119102978850702092350000014087482740246518440_">
				<use xlink:href="#SVGID_00000011742565718662717860000015176610080415737242_"  style="overflow:visible;"/>
			</clipPath>
			<g style="clip-path:url(#SVGID_00000119102978850702092350000014087482740246518440_);">
				<path class="st4" d="M305.7,478.1c-5.1-1.6-14.8,0.3-23.5,5.1c-8.9,5-14.9,12-15.5,17.2c4.8,2.1,13.9,0.5,22.8-4.5
					S305,483.3,305.7,478.1z"/>
			</g>
		</g>
	</g>
</g>
</svg>
