<svg xmlns="http://www.w3.org/2000/svg" viewBox="0 0 599.02 638.03"><g id="Capa_2" data-name="Capa 2"><g id="logo_premium_fruit" data-name="logo_premium fruit"><path d="M370.64,339.44H351.78V258.69h18.86Zm7,19.75H358.76v80.75h18.85ZM186.12,207.08l-4-9.69-4,9.69-10.43.78,8,6.77-2.47,10.17,8.91-5.49,8.9,5.49-2.47-10.17,8-6.77Zm186.55-10.45-6.45-15.7-6.45,15.7-16.93,1.29,13,11-4,16.51,14.44-8.92,14.45,8.92-4-16.51,13-11ZM255.27,83.2l17.56,17.6-13.22,3.09-15.4-15.68c-.64.15-1.51.33-2.62.54-.73.12-1.28.22-1.64.31l4.31,18.42-12,2.81-11.92-51a64.25,64.25,0,0,1,7.23-3.18,62.27,62.27,0,0,1,7.79-2.38q10.51-2.46,16.78.56t8.32,11.77a17.9,17.9,0,0,1-.08,9.74A15.3,15.3,0,0,1,255.27,83.2Zm-6.16-14.46c-.6-2.54-1.72-4.25-3.38-5.13s-3.9-1-6.71-.33a26,26,0,0,0-4.73,1.59l3.29,14a35,35,0,0,0,4.74-.77q4.34-1,6-3.25T249.11,68.74Zm-73.9,307.37h34.32V359.19H156.35v80.75h18.86v-30.5h29.21V392.53H175.21Zm-6.78-68.48,19.69,31.81H167.69l-17.18-28.27c-1,0-2.33,0-4-.1-1.11-.08-1.95-.11-2.5-.11v28.48H125.46V260.65a102.4,102.4,0,0,1,11.69-2.18,94,94,0,0,1,12.23-.82q16.25,0,24.4,6.58t8.15,20.1a27,27,0,0,1-3.46,14.24A23.1,23.1,0,0,1,168.43,307.63Zm-4.08-23.3q0-5.9-3.19-8.67t-9.72-2.79a38.46,38.46,0,0,0-7.46.71V295.3a53.41,53.41,0,0,0,7.22.49q6.68,0,9.91-2.7T164.35,284.33Zm83.72,38.52H213V306.48h29.56V289.9H213V275.27h34.61V258.69H194.36v80.75h53.71Zm93-217.56,15.31-14.42,5.47,20.31,13.25,3.76-8.84-31.75,21.93-20.32-12.93-3.66L362,71.62l-4.81-17.53-13.31-3.77,8.22,29.05-23.24,21.39-.07,1.06ZM204,63.75,172,79l23.05,48.45,32.24-15.33-4.74-10-21.07,10-4.67-9.82,17.74-8.44-4.74-10L192.1,92.36l-4.17-8.77L208.7,73.7ZM483.81,228l38.73-16.67,5.9,13.7L539,220.49l-16.76-38.94-10.56,4.55,5.9,13.69-38.73,16.67ZM331.24,59.79l.73-11-35.29-2.34L293.13,100l35.62,2.36,0-.54-.82-.24.89-.82.62-9.4L306.2,89.82,306.92,79l19.6,1.29.73-11L307.65,68l.64-9.7Zm94.25,380.15V376.49h22.44v-17.3H384.14v17.3h22.44v63.45ZM169.05,106.08a10.28,10.28,0,0,1-1.73,6.69,10.88,10.88,0,0,1,7.6-.64,13.51,13.51,0,0,1,6.93,5.18,14.85,14.85,0,0,1,3.35,8.41q.2,4.28-3,9.05T171.91,145q-2.44,1.88-5.8,4c-2.24,1.46-4.3,2.69-6.18,3.71l-31.56-41.23a63.49,63.49,0,0,1,5.44-6,69.15,69.15,0,0,1,6.27-5.49q8.79-6.72,15.14-6.88t11,5.94A13,13,0,0,1,169.05,106.08Zm-10.33,5.34a5.37,5.37,0,0,0-1.32-4.62,6.51,6.51,0,0,0-2.68-2.22,4.6,4.6,0,0,0-3.15,0,14.26,14.26,0,0,0-4.08,2.34,29.68,29.68,0,0,0-4.21,4l6.83,8.92,4.77-3.65Q158.2,113.64,158.72,111.42ZM162,123.71l-5.6,4.29L164,138q2.1-1.29,4.48-3.11a19.85,19.85,0,0,0,4.21-4.09,5.42,5.42,0,0,0,1.14-3.5,6.77,6.77,0,0,0-1.52-3.47c-1.37-1.78-2.86-2.7-4.48-2.74S164.28,121.94,162,123.71ZM306.36,327.6l15.86-41.52v53.36H339.8V258.69h-23L299,306.05l-18.31-47.36h-23v80.75h17.58V287.82l15.86,39.78ZM178.23,507a38.26,38.26,0,0,0-3.55-8.05A229.74,229.74,0,0,1,79,368.36H73.9A234.71,234.71,0,0,0,178.23,507Zm80-327.67,22.85,19.41L274,227.81l25.52-15.74L325,227.81l-7.08-29.12,22.84-19.41L310.9,177l-11.39-27.72L288.11,177ZM59.32,260.22a110.46,110.46,0,0,1,23.23-2.57q17,0,25.38,7.2t8.35,22.54q0,14.67-8.12,22.2t-23.89,7.53c-1,0-2.33,0-4-.11L78.18,317v22.48H59.32Zm18.86,41a49.59,49.59,0,0,0,6.28.44q7.08,0,10.31-3.28T98,287.55q0-7.53-3.32-10.94T84.32,273.2a31.86,31.86,0,0,0-6.14.49ZM106.64,132l50.85,22.76-7.84,9.43-12.41-5.76-10.82,13,8,11.11-7.75,9.34L94.92,146.1Zm.41,12.39,12.78,17.86,7.15-8.61Zm-10.48,36.9a10.25,10.25,0,0,1,1.35,6.78,11,11,0,0,1,6.57-3.88,13.51,13.51,0,0,1,8.49,1.65,14.9,14.9,0,0,1,6.68,6.12q2,3.77,1.21,9.46t-4.82,13.65c-.92,1.82-2.08,3.88-3.46,6.16s-2.7,4.3-4,6l-46.34-23.4a64.67,64.67,0,0,1,2.29-7.77,67.75,67.75,0,0,1,3.27-7.67q5-9.87,10.64-12.78t12.51.56A13,13,0,0,1,96.57,181.28Zm-7,9.31a5.44,5.44,0,0,0-3.21-3.6,6.54,6.54,0,0,0-3.37-.83,4.68,4.68,0,0,0-2.84,1.39,14.31,14.31,0,0,0-2.65,3.89,29.34,29.34,0,0,0-2.07,5.38l10,5.07,2.71-5.36Q90.08,192.81,89.6,190.59Zm5.08,15.94L106,212.22a53.77,53.77,0,0,0,2.68-4.75,19.47,19.47,0,0,0,2-5.51,5.43,5.43,0,0,0-.49-3.65,6.75,6.75,0,0,0-2.88-2.46q-3-1.51-5.23-.51c-1.47.66-2.87,2.3-4.18,4.9ZM590.59,318.77c.15-2.2,1.89-5,3.59-7.66,2.27-3.6,4.84-7.68,4.84-12.25s-2.57-8.66-4.84-12.26c-1.69-2.68-3.44-5.45-3.59-7.66s1.22-5.29,2.55-8.21c1.84-4,3.73-8.19,3.13-12.66s-3.72-8.22-6.46-11.48c-2-2.42-4.15-4.94-4.6-7.11s.49-5.39,1.41-8.46c1.27-4.25,2.58-8.64,1.36-13s-4.8-7.62-8-10.47c-2.36-2.13-4.8-4.33-5.54-6.43s-.25-5.4.23-8.56c.68-4.39,1.38-8.92-.43-13.07s-5.79-6.88-9.3-9.27c-2.64-1.79-5.36-3.64-6.38-5.62s-1-5.3-.94-8.5c.07-4.44.14-9-2.22-12.9s-6.67-6-10.47-7.9c-2.85-1.42-5.81-2.88-7.1-4.71s-1.69-5.11-2.07-8.28c-.51-4.21-1.09-9-4-12.49s-7.42-5-11.44-6.4c-3-1-6.15-2.07-7.68-3.71s-2.37-4.83-3.17-7.91c-1.08-4.1-2.3-8.75-5.61-11.85s-8-4-12.2-4.79c-3.13-.6-6.37-1.22-8.11-2.63s-3-4.47-4.22-7.41c-1.62-3.92-3.46-8.36-7.17-11s-8.49-2.87-12.72-3.1c-3.19-.17-6.49-.34-8.41-1.51s-3.57-4-5.18-6.76c-2.14-3.66-4.56-7.81-8.6-9.91s-8.6-1.7-13-1.33c-3.19.27-6.48.55-8.55-.35s-4.07-3.48-6-6c-2.62-3.34-5.6-7.12-9.89-8.65s-8.74-.51-13.06.47c-3.13.71-6.35,1.43-8.53.82s-4.51-2.88-6.79-5.08c-3.06-2.95-6.53-6.3-11-7.22s-8.71.69-12.86,2.25c-3,1.13-6.1,2.29-8.35,2s-4.85-2.23-7.41-4.1C328.4,3.18,324.51.34,320,0s-8.52,1.87-12.41,4c-2.83,1.53-5.75,3.1-8,3.1s-5.2-1.57-8-3.1c-3.89-2.1-7.89-4.27-12.41-4s-8.46,3.15-11.89,5.66c-2.56,1.87-5.21,3.8-7.4,4.1s-5.36-.86-8.36-2c-4.15-1.56-8.43-3.17-12.86-2.25s-7.94,4.27-11,7.22c-2.28,2.21-4.65,4.48-6.79,5.08s-5.4-.11-8.52-.82c-4.33-1-8.81-2-13.07-.47s-7.26,5.31-9.89,8.65c-2,2.5-4,5.09-6,6s-5.37.62-8.55.35c-4.41-.37-9-.76-13,1.33s-6.47,6.25-8.61,9.91c-1.6,2.75-3.26,5.6-5.17,6.76s-5.22,1.34-8.41,1.51c-4.23.22-9,.47-12.72,3.09s-5.55,7.07-7.17,11c-1.22,2.94-2.48,6-4.22,7.4s-5,2-8.12,2.64C103.11,76,98.4,76.86,95.08,80S90.54,87.7,89.47,91.8c-.81,3.09-1.65,6.28-3.18,7.92s-4.65,2.69-7.68,3.7c-4,1.35-8.57,2.89-11.44,6.41s-3.44,8.28-4,12.49c-.38,3.16-.78,6.44-2.08,8.28s-4.24,3.29-7.1,4.7c-3.8,1.89-8.11,4-10.47,7.91s-2.29,8.46-2.22,12.9c0,3.19.11,6.5-.93,8.5s-3.75,3.83-6.38,5.61c-3.51,2.39-7.49,5.1-9.31,9.28s-1.11,8.68-.43,13.07c.49,3.16,1,6.43.23,8.56s-3.18,4.3-5.54,6.43c-3.15,2.85-6.72,6.07-7.95,10.47s.09,8.74,1.36,13c.92,3.07,1.87,6.24,1.41,8.46s-2.56,4.68-4.6,7.11c-2.74,3.26-5.84,6.95-6.46,11.48S4,266.7,5.88,270.73c1.33,2.92,2.7,5.94,2.55,8.21s-1.89,5-3.59,7.66C2.57,290.2,0,294.28,0,298.86s2.57,8.65,4.84,12.25c1.7,2.68,3.44,5.46,3.59,7.66S7.21,324.06,5.88,327c-1.84,4-3.73,8.19-3.13,12.66s3.72,8.22,6.46,11.47c2,2.44,4.15,4.95,4.6,7.12s-.49,5.39-1.41,8.46c-1.27,4.25-2.58,8.64-1.37,13s4.81,7.62,8,10.47c2.36,2.13,4.8,4.34,5.54,6.43s.26,5.4-.23,8.56c-.68,4.38-1.38,8.92.43,13.07s5.8,6.88,9.31,9.27c2.63,1.79,5.35,3.64,6.38,5.62s1,5.3.93,8.5c-.07,4.44-.14,9,2.22,12.9s6.67,6,10.47,7.9c2.85,1.42,5.81,2.88,7.1,4.71s1.69,5.11,2.08,8.28c.51,4.2,1.08,9,4,12.49s7.42,5.05,11.44,6.4c3,1,6.15,2.07,7.68,3.71s2.37,4.83,3.18,7.91c1.07,4.1,2.29,8.75,5.61,11.85s8,4,12.19,4.79c3.13.6,6.38,1.22,8.12,2.63s3,4.46,4.21,7.41c1.62,3.92,3.46,8.36,7.17,11s8.5,2.87,12.72,3.1c3.19.16,6.49.34,8.41,1.51s3.57,4,5.18,6.75c2.14,3.67,4.56,7.82,8.6,9.92s8.6,1.7,13,1.33c3.19-.27,6.48-.55,8.55.35a10.11,10.11,0,0,1,3.07,2.4c-.07-3-.19-6.26-.36-9.66-3.77-1.5-7.9-1.17-11.91-.83-3.33.28-6.76.57-8.79-.48s-3.79-4.05-5.48-6.94c-2.09-3.58-4.26-7.29-7.84-9.47s-7.89-2.42-12-2.64c-3.33-.17-6.78-.35-8.65-1.67s-3.2-4.53-4.48-7.62c-1.58-3.83-3.22-7.8-6.48-10.46s-7.48-3.46-11.57-4.24c-3.28-.62-6.67-1.27-8.35-2.84s-2.55-4.9-3.4-8.14c-1-4-2.14-8.17-5-11.24s-6.94-4.44-10.88-5.77c-3.16-1.06-6.44-2.16-7.89-3.95s-1.87-5.2-2.27-8.51c-.5-4.13-1-8.4-3.44-11.83s-6.27-5.34-10-7.18c-3-1.49-6.1-3-7.29-5s-1.14-5.4-1.09-8.74c.07-4.16.14-8.46-1.8-12.2s-5.48-6.13-8.91-8.46c-2.77-1.88-5.63-3.83-6.55-5.95s-.39-5.49.12-8.79c.64-4.11,1.29-8.36-.12-12.34s-4.58-6.81-7.66-9.59c-2.48-2.25-5.06-4.57-5.68-6.8s.38-5.49,1.33-8.67c1.19-4,2.43-8.12,1.57-12.26s-3.6-7.37-6.26-10.54c-2.16-2.57-4.39-5.23-4.7-7.53s1.12-5.37,2.49-8.39c1.73-3.8,3.52-7.73,3.24-11.95s-2.56-7.78-4.77-11.28c-1.79-2.84-3.65-5.78-3.65-8.11s1.86-5.28,3.65-8.12c2.21-3.5,4.49-7.11,4.77-11.28s-1.51-8.15-3.24-11.95c-1.37-3-2.8-6.15-2.49-8.39s2.54-5,4.7-7.53c2.66-3.17,5.42-6.45,6.26-10.54s-.38-8.26-1.57-12.25c-.95-3.19-1.94-6.49-1.33-8.68s3.2-4.56,5.68-6.8c3.08-2.78,6.26-5.65,7.66-9.59s.76-8.23.12-12.35c-.51-3.29-1-6.7-.12-8.79s3.78-4.06,6.55-6c3.43-2.33,7-4.74,8.91-8.46s1.87-8,1.81-12.2c-.06-3.33-.11-6.78,1.08-8.73s4.3-3.51,7.29-5c3.72-1.85,7.57-3.75,10-7.18s3-7.71,3.45-11.83c.4-3.31.81-6.74,2.26-8.52s4.73-2.88,7.9-4c3.93-1.32,8-2.69,10.87-5.76s4-7.23,5-11.25c.85-3.23,1.72-6.57,3.4-8.14s5.07-2.21,8.35-2.84c4.08-.78,8.3-1.58,11.56-4.24s4.9-6.62,6.49-10.46c1.28-3.09,2.6-6.28,4.48-7.61s5.31-1.5,8.64-1.68c4.16-.22,8.45-.44,12-2.63s5.74-5.89,7.83-9.47c1.69-2.89,3.44-5.88,5.49-6.94s5.46-.76,8.78-.48c4.15.35,8.43.71,12.3-1s6.49-5,9-8.3c2.07-2.64,4.21-5.36,6.39-6.14s5.51,0,8.76.73c4.06.92,8.26,1.87,12.33.73s7.1-4.1,10.08-7c2.42-2.33,4.91-4.74,7.19-5.21s5.44.75,8.55,1.92c3.9,1.46,7.94,3,12.13,2.41s7.59-3.08,10.93-5.52c2.72-2,5.52-4,7.85-4.19s5.27,1.48,8.19,3.06c3.68,2,7.48,4,11.72,4s8-2,11.72-4c2.92-1.58,5.95-3.2,8.19-3.06S324.55,10,327.26,12c3.35,2.44,6.8,5,10.94,5.52s8.23-.94,12.13-2.41c3.11-1.17,6.33-2.38,8.55-1.92s4.77,2.88,7.19,5.21c3,2.87,6.06,5.84,10.09,7s8.26.19,12.32-.73c3.25-.73,6.61-1.49,8.76-.73s4.32,3.5,6.39,6.14c2.56,3.26,5.2,6.63,9.05,8.3s8.14,1.32,12.29,1c3.33-.28,6.76-.57,8.79.48s3.79,4.05,5.48,6.94c2.09,3.58,4.26,7.29,7.84,9.47s7.89,2.42,12,2.64c3.33.17,6.78.35,8.65,1.67s3.2,4.53,4.47,7.61c1.59,3.84,3.23,7.81,6.49,10.46s7.48,3.47,11.57,4.24c3.28.63,6.67,1.28,8.35,2.85s2.55,4.9,3.4,8.14c1.05,4,2.14,8.17,5,11.24s6.94,4.44,10.88,5.77c3.17,1.06,6.44,2.16,7.89,3.95s1.87,5.2,2.27,8.51c.5,4.13,1,8.4,3.44,11.83s6.27,5.34,10,7.18c3,1.49,6.1,3,7.3,5s1.13,5.4,1.08,8.74c-.07,4.16-.14,8.46,1.8,12.2s5.48,6.13,8.91,8.46c2.77,1.88,5.63,3.83,6.55,5.95s.39,5.49-.12,8.79c-.63,4.11-1.29,8.36.12,12.34s4.58,6.81,7.66,9.59c2.48,2.25,5.06,4.57,5.68,6.8s-.37,5.48-1.33,8.67c-1.19,4-2.43,8.12-1.57,12.26s3.6,7.37,6.26,10.54c2.16,2.57,4.39,5.23,4.7,7.53s-1.12,5.37-2.49,8.39c-1.73,3.8-3.52,7.73-3.24,11.95s2.56,7.78,4.77,11.28c1.79,2.84,3.65,5.78,3.65,8.12s-1.86,5.27-3.65,8.11c-2.21,3.5-4.49,7.11-4.77,11.28s1.51,8.15,3.24,11.95c1.37,3,2.8,6.15,2.49,8.39s-2.54,5-4.7,7.53c-2.66,3.17-5.42,6.45-6.26,10.54s.38,8.26,1.57,12.26c1,3.19,1.94,6.48,1.33,8.67s-3.2,4.56-5.69,6.8c-3.07,2.78-6.25,5.65-7.65,9.59s-.75,8.23-.12,12.34c.51,3.3,1,6.71.12,8.8s-3.78,4.06-6.55,5.94c-3.43,2.33-7,4.75-8.91,8.47s-1.87,8-1.8,12.19c.05,3.34.1,6.79-1.09,8.74s-4.3,3.51-7.29,5c-3.72,1.85-7.56,3.75-10,7.18s-2.95,7.71-3.45,11.83c-.4,3.32-.81,6.74-2.26,8.52s-4.73,2.88-7.9,3.95c-3.93,1.32-8,2.69-10.87,5.76s-4,7.23-5,11.25c-.85,3.23-1.72,6.57-3.4,8.14s-5.07,2.21-8.35,2.84c-4.08.78-8.3,1.58-11.56,4.24s-4.9,6.62-6.49,10.46c-1.28,3.09-2.6,6.28-4.48,7.61s-5.31,1.5-8.64,1.68c-4.16.21-8.45.44-12.05,2.63s-5.74,5.89-7.83,9.47c-1.69,2.89-3.44,5.88-5.48,6.94s-5.47.76-8.79.48c-4.15-.35-8.43-.71-12.3,1s-6.33,4.85-8.82,8c1.31,1.59,3,3.71,5,6.2l.89-1.12c2-2.51,4-5.09,6-6s5.36-.62,8.55-.35c4.42.37,9,.76,13-1.33s6.47-6.25,8.61-9.91c1.6-2.75,3.27-5.6,5.17-6.76s5.22-1.34,8.41-1.51c4.23-.22,9-.48,12.72-3.09s5.55-7.07,7.17-11c1.22-3,2.48-6,4.22-7.41s5-2,8.12-2.64c4.16-.79,8.87-1.69,12.19-4.79s4.54-7.74,5.61-11.84c.81-3.09,1.65-6.28,3.18-7.92s4.65-2.69,7.68-3.7c4-1.35,8.57-2.89,11.44-6.41s3.44-8.28,3.95-12.48c.38-3.17.78-6.45,2.08-8.29s4.24-3.29,7.1-4.7c3.8-1.89,8.1-4,10.47-7.91s2.29-8.46,2.22-12.9c0-3.19-.11-6.5.93-8.5s3.75-3.83,6.38-5.62c3.52-2.38,7.49-5.09,9.31-9.27s1.11-8.68.43-13.07c-.49-3.16-1-6.43-.23-8.56s3.18-4.3,5.54-6.43c3.15-2.85,6.73-6.07,8-10.47s-.09-8.74-1.36-13c-.92-3.07-1.87-6.24-1.41-8.46s2.56-4.69,4.6-7.12c2.74-3.25,5.84-6.94,6.46-11.47S595,331,593.14,327C591.81,324.06,590.43,321,590.59,318.77ZM357,557.47s27,30.34,50.83,75.23c0,0-12-5.7-33.35-5.65C346,627,340.88,635,319,637.57c-17.43,2.13-22.24-3.58-21.74-8.92,1-7.39,20-4.83,22.41-5.08a3.8,3.8,0,0,0,3.81-3.81c.06-2.06-1.4-3.57-4.19-4.48-2-.66-6.32-2.14-19.16-1.24h0c-16.63.83-40.7,4.74-77.09,18.08a3,3,0,0,0,0-.42c1.27-12.65,2.25-28.58,2.3-47.82,0-34.88-2.54-61.12-7.53-75.26a36.68,36.68,0,0,0-8.49-14.56c20.16-7.87,57.94-20.58,87.58-20.58,9.19-.05,22.12,4.54,27.05,19.93.31.86.6,1.81.88,2.78,3.34,11.8,5,31.45,5,56.89,0,9.69-.35,18.33-.84,25.92a291.23,291.23,0,0,0,2.06-84.35c6.55-2.15,12.62-4.48,21.24-6.88,35.89-9.27,55.45-6.8,55.45-6.8C378.1,514.17,357,557.47,357,557.47Zm-45.48,10.17q0-7.95-4-12.74a18.91,18.91,0,0,0-10.93-6.3,17.34,17.34,0,0,0,9.26-6.52A18.43,18.43,0,0,0,309.32,531q0-11.76-8.75-17.48T273,507.76a127.1,127.1,0,0,0-14.15.83,117.79,117.79,0,0,0-13.54,2.22v79.47q5.38.78,12.18,1.24t12,.48q15.15,0,24.42-2.83T307.37,581A21.06,21.06,0,0,0,311.53,567.64ZM286.4,539q3-2.19,3-6.85a9.08,9.08,0,0,0-1.33-5.19,7.77,7.77,0,0,0-4.27-2.91,26.8,26.8,0,0,0-7.94-.95,54.79,54.79,0,0,0-9.77.89v17.2h10.21Q283.4,541.16,286.4,539Zm2.33,20.29q-3.23-2.34-10.66-2.34h-12v19.32q4.17.39,9.27.39a36.71,36.71,0,0,0,9.91-1.06,9.21,9.21,0,0,0,5.16-3.19,9.47,9.47,0,0,0,1.52-5.63Q291.94,561.59,288.73,559.26ZM539.5,258.69h-23l-17.72,47.36-18.32-47.36h-23v80.75H475V287.82l15.86,39.78h15.22l15.86-41.52v53.36H539.5ZM428.16,87.88q2.61,6.86-2.24,15.81-4.64,8.59-11.76,10.42T397.81,111c-.57-.31-1.35-.76-2.32-1.34L394.3,109l-7.1,13.14-11-6,25-46.31a73.65,73.65,0,0,1,14.39,5.83Q425.55,81,428.16,87.88Zm-11.45,2.7c-.58-2-2.24-3.79-5-5.28A21.85,21.85,0,0,0,408,83.65l-8.69,16.08a33.46,33.46,0,0,0,3.54,2.24q4.14,2.23,7.06,1.34c2-.59,3.72-2.35,5.31-5.29S417.28,92.6,416.71,90.58Zm-2.57,250q16.26,0,23.92-8.79T445.71,305V258.69H427.25v48.23q0,8.63-3.24,12.58t-9.87,3.95q-6.63,0-9.89-3.95T401,306.92V258.69H382.13V305q0,18.06,7.75,26.81T414.14,340.53ZM315.69,441q16.26,0,23.92-8.78t7.66-26.79V359.19H328.8v48.23q0,8.63-3.24,12.58t-9.87,4q-6.63,0-9.89-4t-3.27-12.58V359.19H283.68v46.27q0,18.06,7.76,26.82T315.69,441ZM236,439.94H217.49V361.16A99.69,99.69,0,0,1,229.17,359a94,94,0,0,1,12.23-.82q16.24,0,24.4,6.57T274,384.84a27,27,0,0,1-3.46,14.24,23.08,23.08,0,0,1-10,9.05l19.69,31.81H259.71l-17.18-28.26c-1,0-2.33,0-4-.11-1.11-.07-1.95-.11-2.5-.11Zm0-44.14a53.41,53.41,0,0,0,7.22.49q6.67,0,9.91-2.7c2.17-1.8,3.24-4.72,3.24-8.75s-1.06-6.82-3.19-8.68-5.37-2.78-9.72-2.78a38.53,38.53,0,0,0-7.46.71ZM420.84,207.08l-4-9.69-4,9.69-10.43.78,8,6.77L408,224.8l8.9-5.49,8.91,5.49-2.47-10.17,8-6.77ZM525.12,368.36H520a229.38,229.38,0,0,1-76.53,116.55c-2.55,3-6.95,8.28-12.19,15.21A234.59,234.59,0,0,0,525.12,368.36ZM504.73,153.62q6.16,8.87,5.66,15.81t-7.88,12.07a18,18,0,0,1-9.09,3.51,15.35,15.35,0,0,1-8.75-2l-9.9,22.8L467,194.61,476,174.52c-.38-.54-.87-1.28-1.47-2.24-.38-.63-.68-1.1-.89-1.41L458,181.67l-7-10.11,43-29.86a66.38,66.38,0,0,1,5.62,5.55A61.34,61.34,0,0,1,504.73,153.62Zm-5.36,13.25q.31-2.79-2.16-6.36a25.51,25.51,0,0,0-3.22-3.8l-11.85,8.23a36.74,36.74,0,0,0,2.46,4.12c1.69,2.43,3.44,3.9,5.24,4.39s3.8,0,6-1.55S499.17,168.74,499.37,166.87Zm-25.52-45.24a20.34,20.34,0,0,1,0,12.4q-1.95,6.54-7.95,13.29t-12.28,9.41a20.35,20.35,0,0,1-12.31,1.43,27.2,27.2,0,0,1-18.83-16.75,20.35,20.35,0,0,1,0-12.38q1.93-6.52,8-13.3t12.3-9.44A20.37,20.37,0,0,1,455,104.86a27.34,27.34,0,0,1,18.82,16.77Zm-14.79-2.35a9.38,9.38,0,0,0-8.64-2.5q-4.67,1-10.24,7.29-5.81,6.52-6.38,11.31a10.4,10.4,0,0,0,12.12,10.87q4.68-1,10.23-7.28,5.76-6.47,6.33-11.3A9.31,9.31,0,0,0,459.06,119.28ZM239.24,196.63l-6.44-15.7-6.46,15.7-16.93,1.29,13,11-4,16.51,14.45-8.92,14.44,8.92-4-16.51,12.93-11Z"/></g></g></svg>