<svg xmlns="http://www.w3.org/2000/svg" xmlns:xlink="http://www.w3.org/1999/xlink" viewBox="0 0 761.15 1147.17"><defs><style>.cls-1{fill:none;}.cls-2{fill:#fff;}.cls-3{fill:url(#Degradado_sin_nombre);}.cls-4{fill:#747678;}.cls-5{fill:#d52b1e;}.cls-6{fill:#009b3a;}.cls-7{fill:#82c190;}.cls-8{clip-path:url(#clip-path);}</style><linearGradient id="Degradado_sin_nombre" x1="355.11" y1="748.4" x2="631.41" y2="748.4" gradientTransform="matrix(1, 0, 0, -1, 0, 1132.34)" gradientUnits="userSpaceOnUse"><stop offset="0.12" stop-color="#8b0304"/><stop offset="0.18" stop-color="#9d0d0a"/><stop offset="0.29" stop-color="#bc1d15"/><stop offset="0.39" stop-color="#ce271c"/><stop offset="0.45" stop-color="#d52b1e"/><stop offset="1" stop-color="#d52b1e"/></linearGradient><clipPath id="clip-path"><path class="cls-1" d="M493.25,817.38c-6.08-3.88-16.49-3.24-26.09,2.21s-15.48,14.06-15.27,21.27c6.08,3.88,22.76-.17,28.41-3.63C488.14,832.42,493.47,824.59,493.25,817.38Z"/></clipPath></defs><g id="Capa_2" data-name="Capa 2"><g id="Capa_1-2" data-name="Capa 1"><polygon class="cls-2" points="0 0 0 1147.17 761.14 976.51 761.14 0 0 0"/><g id="Capa_2-2" data-name="Capa 2"><g id="Capa_2-2-2" data-name="Capa 2-2"><path class="cls-3" d="M622.66,179.72s-51-6.45-144.5,17.71c-68.41,19-112.09,36.49-130.27,44.33,5.5,30.94,8.29,74.1,8.29,126.73-.27,106-14.19,163.73-16.85,173.78-1.69,8.53-3.32,14.79-4.64,21.17-2.07,14.22,10,30,56.55,24.34,56.93-6.76,70.39-27.52,144.51-27.43,55.55-.12,86.91,14.72,86.91,14.72-62.21-117-132.46-196-132.46-196S545.17,266.19,622.66,179.72Z"/><path class="cls-4" d="M402.92,541.37c.15-5.39-3.64-9.31-10.92-11.69-5.21-1.7-16.32-6.63-49.78-4.3-2.21,17.2-7.63,36.63-7.68,39.27,5.55-20.74,52.17-12.71,58.45-13.35A9.93,9.93,0,0,0,402.92,541.37Z"/><path class="cls-5" d="M419.88,368.49c0-72.47-5.28-127-15.65-156.36-12.86-40.11-46.56-52-70.51-51.94-77.23,0-175.65,33.13-228.2,53.62,9.2,9.51,17,21.94,22.12,38,13,36.84,19.63,105.21,19.63,196.09-.12,50.14-2.68,91.66-6,124.62a5.61,5.61,0,0,1-.08,1.08C251.23,533.19,318.07,526,361.53,526c29.85,0,43.84,6.37,41.07,17.92C402.6,543.87,419.59,485.69,419.88,368.49Z"/><path class="cls-2" d="M361.3,372.35q10.41,12.52,10.41,33.19,0,20.82-10.85,34.78t-35,21.33Q301.71,469,262.23,469q-13.59,0-31.3-1.23t-31.75-3.25V257.46a316.84,316.84,0,0,1,35.29-5.78,334,334,0,0,1,36.87-2.17q49,0,71.8,14.9T365.91,310q0,16.64-9,29a45.29,45.29,0,0,1-24.15,17Q350.9,359.83,361.3,372.35Zm-108-80.62v44.83h26.6q18.51,0,26.32-5.71T314,313q0-8.39-3.47-13.52t-11.13-7.59c-5.12-1.64-12-2.46-20.68-2.46a141.36,141.36,0,0,0-25.47,2.31Zm50,134.49q9.48-2.76,13.45-8.31t4-14.68q0-13.47-8.38-19.52t-27.77-6.08H253.28V428q10.86,1,24.15,1,16.35,0,25.81-2.77Z"/><path class="cls-4" d="M184.84,725.06q6.21,7.47,6.21,19.81t-6.47,20.77q-6.51,8.34-20.89,12.73t-38,4.4q-8.11,0-18.68-.73T88.07,780.1V656.48A187.46,187.46,0,0,1,109.13,653a199.79,199.79,0,0,1,22-1.3q29.25,0,42.86,8.9t13.59,27.19a28.6,28.6,0,0,1-5.35,17.3,27.1,27.1,0,0,1-14.42,10.15Q178.63,717.6,184.84,725.06Zm-64.48-48.12V703.7h15.88q11,0,15.71-3.41t4.66-10.66a14.06,14.06,0,0,0-2.07-8.07,12,12,0,0,0-6.65-4.53,41.41,41.41,0,0,0-12.34-1.47A84.15,84.15,0,0,0,120.36,676.94Zm29.82,80.25q5.65-1.63,8-5a14.77,14.77,0,0,0,2.37-8.76q0-8-5-11.65T139,728.19H120.36v30q6.48.62,14.41.61Q144.52,758.86,150.18,757.19Zm140.89,23.94-9.23-31.5H237.07l-9.15,31.5H195.8l39.62-127.76h48.52l39.62,127.76Zm-46.44-57.57h29.64L259.42,673Zm186.72,1.5q6.21,7.47,6.21,19.81t-6.47,20.77q-6.48,8.34-20.9,12.73t-38,4.4q-8.12,0-18.68-.73t-19-1.94V656.48A187.46,187.46,0,0,1,355.57,653a199.79,199.79,0,0,1,22-1.3q29.26,0,42.86,8.9T434,687.82a28.74,28.74,0,0,1-5.35,17.3,27.1,27.1,0,0,1-14.42,10.15q10.9,2.33,17.12,9.79Zm-64.49-48.12V703.7h15.91q11.07,0,15.72-3.41t4.66-10.66a14.06,14.06,0,0,0-2.07-8.07,12,12,0,0,0-6.65-4.53,41.58,41.58,0,0,0-12.36-1.47,84,84,0,0,0-15.18,1.38Zm29.86,80.25q5.67-1.63,8-5a14.77,14.77,0,0,0,2.37-8.76q0-8-5-11.65t-16.55-3.59H366.89v30q6.48.62,14.42.61Q391.08,758.86,396.72,757.19Zm87.92-2.33h61.72V781.1H451.92V653.37H545.5v26.24H484.64v23.14h52V729h-52ZM637.18,781.1,607,736.38c-1.73,0-4.09,0-7.08-.17-2-.11-3.42-.17-4.4-.17V781.1H562.94V656.48A193,193,0,0,1,583.48,653a183.77,183.77,0,0,1,21.49-1.3q28.59,0,42.91,10.4t14.33,31.81q.09,13.2-6.09,22.54a39.44,39.44,0,0,1-17.65,14.33l34.6,50.32Zm-41.7-69.83a107.66,107.66,0,0,0,12.69.78q11.75,0,17.44-4.27t5.7-13.87q0-9.33-5.62-13.72t-17.09-4.4a74,74,0,0,0-13.12,1.12Z"/><path class="cls-6" d="M146.42,919h61.51L205.45,933H126.86l21-119.08h77.77L223.15,828h-60.7L155.94,865h52.61L206.07,879H153.45Z"/><path class="cls-6" d="M275.76,888.69,300.07,933h-19l-17.59-32.27L234.59,933H215.82l39.71-44.09-23.62-43.45h19l17.16,31.3,28-31.3h18.54Z"/><path class="cls-6" d="M327.57,845.49h14.5l-.6,9.7h.9a36.54,36.54,0,0,1,11.7-8.13,35.4,35.4,0,0,1,14.41-2.94q10.2,0,17.35,4.43T396,862.71q3,9.74.3,24.94-4.11,23.31-17.84,35.12t-36.51,11.78a105.24,105.24,0,0,1-12.9-1l-6.14,34.84h-17Zm39.81,68.19Q375.81,906,378.8,889t-1.73-23.83q-4.74-7-15.44-7a28.65,28.65,0,0,0-11.14,2.29,27.41,27.41,0,0,0-9.77,7l-9.25,52.46a53.91,53.91,0,0,0,6.19,1,63.15,63.15,0,0,0,6.87.4Q359,921.36,367.38,913.68Z"/><path class="cls-6" d="M515.72,845.29h14.13L529.07,857h1a34.84,34.84,0,0,1,12.53-9.41,36.38,36.38,0,0,1,14.95-3.22,38.1,38.1,0,0,1,7.07.64l-2.71,15.37a51,51,0,0,0-8-.56,35.9,35.9,0,0,0-13.78,2.9,32.61,32.61,0,0,0-12,8.2l-10.92,62h-17Z"/><path class="cls-6" d="M622.46,918.9l-2.39,13.84a74.57,74.57,0,0,1-14.83,1.61q-30.21,0-24.89-30.25l8-45.3h-16l2.39-13.51h16l8.5-31.54h14l-5.56,31.54h26.64l-2.39,13.51H605.28l-7.52,42.65q-1.8,10.21,1.61,14.48t12.4,4.26A54.89,54.89,0,0,0,622.46,918.9Z"/><path class="cls-5" d="M451.89,863.53a24.32,24.32,0,1,1-24.32,24.32,24.32,24.32,0,0,1,24.32-24.32m0-20.09a44.41,44.41,0,1,0,44.41,44.41h0A44.41,44.41,0,0,0,451.89,843.44Z"/><path class="cls-7" d="M493.25,817.38c-6.08-3.88-16.49-3.24-26.09,2.21s-15.48,14.06-15.27,21.27c6.08,3.88,22.76-.17,28.41-3.63C488.14,832.42,493.47,824.59,493.25,817.38Z"/><g class="cls-8"><path class="cls-6" d="M514.59,816.66c-9.51-3-27.3.48-43.5,9.47-16.49,9.15-27.52,22.21-28.75,31.83,8.9,4,25.63,1,42.07-8.36S513.44,826.33,514.59,816.66Z"/></g></g></g></g></g></svg>