<svg xmlns="http://www.w3.org/2000/svg" xmlns:xlink="http://www.w3.org/1999/xlink" viewBox="0 0 1737.69 1057.62"><defs><style>.cls-1{fill:#fff;}.cls-2{fill:#f2f2f2;}.cls-3{fill:none;stroke:#6e6e6e;stroke-linecap:round;stroke-linejoin:round;stroke-width:0.75px;}.cls-4{fill:#c00096;}.cls-5{fill:#d82200;}.cls-6{fill:#81c400;}.cls-7{fill:#bf0000;}.cls-8{fill:#009902;}.cls-9{fill:#520093;}.cls-10{fill:#c6d500;}.cls-11{fill:#ff6529;}.cls-12{fill:#e3786b;}.cls-13{fill:#dd8c00;}.cls-14{fill:#7f0051;}.cls-15{fill:#dc5f31;}.cls-16{fill:#c63200;}.cls-17{fill:url(#Degradado_sin_nombre_40);}.cls-18{fill:url(#Degradado_sin_nombre_40-2);}.cls-19{fill:url(#Degradado_sin_nombre_40-3);}.cls-20{fill:url(#Degradado_sin_nombre_40-4);}.cls-21{fill:url(#Degradado_sin_nombre_25);}.cls-22{fill:url(#Degradado_sin_nombre_24);}</style><linearGradient id="Degradado_sin_nombre_40" x1="-6834.64" y1="-5262.86" x2="-6691.64" y2="-5262.86" gradientTransform="translate(6983.71 5912.12)" gradientUnits="userSpaceOnUse"><stop offset="0" stop-color="#fff" stop-opacity="0"/><stop offset="0.05" stop-color="#fefefe" stop-opacity="0.09"/><stop offset="0.18" stop-color="#fbfbfb" stop-opacity="0.33"/><stop offset="0.31" stop-color="#f8f8f8" stop-opacity="0.54"/><stop offset="0.43" stop-color="#f6f6f6" stop-opacity="0.7"/><stop offset="0.55" stop-color="#f4f4f4" stop-opacity="0.83"/><stop offset="0.67" stop-color="#f3f3f3" stop-opacity="0.93"/><stop offset="0.78" stop-color="#f2f2f2" stop-opacity="0.98"/><stop offset="0.88" stop-color="#f2f2f2"/></linearGradient><linearGradient id="Degradado_sin_nombre_40-2" x1="250.05" y1="4635.66" x2="425.48" y2="4635.66" gradientTransform="translate(1269.85 -3986.41)" xlink:href="#Degradado_sin_nombre_40"/><linearGradient id="Degradado_sin_nombre_40-3" x1="327.06" y1="4914.39" x2="401.5" y2="4914.39" gradientTransform="translate(1269.85 -3986.41)" xlink:href="#Degradado_sin_nombre_40"/><linearGradient id="Degradado_sin_nombre_40-4" x1="-8266.24" y1="-5185.53" x2="-8191.8" y2="-5185.53" gradientTransform="translate(8412.67 6113.52)" xlink:href="#Degradado_sin_nombre_40"/><linearGradient id="Degradado_sin_nombre_25" x1="-13.29" y1="294.37" x2="72.71" y2="294.37" gradientTransform="translate(1591.33)" gradientUnits="userSpaceOnUse"><stop offset="0.01" stop-color="#fff" stop-opacity="0"/><stop offset="0.45" stop-color="#fff" stop-opacity="0.49"/><stop offset="0.8" stop-color="#fff" stop-opacity="0.86"/><stop offset="0.96" stop-color="#fff"/></linearGradient><linearGradient id="Degradado_sin_nombre_24" x1="-8340.35" y1="294.37" x2="-8234.21" y2="294.37" gradientTransform="matrix(1, 0, 0, -1, 8497.74, 588.73)" gradientUnits="userSpaceOnUse"><stop offset="0.01" stop-color="#fff" stop-opacity="0"/><stop offset="0.43" stop-color="#fff" stop-opacity="0.49"/><stop offset="0.76" stop-color="#fff" stop-opacity="0.86"/><stop offset="0.91" stop-color="#fff"/></linearGradient></defs><g id="Capa_2" data-name="Capa 2"><g id="Capa_1-2" data-name="Capa 1"><rect class="cls-1" width="1737.69" height="1057.62" rx="25.25"/><path class="cls-2" d="M40.83,992c0,11.1,10.85,20.09,24.23,20.09H1672.63c13.38,0,24.23-9,24.23-20.09V854.71c0-11.09-10.85-20.08-24.23-20.08H247c-44.23,0-44.65-40.32-89-40.32H59c-10,0-18.16,6.74-18.16,15.05Z"/><path d="M168.33,794.31H59c-10,0-18.16,6.74-18.16,15.05v25.27h216.5C213.1,834.63,212.68,794.31,168.33,794.31Z"/><path class="cls-1" d="M73.43,823.76c-1.93-1.85-2.9-4.82-2.9-8.89s1-7,3-8.88S78.3,803.1,82,803.1a20.67,20.67,0,0,1,5.11.63v2.78a18.85,18.85,0,0,0-4.92-.63,10.14,10.14,0,0,0-4.5.88A5.81,5.81,0,0,0,75,809.62a15.25,15.25,0,0,0,0,10.46,5.72,5.72,0,0,0,2.67,2.83,9.89,9.89,0,0,0,4.37.85,16,16,0,0,0,2.51-.19,16.83,16.83,0,0,0,2.57-.63v2.78a17,17,0,0,1-5.37.82C78.13,826.54,75.35,825.62,73.43,823.76Z"/><path class="cls-1" d="M99.32,809.78a4.38,4.38,0,0,1,2.31,2,7.7,7.7,0,0,1,.77,3.77v10.7H99.63l-.24-1.82H99.2A5.32,5.32,0,0,1,97.1,826a7.18,7.18,0,0,1-2.81.54,6.73,6.73,0,0,1-2.88-.57,4.21,4.21,0,0,1-1.86-1.62,4.65,4.65,0,0,1-.65-2.48,4.23,4.23,0,0,1,1.59-3.53,9.28,9.28,0,0,1,5-1.53l3.62-.36v-1.06a4.48,4.48,0,0,0-.45-2.2,2.55,2.55,0,0,0-1.4-1.12,7.62,7.62,0,0,0-2.48-.33,16.21,16.21,0,0,0-2.31.18,14.45,14.45,0,0,0-2.4.55v-2.54a15.15,15.15,0,0,1,2.53-.54,19.76,19.76,0,0,1,2.7-.2A11.24,11.24,0,0,1,99.32,809.78Zm-2,14a4.82,4.82,0,0,0,1.79-1.32v-4l-3.35.32a5.22,5.22,0,0,0-2.7.87,2.31,2.31,0,0,0-.84,1.91,2.43,2.43,0,0,0,.76,2,3.36,3.36,0,0,0,2.25.67A5.43,5.43,0,0,0,97.34,823.74Z"/><path class="cls-1" d="M106.75,809.44h2.77l.26,2.24H110a5.31,5.31,0,0,1,2.13-1.8,6.6,6.6,0,0,1,2.82-.62,8.25,8.25,0,0,1,1.42.12v3a11.13,11.13,0,0,0-1.59-.11,6.56,6.56,0,0,0-2.61.56,5,5,0,0,0-2.06,1.58v11.89h-3.33Z"/><path class="cls-1" d="M119.6,824.4c-1.36-1.43-2-3.61-2-6.52s.68-5.11,2-6.54a8.66,8.66,0,0,1,11.43,0q2,2.14,2,6.53c0,2.91-.68,5.08-2,6.53a8.59,8.59,0,0,1-11.4,0Zm9-1.78q1.11-1.41,1.11-4.71c0-2.25-.37-3.84-1.11-4.78a4.46,4.46,0,0,0-6.49,0c-.74.94-1.11,2.51-1.11,4.72s.37,3.84,1.1,4.78a4.44,4.44,0,0,0,6.5,0Z"/><path class="cls-1" d="M139,823.66h9.18v2.59h-13.3v-2l9-12.2h-8.82v-2.6H148v2Z"/><path class="cls-1" d="M152,824.4c-1.37-1.43-2.05-3.61-2.05-6.52s.68-5.11,2-6.54a8.66,8.66,0,0,1,11.43,0q2,2.14,2,6.53c0,2.91-.68,5.08-2,6.53a8.59,8.59,0,0,1-11.4,0Zm8.95-1.78q1.11-1.41,1.11-4.71c0-2.25-.37-3.84-1.11-4.78a4.46,4.46,0,0,0-6.49,0c-.74.94-1.11,2.51-1.11,4.72s.37,3.84,1.1,4.78a4.44,4.44,0,0,0,6.5,0Z"/><path class="cls-1" d="M168.45,825.86v-2.5a17.73,17.73,0,0,0,5,.73,5.5,5.5,0,0,0,3-.64,2.07,2.07,0,0,0,1-1.83,2,2,0,0,0-.53-1.51,3.83,3.83,0,0,0-1.82-.78l-2.51-.48a6.15,6.15,0,0,1-3.42-1.59,4.3,4.3,0,0,1-1.06-3.06,4.4,4.4,0,0,1,.8-2.63,5,5,0,0,1,2.43-1.76,11.39,11.39,0,0,1,4.06-.63,17.17,17.17,0,0,1,4.27.51v2.5a16.32,16.32,0,0,0-4.19-.54,5.94,5.94,0,0,0-3.24.68,2.06,2.06,0,0,0-1,1.8,2,2,0,0,0,.52,1.43,3.4,3.4,0,0,0,1.77.8l2.5.47a6.72,6.72,0,0,1,3.48,1.58,4.17,4.17,0,0,1,1.09,3.07,4.54,4.54,0,0,1-.82,2.72,5.12,5.12,0,0,1-2.41,1.75,10.75,10.75,0,0,1-3.86.61A17.27,17.27,0,0,1,168.45,825.86Z"/><path class="cls-2" d="M40.83,742.93C40.83,754,51.68,763,65.06,763H1672.63c13.38,0,24.23-9,24.23-20.09v-199c0-11.09-10.85-20.09-24.23-20.09H252.15c-44.24,0-44.65-40.31-89-40.31H59c-10,0-18.16,6.74-18.16,15.05Z"/><path d="M168.33,483.53H59c-10,0-18.16,6.74-18.16,15.05v25.26h216.5C213.1,523.84,212.68,483.53,168.33,483.53Z"/><path class="cls-1" d="M73,513c-1.93-1.85-2.89-4.82-2.89-8.89s1-6.95,3-8.88,4.82-2.89,8.53-2.89a20.73,20.73,0,0,1,5.11.63v2.78a18.85,18.85,0,0,0-4.92-.63,10.18,10.18,0,0,0-4.51.88,5.86,5.86,0,0,0-2.71,2.86A12.4,12.4,0,0,0,73.6,504a12.67,12.67,0,0,0,.92,5.28,5.74,5.74,0,0,0,2.67,2.82,9.8,9.8,0,0,0,4.38.86,16,16,0,0,0,2.51-.19,17.42,17.42,0,0,0,2.57-.63v2.78a17.06,17.06,0,0,1-5.37.82C77.66,515.76,74.88,514.84,73,513Z"/><path class="cls-1" d="M89.84,515.47V498.66h3.35v16.81ZM90,496.21l3.51-5.7h3.58l-4,5.7Z"/><path class="cls-1" d="M107.57,512.8v2.65a13.72,13.72,0,0,1-2.85.31c-4,0-5.93-1.93-5.93-5.81v-8.69H95.64v-2.6h3.15l.57-6.05h2.76v6.05h5.23v2.6h-5.23v8.19a3.85,3.85,0,0,0,.82,2.78,3.53,3.53,0,0,0,2.58.81A10.51,10.51,0,0,0,107.57,512.8Z"/><path class="cls-1" d="M110.17,498.66h2.77l.26,2.24h.19a5.31,5.31,0,0,1,2.13-1.8,6.46,6.46,0,0,1,2.82-.62,8.25,8.25,0,0,1,1.42.12v2.95a11.13,11.13,0,0,0-1.59-.11,6.56,6.56,0,0,0-2.61.56,5,5,0,0,0-2.06,1.58v11.89h-3.33Z"/><path class="cls-1" d="M122.42,494.91a1.7,1.7,0,0,1-.57-1.37,1.72,1.72,0,0,1,.57-1.39,2.37,2.37,0,0,1,1.63-.5,2.42,2.42,0,0,1,1.64.5,1.75,1.75,0,0,1,.56,1.39,1.72,1.72,0,0,1-.56,1.37,2.47,2.47,0,0,1-1.64.48A2.42,2.42,0,0,1,122.42,494.91Zm0,20.56V498.66h3.35v16.81Z"/><path class="cls-1" d="M129.36,507.08q0-4.44,2.22-6.56t6.51-2.12a15.07,15.07,0,0,1,3.66.42v2.65a14.49,14.49,0,0,0-3.24-.4,7.41,7.41,0,0,0-3.21.6,3.82,3.82,0,0,0-1.86,1.9,8.16,8.16,0,0,0-.62,3.45c0,2.16.43,3.71,1.27,4.66a5,5,0,0,0,3.89,1.41,13.14,13.14,0,0,0,3.77-.65v2.66a13.42,13.42,0,0,1-4.28.68Q129.36,515.78,129.36,507.08Z"/><path class="cls-1" d="M145.64,513.62c-1.36-1.43-2-3.61-2-6.52s.68-5.11,2-6.54a8.66,8.66,0,0,1,11.43,0q2,2.15,2,6.53c0,2.91-.68,5.08-2,6.53a8.59,8.59,0,0,1-11.4,0Zm9-1.78q1.11-1.41,1.11-4.71c0-2.25-.37-3.84-1.11-4.78a4.44,4.44,0,0,0-6.49,0c-.74.93-1.11,2.51-1.11,4.72s.37,3.84,1.1,4.78a4.46,4.46,0,0,0,6.5,0Z"/><path class="cls-1" d="M162.13,515.08v-2.5a18,18,0,0,0,5,.73,5.5,5.5,0,0,0,3-.64,2,2,0,0,0,.95-1.83,2,2,0,0,0-.53-1.51,3.64,3.64,0,0,0-1.82-.78l-2.5-.48a6.18,6.18,0,0,1-3.43-1.59,4.3,4.3,0,0,1-1.06-3.06,4.38,4.38,0,0,1,.8-2.63A5,5,0,0,1,165,499a11.33,11.33,0,0,1,4.05-.63,17.17,17.17,0,0,1,4.27.51v2.5a16.32,16.32,0,0,0-4.19-.54,6.07,6.07,0,0,0-3.24.67,2.08,2.08,0,0,0-1,1.8,2,2,0,0,0,.52,1.44,3.4,3.4,0,0,0,1.77.8l2.5.47a6.57,6.57,0,0,1,3.48,1.58,4.17,4.17,0,0,1,1.09,3.07,4.55,4.55,0,0,1-.81,2.71,5.1,5.1,0,0,1-2.42,1.76,11,11,0,0,1-3.85.61A17.22,17.22,0,0,1,162.13,515.08Z"/><path d="M40.83,522.1v27.07c.85-21.54,17.53-25.35,30.58-25.35V522.1Z"/><path d="M428.84,22.14a3.6,3.6,0,0,0-.92,2.76v2.49h5.19v1.94h-5.19v14H425.5v-14h-3.12V27.39h3.12V25A5.61,5.61,0,0,1,427,20.76a6.31,6.31,0,0,1,4.49-1.44,13.82,13.82,0,0,1,2.24.17v2a11.55,11.55,0,0,0-2-.18A4.22,4.22,0,0,0,428.84,22.14Z"/><path d="M447.23,36.13H436.65a7.35,7.35,0,0,0,.7,3.22,3.74,3.74,0,0,0,1.84,1.76,7.75,7.75,0,0,0,3.11.54,15.46,15.46,0,0,0,4.1-.64v1.92a15.86,15.86,0,0,1-4.39.64q-3.94,0-5.88-2t-1.94-6.28c0-2.72.58-4.77,1.76-6.14a6.15,6.15,0,0,1,4.92-2.05,5.67,5.67,0,0,1,4.72,2.05q1.64,2,1.64,6.2Zm-9.45-6a7.16,7.16,0,0,0-1.13,4.33h8.23a7.41,7.41,0,0,0-1.07-4.34,3.51,3.51,0,0,0-3-1.31A3.7,3.7,0,0,0,437.78,30.18Z"/><path d="M453.19,43.39a15.16,15.16,0,0,1-2.47-.54V19.61h2.44V29h.15a5.43,5.43,0,0,1,1.95-1.38,6.93,6.93,0,0,1,5.84.29,5.49,5.49,0,0,1,2.24,2.57,10.57,10.57,0,0,1,.83,4.53q0,8.53-8.35,8.53A19.48,19.48,0,0,1,453.19,43.39Zm7.09-3.26q1.41-1.53,1.41-4.88t-1.2-4.71a4.21,4.21,0,0,0-3.35-1.38,5.43,5.43,0,0,0-2.22.47A4.52,4.52,0,0,0,453.16,31V41.29a10.25,10.25,0,0,0,2.84.36A5.6,5.6,0,0,0,460.28,40.13Z"/><path d="M329.62,36.13H319.05a7.51,7.51,0,0,0,.69,3.22,3.76,3.76,0,0,0,1.85,1.76,7.66,7.66,0,0,0,3.1.54A15.47,15.47,0,0,0,328.8,41v1.92a15.93,15.93,0,0,1-4.4.64c-2.63,0-4.58-.65-5.88-2s-1.94-3.4-1.94-6.28q0-4.08,1.76-6.14a6.15,6.15,0,0,1,4.92-2.05A5.67,5.67,0,0,1,328,29.19q1.63,2,1.64,6.2Zm-9.45-6a7.17,7.17,0,0,0-1.12,4.33h8.23a7.4,7.4,0,0,0-1.08-4.34,3.49,3.49,0,0,0-3-1.31A3.7,3.7,0,0,0,320.17,30.18Z"/><path d="M333.12,27.39h2.05l.17,1.8h.17a7,7,0,0,1,2.35-1.52,7.61,7.61,0,0,1,2.83-.53,5.42,5.42,0,0,1,3.89,1.34,5.72,5.72,0,0,1,1.41,4.3V43.29h-2.44V32.89a3.7,3.7,0,0,0-.89-2.8,3.53,3.53,0,0,0-2.56-.85,6.38,6.38,0,0,0-2.46.51,5.11,5.11,0,0,0-2.09,1.6V43.29h-2.43Z"/><path d="M362.58,36.13H352a7.51,7.51,0,0,0,.69,3.22,3.76,3.76,0,0,0,1.85,1.76,7.71,7.71,0,0,0,3.11.54,15.46,15.46,0,0,0,4.1-.64v1.92a15.86,15.86,0,0,1-4.39.64q-3.94,0-5.88-2c-1.3-1.31-1.94-3.4-1.94-6.28q0-4.08,1.75-6.14a6.18,6.18,0,0,1,4.93-2.05A5.68,5.68,0,0,1,361,29.19q1.64,2,1.63,6.2Zm-9.44-6A7.16,7.16,0,0,0,352,34.51h8.23a7.49,7.49,0,0,0-1.07-4.34,3.52,3.52,0,0,0-3-1.31A3.7,3.7,0,0,0,353.14,30.18Z"/><path d="M544.35,28.48a5.91,5.91,0,0,1,1.33,4.29V43.29h-2.43V32.87a3.88,3.88,0,0,0-.83-2.78,3,3,0,0,0-2.29-.85,5.05,5.05,0,0,0-2.14.49,4.51,4.51,0,0,0-1.83,1.55,10.43,10.43,0,0,1,.09,1.43V43.29h-2.41V32.87a4,4,0,0,0-.79-2.79,2.92,2.92,0,0,0-2.25-.84,4.92,4.92,0,0,0-2.2.54,4.73,4.73,0,0,0-1.84,1.64V43.29h-2.44V27.39h2l.17,1.8h.17a6.46,6.46,0,0,1,2.16-1.53,6.69,6.69,0,0,1,2.62-.52,4.17,4.17,0,0,1,4.12,2.29,6.83,6.83,0,0,1,2.4-1.74,7.07,7.07,0,0,1,2.69-.55A4.92,4.92,0,0,1,544.35,28.48Z"/><path d="M558.55,27.68a4,4,0,0,1,2.08,1.81,6.94,6.94,0,0,1,.7,3.38V43.29h-2l-.18-1.77h-.17a5.2,5.2,0,0,1-2,1.5,6.81,6.81,0,0,1-2.72.54,6.41,6.41,0,0,1-2.66-.52,3.88,3.88,0,0,1-1.73-1.51,4.32,4.32,0,0,1-.6-2.31A3.94,3.94,0,0,1,550.62,36a8.61,8.61,0,0,1,4.55-1.45l3.77-.39V32.76a4.49,4.49,0,0,0-.46-2.23,2.52,2.52,0,0,0-1.38-1.14,7.35,7.35,0,0,0-2.42-.33,14.32,14.32,0,0,0-2.18.18,14.7,14.7,0,0,0-2.27.54V27.85a12.72,12.72,0,0,1,2.31-.52,16.45,16.45,0,0,1,2.46-.19A9.89,9.89,0,0,1,558.55,27.68ZM557,41.27a4.94,4.94,0,0,0,1.9-1.47V35.7l-3.6.38a5.3,5.3,0,0,0-2.81.91,2.47,2.47,0,0,0-.87,2,2.55,2.55,0,0,0,.79,2,3.43,3.43,0,0,0,2.34.7A5.64,5.64,0,0,0,557,41.27Z"/><path d="M565.74,27.39h2l.2,2.13h.15a5.41,5.41,0,0,1,2.11-1.7,6.48,6.48,0,0,1,2.71-.59,7.39,7.39,0,0,1,1.33.12v2.18a9.08,9.08,0,0,0-1.43-.1,6.32,6.32,0,0,0-2.6.58,4.94,4.94,0,0,0-2.07,1.66V43.29h-2.44Z"/><path d="M641.47,27.68a4,4,0,0,1,2.08,1.81,6.94,6.94,0,0,1,.7,3.38V43.29h-2L642,41.52h-.17a5.27,5.27,0,0,1-2,1.5,6.84,6.84,0,0,1-2.72.54,6.41,6.41,0,0,1-2.66-.52,3.88,3.88,0,0,1-1.73-1.51,4.32,4.32,0,0,1-.6-2.31A3.94,3.94,0,0,1,633.54,36a8.58,8.58,0,0,1,4.55-1.45l3.77-.39V32.76a4.49,4.49,0,0,0-.46-2.23A2.51,2.51,0,0,0,640,29.39a7.25,7.25,0,0,0-2.41-.33,14.22,14.22,0,0,0-2.18.18,14.82,14.82,0,0,0-2.28.54V27.85a12.65,12.65,0,0,1,2.32-.52,16.45,16.45,0,0,1,2.46-.19A9.93,9.93,0,0,1,641.47,27.68ZM640,41.27a5,5,0,0,0,1.9-1.47V35.7l-3.6.38a5.27,5.27,0,0,0-2.81.91,2.47,2.47,0,0,0-.88,2,2.56,2.56,0,0,0,.8,2,3.39,3.39,0,0,0,2.34.7A5.64,5.64,0,0,0,640,41.27Z"/><path d="M648.66,27.39h2.09l.16,1.76h.15a5.65,5.65,0,0,1,2-1.47,6.14,6.14,0,0,1,2.6-.54,6.94,6.94,0,0,1,3.33.79,5.5,5.5,0,0,1,2.32,2.56,10.65,10.65,0,0,1,.85,4.55q0,4.27-2.1,6.41t-6.24,2.12a22.73,22.73,0,0,1-2.68-.2v6.37h-2.43Zm9.53,12.75c1-1,1.44-2.64,1.44-4.88s-.4-3.81-1.2-4.73a4.27,4.27,0,0,0-3.38-1.37,5.14,5.14,0,0,0-2.21.5,4.34,4.34,0,0,0-1.75,1.47V41.37c.39.08.83.15,1.31.2a14,14,0,0,0,1.42.08A5.75,5.75,0,0,0,658.19,40.14Z"/><path d="M665.84,27.39h2l.2,2.13h.15a5.41,5.41,0,0,1,2.11-1.7,6.49,6.49,0,0,1,2.72-.59,7.37,7.37,0,0,1,1.32.12v2.18a9.08,9.08,0,0,0-1.43-.1,6.24,6.24,0,0,0-2.59.58,5,5,0,0,0-2.08,1.66V43.29h-2.43Z"/><path d="M840.39,49a13.2,13.2,0,0,0,2.09-3.8,14.16,14.16,0,0,0,.63-4.44V27.39h2.43V40.67a14.11,14.11,0,0,1-.82,5A15.35,15.35,0,0,1,842,50.09Zm2.66-25.55a1.38,1.38,0,0,1-.44-1.1,1.4,1.4,0,0,1,.45-1.1,2.2,2.2,0,0,1,2.5,0,1.42,1.42,0,0,1,.44,1.1,1.41,1.41,0,0,1-.44,1.1,2.26,2.26,0,0,1-2.51,0Z"/><path d="M851.38,42.22A5.64,5.64,0,0,1,850,38V27.39h2.43V37.84a3.71,3.71,0,0,0,.89,2.78,3.51,3.51,0,0,0,2.49.84,6,6,0,0,0,2.44-.53,5.13,5.13,0,0,0,2-1.58v-12h2.43v15.9h-2.05l-.18-1.74h-.16a6.81,6.81,0,0,1-2.32,1.5,7.44,7.44,0,0,1-2.76.51A5.37,5.37,0,0,1,851.38,42.22Z"/><path d="M867.3,27.39h2.05l.17,1.8h.17A7,7,0,0,1,872,27.67a7.61,7.61,0,0,1,2.83-.53,5.42,5.42,0,0,1,3.89,1.34,5.72,5.72,0,0,1,1.41,4.3V43.29h-2.44V32.89a3.7,3.7,0,0,0-.89-2.8,3.55,3.55,0,0,0-2.56-.85,6.47,6.47,0,0,0-2.47.51,5.14,5.14,0,0,0-2.08,1.6V43.29H867.3Z"/><path d="M750.3,28.48a5.91,5.91,0,0,1,1.33,4.29V43.29H749.2V32.87a3.93,3.93,0,0,0-.82-2.78,3,3,0,0,0-2.3-.85,5.09,5.09,0,0,0-2.14.49,4.65,4.65,0,0,0-1.83,1.55,10.43,10.43,0,0,1,.09,1.43V43.29h-2.4V32.87a4,4,0,0,0-.79-2.79,3,3,0,0,0-2.26-.84,4.92,4.92,0,0,0-2.2.54,4.73,4.73,0,0,0-1.84,1.64V43.29h-2.44V27.39h2.06l.16,1.8h.17a6.46,6.46,0,0,1,2.16-1.53,6.73,6.73,0,0,1,2.62-.52,4.16,4.16,0,0,1,4.12,2.29A6.77,6.77,0,0,1,744,27.69a7,7,0,0,1,2.69-.55A4.92,4.92,0,0,1,750.3,28.48Z"/><path d="M764.5,27.68a4,4,0,0,1,2.09,1.81,7.06,7.06,0,0,1,.69,3.38V43.29h-2l-.19-1.77h-.16a5.23,5.23,0,0,1-2,1.5,6.79,6.79,0,0,1-2.71.54,6.42,6.42,0,0,1-2.67-.52,3.85,3.85,0,0,1-1.72-1.51,4.32,4.32,0,0,1-.6-2.31A3.91,3.91,0,0,1,756.58,36a8.54,8.54,0,0,1,4.54-1.45l3.78-.39V32.76a4.48,4.48,0,0,0-.47-2.23,2.52,2.52,0,0,0-1.38-1.14,7.33,7.33,0,0,0-2.41-.33,14.45,14.45,0,0,0-2.19.18,14.7,14.7,0,0,0-2.27.54V27.85a12.72,12.72,0,0,1,2.31-.52,16.58,16.58,0,0,1,2.47-.19A9.83,9.83,0,0,1,764.5,27.68ZM763,41.27a5,5,0,0,0,1.91-1.47V35.7l-3.61.38a5.3,5.3,0,0,0-2.81.91,2.47,2.47,0,0,0-.87,2,2.55,2.55,0,0,0,.79,2,3.43,3.43,0,0,0,2.34.7A5.64,5.64,0,0,0,763,41.27Z"/><path d="M782.79,27.39h2.45l-8.77,22.35H774l2.54-6.45h-.72l-6.22-15.9h2.59l5.23,13.94Z"/><path d="M949.91,49a13,13,0,0,0,2.09-3.8,13.86,13.86,0,0,0,.64-4.44V27.39h2.43V40.67a14.11,14.11,0,0,1-.82,5,15.35,15.35,0,0,1-2.71,4.41Zm2.66-25.55a1.58,1.58,0,0,1,0-2.2,1.86,1.86,0,0,1,1.26-.39,1.81,1.81,0,0,1,1.24.39,1.4,1.4,0,0,1,.45,1.1,1.38,1.38,0,0,1-.45,1.1,1.86,1.86,0,0,1-1.24.38A1.92,1.92,0,0,1,952.57,23.49Z"/><path d="M960.9,42.22A5.63,5.63,0,0,1,959.5,38V27.39h2.43V37.84a3.71,3.71,0,0,0,.89,2.78,3.47,3.47,0,0,0,2.49.84,6,6,0,0,0,2.44-.53,5.1,5.1,0,0,0,2-1.58v-12h2.44v15.9h-2.05L970,41.55h-.15a6.91,6.91,0,0,1-2.32,1.5,7.51,7.51,0,0,1-2.76.51A5.39,5.39,0,0,1,960.9,42.22Z"/><path d="M976.82,43.29V19.61h2.44V43.29Z"/><path d="M1056,27.68a4,4,0,0,1,2.08,1.81,6.94,6.94,0,0,1,.7,3.38V43.29h-2l-.19-1.77h-.16a5.23,5.23,0,0,1-2,1.5,6.81,6.81,0,0,1-2.72.54,6.41,6.41,0,0,1-2.66-.52,3.85,3.85,0,0,1-1.72-1.51,4.32,4.32,0,0,1-.61-2.31A3.94,3.94,0,0,1,1048,36a8.61,8.61,0,0,1,4.55-1.45l3.78-.39V32.76a4.48,4.48,0,0,0-.47-2.23,2.52,2.52,0,0,0-1.38-1.14,7.33,7.33,0,0,0-2.41-.33,14.45,14.45,0,0,0-2.19.18,14.7,14.7,0,0,0-2.27.54V27.85a12.72,12.72,0,0,1,2.31-.52,16.58,16.58,0,0,1,2.47-.19A9.83,9.83,0,0,1,1056,27.68Zm-1.51,13.59a5,5,0,0,0,1.91-1.47V35.7l-3.61.38a5.3,5.3,0,0,0-2.81.91,2.47,2.47,0,0,0-.87,2,2.55,2.55,0,0,0,.79,2,3.43,3.43,0,0,0,2.34.7A5.64,5.64,0,0,0,1054.44,41.27Z"/><path d="M1064.37,42.22A5.64,5.64,0,0,1,1063,38V27.39h2.44V37.84a3.67,3.67,0,0,0,.89,2.78,3.46,3.46,0,0,0,2.48.84,6,6,0,0,0,2.45-.53,5.17,5.17,0,0,0,2-1.58v-12h2.44v15.9h-2.06l-.18-1.74h-.15a7,7,0,0,1-2.32,1.5,7.51,7.51,0,0,1-2.76.51A5.38,5.38,0,0,1,1064.37,42.22Z"/><path d="M1082.84,49.85a14.26,14.26,0,0,1-2.37-.53v-2a16.37,16.37,0,0,0,4.73.75,7.75,7.75,0,0,0,3-.48,3.34,3.34,0,0,0,1.7-1.57,6.25,6.25,0,0,0,.57-2.9V41.61h-.16a5.31,5.31,0,0,1-1.94,1.38,6.51,6.51,0,0,1-2.62.51,6.42,6.42,0,0,1-3.21-.8,5.56,5.56,0,0,1-2.25-2.55,10.43,10.43,0,0,1-.84-4.49c0-2.84.7-5,2.11-6.38s3.49-2.13,6.26-2.14a19.71,19.71,0,0,1,2.62.19,17.34,17.34,0,0,1,2.46.53V42.78A9,9,0,0,1,1092,47a5,5,0,0,1-2.49,2.33,10.3,10.3,0,0,1-4.22.74A18.1,18.1,0,0,1,1082.84,49.85Zm5.83-8.82a4.51,4.51,0,0,0,1.77-1.37V29.38a12.77,12.77,0,0,0-2.85-.32,5.55,5.55,0,0,0-4.27,1.53c-.94,1-1.42,2.63-1.42,4.85s.4,3.78,1.2,4.69a4.2,4.2,0,0,0,3.35,1.36A5.49,5.49,0,0,0,1088.67,41Z"/><path d="M1153,42.93V41a16.31,16.31,0,0,0,4.58.66q4.08,0,4.08-2.67a2.23,2.23,0,0,0-.59-1.66,3.94,3.94,0,0,0-2-.86l-2.24-.44a6,6,0,0,1-3.2-1.51,4,4,0,0,1-1-2.82,4.11,4.11,0,0,1,.71-2.4,4.7,4.7,0,0,1,2.18-1.62,10.08,10.08,0,0,1,3.63-.58,16.39,16.39,0,0,1,3.9.47v1.91a13.27,13.27,0,0,0-1.92-.38,14.77,14.77,0,0,0-1.92-.12,5.67,5.67,0,0,0-3.24.72,2.28,2.28,0,0,0-1,2,2.2,2.2,0,0,0,.57,1.58,3.55,3.55,0,0,0,1.9.88l2.23.44a6.24,6.24,0,0,1,3.27,1.49,3.92,3.92,0,0,1,1,2.83,4,4,0,0,1-1.66,3.43,7.89,7.89,0,0,1-4.76,1.23A15.36,15.36,0,0,1,1153,42.93Z"/><path d="M1179.46,36.13h-10.57a7.51,7.51,0,0,0,.69,3.22,3.76,3.76,0,0,0,1.85,1.76,7.66,7.66,0,0,0,3.1.54,15.47,15.47,0,0,0,4.11-.64v1.92a15.93,15.93,0,0,1-4.4.64q-3.95,0-5.88-2t-1.94-6.28q0-4.08,1.76-6.14a6.15,6.15,0,0,1,4.92-2.05,5.67,5.67,0,0,1,4.72,2.05q1.64,2,1.64,6.2Zm-9.45-6a7.17,7.17,0,0,0-1.12,4.33h8.23a7.4,7.4,0,0,0-1.08-4.34,3.49,3.49,0,0,0-3-1.31A3.7,3.7,0,0,0,1170,30.18Z"/><path d="M1183,27.39H1185l.17,1.76h.15a5.65,5.65,0,0,1,2-1.47,6.14,6.14,0,0,1,2.6-.54,6.94,6.94,0,0,1,3.33.79,5.43,5.43,0,0,1,2.31,2.56,10.49,10.49,0,0,1,.86,4.55q0,4.27-2.1,6.41t-6.24,2.12a22.73,22.73,0,0,1-2.68-.2v6.37H1183Zm9.53,12.75c1-1,1.44-2.64,1.44-4.88s-.4-3.81-1.21-4.73a4.25,4.25,0,0,0-3.37-1.37,5.14,5.14,0,0,0-2.21.5,4.34,4.34,0,0,0-1.75,1.47V41.37a13.05,13.05,0,0,0,1.31.2,14,14,0,0,0,1.42.08A5.77,5.77,0,0,0,1192.49,40.14Z"/><path d="M1261.23,41.56c-1.23-1.35-1.85-3.41-1.85-6.2s.61-4.85,1.84-6.2a7.67,7.67,0,0,1,10.36,0q1.85,2,1.84,6.2c0,2.77-.62,4.84-1.86,6.19a7.61,7.61,0,0,1-10.33,0Zm8.54-1.34c.77-1,1.16-2.57,1.16-4.83s-.39-3.92-1.16-4.88a4.66,4.66,0,0,0-6.75,0c-.77,1-1.16,2.56-1.16,4.82s.38,3.92,1.15,4.89a4.65,4.65,0,0,0,6.76,0Z"/><path d="M1278.23,41.58q-1.86-2-1.86-6.23c0-2.82.67-4.9,2-6.22s3.3-2,5.91-2a13.35,13.35,0,0,1,3.39.41v2a12.84,12.84,0,0,0-3.12-.4,7.3,7.3,0,0,0-3.18.6,3.85,3.85,0,0,0-1.86,1.95,8.79,8.79,0,0,0-.61,3.59,9.79,9.79,0,0,0,.57,3.66,3.91,3.91,0,0,0,1.69,2,5.94,5.94,0,0,0,2.86.62,12.08,12.08,0,0,0,3.65-.66v2a12.25,12.25,0,0,1-4,.66A7.06,7.06,0,0,1,1278.23,41.58Z"/><path d="M1299.72,41.3v2a11.78,11.78,0,0,1-2.54.29q-5.34,0-5.34-5.27v-9h-3.12V27.39h3.12l.4-5.79h2v5.79h5.18v1.94h-5.18v8.6a3.87,3.87,0,0,0,.82,2.78,3.57,3.57,0,0,0,2.6.82A10,10,0,0,0,1299.72,41.3Z"/><path d="M1360.69,27.39h2.06l.16,1.8h.17a7,7,0,0,1,2.35-1.52,7.67,7.67,0,0,1,2.84-.53,5.4,5.4,0,0,1,3.88,1.34,5.72,5.72,0,0,1,1.41,4.3V43.29h-2.43V32.89a3.75,3.75,0,0,0-.89-2.8,3.57,3.57,0,0,0-2.57-.85,6.38,6.38,0,0,0-2.46.51,5.08,5.08,0,0,0-2.08,1.6V43.29h-2.44Z"/><path d="M1379,41.56c-1.23-1.35-1.85-3.41-1.85-6.2s.61-4.85,1.84-6.2a7.67,7.67,0,0,1,10.36,0q1.85,2,1.84,6.2c0,2.77-.62,4.84-1.85,6.19a7.63,7.63,0,0,1-10.34,0Zm8.54-1.34c.77-1,1.16-2.57,1.16-4.83s-.39-3.92-1.16-4.88a4.66,4.66,0,0,0-6.75,0c-.77,1-1.16,2.56-1.16,4.82s.39,3.92,1.16,4.89a4.64,4.64,0,0,0,6.75,0Z"/><path d="M1405.6,27.39h2.45l-6.24,15.9h-3.13l-6.23-15.9H1395l5.28,13.81Z"/><path d="M1469.23,42.77a5.57,5.57,0,0,1-2.3-2.58,10.51,10.51,0,0,1-.84-4.52q0-4.26,2.1-6.4c1.41-1.42,3.48-2.13,6.23-2.13a19.65,19.65,0,0,1,2.68.22V19.61h2.43V43.29h-2.08l-.17-1.73h-.15a5.53,5.53,0,0,1-2,1.47,6.14,6.14,0,0,1-2.6.54A6.91,6.91,0,0,1,1469.23,42.77Zm6.12-1.71a4.5,4.5,0,0,0,1.75-1.47V29.34c-.39-.08-.82-.14-1.31-.2a14,14,0,0,0-1.41-.08,5.78,5.78,0,0,0-4.38,1.52q-1.44,1.52-1.44,4.87t1.2,4.71a4.19,4.19,0,0,0,3.38,1.39A5.13,5.13,0,0,0,1475.35,41.06Z"/><path d="M1496.3,36.13h-10.58a7.5,7.5,0,0,0,.7,3.22,3.74,3.74,0,0,0,1.84,1.76,7.75,7.75,0,0,0,3.11.54,15.59,15.59,0,0,0,4.11-.64v1.92a16,16,0,0,1-4.4.64q-3.94,0-5.88-2t-1.94-6.28q0-4.08,1.76-6.14a6.15,6.15,0,0,1,4.92-2.05,5.67,5.67,0,0,1,4.72,2.05q1.63,2,1.64,6.2Zm-9.45-6a7.16,7.16,0,0,0-1.13,4.33H1494a7.41,7.41,0,0,0-1.07-4.34,3.49,3.49,0,0,0-3-1.31A3.7,3.7,0,0,0,1486.85,30.18Z"/><path d="M1500.78,41.58q-1.85-2-1.85-6.23c0-2.82.66-4.9,2-6.22s3.3-2,5.91-2a13.35,13.35,0,0,1,3.39.41v2a12.84,12.84,0,0,0-3.12-.4,7.27,7.27,0,0,0-3.18.6,3.85,3.85,0,0,0-1.86,1.95,8.77,8.77,0,0,0-.62,3.59A9.79,9.79,0,0,0,1502,39a3.92,3.92,0,0,0,1.7,2,5.91,5.91,0,0,0,2.86.62,12.14,12.14,0,0,0,3.65-.66v2a12.29,12.29,0,0,1-4,.66A7.09,7.09,0,0,1,1500.78,41.58Z"/><line class="cls-3" x1="339.47" y1="63.66" x2="339.47" y2="989.38"/><line class="cls-3" x1="308.65" y1="63.01" x2="371.7" y2="63.01"/><line class="cls-3" x1="443.86" y1="63.66" x2="443.86" y2="989.38"/><line class="cls-3" x1="416.3" y1="63.01" x2="474.55" y2="63.01"/><line class="cls-3" x1="548.31" y1="63.66" x2="548.31" y2="989.38"/><line class="cls-3" x1="511.64" y1="63.01" x2="584.99" y2="63.01"/><line class="cls-3" x1="652.63" y1="63.66" x2="652.63" y2="989.38"/><line class="cls-3" x1="617.55" y1="63.01" x2="687.02" y2="63.01"/><line class="cls-3" x1="757.02" y1="63.66" x2="757.02" y2="989.38"/><line class="cls-3" x1="722.8" y1="63.01" x2="792.27" y2="63.01"/><line class="cls-3" x1="861.41" y1="63.66" x2="861.41" y2="989.38"/><line class="cls-3" x1="833.47" y1="63.01" x2="888.15" y2="63.01"/><line class="cls-3" x1="965.79" y1="63.66" x2="965.79" y2="989.38"/><line class="cls-3" x1="937.94" y1="62.94" x2="991.85" y2="62.94"/><line class="cls-3" x1="1070.18" y1="63.66" x2="1070.18" y2="989.38"/><line class="cls-3" x1="1035.38" y1="62.94" x2="1103.15" y2="62.94"/><line class="cls-3" x1="1174.84" y1="63.66" x2="1174.84" y2="989.38"/><line class="cls-3" x1="1145.63" y1="62.94" x2="1204.05" y2="62.94"/><line class="cls-3" x1="1279.53" y1="63.66" x2="1279.53" y2="989.38"/><line class="cls-3" x1="1246.48" y1="62.94" x2="1312.59" y2="62.94"/><line class="cls-3" x1="1383.81" y1="63.66" x2="1383.81" y2="989.38"/><line class="cls-3" x1="1349.31" y1="62.94" x2="1418.31" y2="62.94"/><line class="cls-3" x1="1488.44" y1="63.66" x2="1488.44" y2="989.38"/><line class="cls-3" x1="1458.04" y1="62.94" x2="1519.56" y2="62.94"/><path class="cls-4" d="M1145.59,261.35h-64.73c-55.69,0-48.59-43.14-101.36-43.14h6.76c-52.76,0-57.83,43.14-101.35,43.14H678.27v3.73h467.32Z"/><path class="cls-4" d="M1658.59,264.35l-799.6-3c-55.7,0-48.6-43.14-101.36-43.14H342.39c-52.77,0-57.83,43.14-101.36,43.14l-79.58,3v.73H1658.59Z"/><path class="cls-1" d="M519.46,251.53c-1.28-1.28-1.91-3.25-1.91-5.9V234.34h3.53V246a5,5,0,0,0,1.06,3.53,5.45,5.45,0,0,0,6.62,0,5,5,0,0,0,1.06-3.53V234.34h3.47v11.29q0,4-1.89,5.9t-5.94,1.92Q521.37,253.45,519.46,251.53Z"/><path class="cls-1" d="M550,234.34h3.47l-6.55,18.86h-5.19l-6.55-18.86h3.71l5.53,16.28Z"/><path class="cls-1" d="M567.24,253.2l-1.84-5.43h-7.65l-1.84,5.43h-3.46L559,234.34h5.11l6.59,18.86Zm-8.58-8.15h5.81l-2.91-8.57Z"/><path class="cls-1" d="M574.25,253.24a15.64,15.64,0,0,1-2.53-.58v-2.8a15.23,15.23,0,0,0,2.6.61,17.77,17.77,0,0,0,2.64.21,5.38,5.38,0,0,0,3-.68,2.26,2.26,0,0,0,1-2,2.34,2.34,0,0,0-.3-1.23,2.48,2.48,0,0,0-1-.84,9.85,9.85,0,0,0-1.91-.66l-1.33-.33a8,8,0,0,1-3.86-1.92,4.67,4.67,0,0,1-1.27-3.41,4.79,4.79,0,0,1,2-4.09A9.61,9.61,0,0,1,579,234.1a21.09,21.09,0,0,1,2.41.14,13.91,13.91,0,0,1,2.1.42v2.79a13.63,13.63,0,0,0-2.08-.43,15.52,15.52,0,0,0-2.26-.16,6.34,6.34,0,0,0-3.34.68,2.17,2.17,0,0,0-1,1.92,2.37,2.37,0,0,0,.27,1.18,2.25,2.25,0,0,0,.9.81,8.06,8.06,0,0,0,1.73.64l1.32.32a8.75,8.75,0,0,1,4.13,2,4.6,4.6,0,0,1,1.32,3.42,5.18,5.18,0,0,1-.89,3,5.58,5.58,0,0,1-2.6,1.95,11.15,11.15,0,0,1-4,.67A17.77,17.77,0,0,1,574.25,253.24Z"/><path class="cls-5" d="M1658.59,140.55l-168.07-3c-55.7,0-48.59-43.14-101.36-43.14H547.68c-52.76,0-57.83,43.14-101.35,43.14l-281.06,3v.73H1658.59Z"/><path class="cls-1" d="M910.84,109.59h4.28v18.86h-3.31V114.2l-5.37,11.56h-3l-5.37-11.29v14h-3.3V109.59h4.27L905,122.31Z"/><path class="cls-1" d="M932.14,128.45,930.3,123h-7.64l-1.84,5.43h-3.47l6.59-18.86h5.11l6.58,18.86Zm-8.57-8.16h5.81l-2.91-8.56Z"/><path class="cls-1" d="M950.7,109.59H954v18.86h-3.57l-9.3-13.75v13.75h-3.33V109.59h3.57l9.31,13.76Z"/><path class="cls-1" d="M961.34,125.62h9.8v2.83H956.76v-1.87l9.66-14.16h-9.51v-2.83H971v1.87Z"/><path class="cls-1" d="M986.66,128.45,984.82,123h-7.65l-1.84,5.43h-3.46l6.59-18.86h5.1l6.59,18.86Zm-8.57-8.16h5.8L981,111.73Z"/><path class="cls-1" d="M1005.22,109.59h3.32v18.86H1005l-9.3-13.75v13.75h-3.34V109.59h3.57l9.32,13.76Z"/><path class="cls-1" d="M1025.51,128.45l-1.84-5.43H1016l-1.84,5.43h-3.47l6.59-18.86h5.11l6.58,18.86Zm-8.57-8.16h5.81l-2.91-8.56Z"/><path class="cls-1" d="M1032.53,128.49a15.63,15.63,0,0,1-2.53-.59v-2.79a15.23,15.23,0,0,0,2.6.61,17.74,17.74,0,0,0,2.63.21,5.42,5.42,0,0,0,3-.68,2.26,2.26,0,0,0,1-2,2.41,2.41,0,0,0-.29-1.23,2.48,2.48,0,0,0-1-.84,8.77,8.77,0,0,0-1.92-.66l-1.32-.33a7.83,7.83,0,0,1-3.86-1.93,4.63,4.63,0,0,1-1.27-3.4,4.79,4.79,0,0,1,2-4.09,9.6,9.6,0,0,1,5.76-1.45,19.08,19.08,0,0,1,2.42.14,13.52,13.52,0,0,1,2.09.42v2.79a14.47,14.47,0,0,0-2.07-.44,17.19,17.19,0,0,0-2.27-.15,6.33,6.33,0,0,0-3.33.68,2.15,2.15,0,0,0-1.05,1.92,2.3,2.3,0,0,0,.28,1.17,2.2,2.2,0,0,0,.9.82,8,8,0,0,0,1.72.64l1.33.32a8.7,8.7,0,0,1,4.13,2,4.6,4.6,0,0,1,1.32,3.42,5.12,5.12,0,0,1-.9,3,5.47,5.47,0,0,1-2.59,1.94,11,11,0,0,1-4.06.67A19,19,0,0,1,1032.53,128.49Z"/><path class="cls-6" d="M1658.59,202.45l-274.49-3c-55.7,0-48.59-43.13-101.36-43.13H356c-52.76,0-57.83,43.13-101.36,43.13l-89.35,3v.73H1658.59Z"/><path class="cls-1" d="M771.81,171.31a30,30,0,0,1,5.6-.54q4.25,0,6.34,1.63a7.06,7.06,0,0,1,0,10c-1.4,1.13-3.49,1.69-6.29,1.69-.45,0-1.16,0-2.13-.08v5.8h-3.53Zm9.43,9.25a3.76,3.76,0,0,0,1.17-3.08,3.9,3.9,0,0,0-1.15-3.13,5.32,5.32,0,0,0-3.55-1,15.18,15.18,0,0,0-2.37.18v7.86a15,15,0,0,0,2.17.13A5.81,5.81,0,0,0,781.24,180.56Z"/><path class="cls-1" d="M792.33,187.11h9.81v2.74h-13.3V171H802v2.74h-9.68v5.1h8.36v2.74h-8.36Z"/><path class="cls-1" d="M816.7,189.85l-5.39-7.25h-.55c-.53,0-1.29,0-2.28-.07v7.31H805V171.37a28.56,28.56,0,0,1,5.8-.6q4.11,0,6.14,1.44a5.08,5.08,0,0,1,2,4.45,5.28,5.28,0,0,1-1.08,3.44,6.09,6.09,0,0,1-3.15,2l5.83,7.75Zm-8.22-9.91c.84.07,1.62.11,2.34.11a6.54,6.54,0,0,0,3.67-.81,2.91,2.91,0,0,0,1.16-2.57,3,3,0,0,0-1.09-2.56,5.88,5.88,0,0,0-3.43-.8,15.72,15.72,0,0,0-2.65.23Z"/><path class="cls-1" d="M834.83,189.85,833,184.42h-7.64l-1.84,5.43H820L826.63,171h5.11l6.59,18.86Zm-8.57-8.15h5.81l-2.91-8.57Z"/><path class="cls-1" d="M841.85,189.89a15.63,15.63,0,0,1-2.53-.59v-2.79a15.23,15.23,0,0,0,2.6.61,17.77,17.77,0,0,0,2.64.21,5.38,5.38,0,0,0,3-.68,2.27,2.27,0,0,0,1-2,2.31,2.31,0,0,0-.3-1.23,2.48,2.48,0,0,0-1-.84,9.34,9.34,0,0,0-1.92-.66l-1.32-.33a7.87,7.87,0,0,1-3.86-1.93,4.63,4.63,0,0,1-1.27-3.4,4.79,4.79,0,0,1,2-4.09,9.6,9.6,0,0,1,5.76-1.45,21.13,21.13,0,0,1,2.42.14,13.91,13.91,0,0,1,2.1.42v2.79a13.63,13.63,0,0,0-2.08-.43,15.61,15.61,0,0,0-2.26-.16,6.34,6.34,0,0,0-3.34.68,2.17,2.17,0,0,0-1,1.92,2.37,2.37,0,0,0,.27,1.18,2.25,2.25,0,0,0,.9.81,8.16,8.16,0,0,0,1.72.64l1.33.32a8.75,8.75,0,0,1,4.13,2,4.6,4.6,0,0,1,1.32,3.42,5.12,5.12,0,0,1-.9,3,5.55,5.55,0,0,1-2.59,2,11.16,11.16,0,0,1-4.05.66A17.75,17.75,0,0,1,841.85,189.89Z"/><path class="cls-7" d="M1593.86,323.25c-55.69,0-48.59-43.14-101.36-43.14H1386.68c-52.77,0-45.66,43.14-101.36,43.14h-94V327h467.32v-.72Z"/><path class="cls-7" d="M1205.27,323.25H440.81c-55.7,0-48.6-43.14-101.36-43.14h6.76c-52.77,0-57.83,43.14-101.36,43.14l-79.58,3V327h1040Z"/><path class="cls-1" d="M1385.37,312.43q-2.5-2.31-2.5-7.32t2.56-7.29c1.71-1.62,4.17-2.42,7.39-2.42a18.36,18.36,0,0,1,4.21.48v2.83a16.64,16.64,0,0,0-4-.47,8.39,8.39,0,0,0-3.63.69,4.49,4.49,0,0,0-2.14,2.18,9,9,0,0,0-.73,3.95,9.43,9.43,0,0,0,.72,4,4.37,4.37,0,0,0,2.11,2.17,8.22,8.22,0,0,0,3.52.66,14.65,14.65,0,0,0,4.11-.62v2.83a14.51,14.51,0,0,1-2.11.47,16,16,0,0,1-2.3.16C1389.45,314.74,1387,314,1385.37,312.43Z"/><path class="cls-1" d="M1403,311.76h9.82v2.74h-13.31V295.64h13.18v2.74H1403v5.1h8.37v2.74H1403Z"/><path class="cls-1" d="M1427.41,314.5l-5.38-7.25h-.56c-.53,0-1.29,0-2.27-.07v7.31h-3.48V296a28.46,28.46,0,0,1,5.79-.6c2.75,0,4.79.48,6.15,1.44a5.09,5.09,0,0,1,2,4.45,5.28,5.28,0,0,1-1.08,3.44,6.12,6.12,0,0,1-3.16,2l5.84,7.75Zm-8.21-9.91c.83.07,1.62.11,2.34.11a6.48,6.48,0,0,0,3.66-.81,2.9,2.9,0,0,0,1.17-2.57,3,3,0,0,0-1.09-2.56,5.92,5.92,0,0,0-3.44-.8,14.72,14.72,0,0,0-2.64.23Z"/><path class="cls-1" d="M1437.1,311.76h9.81v2.74H1433.6V295.64h13.18v2.74h-9.68v5.1h8.36v2.74h-8.36Z"/><path class="cls-1" d="M1453.22,311.67h9.8v2.83h-14.38v-1.87l9.66-14.16h-9.51v-2.83h14.09v1.87Z"/><path class="cls-1" d="M1478.54,314.5l-1.84-5.43h-7.64l-1.84,5.43h-3.47l6.59-18.86h5.11L1482,314.5Zm-8.57-8.16h5.81l-2.91-8.56Z"/><path class="cls-1" d="M1485.56,314.54A15.63,15.63,0,0,1,1483,314v-2.79a15.23,15.23,0,0,0,2.6.61,17.77,17.77,0,0,0,2.64.21,5.38,5.38,0,0,0,3-.68,2.26,2.26,0,0,0,1-2,2.31,2.31,0,0,0-.29-1.23,2.48,2.48,0,0,0-1-.84,8.77,8.77,0,0,0-1.92-.66l-1.32-.33a7.83,7.83,0,0,1-3.86-1.93,4.63,4.63,0,0,1-1.27-3.4,4.79,4.79,0,0,1,2-4.09,9.6,9.6,0,0,1,5.76-1.45,21.13,21.13,0,0,1,2.42.14,13.52,13.52,0,0,1,2.09.42v2.79a14.47,14.47,0,0,0-2.07-.44,17.19,17.19,0,0,0-2.27-.15,6.33,6.33,0,0,0-3.33.68,2.14,2.14,0,0,0-1,1.92,2.3,2.3,0,0,0,.27,1.17,2.2,2.2,0,0,0,.9.82,8.16,8.16,0,0,0,1.72.64l1.33.32a8.8,8.8,0,0,1,4.13,2,4.6,4.6,0,0,1,1.32,3.42,5.12,5.12,0,0,1-.9,3,5.47,5.47,0,0,1-2.59,1.94,10.94,10.94,0,0,1-4,.67A17.75,17.75,0,0,1,1485.56,314.54Z"/><path class="cls-8" d="M1658.59,388.16l-274.49-3c-55.7,0-48.59-43.14-101.36-43.14H543.63c-52.77,0-57.83,43.14-101.36,43.14l-277,3v.73H1658.59Z"/><path class="cls-1" d="M889.66,377.44l-7.06-8.16H880v8.16h-4.11V358.58H880v7.71h2.63l6.52-7.71h4.36l-7.71,9.14,8.36,9.72Z"/><path class="cls-1" d="M895.81,377.44V358.58h4.11v18.86Z"/><path class="cls-1" d="M931.84,358.58h3.9l-6.16,18.86h-5.29l-5-15.16-5.1,15.16h-5.29l-6.17-18.86h4.17l4.93,15.74,5.2-15.74h4.61l5.11,15.88Z"/><path class="cls-1" d="M938.59,377.44V358.58h4.1v18.86Z"/><path class="cls-9" d="M1229.09,447.05H761.23c-55.7,0-48.6-43.13-101.36-43.13H346.21c-52.77,0-57.83,43.13-101.36,43.13l-79.58,3v.73H1229.09Z"/><path class="cls-9" d="M1585.27,447.05c-55.7,0-48.6-43.13-101.36-43.13h-97.23c-52.77,0-45.66,43.13-101.36,43.13h-94v3.74h467.32v-.73Z"/><path class="cls-1" d="M432.25,439.17l-1.84-5.43h-7.65l-1.83,5.43h-3.47l6.59-18.87h5.1l6.59,18.87ZM423.68,431h5.81l-2.92-8.57Z"/><path class="cls-1" d="M449.62,439.17l-5.38-7.26-.56,0c-.53,0-1.29,0-2.28-.08v7.32h-3.47V420.68a28.45,28.45,0,0,1,5.79-.59q4.11,0,6.14,1.44a5.06,5.06,0,0,1,2,4.44,5.38,5.38,0,0,1-1.08,3.44,6.19,6.19,0,0,1-3.16,2l5.84,7.75Zm-8.22-9.92c.84.08,1.62.11,2.35.11a6.53,6.53,0,0,0,3.66-.81,2.87,2.87,0,0,0,1.16-2.56,3,3,0,0,0-1.09-2.57,5.86,5.86,0,0,0-3.43-.8,15.9,15.9,0,0,0-2.65.23Z"/><path class="cls-1" d="M467.76,439.17l-1.84-5.43h-7.65l-1.84,5.43H453l6.58-18.87h5.11l6.59,18.87ZM459.18,431H465l-2.91-8.57Zm1.35-12.24,2.36-3.77h3.66l-2.89,3.77Z"/><path class="cls-1" d="M486.32,420.3h3.32v18.87h-3.57l-9.3-13.76v13.76h-3.34V420.3H477l9.32,13.77Z"/><path class="cls-1" d="M493.5,439.05V420.68c.88-.17,1.83-.32,2.86-.42a27.63,27.63,0,0,1,3-.16q5.21,0,7.81,2.37c1.74,1.58,2.62,4,2.62,7.26a10.85,10.85,0,0,1-1.23,5.48,7.35,7.35,0,0,1-3.7,3.13,16.66,16.66,0,0,1-6.23,1A43.8,43.8,0,0,1,493.5,439.05Zm9.7-3.19a4.55,4.55,0,0,0,2.19-2.2,10.94,10.94,0,0,0,0-7.86,4.63,4.63,0,0,0-2.17-2.22,8.46,8.46,0,0,0-3.69-.7,16.72,16.72,0,0,0-2.5.21v13.35a24.08,24.08,0,0,0,2.44.11A8.75,8.75,0,0,0,503.2,435.86Z"/><path class="cls-1" d="M525.58,439.17l-1.84-5.43H516.1l-1.84,5.43h-3.47l6.59-18.87h5.11l6.58,18.87ZM517,431h5.81l-2.91-8.57Z"/><path class="cls-1" d="M544.14,420.3h3.32v18.87h-3.57l-9.3-13.76v13.76h-3.33V420.3h3.57l9.31,13.77Z"/><path class="cls-1" d="M554.73,438.36a7,7,0,0,1-3.05-3.21,14.12,14.12,0,0,1,0-10.83,7,7,0,0,1,3.06-3.21,11,11,0,0,1,9.4,0,7.09,7.09,0,0,1,3.05,3.21,14.09,14.09,0,0,1,0,10.82,7.21,7.21,0,0,1-3.07,3.22,11,11,0,0,1-9.39,0ZM563.3,435q1.35-1.62,1.35-5.19t-1.35-5.32a5.37,5.37,0,0,0-7.72,0c-.9,1.08-1.34,2.81-1.34,5.2s.44,4.23,1.33,5.32a5.37,5.37,0,0,0,7.73,0Z"/><path class="cls-1" d="M573.25,439.2a15.64,15.64,0,0,1-2.53-.58v-2.79a16.25,16.25,0,0,0,2.6.6,17.77,17.77,0,0,0,2.64.21,5.39,5.39,0,0,0,3-.67,2.55,2.55,0,0,0,.67-3.2,2.33,2.33,0,0,0-1-.84,9.27,9.27,0,0,0-1.92-.67l-1.32-.33a7.87,7.87,0,0,1-3.86-1.92,4.66,4.66,0,0,1-1.27-3.41,4.79,4.79,0,0,1,2-4.09,9.6,9.6,0,0,1,5.76-1.45,19.06,19.06,0,0,1,2.42.15,12.82,12.82,0,0,1,2.1.41v2.79a13.63,13.63,0,0,0-2.08-.43,17.16,17.16,0,0,0-2.26-.15,6.36,6.36,0,0,0-3.34.67,2.17,2.17,0,0,0-1,1.93,2.35,2.35,0,0,0,.27,1.17,2.25,2.25,0,0,0,.9.81,7.64,7.64,0,0,0,1.72.64l1.33.32a8.66,8.66,0,0,1,4.13,2,4.56,4.56,0,0,1,1.32,3.41,5.1,5.1,0,0,1-.9,3,5.55,5.55,0,0,1-2.59,1.95,11.15,11.15,0,0,1-4,.67A17.77,17.77,0,0,1,573.25,439.2Z"/><path class="cls-10" d="M1660.5,551.8l-278.3-3c-55.7,0-48.59-43.14-101.36-43.14H754.13c-52.76,0-57.83,43.14-101.35,43.14l-489.41,3v.72H1660.5Z"/><path class="cls-1" d="M954.74,540.31V521.44h3.53v16h9.24v2.84Z"/><path class="cls-1" d="M969.57,540.31V521.44h3.53v18.87Z"/><path class="cls-1" d="M993.06,521.44h4.28v18.87H994V526.06l-5.37,11.56h-3l-5.38-11.29v14H977V521.44h4.27l6,12.72Z"/><path class="cls-1" d="M1004.66,539.5a7,7,0,0,1-3.06-3.21,14.09,14.09,0,0,1,0-10.82,7.11,7.11,0,0,1,3.07-3.22,11,11,0,0,1,9.39,0,7.14,7.14,0,0,1,3.06,3.22,12,12,0,0,1,1.08,5.41,11.91,11.91,0,0,1-1.09,5.4,7.14,7.14,0,0,1-3.06,3.22,11,11,0,0,1-9.39,0Zm8.57-3.35c.9-1.09,1.34-2.82,1.34-5.2s-.45-4.22-1.35-5.32a5.36,5.36,0,0,0-7.71,0q-1.35,1.62-1.35,5.2t1.34,5.33a5.4,5.4,0,0,0,7.73,0Z"/><path class="cls-1" d="M1034.23,521.44h3.32v18.87H1034l-9.3-13.76v13.76h-3.33V521.44h3.57l9.31,13.77Z"/><path class="cls-1" d="M1044.91,537.57h9.81v2.74h-13.3V521.44h13.17v2.74h-9.68v5.1h8.36V532h-8.36Z"/><path class="cls-1" d="M1059.41,540.34a15.88,15.88,0,0,1-2.53-.58V537a16.25,16.25,0,0,0,2.6.6,17.77,17.77,0,0,0,2.64.21,5.39,5.39,0,0,0,3-.67,2.55,2.55,0,0,0,.67-3.2,2.48,2.48,0,0,0-1-.84,8.94,8.94,0,0,0-1.91-.67l-1.33-.33a7.78,7.78,0,0,1-3.86-1.92,4.65,4.65,0,0,1-1.27-3.4,4.77,4.77,0,0,1,2-4.09,9.61,9.61,0,0,1,5.77-1.46,19,19,0,0,1,2.41.15,14,14,0,0,1,2.1.41v2.79a15,15,0,0,0-2.08-.43,17,17,0,0,0-2.26-.15,6.36,6.36,0,0,0-3.34.67,2.18,2.18,0,0,0-1,1.93,2.33,2.33,0,0,0,.27,1.17,2.27,2.27,0,0,0,.9.82,7.61,7.61,0,0,0,1.73.63l1.32.32a8.61,8.61,0,0,1,4.13,2,4.56,4.56,0,0,1,1.32,3.41,5.19,5.19,0,0,1-.89,3,5.56,5.56,0,0,1-2.6,1.94,10.94,10.94,0,0,1-4.05.67A17.77,17.77,0,0,1,1059.41,540.34Z"/><path class="cls-11" d="M1660.5,613.7l-278.3-3c-55.7,0-48.59-43.14-101.36-43.14H864c-52.76,0-57.83,43.14-101.35,43.14l-599.31,3v.73H1660.5Z"/><path class="cls-1" d="M1017.84,582.32h3.32v18.87h-3.57l-9.3-13.76v13.76H1005V582.32h3.57l9.32,13.77Z"/><path class="cls-1" d="M1038.13,601.19l-1.84-5.43h-7.64l-1.84,5.43h-3.47l6.59-18.87H1035l6.58,18.87Zm-8.57-8.16h5.81l-2.91-8.56Z"/><path class="cls-1" d="M1055.5,601.19l-5.38-7.26-.56,0c-.53,0-1.29,0-2.27-.08v7.32h-3.48V582.71a28.46,28.46,0,0,1,5.79-.6q4.11,0,6.15,1.44a5.09,5.09,0,0,1,2,4.45,5.36,5.36,0,0,1-1.08,3.44,6.24,6.24,0,0,1-3.16,2l5.84,7.75Zm-8.21-9.92q1.24.12,2.34.12a6.53,6.53,0,0,0,3.66-.81,2.91,2.91,0,0,0,1.17-2.57,3,3,0,0,0-1.1-2.56,5.78,5.78,0,0,0-3.43-.81,15.69,15.69,0,0,0-2.64.23Z"/><path class="cls-1" d="M1073.64,601.19l-1.84-5.43h-7.65l-1.84,5.43h-3.46l6.59-18.87h5.1l6.59,18.87Zm-8.58-8.16h5.81l-2.91-8.56Z"/><path class="cls-1" d="M1092.2,582.32h3.32v18.87H1092l-9.3-13.76v13.76h-3.34V582.32h3.57l9.32,13.77Z"/><path class="cls-1" d="M1097.22,604.16a9.9,9.9,0,0,0,1.68-3.08,12.08,12.08,0,0,0,.49-3.67V582.32h3.52V597.5a11.93,11.93,0,0,1-.82,4.27,13,13,0,0,1-2.6,3.85Z"/><path class="cls-1" d="M1119.89,601.19l-1.84-5.43h-7.65l-1.84,5.43h-3.47l6.59-18.87h5.11l6.59,18.87Zm-8.58-8.16h5.81l-2.91-8.56Z"/><path class="cls-1" d="M1126.9,601.22a15.88,15.88,0,0,1-2.53-.58v-2.79a16.25,16.25,0,0,0,2.6.6,17.77,17.77,0,0,0,2.64.21,5.39,5.39,0,0,0,3-.67,2.25,2.25,0,0,0,1-2,2.27,2.27,0,0,0-.3-1.22,2.48,2.48,0,0,0-1-.84,8.94,8.94,0,0,0-1.91-.67l-1.33-.33a7.78,7.78,0,0,1-3.86-1.92,4.65,4.65,0,0,1-1.27-3.4,4.79,4.79,0,0,1,2-4.1,9.63,9.63,0,0,1,5.76-1.45,19,19,0,0,1,2.41.15,14,14,0,0,1,2.1.41v2.79a15,15,0,0,0-2.08-.43,17,17,0,0,0-2.26-.15,6.36,6.36,0,0,0-3.34.67,2.17,2.17,0,0,0-1,1.93,2.33,2.33,0,0,0,.27,1.17,2.27,2.27,0,0,0,.9.82,7.61,7.61,0,0,0,1.73.63l1.32.32a8.61,8.61,0,0,1,4.13,2,4.56,4.56,0,0,1,1.32,3.41,5.19,5.19,0,0,1-.89,3,5.56,5.56,0,0,1-2.6,1.94,10.94,10.94,0,0,1-4.05.67A17.77,17.77,0,0,1,1126.9,601.22Z"/><path class="cls-12" d="M1660.5,675.6l-486.95-3c-55.69,0-48.59-43.13-101.35-43.13H763c-52.77,0-57.83,43.13-101.36,43.13l-498.26,3v.73H1660.5Z"/><path class="cls-1" d="M841.48,661.47q-2.51-2.31-2.5-7.32t2.56-7.29c1.7-1.62,4.17-2.43,7.39-2.43a18.22,18.22,0,0,1,4.2.49v2.83a16.06,16.06,0,0,0-4-.47,8.36,8.36,0,0,0-3.63.69,4.47,4.47,0,0,0-2.15,2.18,9.17,9.17,0,0,0-.72,4,9.35,9.35,0,0,0,.72,4,4.35,4.35,0,0,0,2.11,2.18,8.22,8.22,0,0,0,3.52.66,14.58,14.58,0,0,0,4.1-.62v2.82a12.82,12.82,0,0,1-2.11.48,15.83,15.83,0,0,1-2.29.16C845.56,663.78,843.15,663,841.48,661.47Z"/><path class="cls-1" d="M855.66,663.54V644.68h3.53v16h9.24v2.84Z"/><path class="cls-1" d="M874,660.8h9.82v2.74H870.49V644.68h13.18v2.74H874v5.1h8.36v2.74H874Z"/><path class="cls-1" d="M902.76,644.68H907v18.86h-3.31V649.29l-5.37,11.56h-3L890,649.56v14h-3.31V644.68H891l5.95,12.72Z"/><path class="cls-1" d="M914.44,660.8h9.81v2.74H910.94V644.68h13.18v2.74h-9.68v5.1h8.36v2.74h-8.36Z"/><path class="cls-1" d="M940,644.68h3.33v18.86h-3.58l-9.3-13.75v13.75h-3.33V644.68h3.57L940,658.44Z"/><path class="cls-1" d="M951.73,663.54v-16h-6.3v-2.84h16.13v2.84h-6.3v16Z"/><path class="cls-1" d="M974.58,663.54l-1.84-5.43h-7.65l-1.84,5.43h-3.46l6.58-18.86h5.11l6.59,18.86ZM966,655.38h5.81l-2.91-8.56Z"/><path class="cls-1" d="M981.59,663.58a15.88,15.88,0,0,1-2.53-.59V660.2a16.24,16.24,0,0,0,2.6.61,17.77,17.77,0,0,0,2.64.21,5.38,5.38,0,0,0,3-.68,2.24,2.24,0,0,0,1-2,2.31,2.31,0,0,0-.3-1.23,2.48,2.48,0,0,0-1-.84,8.48,8.48,0,0,0-1.91-.66l-1.33-.33a7.87,7.87,0,0,1-3.86-1.93,4.63,4.63,0,0,1-1.27-3.4,4.77,4.77,0,0,1,2-4.09,9.58,9.58,0,0,1,5.76-1.46,18.9,18.9,0,0,1,2.41.15,13.91,13.91,0,0,1,2.1.42v2.79a14.92,14.92,0,0,0-2.08-.44,17,17,0,0,0-2.26-.15,6.34,6.34,0,0,0-3.34.68,2.17,2.17,0,0,0-1,1.92,2.3,2.3,0,0,0,.27,1.17,2.2,2.2,0,0,0,.9.82,8.06,8.06,0,0,0,1.73.64l1.32.31a8.7,8.7,0,0,1,4.13,2,4.6,4.6,0,0,1,1.32,3.42,5.18,5.18,0,0,1-.89,3,5.5,5.5,0,0,1-2.6,1.94,10.94,10.94,0,0,1-4.05.67A19.12,19.12,0,0,1,981.59,663.58Z"/><path class="cls-13" d="M1660.5,737.5l-274.5-3c-55.69,0-48.59-43.14-101.36-43.14H1068c-52.77,0-57.84,43.14-101.36,43.14l-803.31,3v.73H1660.5Z"/><path class="cls-1" d="M1103.85,707.65h4.27v18.87h-3.31V712.27l-5.37,11.56h-3l-5.37-11.29v14h-3.31V707.65h4.28l6,12.72Z"/><path class="cls-1" d="M1125.15,726.52l-1.84-5.43h-7.65l-1.84,5.43h-3.46l6.59-18.87h5.1l6.59,18.87Zm-8.58-8.16h5.81l-2.91-8.56Z"/><path class="cls-1" d="M1143.71,707.65H1147v18.87h-3.57l-9.3-13.76v13.76h-3.34V707.65h3.57l9.32,13.77Z"/><path class="cls-1" d="M1150.89,726.4V708c.88-.18,1.83-.32,2.86-.43a27.63,27.63,0,0,1,3-.16q5.2,0,7.81,2.37c1.74,1.58,2.62,4,2.62,7.27a10.83,10.83,0,0,1-1.23,5.47,7.35,7.35,0,0,1-3.7,3.13,16.64,16.64,0,0,1-6.23,1A43.83,43.83,0,0,1,1150.89,726.4Zm9.7-3.19a4.51,4.51,0,0,0,2.19-2.2,10.94,10.94,0,0,0,0-7.86,4.61,4.61,0,0,0-2.17-2.21,8.31,8.31,0,0,0-3.69-.71,16.72,16.72,0,0,0-2.5.21v13.35a21.47,21.47,0,0,0,2.44.11A8.75,8.75,0,0,0,1160.59,723.21Z"/><path class="cls-1" d="M1183,726.52l-1.84-5.43h-7.64l-1.84,5.43h-3.47l6.59-18.87h5.11l6.58,18.87Zm-8.57-8.16h5.81l-2.91-8.56Z"/><path class="cls-1" d="M1200.34,726.52l-5.38-7.26-.56,0c-.53,0-1.29,0-2.27-.08v7.32h-3.48V708a28.46,28.46,0,0,1,5.79-.6q4.11,0,6.15,1.44a5.09,5.09,0,0,1,2,4.45,5.3,5.3,0,0,1-1.08,3.44,6.24,6.24,0,0,1-3.16,2l5.84,7.75Zm-8.21-9.92q1.24.12,2.34.12a6.5,6.5,0,0,0,3.66-.81,2.91,2.91,0,0,0,1.17-2.57,3,3,0,0,0-1.1-2.56,5.78,5.78,0,0,0-3.43-.81,15.69,15.69,0,0,0-2.64.23Z"/><path class="cls-1" d="M1206.53,726.52V707.65h3.53v18.87Z"/><path class="cls-1" d="M1226.81,707.65h3.32v18.87h-3.57l-9.3-13.76v13.76h-3.33V707.65h3.57l9.31,13.77Z"/><path class="cls-1" d="M1247.1,726.52l-1.83-5.43h-7.65l-1.84,5.43h-3.47l6.59-18.87H1244l6.59,18.87Zm-8.57-8.16h5.81l-2.91-8.56Z"/><path class="cls-1" d="M1254.12,726.55a15.88,15.88,0,0,1-2.53-.58v-2.79a16.25,16.25,0,0,0,2.6.6,17.77,17.77,0,0,0,2.64.21,5.39,5.39,0,0,0,3-.67,2.55,2.55,0,0,0,.67-3.2,2.48,2.48,0,0,0-1-.84,9.15,9.15,0,0,0-1.91-.67l-1.33-.33a7.78,7.78,0,0,1-3.86-1.92,4.65,4.65,0,0,1-1.27-3.4,4.8,4.8,0,0,1,2-4.1,9.68,9.68,0,0,1,5.77-1.45,19,19,0,0,1,2.41.15,14,14,0,0,1,2.1.41v2.79a15,15,0,0,0-2.08-.43,17,17,0,0,0-2.26-.15,6.36,6.36,0,0,0-3.34.67,2.17,2.17,0,0,0-1,1.93A2.33,2.33,0,0,0,1255,714a2.27,2.27,0,0,0,.9.82,7.61,7.61,0,0,0,1.73.63l1.32.32a8.61,8.61,0,0,1,4.13,2,4.56,4.56,0,0,1,1.32,3.41,5.19,5.19,0,0,1-.89,3,5.56,5.56,0,0,1-2.6,1.94,10.94,10.94,0,0,1-4.05.67A17.77,17.77,0,0,1,1254.12,726.55Z"/><path class="cls-14" d="M230.16,862.35c55.69,0,48.59-43.14,101.36-43.14H653.1c52.77,0,45.67,43.14,101.36,43.14h94v3.74H163.37v-.73Z"/><path class="cls-14" d="M618.44,862.35H1382.9c55.7,0,48.6-43.14,101.36-43.14h11.57c52.77,0,54.72,43.14,98.25,43.14l64.36,3.44v.3h-1040Z"/><path class="cls-1" d="M434,851q-2.5-2.31-2.5-7.32t2.56-7.29c1.71-1.62,4.17-2.42,7.39-2.42a18.21,18.21,0,0,1,4.2.48v2.83a16.56,16.56,0,0,0-3.95-.47,8.39,8.39,0,0,0-3.63.69,4.55,4.55,0,0,0-2.15,2.18,9.2,9.2,0,0,0-.72,4,9.43,9.43,0,0,0,.72,4,4.37,4.37,0,0,0,2.11,2.17,8.22,8.22,0,0,0,3.52.66,14.53,14.53,0,0,0,4.1-.62v2.83a14,14,0,0,1-2.11.47,15.73,15.73,0,0,1-2.29.16C438.1,853.31,435.69,852.54,434,851Z"/><path class="cls-1" d="M448.2,853.07V834.21h3.53v18.86Z"/><path class="cls-1" d="M467.29,853.07l-5.38-7.25h-.56c-.53,0-1.29,0-2.27-.07v7.31H455.6V834.59a28.46,28.46,0,0,1,5.79-.6q4.11,0,6.15,1.44a5.09,5.09,0,0,1,2,4.45,5.34,5.34,0,0,1-1.08,3.44,6.12,6.12,0,0,1-3.16,2l5.84,7.75Zm-8.21-9.91c.83.07,1.61.11,2.34.11a6.5,6.5,0,0,0,3.66-.81,2.9,2.9,0,0,0,1.17-2.57,3,3,0,0,0-1.1-2.56,5.86,5.86,0,0,0-3.43-.8,14.72,14.72,0,0,0-2.64.23Z"/><path class="cls-1" d="M474.65,851.4q-1.9-1.92-1.91-5.9V834.21h3.53v11.63a5,5,0,0,0,1.07,3.54,5.44,5.44,0,0,0,6.61,0,5,5,0,0,0,1.07-3.54V834.21h3.46V845.5q0,4-1.89,5.9c-1.26,1.28-3.24,1.91-5.94,1.91S475.93,852.67,474.65,851.4Z"/><path class="cls-1" d="M495.75,850.33h9.81v2.74H492.25V834.21h13.18V837h-9.68v5.1h8.36v2.74h-8.36Z"/><path class="cls-1" d="M508.42,853.07V834.21H512v16h9.24v2.84Z"/><path class="cls-1" d="M536.36,853.07l-1.84-5.43h-7.65L525,853.07h-3.46l6.59-18.86h5.1l6.59,18.86Zm-8.57-8.16h5.8l-2.91-8.56Z"/><path class="cls-1" d="M543.38,853.11a15.75,15.75,0,0,1-2.54-.59v-2.79a15.46,15.46,0,0,0,2.6.61,17.77,17.77,0,0,0,2.64.21,5.42,5.42,0,0,0,3-.68,2.26,2.26,0,0,0,1-2,2.31,2.31,0,0,0-.3-1.23,2.44,2.44,0,0,0-1-.84,8.77,8.77,0,0,0-1.92-.66l-1.32-.33a7.91,7.91,0,0,1-3.87-1.93,4.67,4.67,0,0,1-1.27-3.4,4.79,4.79,0,0,1,2-4.09,9.6,9.6,0,0,1,5.76-1.45,18.92,18.92,0,0,1,2.41.14,13.91,13.91,0,0,1,2.1.42v2.79a13.38,13.38,0,0,0-2.08-.43,15.52,15.52,0,0,0-2.26-.16,6.3,6.3,0,0,0-3.33.68,2.15,2.15,0,0,0-1,1.92,2.3,2.3,0,0,0,.27,1.17,2.2,2.2,0,0,0,.9.82,8.28,8.28,0,0,0,1.73.64l1.32.32a8.79,8.79,0,0,1,4.14,2,4.63,4.63,0,0,1,1.31,3.42,5.11,5.11,0,0,1-.89,3,5.47,5.47,0,0,1-2.59,1.94,11,11,0,0,1-4.06.67A17.53,17.53,0,0,1,543.38,853.11Z"/><path class="cls-15" d="M230.16,924.25c55.69,0,48.59-43.13,101.36-43.13H653.1c52.77,0,45.67,43.13,101.36,43.13h94V928H163.37v-.73Z"/><path class="cls-15" d="M618.44,924.25H1382.9c55.7,0,48.6-43.13,101.36-43.13h11.57c52.77,0,54.72,43.13,98.25,43.13l64.36,3.44v.3h-1040Z"/><path class="cls-1" d="M426.48,896.11h3.32V915h-3.57l-9.3-13.75V915h-3.34V896.11h3.58l9.31,13.77Z"/><path class="cls-1" d="M437.16,912.23H447V915H433.66V896.11h13.18v2.74h-9.68V904h8.36v2.74h-8.36Z"/><path class="cls-1" d="M451.26,912.9q-2.5-2.31-2.5-7.32c0-3.24.85-5.68,2.56-7.29s4.17-2.42,7.39-2.42a18.28,18.28,0,0,1,4.2.48v2.83a16.62,16.62,0,0,0-4-.47,8.33,8.33,0,0,0-3.63.69,4.53,4.53,0,0,0-2.15,2.19,9.12,9.12,0,0,0-.72,3.94,9.43,9.43,0,0,0,.72,4,4.29,4.29,0,0,0,2.11,2.17,8.22,8.22,0,0,0,3.52.66,14.23,14.23,0,0,0,4.1-.62v2.83a14,14,0,0,1-2.11.47,15.83,15.83,0,0,1-2.29.17C455.34,915.22,452.92,914.44,451.26,912.9Z"/><path class="cls-1" d="M470.16,915V899h-6.3v-2.84H480V899h-6.3v16Z"/><path class="cls-1" d="M493,915l-1.84-5.43h-7.65L481.68,915h-3.46l6.59-18.86h5.1L496.5,915Zm-8.57-8.15h5.8l-2.91-8.57Z"/><path class="cls-1" d="M510.38,915,505,907.72h-.55c-.53,0-1.29,0-2.28-.07V915h-3.48V896.49a28.56,28.56,0,0,1,5.8-.6q4.11,0,6.14,1.44a5.08,5.08,0,0,1,2,4.45,5.27,5.27,0,0,1-1.08,3.44,6,6,0,0,1-3.15,2l5.83,7.75Zm-8.22-9.91c.84.07,1.62.11,2.34.11a6.54,6.54,0,0,0,3.67-.81,2.91,2.91,0,0,0,1.16-2.56,3,3,0,0,0-1.09-2.57,5.88,5.88,0,0,0-3.43-.8,15.81,15.81,0,0,0-2.65.23Z"/><path class="cls-1" d="M516.57,915V896.11h3.53V915Z"/><path class="cls-1" d="M536.85,896.11h3.32V915H536.6l-9.3-13.75V915H524V896.11h3.58l9.31,13.77Z"/><path class="cls-1" d="M547.52,912.23h9.82V915H544V896.11h13.18v2.74h-9.69V904h8.37v2.74h-8.37Z"/><path class="cls-1" d="M562,915a15.64,15.64,0,0,1-2.53-.58v-2.79a16.25,16.25,0,0,0,2.6.6,17.77,17.77,0,0,0,2.64.21,5.4,5.4,0,0,0,3-.68,2.25,2.25,0,0,0,1-2,2.37,2.37,0,0,0-.29-1.22,2.42,2.42,0,0,0-1-.85,10,10,0,0,0-1.92-.66l-1.32-.33a7.9,7.9,0,0,1-3.86-1.92,4.67,4.67,0,0,1-1.27-3.41,4.79,4.79,0,0,1,2-4.09,9.6,9.6,0,0,1,5.76-1.45,21.13,21.13,0,0,1,2.42.14,13.52,13.52,0,0,1,2.09.42v2.79a13.25,13.25,0,0,0-2.07-.43,15.65,15.65,0,0,0-2.27-.16,6.33,6.33,0,0,0-3.33.68,2.14,2.14,0,0,0-1,1.92,2.37,2.37,0,0,0,.27,1.18,2.25,2.25,0,0,0,.9.81,8,8,0,0,0,1.72.64l1.32.32a8.79,8.79,0,0,1,4.14,2,4.6,4.6,0,0,1,1.32,3.42,5.12,5.12,0,0,1-.9,3,5.55,5.55,0,0,1-2.59,1.95,11.19,11.19,0,0,1-4,.67A17.67,17.67,0,0,1,562,915Z"/><path class="cls-16" d="M230.16,986.16c55.69,0,48.59-43.14,101.36-43.14H555c52.77,0,45.66,43.14,101.36,43.14h192.2v3.73H163.37v-.73Z"/><path class="cls-16" d="M618.44,986.16H1382.9c55.7,0,48.6-43.14,101.36-43.14h11.57c52.77,0,54.72,43.14,98.25,43.14l64.36,3.43v.3h-1040Z"/><path class="cls-1" d="M371.67,976.76V958.39c.88-.17,1.83-.32,2.86-.42a27.63,27.63,0,0,1,3-.16c3.46,0,6.07.79,7.81,2.37s2.61,4,2.61,7.26a10.85,10.85,0,0,1-1.23,5.48,7.33,7.33,0,0,1-3.69,3.13,16.66,16.66,0,0,1-6.23,1A43.8,43.8,0,0,1,371.67,976.76Zm9.7-3.19a4.51,4.51,0,0,0,2.19-2.2,10.94,10.94,0,0,0,0-7.86,4.59,4.59,0,0,0-2.18-2.21,8.24,8.24,0,0,0-3.68-.71,16.72,16.72,0,0,0-2.5.21v13.35a24,24,0,0,0,2.43.11A8.77,8.77,0,0,0,381.37,973.57Z"/><path class="cls-1" d="M392.87,975.2c-1.28-1.28-1.91-3.24-1.91-5.9V958h3.53v11.64a5,5,0,0,0,1.06,3.54,5.49,5.49,0,0,0,6.62,0,5,5,0,0,0,1.06-3.54V958h3.47V969.3c0,2.67-.63,4.63-1.89,5.91s-3.24,1.91-5.94,1.91S394.14,976.48,392.87,975.2Z"/><path class="cls-1" d="M422.16,976.88l-5.38-7.26-.56,0c-.53,0-1.29,0-2.27-.08v7.32h-3.48V958.39a29.17,29.17,0,0,1,5.79-.59c2.75,0,4.79.48,6.15,1.44a5.08,5.08,0,0,1,2,4.44,5.31,5.31,0,0,1-1.08,3.45,6.24,6.24,0,0,1-3.16,2l5.84,7.75ZM414,967c.83.08,1.62.11,2.34.11a6.57,6.57,0,0,0,3.66-.8,2.91,2.91,0,0,0,1.17-2.57,3,3,0,0,0-1.09-2.56,5.83,5.83,0,0,0-3.44-.81,15.69,15.69,0,0,0-2.64.23Z"/><path class="cls-1" d="M440.3,976.88l-1.84-5.43h-7.65L429,976.88h-3.47L432.1,958h5.1l6.59,18.87Zm-8.57-8.16h5.8l-2.91-8.57Z"/><path class="cls-1" d="M449.1,974.05h9.8v2.83H444.52V975l9.66-14.16h-9.51V958h14.08v1.88Z"/><path class="cls-1" d="M474.52,958h3.32v18.87h-3.57L465,963.12v13.76h-3.33V958h3.57l9.31,13.77Z"/><path class="cls-1" d="M485.11,976.07a7,7,0,0,1-3.05-3.21,14.12,14.12,0,0,1,0-10.83,7.11,7.11,0,0,1,3.06-3.21,11,11,0,0,1,9.4,0,7,7,0,0,1,3.05,3.21,14.09,14.09,0,0,1,0,10.82,7.24,7.24,0,0,1-3.06,3.22,11,11,0,0,1-9.4,0Zm8.57-3.35q1.35-1.63,1.35-5.2t-1.35-5.32a5.37,5.37,0,0,0-7.72,0c-.9,1.08-1.34,2.81-1.34,5.2s.44,4.23,1.33,5.33a5.4,5.4,0,0,0,7.73,0Z"/><path class="cls-1" d="M503.63,976.91a15.64,15.64,0,0,1-2.53-.58v-2.79a16.25,16.25,0,0,0,2.6.6,17.77,17.77,0,0,0,2.64.21,5.39,5.39,0,0,0,3-.67,2.55,2.55,0,0,0,.67-3.2,2.48,2.48,0,0,0-1-.84,9.15,9.15,0,0,0-1.91-.67l-1.33-.33a7.78,7.78,0,0,1-3.86-1.92,4.66,4.66,0,0,1-1.27-3.41,4.8,4.8,0,0,1,2-4.09,9.68,9.68,0,0,1,5.77-1.45,19,19,0,0,1,2.41.15,12.82,12.82,0,0,1,2.1.41v2.79a15,15,0,0,0-2.08-.43,17,17,0,0,0-2.26-.15,6.36,6.36,0,0,0-3.34.67,2.17,2.17,0,0,0-1,1.93,2.33,2.33,0,0,0,.27,1.17,2.27,2.27,0,0,0,.9.82,8.12,8.12,0,0,0,1.73.63l1.32.32a8.66,8.66,0,0,1,4.13,2,4.56,4.56,0,0,1,1.32,3.41,5.21,5.21,0,0,1-.89,3,5.56,5.56,0,0,1-2.6,1.94,10.94,10.94,0,0,1-4.05.67A17.77,17.77,0,0,1,503.63,976.91Z"/><path d="M40.83,832.91V860c.85-21.54,17.53-25.35,30.58-25.35v-1.72Z"/><rect class="cls-17" x="149.08" y="541.42" width="143" height="215.67" transform="translate(441.15 1298.5) rotate(180)"/><rect class="cls-18" x="1519.9" y="541.42" width="175.44" height="215.67"/><rect class="cls-19" x="1596.91" y="853.56" width="74.44" height="148.86"/><rect class="cls-20" x="146.44" y="853.56" width="74.44" height="148.86" transform="translate(367.31 1855.98) rotate(180)"/><rect class="cls-21" x="1569.16" y="111.44" width="102.19" height="365.85"/><rect class="cls-22" x="146.44" y="111.44" width="126.11" height="365.85" transform="translate(418.98 588.73) rotate(-180)"/></g></g></svg>