<?xml version="1.0" encoding="UTF-8"?><svg xmlns="http://www.w3.org/2000/svg" xmlns:xlink="http://www.w3.org/1999/xlink" viewBox="0 0 1737.69 1057.62"><defs><style>.j{fill:url(#e);}.k{fill:url(#d);}.l{fill:url(#g);}.m{fill:url(#f);}.n{fill:url(#i);}.o{fill:url(#h);}.p{fill:#f2f2f2;}.q{fill:#eac600;}.r{fill:#fff;}.s{fill:#ff6529;}.t{fill:#7f0051;}.u{fill:#009902;}.v{fill:#c00096;}.w{fill:#bf0000;}.x{fill:#c63200;}.y{fill:#d82200;}.a`{fill:#dc5f31;}.aa{fill:#e3786b;}.ab{fill:#dd8c00;}.ac{fill:#81c400;}.ad{fill:#520093;}.ae{fill:none;stroke:#6e6e6e;stroke-linecap:round;stroke-linejoin:round;stroke-width:1.28px;}</style><linearGradient id="d" x1="-6994.74" y1="-10242.76" x2="-6851.74" y2="-10242.76" gradientTransform="translate(7143.81 10892.01)" gradientUnits="userSpaceOnUse"><stop offset="0" stop-color="#fff" stop-opacity="0"/><stop offset=".05" stop-color="#fdfdfd" stop-opacity=".09"/><stop offset=".18" stop-color="#fafafa" stop-opacity=".33"/><stop offset=".31" stop-color="#f8f8f8" stop-opacity=".54"/><stop offset=".43" stop-color="#f5f5f5" stop-opacity=".7"/><stop offset=".55" stop-color="#f4f4f4" stop-opacity=".83"/><stop offset=".67" stop-color="#f2f2f2" stop-opacity=".93"/><stop offset=".78" stop-color="#f2f2f2" stop-opacity=".98"/><stop offset=".88" stop-color="#f2f2f2"/></linearGradient><linearGradient id="e" x1="250.05" y1="4635.66" x2="425.48" y2="4635.66" gradientTransform="translate(1269.85 -3986.41)" xlink:href="#d"/><linearGradient id="f" x1="327.06" y1="4914.39" x2="401.5" y2="4914.39" gradientTransform="translate(1269.85 -3986.41)" xlink:href="#d"/><linearGradient id="g" x1="-8426.34" y1="-10165.42" x2="-8351.9" y2="-10165.42" gradientTransform="translate(8572.77 11093.41)" xlink:href="#d"/><linearGradient id="h" x1="-13.29" y1="294.37" x2="72.71" y2="294.37" gradientTransform="translate(1591.33)" gradientUnits="userSpaceOnUse"><stop offset="0" stop-color="#fff" stop-opacity="0"/><stop offset=".45" stop-color="#fff" stop-opacity=".49"/><stop offset=".8" stop-color="#fff" stop-opacity=".86"/><stop offset=".96" stop-color="#fff"/></linearGradient><linearGradient id="i" x1="-8500.45" y1="294.37" x2="-8394.31" y2="294.37" gradientTransform="translate(8657.84 588.73) scale(1 -1)" gradientUnits="userSpaceOnUse"><stop offset="0" stop-color="#fff" stop-opacity="0"/><stop offset=".43" stop-color="#fff" stop-opacity=".49"/><stop offset=".76" stop-color="#fff" stop-opacity=".86"/><stop offset=".91" stop-color="#fff"/></linearGradient></defs><g id="a"/><g id="b"><g id="c"><g><g><rect class="r" x="0" width="1737.69" height="1057.62" rx="42.95" ry="42.95"/><g><g><path class="p" d="M40.83,992.03c0,11.09,10.85,20.09,24.23,20.09H1672.63c13.38,0,24.23-8.99,24.23-20.09v-137.32c0-11.09-10.85-20.09-24.23-20.09H246.96c-44.23,0-44.65-40.32-88.99-40.32-41.18,0-31.66,0-31.66,0H58.99c-10.03,0-18.16,6.74-18.16,15.05v182.67Z"/><g><path d="M168.33,794.31H58.99c-10.03,0-18.16,6.74-18.16,15.05v25.27h216.5c-44.23,0-44.65-40.32-88.99-40.32Z"/><g><path class="r" d="M87.76,826.31c-1.05-.16-2.04-.39-2.97-.7v-2.75c.98,.32,2,.56,3.06,.73,1.06,.16,2.07,.25,3.03,.25,3.58,0,5.37-1.24,5.37-3.72,0-.69-.14-1.26-.42-1.72-.28-.46-.73-.85-1.35-1.17-.62-.32-1.48-.62-2.57-.9l-1.44-.36c-2.05-.5-3.58-1.27-4.59-2.29-1.01-1.02-1.51-2.37-1.51-4.04,0-1.37,.33-2.54,.99-3.51,.66-.97,1.66-1.72,2.98-2.24,1.33-.52,2.96-.78,4.91-.78,.96,0,1.9,.06,2.82,.18,.92,.12,1.75,.29,2.5,.52v2.73c-1.62-.47-3.35-.71-5.18-.71-3.75,0-5.63,1.21-5.63,3.63,0,.67,.13,1.23,.38,1.68,.25,.45,.67,.83,1.24,1.14s1.37,.6,2.37,.86l1.43,.36c2.23,.55,3.87,1.33,4.91,2.36,1.04,1.02,1.56,2.38,1.56,4.05,0,1.39-.34,2.58-1.03,3.58s-1.69,1.76-3.01,2.29-2.9,.79-4.75,.79c-1.02,0-2.05-.08-3.1-.24Z"/><path class="r" d="M112.67,823.58v2.66c-.99,.21-1.95,.31-2.85,.31-3.95,0-5.93-1.94-5.93-5.81v-8.7h-3.14v-2.6h3.14l.58-6.05h2.76v6.05h5.23v2.6h-5.23v8.19c0,1.31,.27,2.24,.82,2.78,.55,.55,1.41,.82,2.58,.82,.58,0,1.26-.08,2.05-.25Z"/><path class="r" d="M116.23,824.41c-1.36-1.44-2.04-3.61-2.04-6.53s.68-5.1,2.03-6.54,3.26-2.16,5.72-2.16,4.36,.72,5.72,2.15c1.35,1.43,2.03,3.61,2.03,6.53s-.68,5.08-2.04,6.53c-1.36,1.45-3.26,2.17-5.7,2.17s-4.34-.72-5.7-2.15Zm8.95-1.78c.74-.94,1.11-2.51,1.11-4.71s-.37-3.84-1.11-4.78c-.74-.94-1.82-1.41-3.25-1.41s-2.5,.47-3.24,1.4-1.11,2.5-1.11,4.72,.37,3.84,1.1,4.78c.73,.94,1.81,1.41,3.25,1.41s2.52-.47,3.25-1.41Z"/><path class="r" d="M133.32,809.45h2.79l.24,1.85h.18c.69-.68,1.5-1.2,2.43-1.57,.92-.37,1.9-.55,2.94-.55,1.77,0,3.17,.49,4.18,1.48s1.52,2.54,1.52,4.67v10.92h-3.33v-10.75c0-1.25-.28-2.14-.84-2.68-.56-.54-1.38-.81-2.44-.81-.78,0-1.56,.16-2.35,.49s-1.45,.82-1.98,1.48v12.28h-3.33v-16.81Z"/><path class="r" d="M165.43,818.85h-10.97c.04,1.26,.27,2.26,.68,3.01,.41,.75,1.02,1.3,1.84,1.64,.81,.34,1.88,.51,3.19,.51s2.71-.21,4.38-.63v2.53c-1.69,.43-3.29,.65-4.79,.65-2.94,0-5.12-.69-6.54-2.08-1.42-1.39-2.13-3.6-2.13-6.64,0-2.84,.64-4.99,1.93-6.46,1.29-1.46,3.1-2.19,5.44-2.19s3.99,.73,5.19,2.19c1.19,1.46,1.79,3.64,1.79,6.56v.93Zm-9.92-6.2c-.67,.84-1.02,2.23-1.07,4.16h7.84c-.04-1.94-.38-3.32-1.02-4.16-.64-.84-1.58-1.26-2.85-1.26s-2.24,.42-2.91,1.26Z"/></g></g></g><g><g><path class="p" d="M40.83,742.93c0,11.09,10.85,20.09,24.23,20.09H1672.63c13.38,0,24.23-8.99,24.23-20.09v-199c0-11.09-10.85-20.09-24.23-20.09H252.15c-44.23,0-44.65-40.32-88.99-40.32-41.18,0-36.85,0-36.85,0H58.99c-10.03,0-18.16,6.74-18.16,15.05v244.35Z"/><g><path d="M168.33,483.53H58.99c-10.03,0-18.16,6.74-18.16,15.05v25.27h216.5c-44.23,0-44.65-40.32-88.99-40.32Z"/><g><path class="r" d="M84.34,512.98c-1.93-1.85-2.89-4.82-2.89-8.9s.99-6.94,2.96-8.87c1.97-1.93,4.81-2.9,8.52-2.9,1.75,0,3.46,.21,5.11,.63v2.78c-1.56-.42-3.2-.63-4.92-.63-1.81,0-3.31,.3-4.51,.89-1.2,.59-2.1,1.54-2.71,2.86-.61,1.31-.91,3.04-.91,5.18s.31,3.96,.92,5.27c.61,1.31,1.5,2.25,2.67,2.83,1.16,.57,2.62,.86,4.38,.86,.85,0,1.69-.06,2.51-.19,.82-.13,1.68-.34,2.57-.63v2.78c-1.67,.55-3.46,.82-5.37,.82-3.62,0-6.4-.93-8.33-2.78Z"/><path class="r" d="M101.28,494.91c-.37-.32-.56-.78-.56-1.38s.19-1.06,.56-1.39c.37-.33,.92-.49,1.64-.49s1.26,.16,1.64,.49c.37,.33,.56,.79,.56,1.39s-.19,1.06-.56,1.38-.92,.48-1.64,.48-1.26-.16-1.64-.48Zm-.05,20.56v-16.81h3.35v16.81h-3.35Z"/><path class="r" d="M118.96,512.8v2.66c-.99,.21-1.95,.31-2.85,.31-3.95,0-5.93-1.94-5.93-5.81v-8.7h-3.14v-2.6h3.14l.58-6.05h2.76v6.05h5.23v2.6h-5.23v8.19c0,1.31,.27,2.24,.82,2.78,.55,.55,1.41,.82,2.58,.82,.58,0,1.26-.08,2.05-.25Z"/><path class="r" d="M121.56,498.67h2.77l.26,2.24h.19c.54-.79,1.26-1.4,2.13-1.81,.88-.41,1.82-.62,2.82-.62,.48,0,.95,.04,1.41,.12v2.95c-.48-.07-1.01-.11-1.59-.11-.88,0-1.75,.19-2.61,.56-.86,.37-1.55,.9-2.06,1.58v11.89h-3.33v-16.81Z"/><path class="r" d="M134.95,514.29c-1.02-.97-1.52-2.53-1.52-4.66v-10.97h3.33v10.78c0,1.24,.28,2.12,.84,2.67,.56,.54,1.35,.81,2.38,.81,.77,0,1.54-.16,2.31-.49s1.42-.81,1.94-1.46v-12.31h3.33v16.81h-2.79l-.24-1.81h-.18c-.69,.69-1.49,1.21-2.39,1.56-.9,.35-1.85,.53-2.85,.53-1.76,0-3.15-.49-4.17-1.46Z"/><path class="r" d="M151.49,515.08v-2.5c1.67,.48,3.34,.73,5.02,.73,1.37,0,2.37-.21,3.01-.63,.64-.42,.95-1.04,.95-1.84,0-.66-.18-1.16-.54-1.51-.36-.34-.96-.6-1.82-.78l-2.5-.48c-1.57-.3-2.71-.83-3.42-1.59-.71-.76-1.07-1.78-1.07-3.06,0-1,.27-1.88,.8-2.63s1.35-1.34,2.44-1.76,2.44-.63,4.06-.63c1.52,0,2.94,.17,4.26,.51v2.5c-1.36-.36-2.75-.54-4.18-.54s-2.58,.22-3.24,.67c-.66,.45-.99,1.05-.99,1.8,0,.6,.17,1.08,.52,1.44,.35,.36,.94,.63,1.77,.8l2.5,.46c1.59,.32,2.75,.85,3.48,1.58,.73,.74,1.09,1.76,1.09,3.07,0,1.05-.27,1.96-.82,2.72-.54,.76-1.35,1.35-2.41,1.75-1.06,.41-2.35,.61-3.86,.61-1.83,0-3.51-.23-5.05-.69Z"/></g></g></g><path d="M40.83,522.1v27.07c.85-21.54,17.53-25.35,30.58-25.35v-1.72h-30.58Z"/></g><g><g><path d="M433.24,23.64h-11.35v7.68h9.86v2.05h-9.86v9.92h-2.46V21.6h13.81v2.04Z"/><path d="M438.99,41.27h11.62v2.02h-14.07V21.6h13.92v2.02h-11.47v7.53h9.99v2.01h-9.99v8.1Z"/><path d="M468.6,33.87c.78,.92,1.16,2.09,1.16,3.52s-.33,2.48-1,3.38c-.67,.89-1.73,1.57-3.19,2.03s-3.37,.69-5.72,.69c-1.8,0-3.65-.12-5.57-.35V21.97c2.03-.4,4.09-.6,6.19-.6,3,0,5.19,.47,6.57,1.41,1.38,.94,2.07,2.4,2.07,4.38,0,1.23-.33,2.28-.98,3.16-.65,.88-1.65,1.47-2.99,1.78,1.53,.26,2.68,.86,3.46,1.77Zm-11.9-10.29v7.62h4.43c1.99,0,3.42-.32,4.3-.97,.88-.64,1.32-1.64,1.32-2.99,0-.96-.2-1.72-.61-2.3-.41-.58-1.05-1-1.93-1.27s-2.05-.4-3.51-.4-2.85,.1-4,.31Zm7.83,17.54c1.03-.31,1.77-.77,2.21-1.39,.45-.62,.67-1.42,.67-2.41,0-1.44-.47-2.49-1.42-3.17-.94-.67-2.42-1.01-4.44-1.01h-4.85v8.25c1.04,.13,2.26,.19,3.65,.19,1.75,0,3.15-.15,4.18-.46Z"/></g><g><path d="M314.1,47.27c.97-1.27,1.67-2.54,2.08-3.8,.42-1.27,.62-2.74,.62-4.43V21.6h2.46v17.73c-.06,1.76-.36,3.33-.9,4.72-.54,1.39-1.42,2.81-2.65,4.28l-1.63-1.07Z"/><path d="M339.4,43.29l-2.57-7.02h-9.51l-2.57,7.02h-2.48l8.08-21.69h3.48l8.08,21.69h-2.51Zm-11.35-9.03h8.03l-4.02-10.93-4.02,10.93Z"/><path d="M359.78,21.6h2.34v21.69h-2.54l-12.32-18.06v18.06h-2.34V21.6h2.54l12.32,18.06V21.6Z"/></g><g><path d="M535.87,21.6h2.94v21.69h-2.33V25.13l-7.32,15.15h-2.22l-7.32-14.98v17.98h-2.33V21.6h2.94l7.86,16.28,7.77-16.28Z"/><path d="M558.99,43.29l-2.57-7.02h-9.51l-2.57,7.02h-2.48l8.08-21.69h3.48l8.08,21.69h-2.51Zm-11.35-9.03h8.03l-4.02-10.93-4.02,10.93Z"/><path d="M578.28,43.29l-7-8.98c-.51,.02-.91,.03-1.2,.03-1.01,0-2.06-.04-3.13-.12v9.07h-2.43V21.95c2.08-.39,4.08-.59,6.01-.59,2.98,0,5.19,.52,6.63,1.57,1.44,1.05,2.16,2.67,2.16,4.87,0,1.67-.45,3.02-1.39,4.06-.94,1.04-2.33,1.75-4.16,2.14l7.29,9.29h-2.77Zm-9.74-10.89c.44,.02,.96,.03,1.56,.03,2.39,0,4.14-.37,5.23-1.11,1.1-.74,1.64-1.91,1.64-3.49,0-1.08-.22-1.96-.65-2.62-.44-.66-1.12-1.15-2.04-1.46s-2.12-.46-3.6-.46c-.73,0-1.38,.02-1.94,.07-.56,.05-1.16,.13-1.79,.23v8.69c.62,.06,1.15,.1,1.59,.12Z"/></g><g><path d="M640.61,43.29l-2.57-7.02h-9.51l-2.57,7.02h-2.48l8.08-21.69h3.48l8.08,21.69h-2.51Zm-11.35-9.03h8.03l-4.02-10.93-4.02,10.93Z"/><path d="M646.14,21.92c2.06-.37,3.99-.56,5.78-.56,3,0,5.26,.6,6.77,1.8,1.51,1.2,2.27,3.07,2.27,5.6s-.77,4.29-2.31,5.54c-1.54,1.25-3.9,1.88-7.07,1.88-.93,0-1.92-.04-2.97-.13v7.24h-2.46V21.92Zm10.72,11.01c1.1-.88,1.64-2.25,1.64-4.12s-.52-3.3-1.57-4.18c-1.05-.88-2.66-1.32-4.84-1.32-1.26,0-2.42,.09-3.48,.26v10.49c.97,.12,1.98,.18,3.01,.18,2.4,0,4.15-.44,5.25-1.32Z"/><path d="M678.66,43.29l-7-8.98c-.51,.02-.91,.03-1.2,.03-1.01,0-2.06-.04-3.13-.12v9.07h-2.43V21.95c2.08-.39,4.08-.59,6.01-.59,2.98,0,5.19,.52,6.63,1.57,1.44,1.05,2.16,2.67,2.16,4.87,0,1.67-.45,3.02-1.39,4.06-.94,1.04-2.33,1.75-4.16,2.14l7.29,9.29h-2.77Zm-9.74-10.89c.44,.02,.96,.03,1.56,.03,2.39,0,4.14-.37,5.23-1.11,1.1-.74,1.64-1.91,1.64-3.49,0-1.08-.22-1.96-.65-2.62-.44-.66-1.12-1.15-2.04-1.46s-2.12-.46-3.6-.46c-.73,0-1.38,.02-1.94,.07-.56,.05-1.16,.13-1.79,.23v8.69c.62,.06,1.15,.1,1.59,.12Z"/></g><g><path d="M835.66,47.27c.97-1.27,1.67-2.54,2.08-3.8,.42-1.27,.62-2.74,.62-4.43V21.6h2.46v17.73c-.06,1.76-.36,3.33-.9,4.72-.54,1.39-1.42,2.81-2.65,4.28l-1.63-1.07Z"/><path d="M849.49,42.66c-1.23-.61-2.14-1.53-2.73-2.78-.59-1.25-.89-2.85-.89-4.8v-13.48h2.46v13.75c0,2.14,.47,3.7,1.41,4.69,.94,.99,2.43,1.48,4.46,1.48s3.51-.49,4.46-1.48c.94-.99,1.41-2.55,1.41-4.69v-13.75h2.42v13.48c0,1.95-.29,3.55-.88,4.8-.59,1.25-1.49,2.17-2.71,2.78-1.22,.61-2.78,.91-4.7,.91s-3.49-.3-4.72-.91Z"/><path d="M882.39,21.6h2.34v21.69h-2.54l-12.32-18.06v18.06h-2.34V21.6h2.54l12.32,18.06V21.6Z"/></g><g><path d="M746.38,21.6h2.94v21.69h-2.33V25.13l-7.32,15.15h-2.22l-7.32-14.98v17.98h-2.33V21.6h2.94l7.86,16.28,7.77-16.28Z"/><path d="M769.5,43.29l-2.57-7.02h-9.51l-2.57,7.02h-2.48l8.08-21.69h3.48l8.08,21.69h-2.51Zm-11.35-9.03h8.03l-4.02-10.93-4.02,10.93Z"/><path d="M788.61,21.6l-8.03,12.05v9.64h-2.46v-9.64l-8.18-12.05h2.72l6.74,9.95,6.66-9.95h2.56Z"/></g><g><path d="M943.08,47.27c.97-1.27,1.67-2.54,2.08-3.8,.42-1.27,.62-2.74,.62-4.43V21.6h2.46v17.73c-.06,1.76-.36,3.33-.9,4.72-.54,1.39-1.42,2.81-2.65,4.28l-1.63-1.07Z"/><path d="M956.91,42.66c-1.23-.61-2.14-1.53-2.73-2.78-.59-1.25-.89-2.85-.89-4.8v-13.48h2.46v13.75c0,2.14,.47,3.7,1.42,4.69,.94,.99,2.43,1.48,4.46,1.48s3.51-.49,4.46-1.48c.94-.99,1.42-2.55,1.42-4.69v-13.75h2.42v13.48c0,1.95-.29,3.55-.88,4.8-.59,1.25-1.49,2.17-2.71,2.78-1.22,.61-2.78,.91-4.7,.91s-3.49-.3-4.72-.91Z"/><path d="M974.95,43.29V21.6h2.46v19.61h11.07v2.08h-13.54Z"/></g><g><path d="M1056.57,43.29l-2.57-7.02h-9.51l-2.57,7.02h-2.48l8.08-21.69h3.48l8.08,21.69h-2.51Zm-11.35-9.03h8.03l-4.02-10.93-4.02,10.93Z"/><path d="M1065.38,42.66c-1.23-.61-2.14-1.53-2.73-2.78-.59-1.25-.89-2.85-.89-4.8v-13.48h2.46v13.75c0,2.14,.47,3.7,1.42,4.69,.94,.99,2.43,1.48,4.46,1.48s3.51-.49,4.46-1.48c.94-.99,1.42-2.55,1.42-4.69v-13.75h2.42v13.48c0,1.95-.29,3.55-.88,4.8-.59,1.25-1.49,2.17-2.71,2.78-1.22,.61-2.78,.91-4.7,.91s-3.49-.3-4.72-.91Z"/><path d="M1099.05,32.74v10.32c-.94,.16-1.81,.27-2.6,.33-.79,.06-1.61,.09-2.45,.09-3.85,0-6.74-.89-8.66-2.67-1.92-1.78-2.88-4.56-2.89-8.34,0-3.81,.96-6.62,2.89-8.43s4.64-2.72,8.14-2.72c1.67,0,3.36,.21,5.05,.64v2.08c-.87-.24-1.7-.4-2.5-.51s-1.59-.15-2.4-.15c-2.81,0-4.94,.71-6.4,2.12-1.46,1.42-2.19,3.74-2.19,6.98,0,2.1,.33,3.81,.98,5.13,.65,1.32,1.63,2.28,2.93,2.89s2.94,.92,4.91,.92c1.02,0,1.97-.06,2.84-.18v-8.52h2.34Z"/></g><g><path d="M1152.45,43.35c-.96-.15-1.88-.37-2.74-.65v-2.05c.91,.3,1.85,.53,2.81,.67s1.88,.22,2.78,.22c3.66,0,5.49-1.32,5.49-3.97,0-.73-.15-1.35-.45-1.84-.3-.49-.77-.91-1.42-1.25-.64-.34-1.52-.64-2.62-.92l-1.22-.31c-1.93-.48-3.36-1.2-4.31-2.15-.94-.95-1.41-2.21-1.41-3.76,0-1.25,.3-2.33,.91-3.23,.6-.9,1.5-1.59,2.69-2.07,1.19-.48,2.66-.72,4.42-.72,.87,0,1.73,.06,2.59,.17s1.63,.28,2.33,.49v2.05c-1.52-.45-3.13-.67-4.84-.67-1.9,0-3.3,.33-4.22,.99-.92,.66-1.38,1.61-1.38,2.85,0,.71,.13,1.31,.4,1.8,.27,.49,.7,.9,1.3,1.24,.6,.34,1.42,.64,2.45,.9l1.22,.29c2.09,.51,3.62,1.24,4.59,2.2,.97,.96,1.46,2.22,1.46,3.78,0,1.3-.31,2.41-.94,3.33-.63,.92-1.54,1.62-2.74,2.1-1.2,.48-2.64,.73-4.33,.73-.91,0-1.85-.08-2.81-.23Z"/><path d="M1169.43,41.27h11.62v2.02h-14.07V21.6h13.92v2.02h-11.47v7.53h9.99v2.01h-9.99v8.1Z"/><path d="M1184.71,21.92c2.06-.37,3.99-.56,5.78-.56,3,0,5.26,.6,6.77,1.8,1.51,1.2,2.27,3.07,2.27,5.6s-.77,4.29-2.31,5.54c-1.54,1.25-3.9,1.88-7.07,1.88-.93,0-1.92-.04-2.97-.13v7.24h-2.46V21.92Zm10.72,11.01c1.09-.88,1.64-2.25,1.64-4.12s-.52-3.3-1.57-4.18c-1.05-.88-2.67-1.32-4.85-1.32-1.26,0-2.42,.09-3.48,.26v10.49c.97,.12,1.98,.18,3.01,.18,2.4,0,4.15-.44,5.25-1.32Z"/></g><g><path d="M1254.34,40.85c-1.65-1.82-2.47-4.62-2.47-8.4,0-2.55,.38-4.65,1.15-6.3,.77-1.65,1.85-2.87,3.24-3.65,1.39-.78,3.04-1.17,4.95-1.17,2.93,0,5.22,.91,6.87,2.73,1.65,1.82,2.47,4.62,2.47,8.4,0,2.54-.38,4.64-1.15,6.29s-1.84,2.88-3.23,3.66c-1.39,.78-3.04,1.17-4.96,1.17-2.93,0-5.22-.91-6.87-2.73Zm11.89-1.44c1.18-1.41,1.76-3.71,1.76-6.88s-.59-5.58-1.76-7.01c-1.18-1.43-2.85-2.14-5.02-2.14s-3.83,.71-5.01,2.12-1.77,3.71-1.77,6.88,.59,5.58,1.76,7.01c1.18,1.43,2.85,2.14,5.02,2.14s3.84-.71,5.02-2.12Z"/><path d="M1276.41,40.96c-1.76-1.74-2.65-4.57-2.65-8.46s.9-6.64,2.69-8.45,4.38-2.72,7.74-2.72c1.64,0,3.26,.21,4.87,.63v2.08c-1.55-.43-3.14-.65-4.78-.65-1.75,0-3.21,.3-4.37,.89-1.16,.6-2.04,1.56-2.65,2.89-.6,1.33-.91,3.08-.91,5.26s.3,4.02,.91,5.36c.61,1.33,1.48,2.29,2.62,2.86s2.55,.86,4.24,.86c.83,0,1.64-.06,2.43-.19s1.62-.34,2.5-.63v2.08c-1.58,.54-3.29,.81-5.11,.81-3.27,0-5.78-.87-7.54-2.62Z"/><path d="M1297.46,43.29V23.68h-7.48v-2.08h17.46v2.08h-7.5v19.61h-2.48Z"/></g><g><path d="M1368.91,21.6h2.34v21.69h-2.54l-12.32-18.06v18.06h-2.34V21.6h2.54l12.32,18.06V21.6Z"/><path d="M1377.89,40.85c-1.65-1.82-2.47-4.62-2.47-8.4,0-2.55,.38-4.65,1.15-6.3,.77-1.65,1.85-2.87,3.24-3.65,1.39-.78,3.04-1.17,4.95-1.17,2.93,0,5.22,.91,6.87,2.73,1.65,1.82,2.47,4.62,2.47,8.4,0,2.54-.38,4.64-1.15,6.29s-1.84,2.88-3.23,3.66c-1.39,.78-3.04,1.17-4.96,1.17-2.93,0-5.22-.91-6.87-2.73Zm11.89-1.44c1.18-1.41,1.76-3.71,1.76-6.88s-.59-5.58-1.76-7.01c-1.18-1.43-2.85-2.14-5.02-2.14s-3.83,.71-5.01,2.12-1.77,3.71-1.77,6.88,.59,5.58,1.76,7.01c1.18,1.43,2.85,2.14,5.02,2.14s3.84-.71,5.02-2.12Z"/><path d="M1412.6,21.6h2.45l-8.03,21.69h-3.59l-8.02-21.69h2.62l7.27,19.86,7.3-19.86Z"/></g><g><path d="M1462.18,43.16V21.95c.93-.18,1.91-.31,2.94-.42s2.01-.15,2.95-.15c3.73,0,6.54,.91,8.41,2.73s2.81,4.6,2.81,8.33-.98,6.56-2.93,8.35-4.9,2.67-8.85,2.67c-1.68,0-3.46-.1-5.34-.31Zm10.71-2.65c1.29-.62,2.25-1.58,2.9-2.91,.64-1.32,.97-3.04,.97-5.15,0-3.13-.71-5.41-2.12-6.86-1.41-1.45-3.57-2.17-6.5-2.17-1.07,0-2.23,.09-3.5,.28v17.54c1.01,.13,2.13,.19,3.36,.19,1.97,0,3.59-.31,4.88-.92Z"/><path d="M1485.92,41.27h11.62v2.02h-14.07V21.6h13.92v2.02h-11.47v7.53h9.99v2.01h-9.99v8.1Z"/><path d="M1502.59,40.96c-1.76-1.74-2.65-4.57-2.65-8.46s.9-6.64,2.69-8.45,4.38-2.72,7.74-2.72c1.64,0,3.26,.21,4.87,.63v2.08c-1.55-.43-3.14-.65-4.78-.65-1.75,0-3.21,.3-4.37,.89-1.16,.6-2.04,1.56-2.65,2.89-.6,1.33-.91,3.08-.91,5.26s.3,4.02,.91,5.36c.61,1.33,1.48,2.29,2.62,2.86s2.55,.86,4.24,.86c.83,0,1.64-.06,2.43-.19s1.62-.34,2.5-.63v2.08c-1.58,.54-3.29,.81-5.11,.81-3.27,0-5.78-.87-7.54-2.62Z"/></g><g><line class="ae" x1="339.47" y1="63.66" x2="339.47" y2="989.38"/><line class="ae" x1="308.65" y1="63.01" x2="371.7" y2="63.01"/></g><g><line class="ae" x1="443.86" y1="63.66" x2="443.86" y2="989.38"/><line class="ae" x1="416.3" y1="63.01" x2="474.55" y2="63.01"/></g><g><line class="ae" x1="548.31" y1="63.66" x2="548.31" y2="989.38"/><line class="ae" x1="511.63" y1="63.01" x2="584.99" y2="63.01"/></g><g><line class="ae" x1="652.63" y1="63.66" x2="652.63" y2="989.38"/><line class="ae" x1="617.55" y1="63.01" x2="687.02" y2="63.01"/></g><g><line class="ae" x1="757.02" y1="63.66" x2="757.02" y2="989.38"/><line class="ae" x1="722.8" y1="63.01" x2="792.27" y2="63.01"/></g><g><line class="ae" x1="861.41" y1="63.66" x2="861.41" y2="989.38"/><line class="ae" x1="833.47" y1="63.01" x2="888.15" y2="63.01"/></g><g><line class="ae" x1="965.79" y1="63.66" x2="965.79" y2="989.38"/><line class="ae" x1="937.94" y1="62.94" x2="991.85" y2="62.94"/></g><g><line class="ae" x1="1070.18" y1="63.66" x2="1070.18" y2="989.38"/><line class="ae" x1="1035.38" y1="62.94" x2="1103.15" y2="62.94"/></g><g><line class="ae" x1="1174.84" y1="63.66" x2="1174.84" y2="989.38"/><line class="ae" x1="1145.63" y1="62.94" x2="1204.05" y2="62.94"/></g><g><line class="ae" x1="1279.53" y1="63.66" x2="1279.53" y2="989.38"/><line class="ae" x1="1246.47" y1="62.94" x2="1312.59" y2="62.94"/></g><g><line class="ae" x1="1383.81" y1="63.66" x2="1383.81" y2="989.38"/><line class="ae" x1="1349.31" y1="62.94" x2="1418.31" y2="62.94"/></g><g><line class="ae" x1="1488.44" y1="63.66" x2="1488.44" y2="989.38"/><line class="ae" x1="1458.04" y1="62.94" x2="1519.56" y2="62.94"/></g></g><g><path class="v" d="M1145.59,261.35h-64.73c-55.69,0-48.59-43.14-101.36-43.14h6.76c-52.77,0-57.83,43.14-101.36,43.14h-206.63v3.74h467.32v-3.74Z"/><g><path class="v" d="M1658.59,264.35l-799.61-3.01c-55.69,0-48.59-43.14-101.36-43.14H342.39c-52.77,0-57.83,43.14-101.36,43.14l-79.58,3.01v.73H1658.59v-.73Z"/><g><path class="r" d="M516.2,243.55v8.97c-1.65,.26-3.21,.4-4.7,.4-3.62,0-6.32-.78-8.1-2.34-1.79-1.56-2.68-3.97-2.69-7.25,0-3.26,.91-5.7,2.72-7.3,1.81-1.61,4.43-2.41,7.86-2.41,1.52,0,2.98,.17,4.38,.51v2.83c-1.34-.33-2.71-.5-4.1-.5-1.62,0-2.96,.23-4.01,.69-1.05,.46-1.84,1.2-2.37,2.21-.53,1.01-.79,2.35-.79,4.01,0,2.35,.56,4.05,1.68,5.12s2.84,1.61,5.17,1.61c.5,0,1.05-.02,1.64-.06v-6.49h3.31Z"/><path class="r" d="M531.62,252.73l-5.38-7.25c-.12,0-.31,.01-.56,.01-.53,0-1.29-.03-2.28-.08v7.32h-3.48v-18.48c1.93-.4,3.86-.6,5.79-.6,2.74,0,4.79,.48,6.15,1.44s2.03,2.44,2.03,4.45c0,1.38-.35,2.52-1.08,3.44-.73,.92-1.78,1.58-3.16,2l5.83,7.75h-3.88Zm-8.22-9.92c.84,.08,1.62,.11,2.34,.11,1.67,0,2.89-.27,3.66-.81,.78-.54,1.16-1.4,1.16-2.57s-.36-2.03-1.09-2.56c-.73-.54-1.87-.8-3.43-.8-.88,0-1.76,.08-2.65,.23v6.4Z"/><path class="r" d="M549.75,252.73l-1.84-5.43h-7.65l-1.84,5.43h-3.47l6.59-18.86h5.11l6.59,18.86h-3.49Zm-8.57-8.16h5.81l-2.91-8.56-2.9,8.56Z"/><path class="r" d="M555.43,234.18c1.9-.36,3.76-.54,5.6-.54,2.83,0,4.95,.54,6.34,1.62s2.1,2.77,2.1,5.05-.7,3.86-2.09,4.99c-1.39,1.13-3.49,1.69-6.28,1.69-.45,0-1.16-.03-2.13-.08v5.8h-3.53v-18.54Zm9.43,9.25c.78-.65,1.17-1.67,1.17-3.08s-.38-2.47-1.14-3.13c-.76-.66-1.95-.99-3.55-.99-.82,0-1.61,.06-2.37,.18v7.86c.6,.08,1.32,.13,2.17,.13,1.7,0,2.94-.32,3.72-.97Z"/><path class="r" d="M575.95,249.99h9.82v2.74h-13.31v-18.86h13.18v2.74h-9.68v5.1h8.36v2.74h-8.36v5.54Z"/><path class="r" d="M590.45,252.77c-.9-.14-1.75-.33-2.53-.59v-2.79c.8,.26,1.67,.46,2.6,.6,.93,.14,1.81,.21,2.64,.21,1.38,0,2.4-.23,3.04-.68,.64-.45,.97-1.11,.97-1.98,0-.49-.1-.9-.3-1.22-.2-.32-.53-.6-.99-.84-.46-.24-1.1-.46-1.92-.66l-1.32-.33c-1.73-.42-3.02-1.06-3.86-1.92-.85-.87-1.27-2-1.27-3.4,0-1.76,.65-3.12,1.96-4.09s3.23-1.45,5.76-1.45c.83,0,1.63,.05,2.41,.15,.78,.1,1.48,.24,2.1,.41v2.79c-.64-.19-1.33-.33-2.08-.43-.75-.1-1.5-.15-2.26-.15-1.53,0-2.64,.23-3.33,.68s-1.04,1.09-1.04,1.92c0,.47,.09,.86,.27,1.17,.18,.31,.48,.59,.9,.82s.99,.44,1.73,.64l1.32,.32c1.88,.45,3.26,1.11,4.13,1.98,.88,.87,1.32,2.01,1.32,3.42,0,1.17-.3,2.18-.89,3.03-.6,.85-1.46,1.5-2.59,1.94-1.13,.45-2.49,.67-4.05,.67-.9,0-1.8-.07-2.71-.2Z"/></g></g></g><g><path class="y" d="M1658.59,140.55l-168.07-3.01c-55.69,0-48.59-43.14-101.36-43.14H547.68c-52.77,0-57.83,43.14-101.36,43.14l-281.05,3.01v.73H1658.59v-.73Z"/><g><path class="r" d="M933.91,128.45l-1.84-5.43h-7.65l-1.84,5.43h-3.47l6.59-18.86h5.11l6.59,18.86h-3.49Zm-8.57-8.16h5.81l-2.91-8.56-2.9,8.56Z"/><path class="r" d="M939.59,109.91c1.9-.36,3.76-.54,5.6-.54,2.83,0,4.95,.54,6.34,1.62,1.4,1.08,2.1,2.77,2.1,5.05s-.7,3.86-2.09,4.99-3.49,1.69-6.28,1.69c-.45,0-1.16-.03-2.13-.08v5.8h-3.53v-18.54Zm9.43,9.25c.78-.65,1.17-1.67,1.17-3.08s-.38-2.47-1.14-3.13-1.95-.99-3.55-.99c-.82,0-1.61,.06-2.37,.18v7.86c.6,.08,1.32,.13,2.17,.13,1.7,0,2.94-.32,3.72-.97Z"/><path class="r" d="M956.61,109.91c1.9-.36,3.76-.54,5.6-.54,2.83,0,4.95,.54,6.34,1.62,1.4,1.08,2.1,2.77,2.1,5.05s-.7,3.86-2.09,4.99-3.49,1.69-6.28,1.69c-.45,0-1.16-.03-2.13-.08v5.8h-3.53v-18.54Zm9.43,9.25c.78-.65,1.17-1.67,1.17-3.08s-.38-2.47-1.14-3.13-1.95-.99-3.55-.99c-.82,0-1.61,.06-2.37,.18v7.86c.6,.08,1.32,.13,2.17,.13,1.7,0,2.94-.32,3.72-.97Z"/><path class="r" d="M973.64,128.45v-18.86h3.53v16.02h9.23v2.84h-12.77Z"/><path class="r" d="M991.96,125.71h9.82v2.74h-13.31v-18.86h13.18v2.74h-9.68v5.1h8.36v2.74h-8.36v5.54Z"/><path class="r" d="M1006.47,128.49c-.9-.14-1.75-.33-2.53-.59v-2.79c.8,.26,1.67,.46,2.6,.6,.93,.14,1.81,.21,2.64,.21,1.38,0,2.4-.23,3.04-.68s.97-1.11,.97-1.98c0-.49-.1-.9-.3-1.22-.2-.32-.53-.6-.99-.84-.46-.24-1.1-.46-1.92-.66l-1.32-.33c-1.73-.42-3.02-1.06-3.86-1.92-.85-.87-1.27-2-1.27-3.4,0-1.76,.65-3.12,1.96-4.09,1.31-.97,3.23-1.45,5.76-1.45,.83,0,1.63,.05,2.41,.15,.78,.1,1.48,.24,2.1,.41v2.79c-.63-.19-1.33-.33-2.08-.43-.75-.1-1.5-.15-2.26-.15-1.53,0-2.64,.23-3.33,.68-.7,.45-1.04,1.09-1.04,1.92,0,.47,.09,.86,.27,1.17,.18,.31,.48,.59,.9,.82s.99,.44,1.73,.64l1.32,.32c1.88,.45,3.26,1.11,4.13,1.98,.88,.87,1.32,2.01,1.32,3.42,0,1.17-.3,2.18-.89,3.03-.59,.85-1.46,1.5-2.59,1.94-1.13,.45-2.48,.67-4.05,.67-.9,0-1.8-.07-2.71-.2Z"/></g></g><g><path class="ac" d="M1658.59,202.45l-274.49-3.01c-55.69,0-48.59-43.14-101.36-43.14H355.98c-52.77,0-57.83,43.14-101.36,43.14l-89.35,3.01v.73H1658.59v-.73Z"/><g><path class="r" d="M771.43,171.44c1.9-.36,3.76-.54,5.6-.54,2.83,0,4.95,.54,6.34,1.62s2.1,2.77,2.1,5.05-.7,3.86-2.09,4.99c-1.39,1.13-3.49,1.69-6.28,1.69-.45,0-1.16-.03-2.13-.08v5.8h-3.53v-18.54Zm9.43,9.25c.78-.65,1.17-1.67,1.17-3.08s-.38-2.47-1.14-3.13c-.76-.66-1.95-.99-3.55-.99-.82,0-1.61,.06-2.37,.18v7.86c.6,.08,1.32,.13,2.17,.13,1.7,0,2.94-.32,3.72-.97Z"/><path class="r" d="M791.95,187.24h9.82v2.74h-13.31v-18.86h13.18v2.74h-9.68v5.1h8.36v2.74h-8.36v5.54Z"/><path class="r" d="M817.24,189.98l-1.84-5.43h-7.65l-1.84,5.43h-3.47l6.59-18.86h5.11l6.59,18.86h-3.49Zm-8.57-8.16h5.81l-2.91-8.56-2.9,8.56Z"/><path class="r" d="M834.61,189.98l-5.38-7.25c-.12,0-.31,.01-.56,.01-.53,0-1.29-.03-2.28-.08v7.32h-3.48v-18.48c1.93-.4,3.86-.6,5.79-.6,2.74,0,4.79,.48,6.15,1.44s2.03,2.44,2.03,4.45c0,1.38-.35,2.52-1.08,3.44-.73,.92-1.78,1.58-3.16,2l5.83,7.75h-3.88Zm-8.22-9.92c.84,.08,1.62,.11,2.34,.11,1.67,0,2.89-.27,3.66-.81,.78-.54,1.16-1.4,1.16-2.57s-.36-2.03-1.09-2.56c-.73-.54-1.87-.8-3.43-.8-.88,0-1.76,.08-2.65,.23v6.4Z"/><path class="r" d="M842.24,190.02c-.9-.14-1.75-.33-2.53-.59v-2.79c.8,.26,1.67,.46,2.6,.6,.93,.14,1.81,.21,2.64,.21,1.38,0,2.4-.23,3.04-.68,.64-.45,.97-1.11,.97-1.98,0-.49-.1-.9-.3-1.22-.2-.32-.53-.6-.99-.84-.46-.24-1.1-.46-1.92-.66l-1.32-.33c-1.73-.42-3.02-1.06-3.86-1.92-.85-.87-1.27-2-1.27-3.4,0-1.76,.65-3.12,1.96-4.09s3.23-1.45,5.76-1.45c.83,0,1.63,.05,2.41,.15,.78,.1,1.48,.24,2.1,.41v2.79c-.64-.19-1.33-.33-2.08-.43-.75-.1-1.5-.15-2.26-.15-1.53,0-2.64,.23-3.33,.68s-1.04,1.09-1.04,1.92c0,.47,.09,.86,.27,1.17,.18,.31,.48,.59,.9,.82s.99,.44,1.73,.64l1.32,.32c1.88,.45,3.26,1.11,4.13,1.98,.88,.87,1.32,2.01,1.32,3.42,0,1.17-.3,2.18-.89,3.03-.6,.85-1.46,1.5-2.59,1.94-1.13,.45-2.49,.67-4.05,.67-.9,0-1.8-.07-2.71-.2Z"/></g></g><g><g><path class="w" d="M1593.86,323.25c-55.69,0-48.59-43.14-101.36-43.14h-105.82c-52.77,0-45.66,43.14-101.36,43.14h-94.05v3.74h467.32v-.73l-64.73-3.01Z"/><path class="w" d="M1205.27,323.25H440.81c-55.69,0-48.59-43.14-101.36-43.14h6.76c-52.77,0-57.83,43.14-101.36,43.14l-79.58,3.01v.73H1205.27v-3.74Z"/></g><g><path class="r" d="M1379.8,312.43c-1.67-1.54-2.5-3.98-2.5-7.32s.85-5.68,2.56-7.29,4.17-2.42,7.39-2.42c1.45,0,2.85,.16,4.21,.48v2.83c-1.27-.31-2.59-.47-3.96-.47-1.46,0-2.67,.23-3.62,.69-.95,.46-1.67,1.19-2.15,2.19-.48,1-.72,2.31-.72,3.94s.24,3,.71,4.01c.48,1.01,1.18,1.73,2.11,2.17s2.11,.66,3.53,.66c1.33,0,2.7-.21,4.1-.62v2.83c-.65,.2-1.36,.36-2.11,.47s-1.52,.17-2.29,.17c-3.17,0-5.58-.77-7.25-2.31Z"/><path class="r" d="M1393.98,314.5v-18.86h3.53v7.7h8.88v-7.7h3.53v18.86h-3.53v-8.16h-8.88v8.16h-3.53Z"/><path class="r" d="M1417.29,311.76h9.82v2.74h-13.31v-18.86h13.18v2.74h-9.68v5.1h8.36v2.74h-8.36v5.54Z"/><path class="r" d="M1441.66,314.5l-5.38-7.25c-.12,0-.31,.01-.56,.01-.53,0-1.29-.03-2.28-.08v7.32h-3.48v-18.48c1.93-.4,3.86-.6,5.79-.6,2.74,0,4.79,.48,6.15,1.44,1.35,.96,2.03,2.44,2.03,4.45,0,1.38-.35,2.52-1.08,3.44-.73,.92-1.78,1.58-3.16,2l5.83,7.75h-3.88Zm-8.21-9.92c.84,.08,1.62,.11,2.34,.11,1.67,0,2.89-.27,3.67-.81,.78-.54,1.16-1.4,1.16-2.57s-.36-2.03-1.09-2.56c-.73-.54-1.87-.8-3.43-.8-.88,0-1.76,.08-2.65,.23v6.4Z"/><path class="r" d="M1459.54,314.5l-5.38-7.25c-.12,0-.31,.01-.56,.01-.53,0-1.29-.03-2.28-.08v7.32h-3.48v-18.48c1.93-.4,3.86-.6,5.79-.6,2.74,0,4.79,.48,6.15,1.44,1.35,.96,2.03,2.44,2.03,4.45,0,1.38-.35,2.52-1.08,3.44-.73,.92-1.78,1.58-3.16,2l5.83,7.75h-3.88Zm-8.21-9.92c.84,.08,1.62,.11,2.34,.11,1.67,0,2.89-.27,3.67-.81,.78-.54,1.16-1.4,1.16-2.57s-.36-2.03-1.09-2.56c-.73-.54-1.87-.8-3.43-.8-.88,0-1.76,.08-2.65,.23v6.4Z"/><path class="r" d="M1465.74,314.5v-18.86h3.53v18.86h-3.53Z"/><path class="r" d="M1476.62,311.76h9.82v2.74h-13.31v-18.86h13.18v2.74h-9.68v5.1h8.36v2.74h-8.36v5.54Z"/><path class="r" d="M1491.13,314.54c-.9-.14-1.75-.33-2.53-.59v-2.79c.8,.26,1.67,.46,2.6,.6,.93,.14,1.81,.21,2.64,.21,1.38,0,2.4-.23,3.04-.68s.97-1.11,.97-1.98c0-.49-.1-.9-.3-1.22-.2-.32-.53-.6-.99-.84-.46-.24-1.1-.46-1.92-.66l-1.32-.33c-1.73-.42-3.02-1.06-3.86-1.92-.85-.87-1.27-2-1.27-3.4,0-1.76,.65-3.12,1.96-4.09,1.31-.97,3.23-1.45,5.76-1.45,.83,0,1.63,.05,2.41,.15,.78,.1,1.48,.24,2.1,.41v2.79c-.63-.19-1.33-.33-2.08-.43-.75-.1-1.5-.15-2.26-.15-1.53,0-2.64,.23-3.33,.68-.7,.45-1.04,1.09-1.04,1.92,0,.47,.09,.86,.27,1.17,.18,.31,.48,.59,.9,.82s.99,.44,1.73,.64l1.32,.32c1.88,.45,3.26,1.11,4.13,1.98,.88,.87,1.32,2.01,1.32,3.42,0,1.17-.3,2.18-.89,3.03-.59,.85-1.46,1.5-2.59,1.94-1.13,.45-2.48,.67-4.05,.67-.9,0-1.8-.07-2.71-.2Z"/></g></g><g><path class="u" d="M1658.59,388.16l-274.49-3.01c-55.69,0-48.59-43.14-101.36-43.14H543.63c-52.77,0-57.83,43.14-101.36,43.14l-277,3.01v.73H1658.59v-.73Z"/><g><path class="r" d="M889.66,377.02l-7.06-8.16h-2.61v8.16h-4.1v-18.86h4.1v7.71h2.63l6.52-7.71h4.37l-7.72,9.14,8.36,9.72h-4.49Z"/><path class="r" d="M895.81,377.02v-18.86h4.1v18.86h-4.1Z"/><path class="r" d="M931.83,358.16h3.91l-6.17,18.86h-5.29l-4.97-15.17-5.1,15.17h-5.29l-6.17-18.86h4.17l4.94,15.74,5.2-15.74h4.61l5.1,15.88,5.06-15.88Z"/><path class="r" d="M938.58,377.02v-18.86h4.1v18.86h-4.1Z"/></g></g><g><path class="ad" d="M1229.09,447.05h-467.86c-55.69,0-48.59-43.14-101.36-43.14H346.21c-52.77,0-57.83,43.14-101.36,43.14l-79.58,3.01v.73H1229.09v-3.74Z"/><path class="ad" d="M1585.26,447.05c-55.69,0-48.59-43.14-101.36-43.14h-97.23c-52.77,0-45.66,43.14-101.36,43.14h-94.05v3.74h467.32v-.73l-73.33-3.01Z"/><g><path class="r" d="M428.81,431.28c.66,.77,.99,1.77,.99,3s-.31,2.2-.93,3c-.62,.8-1.61,1.4-2.98,1.82-1.37,.41-3.16,.62-5.38,.62-.82,0-1.7-.03-2.63-.09-.94-.06-1.81-.14-2.63-.24v-18.34c.9-.19,1.86-.33,2.89-.44,1.03-.11,2.05-.16,3.06-.16,2.79,0,4.82,.42,6.11,1.27,1.29,.85,1.93,2.14,1.93,3.89,0,1.03-.28,1.92-.83,2.66-.56,.75-1.36,1.25-2.42,1.52,1.22,.23,2.16,.73,2.82,1.5Zm-10.11-8.09v5.38h3.16c1.45,0,2.48-.23,3.12-.68,.63-.46,.95-1.16,.95-2.12,0-.67-.14-1.21-.42-1.62-.28-.41-.74-.71-1.37-.9-.63-.19-1.47-.29-2.52-.29s-1.98,.08-2.91,.23Zm5.73,13.67c.75-.22,1.28-.55,1.6-.99,.32-.44,.48-1.01,.48-1.72,0-1.04-.34-1.79-1.01-2.27-.67-.48-1.75-.72-3.23-.72h-3.57v5.9c.78,.08,1.68,.13,2.7,.13,1.28,0,2.29-.11,3.04-.33Z"/><path class="r" d="M432.53,439.52v-18.86h3.53v16.02h9.23v2.84h-12.77Z"/><path class="r" d="M448.77,437.84c-1.27-1.28-1.91-3.24-1.91-5.9v-11.29h3.53v11.64c0,1.61,.35,2.79,1.06,3.54,.71,.74,1.81,1.12,3.31,1.12s2.59-.37,3.3-1.12c.71-.74,1.06-1.92,1.06-3.54v-11.64h3.47v11.29c0,2.66-.63,4.63-1.89,5.9s-3.24,1.91-5.94,1.91-4.73-.64-6-1.92Z"/><path class="r" d="M469.86,436.78h9.82v2.74h-13.31v-18.86h13.18v2.74h-9.68v5.1h8.36v2.74h-8.36v5.54Z"/><path class="r" d="M496.09,431.28c.66,.77,.99,1.77,.99,3s-.31,2.2-.93,3c-.62,.8-1.61,1.4-2.98,1.82-1.37,.41-3.16,.62-5.38,.62-.82,0-1.7-.03-2.63-.09-.94-.06-1.81-.14-2.63-.24v-18.34c.9-.19,1.86-.33,2.89-.44,1.03-.11,2.05-.16,3.06-.16,2.79,0,4.82,.42,6.11,1.27,1.29,.85,1.93,2.14,1.93,3.89,0,1.03-.28,1.92-.83,2.66-.56,.75-1.36,1.25-2.42,1.52,1.22,.23,2.16,.73,2.82,1.5Zm-10.11-8.09v5.38h3.16c1.45,0,2.48-.23,3.12-.68,.63-.46,.95-1.16,.95-2.12,0-.67-.14-1.21-.42-1.62-.28-.41-.74-.71-1.37-.9-.63-.19-1.47-.29-2.52-.29s-1.98,.08-2.91,.23Zm5.73,13.67c.75-.22,1.28-.55,1.6-.99,.32-.44,.48-1.01,.48-1.72,0-1.04-.34-1.79-1.01-2.27-.67-.48-1.75-.72-3.23-.72h-3.57v5.9c.78,.08,1.68,.13,2.7,.13,1.28,0,2.29-.11,3.04-.33Z"/><path class="r" d="M503.3,436.78h9.82v2.74h-13.31v-18.86h13.18v2.74h-9.68v5.1h8.36v2.74h-8.36v5.54Z"/><path class="r" d="M527.67,439.52l-5.38-7.25c-.12,0-.31,.01-.56,.01-.53,0-1.29-.03-2.28-.08v7.32h-3.48v-18.48c1.93-.4,3.86-.6,5.79-.6,2.74,0,4.79,.48,6.15,1.44s2.03,2.44,2.03,4.45c0,1.38-.35,2.52-1.08,3.44-.73,.92-1.78,1.58-3.16,2l5.83,7.75h-3.88Zm-8.22-9.92c.84,.08,1.62,.11,2.34,.11,1.67,0,2.89-.27,3.66-.81,.78-.54,1.16-1.4,1.16-2.57s-.36-2.03-1.09-2.56c-.73-.54-1.87-.8-3.43-.8-.88,0-1.76,.08-2.65,.23v6.4Z"/><path class="r" d="M545.56,439.52l-5.38-7.25c-.12,0-.31,.01-.56,.01-.53,0-1.29-.03-2.28-.08v7.32h-3.48v-18.48c1.93-.4,3.86-.6,5.79-.6,2.74,0,4.79,.48,6.15,1.44s2.03,2.44,2.03,4.45c0,1.38-.35,2.52-1.08,3.44-.73,.92-1.78,1.58-3.16,2l5.83,7.75h-3.88Zm-8.22-9.92c.84,.08,1.62,.11,2.34,.11,1.67,0,2.89-.27,3.66-.81,.78-.54,1.16-1.4,1.16-2.57s-.36-2.03-1.09-2.56c-.73-.54-1.87-.8-3.43-.8-.88,0-1.76,.08-2.65,.23v6.4Z"/><path class="r" d="M551.75,439.52v-18.86h3.53v18.86h-3.53Z"/><path class="r" d="M562.64,436.78h9.82v2.74h-13.31v-18.86h13.18v2.74h-9.68v5.1h8.36v2.74h-8.36v5.54Z"/><path class="r" d="M577.14,439.56c-.9-.14-1.75-.33-2.53-.59v-2.79c.8,.26,1.67,.46,2.6,.6,.93,.14,1.81,.21,2.64,.21,1.38,0,2.4-.23,3.04-.68,.64-.45,.97-1.11,.97-1.98,0-.49-.1-.9-.3-1.22-.2-.32-.53-.6-.99-.84-.46-.24-1.1-.46-1.92-.66l-1.32-.33c-1.73-.42-3.02-1.06-3.86-1.92-.85-.87-1.27-2-1.27-3.4,0-1.76,.65-3.12,1.96-4.09s3.23-1.45,5.76-1.45c.83,0,1.63,.05,2.41,.15,.78,.1,1.48,.24,2.1,.41v2.79c-.64-.19-1.33-.33-2.08-.43-.75-.1-1.5-.15-2.26-.15-1.53,0-2.64,.23-3.33,.68s-1.04,1.09-1.04,1.92c0,.47,.09,.86,.27,1.17,.18,.31,.48,.59,.9,.82s.99,.44,1.73,.64l1.32,.32c1.88,.45,3.26,1.11,4.13,1.98,.88,.87,1.32,2.01,1.32,3.42,0,1.17-.3,2.18-.89,3.03-.6,.85-1.46,1.5-2.59,1.94-1.13,.45-2.49,.67-4.05,.67-.9,0-1.8-.07-2.71-.2Z"/></g></g><g><path class="q" d="M1660.49,551.8l-278.3-3.01c-55.69,0-48.59-43.14-101.36-43.14H754.13c-52.77,0-57.83,43.14-101.36,43.14l-489.41,3.01v.73H1660.49v-.73Z"/><g><path class="r" d="M966.01,540.51v-18.86h3.53v16.02h9.23v2.84h-12.77Z"/><path class="r" d="M984.33,537.77h9.82v2.74h-13.31v-18.86h13.18v2.74h-9.68v5.1h8.36v2.74h-8.36v5.54Z"/><path class="r" d="M1013.11,521.65h4.27v18.86h-3.31v-14.25l-5.37,11.56h-2.96l-5.37-11.29v13.98h-3.31v-18.86h4.27l5.95,12.72,5.82-12.72Z"/><path class="r" d="M1024.7,539.71c-1.32-.7-2.34-1.77-3.06-3.21s-1.08-3.25-1.08-5.42,.36-3.97,1.08-5.41c.72-1.44,1.74-2.51,3.06-3.21,1.32-.7,2.89-1.05,4.7-1.05s3.38,.35,4.7,1.05c1.32,.7,2.34,1.77,3.06,3.21,.72,1.44,1.08,3.24,1.08,5.41s-.36,3.96-1.08,5.4c-.72,1.44-1.74,2.52-3.06,3.22s-2.88,1.05-4.69,1.05-3.38-.35-4.7-1.04Zm8.57-3.36c.9-1.08,1.34-2.81,1.34-5.19s-.45-4.22-1.35-5.32c-.9-1.1-2.19-1.65-3.86-1.65s-2.96,.54-3.86,1.62-1.34,2.81-1.34,5.2,.45,4.23,1.34,5.33c.89,1.1,2.18,1.64,3.86,1.64s2.97-.54,3.87-1.62Z"/><path class="r" d="M1054.28,521.65h3.32v18.86h-3.57l-9.3-13.75v13.75h-3.33v-18.86h3.57l9.31,13.76v-13.76Z"/><path class="r" d="M1063.29,540.55c-.9-.14-1.75-.33-2.53-.59v-2.79c.8,.26,1.67,.46,2.6,.6,.93,.14,1.81,.21,2.64,.21,1.38,0,2.4-.23,3.04-.68s.97-1.11,.97-1.98c0-.49-.1-.9-.3-1.22-.2-.32-.53-.6-.99-.84-.46-.24-1.1-.46-1.92-.66l-1.32-.33c-1.73-.42-3.02-1.06-3.86-1.92-.85-.87-1.27-2-1.27-3.4,0-1.76,.65-3.12,1.96-4.09,1.31-.97,3.23-1.45,5.76-1.45,.83,0,1.63,.05,2.41,.15,.78,.1,1.48,.24,2.1,.41v2.79c-.63-.19-1.33-.33-2.08-.43-.75-.1-1.5-.15-2.26-.15-1.53,0-2.64,.23-3.33,.68-.7,.45-1.04,1.09-1.04,1.92,0,.47,.09,.86,.27,1.17,.18,.31,.48,.59,.9,.82s.99,.44,1.73,.64l1.32,.32c1.88,.45,3.26,1.11,4.13,1.98,.88,.87,1.32,2.01,1.32,3.42,0,1.17-.3,2.18-.89,3.03-.59,.85-1.46,1.5-2.59,1.94-1.13,.45-2.48,.67-4.05,.67-.9,0-1.8-.07-2.71-.2Z"/></g></g><g><path class="s" d="M1660.49,613.7l-278.3-3.01c-55.69,0-48.59-43.14-101.36-43.14h-416.81c-52.77,0-57.83,43.14-101.36,43.14l-599.31,3.01v.73H1660.49v-.73Z"/><g><path class="r" d="M1013.26,600.51c-1.32-.7-2.34-1.77-3.06-3.21s-1.08-3.25-1.08-5.42,.36-3.97,1.08-5.41c.72-1.44,1.74-2.51,3.06-3.21,1.32-.7,2.89-1.05,4.7-1.05s3.38,.35,4.7,1.05c1.32,.7,2.34,1.77,3.06,3.21,.72,1.44,1.08,3.24,1.08,5.41s-.36,3.96-1.08,5.4c-.72,1.44-1.74,2.52-3.06,3.22s-2.88,1.05-4.69,1.05-3.38-.35-4.7-1.04Zm8.57-3.36c.9-1.08,1.34-2.81,1.34-5.19s-.45-4.22-1.35-5.32c-.9-1.1-2.19-1.65-3.86-1.65s-2.96,.54-3.86,1.62-1.34,2.81-1.34,5.2,.45,4.23,1.34,5.33c.89,1.1,2.18,1.64,3.86,1.64s2.97-.54,3.87-1.62Z"/><path class="r" d="M1041.64,601.31l-5.38-7.25c-.12,0-.31,.01-.56,.01-.53,0-1.29-.03-2.28-.08v7.32h-3.48v-18.48c1.93-.4,3.86-.6,5.79-.6,2.74,0,4.79,.48,6.15,1.44,1.35,.96,2.03,2.44,2.03,4.45,0,1.38-.35,2.52-1.08,3.44-.73,.92-1.78,1.58-3.16,2l5.83,7.75h-3.88Zm-8.21-9.92c.84,.08,1.62,.11,2.34,.11,1.67,0,2.89-.27,3.67-.81,.78-.54,1.16-1.4,1.16-2.57s-.36-2.03-1.09-2.56c-.73-.54-1.87-.8-3.43-.8-.88,0-1.76,.08-2.65,.23v6.4Z"/><path class="r" d="M1059.78,601.31l-1.84-5.43h-7.65l-1.84,5.43h-3.47l6.59-18.86h5.11l6.59,18.86h-3.49Zm-8.57-8.16h5.81l-2.91-8.56-2.9,8.56Z"/><path class="r" d="M1078.34,582.45h3.32v18.86h-3.57l-9.3-13.75v13.75h-3.33v-18.86h3.57l9.31,13.76v-13.76Z"/><path class="r" d="M1100.29,592.13v8.97c-1.65,.26-3.21,.4-4.7,.4-3.62,0-6.32-.78-8.1-2.34-1.79-1.56-2.68-3.97-2.69-7.25,0-3.26,.91-5.7,2.72-7.3,1.81-1.61,4.43-2.41,7.86-2.41,1.52,0,2.98,.17,4.38,.51v2.83c-1.34-.33-2.71-.5-4.1-.5-1.62,0-2.96,.23-4.01,.69-1.05,.46-1.84,1.2-2.37,2.21-.53,1.01-.79,2.35-.79,4.01,0,2.35,.56,4.05,1.68,5.12,1.12,1.07,2.84,1.61,5.17,1.61,.5,0,1.05-.02,1.64-.06v-6.49h3.31Z"/><path class="r" d="M1107.5,598.57h9.82v2.74h-13.31v-18.86h13.18v2.74h-9.68v5.1h8.36v2.74h-8.36v5.54Z"/><path class="r" d="M1122,601.35c-.9-.14-1.75-.33-2.53-.59v-2.79c.8,.26,1.67,.46,2.6,.6,.93,.14,1.81,.21,2.64,.21,1.38,0,2.4-.23,3.04-.68s.97-1.11,.97-1.98c0-.49-.1-.9-.3-1.22-.2-.32-.53-.6-.99-.84-.46-.24-1.1-.46-1.92-.66l-1.32-.33c-1.73-.42-3.02-1.06-3.86-1.92-.85-.87-1.27-2-1.27-3.4,0-1.76,.65-3.12,1.96-4.09,1.31-.97,3.23-1.45,5.76-1.45,.83,0,1.63,.05,2.41,.15,.78,.1,1.48,.24,2.1,.41v2.79c-.63-.19-1.33-.33-2.08-.43-.75-.1-1.5-.15-2.26-.15-1.53,0-2.64,.23-3.33,.68-.7,.45-1.04,1.09-1.04,1.92,0,.47,.09,.86,.27,1.17,.18,.31,.48,.59,.9,.82s.99,.44,1.73,.64l1.32,.32c1.88,.45,3.26,1.11,4.13,1.98,.88,.87,1.32,2.01,1.32,3.42,0,1.17-.3,2.18-.89,3.03-.59,.85-1.46,1.5-2.59,1.94-1.13,.45-2.48,.67-4.05,.67-.9,0-1.8-.07-2.71-.2Z"/></g></g><g><path class="aa" d="M1660.49,675.6l-486.94-3.01c-55.69,0-48.59-43.14-101.36-43.14h-309.21c-52.77,0-57.83,43.14-101.36,43.14l-498.26,3.01v.73H1660.49v-.73Z"/><g><path class="r" d="M827.71,661.47c-1.67-1.54-2.5-3.98-2.5-7.32s.85-5.68,2.56-7.29,4.17-2.42,7.39-2.42c1.45,0,2.85,.16,4.21,.48v2.83c-1.27-.31-2.59-.47-3.96-.47-1.46,0-2.67,.23-3.62,.69-.95,.46-1.67,1.19-2.15,2.19-.48,1-.72,2.31-.72,3.94s.24,3,.71,4.01c.48,1.01,1.18,1.73,2.11,2.17,.93,.44,2.11,.66,3.53,.66,1.33,0,2.7-.21,4.1-.62v2.83c-.65,.2-1.36,.36-2.11,.47-.75,.11-1.52,.17-2.3,.17-3.17,0-5.58-.77-7.25-2.31Z"/><path class="r" d="M841.89,663.54v-18.86h3.53v16.02h9.23v2.84h-12.77Z"/><path class="r" d="M860.21,660.8h9.82v2.74h-13.31v-18.86h13.18v2.74h-9.68v5.1h8.36v2.74h-8.36v5.54Z"/><path class="r" d="M888.98,644.68h4.27v18.86h-3.31v-14.25l-5.37,11.56h-2.96l-5.37-11.29v13.98h-3.31v-18.86h4.27l5.95,12.72,5.82-12.72Z"/><path class="r" d="M900.66,660.8h9.82v2.74h-13.31v-18.86h13.18v2.74h-9.68v5.1h8.36v2.74h-8.36v5.54Z"/><path class="r" d="M926.22,644.68h3.32v18.86h-3.57l-9.3-13.75v13.75h-3.33v-18.86h3.57l9.31,13.76v-13.76Z"/><path class="r" d="M937.96,663.54v-16.02h-6.3v-2.84h16.13v2.84h-6.3v16.02h-3.53Z"/><path class="r" d="M949.9,663.54v-18.86h3.53v18.86h-3.53Z"/><path class="r" d="M970.18,644.68h3.32v18.86h-3.57l-9.3-13.75v13.75h-3.33v-18.86h3.57l9.31,13.76v-13.76Z"/><path class="r" d="M980.86,660.8h9.82v2.74h-13.31v-18.86h13.18v2.74h-9.68v5.1h8.36v2.74h-8.36v5.54Z"/><path class="r" d="M995.36,663.58c-.9-.14-1.75-.33-2.53-.59v-2.79c.8,.26,1.67,.46,2.6,.6,.93,.14,1.81,.21,2.64,.21,1.38,0,2.4-.23,3.04-.68s.97-1.11,.97-1.98c0-.49-.1-.9-.3-1.22-.2-.32-.53-.6-.99-.84-.46-.24-1.1-.46-1.92-.66l-1.32-.33c-1.73-.42-3.02-1.06-3.86-1.92-.85-.87-1.27-2-1.27-3.4,0-1.76,.65-3.12,1.96-4.09,1.31-.97,3.23-1.45,5.76-1.45,.83,0,1.63,.05,2.41,.15,.78,.1,1.48,.24,2.1,.41v2.79c-.63-.19-1.33-.33-2.08-.43-.75-.1-1.5-.15-2.26-.15-1.53,0-2.64,.23-3.33,.68-.7,.45-1.04,1.09-1.04,1.92,0,.47,.09,.86,.27,1.17,.18,.31,.48,.59,.9,.82s.99,.44,1.73,.64l1.32,.32c1.88,.45,3.26,1.11,4.13,1.98,.88,.87,1.32,2.01,1.32,3.42,0,1.17-.3,2.18-.89,3.03-.59,.85-1.46,1.5-2.59,1.94-1.13,.45-2.48,.67-4.05,.67-.9,0-1.8-.07-2.71-.2Z"/></g></g><g><path class="ab" d="M1660.49,737.5l-274.49-3.01c-55.69,0-48.59-43.14-101.36-43.14h-216.61c-52.77,0-57.83,43.14-101.36,43.14l-803.31,3.01v.73H1660.49v-.73Z"/><g><path class="r" d="M1099.92,726.52v-16.02h-6.3v-2.84h16.13v2.84h-6.3v16.02h-3.53Z"/><path class="r" d="M1122.76,726.52l-1.84-5.43h-7.65l-1.84,5.43h-3.47l6.59-18.86h5.11l6.59,18.86h-3.49Zm-8.57-8.16h5.81l-2.91-8.56-2.9,8.56Z"/><path class="r" d="M1141.33,707.66h3.32v18.86h-3.57l-9.3-13.75v13.75h-3.33v-18.86h3.57l9.31,13.76v-13.76Z"/><path class="r" d="M1163.27,717.34v8.97c-1.65,.26-3.21,.4-4.7,.4-3.62,0-6.32-.78-8.1-2.34-1.79-1.56-2.68-3.97-2.69-7.25,0-3.26,.91-5.7,2.72-7.3,1.81-1.61,4.43-2.41,7.86-2.41,1.52,0,2.98,.17,4.38,.51v2.83c-1.34-.33-2.71-.5-4.1-.5-1.62,0-2.96,.23-4.01,.69-1.05,.46-1.84,1.2-2.37,2.21-.53,1.01-.79,2.35-.79,4.01,0,2.35,.56,4.05,1.68,5.12,1.12,1.07,2.84,1.61,5.17,1.61,.5,0,1.05-.02,1.64-.06v-6.49h3.31Z"/><path class="r" d="M1170.48,723.78h9.82v2.74h-13.31v-18.86h13.18v2.74h-9.68v5.1h8.36v2.74h-8.36v5.54Z"/><path class="r" d="M1194.85,726.52l-5.38-7.25c-.12,0-.31,.01-.56,.01-.53,0-1.29-.03-2.28-.08v7.32h-3.48v-18.48c1.93-.4,3.86-.6,5.79-.6,2.74,0,4.79,.48,6.15,1.44,1.35,.96,2.03,2.44,2.03,4.45,0,1.38-.35,2.52-1.08,3.44-.73,.92-1.78,1.58-3.16,2l5.83,7.75h-3.88Zm-8.21-9.92c.84,.08,1.62,.11,2.34,.11,1.67,0,2.89-.27,3.67-.81,.78-.54,1.16-1.4,1.16-2.57s-.36-2.03-1.09-2.56c-.73-.54-1.87-.8-3.43-.8-.88,0-1.76,.08-2.65,.23v6.4Z"/><path class="r" d="M1201.04,726.52v-18.86h3.53v18.86h-3.53Z"/><path class="r" d="M1221.32,707.66h3.32v18.86h-3.57l-9.3-13.75v13.75h-3.33v-18.86h3.57l9.31,13.76v-13.76Z"/><path class="r" d="M1232,723.78h9.82v2.74h-13.31v-18.86h13.18v2.74h-9.68v5.1h8.36v2.74h-8.36v5.54Z"/><path class="r" d="M1246.5,726.56c-.9-.14-1.75-.33-2.53-.59v-2.79c.8,.26,1.67,.46,2.6,.6,.93,.14,1.81,.21,2.64,.21,1.38,0,2.4-.23,3.04-.68s.97-1.11,.97-1.98c0-.49-.1-.9-.3-1.22-.2-.32-.53-.6-.99-.84-.46-.24-1.1-.46-1.92-.66l-1.32-.33c-1.73-.42-3.02-1.06-3.86-1.92-.85-.87-1.27-2-1.27-3.4,0-1.76,.65-3.12,1.96-4.09,1.31-.97,3.23-1.45,5.76-1.45,.83,0,1.63,.05,2.41,.15,.78,.1,1.48,.24,2.1,.41v2.79c-.63-.19-1.33-.33-2.08-.43-.75-.1-1.5-.15-2.26-.15-1.53,0-2.64,.23-3.33,.68-.7,.45-1.04,1.09-1.04,1.92,0,.47,.09,.86,.27,1.17,.18,.31,.48,.59,.9,.82s.99,.44,1.73,.64l1.32,.32c1.88,.45,3.26,1.11,4.13,1.98,.88,.87,1.32,2.01,1.32,3.42,0,1.17-.3,2.18-.89,3.03-.59,.85-1.46,1.5-2.59,1.94-1.13,.45-2.48,.67-4.05,.67-.9,0-1.8-.07-2.71-.2Z"/></g></g><g><path class="t" d="M230.16,862.35c55.69,0,48.59-43.14,101.36-43.14h321.59c52.77,0,45.66,43.14,101.36,43.14h94.05v3.74H163.37v-.73l66.79-3.01Z"/><path class="t" d="M618.44,862.35h764.47c55.69,0,48.59-43.14,101.36-43.14h11.57c52.77,0,54.72,43.14,98.25,43.14l64.36,3.44v.3H618.44v-3.74Z"/><g><path class="r" d="M449.32,834.53c1.9-.36,3.76-.54,5.6-.54,2.83,0,4.95,.54,6.34,1.62s2.1,2.77,2.1,5.05-.7,3.86-2.09,4.99c-1.39,1.13-3.49,1.69-6.28,1.69-.45,0-1.16-.03-2.13-.08v5.8h-3.53v-18.54Zm9.43,9.25c.78-.65,1.17-1.67,1.17-3.08s-.38-2.47-1.14-3.13c-.76-.66-1.95-.99-3.55-.99-.82,0-1.61,.06-2.37,.18v7.86c.6,.08,1.32,.13,2.17,.13,1.7,0,2.94-.32,3.72-.97Z"/><path class="r" d="M466.34,853.07v-18.86h3.53v16.02h9.23v2.84h-12.77Z"/><path class="r" d="M482.58,851.4c-1.27-1.28-1.91-3.24-1.91-5.9v-11.29h3.53v11.64c0,1.61,.35,2.79,1.06,3.54,.71,.74,1.81,1.12,3.31,1.12s2.59-.37,3.3-1.12c.71-.74,1.06-1.92,1.06-3.54v-11.64h3.47v11.29c0,2.66-.63,4.63-1.89,5.9s-3.24,1.91-5.94,1.91-4.73-.64-6-1.92Z"/><path class="r" d="M516.28,834.21h4.27v18.86h-3.31v-14.25l-5.37,11.56h-2.96l-5.37-11.29v13.98h-3.31v-18.86h4.27l5.95,12.72,5.82-12.72Z"/><path class="r" d="M526.31,853.11c-.9-.14-1.75-.33-2.53-.59v-2.79c.8,.26,1.67,.46,2.6,.6,.93,.14,1.81,.21,2.64,.21,1.38,0,2.4-.23,3.04-.68,.64-.45,.97-1.11,.97-1.98,0-.49-.1-.9-.3-1.22-.2-.32-.53-.6-.99-.84-.46-.24-1.1-.46-1.92-.66l-1.32-.33c-1.73-.42-3.02-1.06-3.86-1.92-.85-.87-1.27-2-1.27-3.4,0-1.76,.65-3.12,1.96-4.09s3.23-1.45,5.76-1.45c.83,0,1.63,.05,2.41,.15,.78,.1,1.48,.24,2.1,.41v2.79c-.64-.19-1.33-.33-2.08-.43-.75-.1-1.5-.15-2.26-.15-1.53,0-2.64,.23-3.33,.68s-1.04,1.09-1.04,1.92c0,.47,.09,.86,.27,1.17,.18,.31,.48,.59,.9,.82s.99,.44,1.73,.64l1.32,.32c1.88,.45,3.26,1.11,4.13,1.98,.88,.87,1.32,2.01,1.32,3.42,0,1.17-.3,2.18-.89,3.03-.6,.85-1.46,1.5-2.59,1.94-1.13,.45-2.49,.67-4.05,.67-.9,0-1.8-.07-2.71-.2Z"/></g></g><g><path class="a`" d="M230.16,924.25c55.69,0,48.59-43.14,101.36-43.14h321.59c52.77,0,45.66,43.14,101.36,43.14h94.05v3.74H163.37v-.73l66.79-3.01Z"/><path class="a`" d="M618.44,924.25h764.47c55.69,0,48.59-43.14,101.36-43.14h11.57c52.77,0,54.72,43.14,98.25,43.14l64.36,3.44v.3H618.44v-3.74Z"/><g><path class="r" d="M426.48,896.11h3.32v18.86h-3.57l-9.3-13.75v13.75h-3.33v-18.86h3.57l9.31,13.76v-13.76Z"/><path class="r" d="M437.15,912.23h9.82v2.74h-13.31v-18.86h13.18v2.74h-9.68v5.1h8.36v2.74h-8.36v5.54Z"/><path class="r" d="M451.26,912.9c-1.67-1.54-2.5-3.98-2.5-7.32s.85-5.68,2.56-7.29,4.17-2.42,7.39-2.42c1.45,0,2.85,.16,4.21,.48v2.83c-1.27-.31-2.59-.47-3.96-.47-1.46,0-2.67,.23-3.62,.69-.95,.46-1.67,1.19-2.15,2.19-.48,1-.72,2.31-.72,3.94s.24,3,.71,4.01c.48,1.01,1.18,1.73,2.11,2.17,.93,.44,2.11,.66,3.53,.66,1.33,0,2.7-.21,4.1-.62v2.83c-.65,.2-1.36,.36-2.11,.47-.75,.11-1.52,.17-2.3,.17-3.17,0-5.58-.77-7.25-2.31Z"/><path class="r" d="M470.16,914.97v-16.02h-6.3v-2.84h16.13v2.84h-6.3v16.02h-3.53Z"/><path class="r" d="M493.01,914.97l-1.84-5.43h-7.65l-1.84,5.43h-3.47l6.59-18.86h5.11l6.59,18.86h-3.49Zm-8.57-8.16h5.81l-2.91-8.56-2.9,8.56Z"/><path class="r" d="M510.38,914.97l-5.38-7.25c-.12,0-.31,.01-.56,.01-.53,0-1.29-.03-2.28-.08v7.32h-3.48v-18.48c1.93-.4,3.86-.6,5.79-.6,2.74,0,4.79,.48,6.15,1.44s2.03,2.44,2.03,4.45c0,1.38-.35,2.52-1.08,3.44-.73,.92-1.78,1.58-3.16,2l5.83,7.75h-3.88Zm-8.22-9.92c.84,.08,1.62,.11,2.34,.11,1.67,0,2.89-.27,3.66-.81,.78-.54,1.16-1.4,1.16-2.57s-.36-2.03-1.09-2.56c-.73-.54-1.87-.8-3.43-.8-.88,0-1.76,.08-2.65,.23v6.4Z"/><path class="r" d="M516.57,914.97v-18.86h3.53v18.86h-3.53Z"/><path class="r" d="M536.85,896.11h3.32v18.86h-3.57l-9.3-13.75v13.75h-3.33v-18.86h3.57l9.31,13.76v-13.76Z"/><path class="r" d="M547.52,912.23h9.82v2.74h-13.31v-18.86h13.18v2.74h-9.68v5.1h8.36v2.74h-8.36v5.54Z"/><path class="r" d="M562.03,915.01c-.9-.14-1.75-.33-2.53-.59v-2.79c.8,.26,1.67,.46,2.6,.6,.93,.14,1.81,.21,2.64,.21,1.38,0,2.4-.23,3.04-.68,.64-.45,.97-1.11,.97-1.98,0-.49-.1-.9-.3-1.22-.2-.32-.53-.6-.99-.84-.46-.24-1.1-.46-1.92-.66l-1.32-.33c-1.73-.42-3.02-1.06-3.86-1.92-.85-.87-1.27-2-1.27-3.4,0-1.76,.65-3.12,1.96-4.09s3.23-1.45,5.76-1.45c.83,0,1.63,.05,2.41,.15,.78,.1,1.48,.24,2.1,.41v2.79c-.64-.19-1.33-.33-2.08-.43-.75-.1-1.5-.15-2.26-.15-1.53,0-2.64,.23-3.33,.68s-1.04,1.09-1.04,1.92c0,.47,.09,.86,.27,1.17,.18,.31,.48,.59,.9,.82s.99,.44,1.73,.64l1.32,.32c1.88,.45,3.26,1.11,4.13,1.98,.88,.87,1.32,2.01,1.32,3.42,0,1.17-.3,2.18-.89,3.03-.6,.85-1.46,1.5-2.59,1.94-1.13,.45-2.49,.67-4.05,.67-.9,0-1.8-.07-2.71-.2Z"/></g></g><g><path class="x" d="M230.16,986.16c55.69,0,48.59-43.14,101.36-43.14h223.43c52.77,0,45.66,43.14,101.36,43.14h192.21v3.74H163.37v-.73l66.79-3.01Z"/><path class="x" d="M618.44,986.16h764.47c55.69,0,48.59-43.14,101.36-43.14h11.57c52.77,0,54.72,43.14,98.25,43.14l64.36,3.44v.3H618.44v-3.74Z"/><g><path class="r" d="M385.23,958.33c1.9-.36,3.76-.54,5.6-.54,2.83,0,4.95,.54,6.34,1.62s2.1,2.77,2.1,5.05-.7,3.86-2.09,4.99c-1.39,1.13-3.49,1.69-6.28,1.69-.45,0-1.16-.03-2.13-.08v5.8h-3.53v-18.54Zm9.43,9.25c.78-.65,1.17-1.67,1.17-3.08s-.38-2.47-1.14-3.13c-.76-.66-1.95-.99-3.55-.99-.82,0-1.61,.06-2.37,.18v7.86c.6,.08,1.32,.13,2.17,.13,1.7,0,2.94-.32,3.72-.97Z"/><path class="r" d="M405.75,974.14h9.82v2.74h-13.31v-18.86h13.18v2.74h-9.68v5.1h8.36v2.74h-8.36v5.54Z"/><path class="r" d="M431.04,976.88l-1.84-5.43h-7.65l-1.84,5.43h-3.47l6.59-18.86h5.11l6.59,18.86h-3.49Zm-8.57-8.16h5.81l-2.91-8.56-2.9,8.56Z"/><path class="r" d="M438.08,974.81c-1.67-1.54-2.5-3.98-2.5-7.32s.85-5.68,2.56-7.29,4.17-2.42,7.39-2.42c1.45,0,2.85,.16,4.21,.48v2.83c-1.27-.31-2.59-.47-3.96-.47-1.46,0-2.67,.23-3.62,.69-.95,.46-1.67,1.19-2.15,2.19-.48,1-.72,2.31-.72,3.94s.24,3,.71,4.01c.48,1.01,1.18,1.73,2.11,2.17,.93,.44,2.11,.66,3.53,.66,1.33,0,2.7-.21,4.1-.62v2.83c-.65,.2-1.36,.36-2.11,.47-.75,.11-1.52,.17-2.3,.17-3.17,0-5.58-.77-7.25-2.31Z"/><path class="r" d="M452.26,976.88v-18.86h3.53v7.7h8.88v-7.7h3.53v18.86h-3.53v-8.16h-8.88v8.16h-3.53Z"/><path class="r" d="M475.57,974.14h9.82v2.74h-13.31v-18.86h13.18v2.74h-9.68v5.1h8.36v2.74h-8.36v5.54Z"/><path class="r" d="M490.07,976.92c-.9-.14-1.75-.33-2.53-.59v-2.79c.8,.26,1.67,.46,2.6,.6,.93,.14,1.81,.21,2.64,.21,1.38,0,2.4-.23,3.04-.68,.64-.45,.97-1.11,.97-1.98,0-.49-.1-.9-.3-1.22-.2-.32-.53-.6-.99-.84-.46-.24-1.1-.46-1.92-.66l-1.32-.33c-1.73-.42-3.02-1.06-3.86-1.92-.85-.87-1.27-2-1.27-3.4,0-1.76,.65-3.12,1.96-4.09s3.23-1.45,5.76-1.45c.83,0,1.63,.05,2.41,.15,.78,.1,1.48,.24,2.1,.41v2.79c-.64-.19-1.33-.33-2.08-.43-.75-.1-1.5-.15-2.26-.15-1.53,0-2.64,.23-3.33,.68s-1.04,1.09-1.04,1.92c0,.47,.09,.86,.27,1.17,.18,.31,.48,.59,.9,.82s.99,.44,1.73,.64l1.32,.32c1.88,.45,3.26,1.11,4.13,1.98,.88,.87,1.32,2.01,1.32,3.42,0,1.17-.3,2.18-.89,3.03-.6,.85-1.46,1.5-2.59,1.94-1.13,.45-2.49,.67-4.05,.67-.9,0-1.8-.07-2.71-.2Z"/></g></g><path d="M40.83,832.91v27.07c.85-21.54,17.53-25.35,30.58-25.35v-1.72h-30.58Z"/></g></g><rect class="k" x="149.08" y="541.42" width="143" height="215.67" transform="translate(441.15 1298.5) rotate(180)"/><rect class="j" x="1519.9" y="541.42" width="175.44" height="215.67"/><rect class="m" x="1596.91" y="853.56" width="74.44" height="148.86"/><rect class="l" x="146.44" y="853.56" width="74.44" height="148.86" transform="translate(367.31 1855.98) rotate(180)"/><rect class="o" x="1569.16" y="111.44" width="102.19" height="365.85"/><rect class="n" x="146.44" y="111.44" width="126.11" height="365.85" transform="translate(418.98 588.73) rotate(-180)"/></g></g></g></svg>