<svg xmlns="http://www.w3.org/2000/svg" xmlns:xlink="http://www.w3.org/1999/xlink" viewBox="0 0 188.93 236.36"><defs><style>.cls-1,.cls-3,.cls-4{fill:none;}.cls-1,.cls-6{stroke:#000;}.cls-1,.cls-3,.cls-4,.cls-6{stroke-miterlimit:10;}.cls-1{stroke-width:3.39px;}.cls-2{clip-path:url(#clip-path);}.cls-3,.cls-4{stroke:#d52b1e;}.cls-3{stroke-width:2.24px;}.cls-4{stroke-width:2.35px;}.cls-5{fill:#d52b1e;}</style><clipPath id="clip-path"><path class="cls-1" d="M102,54c13.33-.86,28.91-5.56,35.82-9.79,14.94-9.16,25.08-24.09,24.68-37.83C150.9-1,131.06.23,112.76,10.61s-29.5,26.8-29.09,40.54"/></clipPath></defs><g id="Capa_2" data-name="Capa 2"><g id="textos"><path class="cls-1" d="M169.94,150.58a84.64,84.64,0,0,0-153.47-61h0a84.64,84.64,0,0,0,113.16,120.5"/><g class="cls-2"><path class="cls-1" d="M123.86,21.85q-2.65,1.47-5.2,3c-28.6,17.2-47.51,40.25-49.57,57.65"/></g><path class="cls-1" d="M102,54c13.33-.86,28.91-5.56,35.82-9.79,14.94-9.16,25.08-24.09,24.68-37.83C150.9-1,131.06.23,112.76,10.61s-29.5,26.8-29.09,40.54"/><polyline class="cls-3" points="163.73 209.83 159.54 233.36 153.03 223.28 143.45 230.5 147.08 210.07"/><polyline class="cls-3" points="165.41 219.6 173.1 230.27 174.59 218.36 186.36 220.72 174.05 203.62"/><path class="cls-3" d="M180.56,176.22a6.18,6.18,0,0,0-3.29-7,5.61,5.61,0,0,1-3-3.25,6.22,6.22,0,0,0-5.53-4.09,5.38,5.38,0,0,1-3.95-2.11,6.17,6.17,0,0,0-7.55-1.62,5.32,5.32,0,0,1-4.4.06,6.18,6.18,0,0,0-6.9,1.74,5.54,5.54,0,0,1-4,2,6.2,6.2,0,0,0-5.6,4.5,5.14,5.14,0,0,1-2.69,3.38,6.17,6.17,0,0,0-3.31,7,5.41,5.41,0,0,1-.73,4.43,6.2,6.2,0,0,0-.11,6.87,5.6,5.6,0,0,1,.78,4.33,6.18,6.18,0,0,0,3.59,6.89,5.4,5.4,0,0,1,3.17,3.49,6.21,6.21,0,0,0,5.41,4.4A5.08,5.08,0,0,1,146,209a6.15,6.15,0,0,0,7.63,1.42,5.34,5.34,0,0,1,4.83-.08,6.18,6.18,0,0,0,7-1.46,5.53,5.53,0,0,1,3.64-1.79,6.2,6.2,0,0,0,5.42-4.68,5.32,5.32,0,0,1,3-3.78,6.17,6.17,0,0,0,3.52-6.93,5.08,5.08,0,0,1,.63-3.9,6.18,6.18,0,0,0-.2-7A5.41,5.41,0,0,1,180.56,176.22Z"/><circle class="cls-4" cx="155.51" cy="184.38" r="18.55"/><polygon class="cls-5" points="152.29 170.27 157.76 179.42 168.15 177.05 161.13 185.08 166.6 194.23 156.8 190.04 149.78 198.06 150.74 187.44 140.94 183.25 151.33 180.88 152.29 170.27"/><path class="cls-6" d="M56.73,162.1H47.35v9.75H55.5v2.6H47.35v12.6h-2V159.52H56.73Z"/><path class="cls-6" d="M70.83,187.05l-5.78-11.41c-.42,0-.75,0-1,0a23.16,23.16,0,0,1-2.59-.15v11.52h-2V160a18,18,0,0,1,5-.74q3.69,0,5.48,2c1.19,1.33,1.79,3.38,1.79,6.17a10.14,10.14,0,0,1-1.15,5.16,6,6,0,0,1-3.44,2.71l6,11.8Zm-8-13.82q.54,0,1.29,0a5.76,5.76,0,0,0,4.32-1.41,6.18,6.18,0,0,0,1.36-4.43,8.61,8.61,0,0,0-.54-3.33,3.59,3.59,0,0,0-1.68-1.85,6.58,6.58,0,0,0-3-.59,12.61,12.61,0,0,0-1.61.1,11.3,11.3,0,0,0-1.47.3v11C62,173.15,62.42,173.2,62.78,173.23Z"/><path class="cls-6" d="M77.91,184.48h9.6v2.57H75.88V159.52H87.39v2.56H77.91v9.56h8.26v2.55H77.91Z"/><path class="cls-6" d="M91.9,187.11a10.15,10.15,0,0,1-2.26-.82v-2.61a10,10,0,0,0,2.32.86,10.31,10.31,0,0,0,2.29.28c3,0,4.54-1.68,4.54-5a6.54,6.54,0,0,0-.37-2.33,3.81,3.81,0,0,0-1.17-1.58,7.79,7.79,0,0,0-2.17-1.16l-1-.4a7,7,0,0,1-3.55-2.72,8.68,8.68,0,0,1-1.17-4.77,10.36,10.36,0,0,1,.74-4.1,5.7,5.7,0,0,1,2.23-2.64,6.88,6.88,0,0,1,3.65-.91,10.3,10.3,0,0,1,2.14.22A8.47,8.47,0,0,1,100,160v2.6a9.58,9.58,0,0,0-4-.85A4.48,4.48,0,0,0,92.55,163a5.22,5.22,0,0,0-1.14,3.62,6.89,6.89,0,0,0,.33,2.29,3.64,3.64,0,0,0,1.08,1.57,7,7,0,0,0,2,1.15l1,.37a7.45,7.45,0,0,1,3.79,2.79,8.49,8.49,0,0,1,1.21,4.8,10.29,10.29,0,0,1-.78,4.22,5.79,5.79,0,0,1-2.26,2.67,6.72,6.72,0,0,1-3.59.92A9.45,9.45,0,0,1,91.9,187.11Z"/><path class="cls-6" d="M103.9,187.05V159.52h2v12h9.83v-12h2v27.53h-2V174.29h-9.83v12.76Z"/><path class="cls-5" d="M48.5,97.28h6v52.05H45.16V113l-8,7.81V108.35Z"/><path class="cls-5" d="M61.72,143.43q-3.81-6.6-3.81-20t3.81-20q3.82-6.6,10.85-6.6t10.89,6.6q3.83,6.6,3.83,20t-3.83,20Q79.63,150,72.57,150T61.72,143.43Zm13.91-5.78a11,11,0,0,0,1.81-4.9,54.17,54.17,0,0,0,.63-9.3,54.86,54.86,0,0,0-.63-9.36,11.05,11.05,0,0,0-1.81-4.92,3.9,3.9,0,0,0-6.07,0,11,11,0,0,0-1.83,4.91,55.38,55.38,0,0,0-.62,9.3,56,56,0,0,0,.62,9.37,11,11,0,0,0,1.82,4.9,3.91,3.91,0,0,0,6.08,0Z"/><path class="cls-5" d="M93.35,143.43q-3.81-6.6-3.81-20t3.81-20q3.83-6.6,10.85-6.6t10.89,6.6q3.82,6.6,3.83,20t-3.83,20q-3.82,6.6-10.89,6.6T93.35,143.43Zm13.91-5.78a11,11,0,0,0,1.81-4.9,54.17,54.17,0,0,0,.63-9.3,54.86,54.86,0,0,0-.63-9.36,11.05,11.05,0,0,0-1.81-4.92,3.9,3.9,0,0,0-6.07,0,11,11,0,0,0-1.83,4.91,55.38,55.38,0,0,0-.62,9.3,56,56,0,0,0,.62,9.37,11,11,0,0,0,1.82,4.9,3.91,3.91,0,0,0,6.08,0Z"/><path class="cls-5" d="M133.76,121.18a11.6,11.6,0,0,1-.47,3.33,9.52,9.52,0,0,1-1.3,2.74,6.51,6.51,0,0,1-1.93,1.85,4.48,4.48,0,0,1-2.36.68,4.38,4.38,0,0,1-2.33-.68,6.6,6.6,0,0,1-1.92-1.85,9.78,9.78,0,0,1-1.29-2.74,11.26,11.26,0,0,1-.47-3.33,11.38,11.38,0,0,1,.47-3.34,9.85,9.85,0,0,1,1.29-2.73,7,7,0,0,1,1.92-1.88,4.23,4.23,0,0,1,2.33-.7,4.48,4.48,0,0,1,2.36.68,6.39,6.39,0,0,1,1.93,1.85,9.52,9.52,0,0,1,1.3,2.76A11.91,11.91,0,0,1,133.76,121.18Zm-6.06,5.57a2.87,2.87,0,0,0,1.52-.43,4.54,4.54,0,0,0,1.26-1.22,6.7,6.7,0,0,0,.87-1.78,6.8,6.8,0,0,0,.33-2.14,7.1,7.1,0,0,0-.31-2.14,6.13,6.13,0,0,0-.86-1.78,4.53,4.53,0,0,0-1.27-1.24,2.78,2.78,0,0,0-3.05,0,4.5,4.5,0,0,0-1.26,1.21,6.45,6.45,0,0,0-.86,1.81,7.74,7.74,0,0,0-.31,2.17,7.43,7.43,0,0,0,.31,2.14,6.4,6.4,0,0,0,.86,1.78,4.54,4.54,0,0,0,1.26,1.22A2.84,2.84,0,0,0,127.7,126.75Zm1.43,22.88h-1.9l14.48-37.47h1.9Zm14.11-18a4.39,4.39,0,0,1,2.34.68,6.19,6.19,0,0,1,1.89,1.86,9.33,9.33,0,0,1,1.26,2.74,11.74,11.74,0,0,1,.46,3.35,12,12,0,0,1-.46,3.37,9.4,9.4,0,0,1-1.26,2.77,6.27,6.27,0,0,1-1.89,1.85,4.3,4.3,0,0,1-2.34.68,4.38,4.38,0,0,1-2.35-.68,6.39,6.39,0,0,1-1.93-1.85,9.71,9.71,0,0,1-1.3-2.77,12,12,0,0,1-.47-3.37,11.08,11.08,0,0,1,.49-3.35,10.24,10.24,0,0,1,1.31-2.74,6.51,6.51,0,0,1,1.92-1.86A4.38,4.38,0,0,1,143.24,131.6Zm0,3a2.77,2.77,0,0,0-1.55.47,4.34,4.34,0,0,0-1.24,1.25,6,6,0,0,0-.84,1.81,7.46,7.46,0,0,0-.31,2.18,6.69,6.69,0,0,0,.33,2.1,6.62,6.62,0,0,0,.87,1.79,4.54,4.54,0,0,0,1.26,1.22,2.8,2.8,0,0,0,1.48.44,2.71,2.71,0,0,0,1.51-.47,4.31,4.31,0,0,0,1.24-1.24,6.87,6.87,0,0,0,.84-1.79,7.65,7.65,0,0,0,0-4.31,6.87,6.87,0,0,0-.84-1.79,4.23,4.23,0,0,0-1.24-1.22A2.85,2.85,0,0,0,143.21,134.62Z"/></g></g></svg>