<svg id="logo_premium_fruit" data-name="logo_premium fruit" xmlns="http://www.w3.org/2000/svg" viewBox="0 0 612 654.84"><path d="M377.13,347.84H358.27V267.09h18.86Zm7,19.76H365.24v80.75H384.1ZM192.61,215.48l-4-9.68-4,9.68-10.43.79,8,6.77-2.47,10.16,8.91-5.49,8.9,5.49L195.07,223l8-6.77ZM379.16,205l-6.45-15.7L366.26,205l-16.93,1.29,12.95,11-4,16.5,14.45-8.91,14.45,8.91-4-16.5,12.95-11ZM261.76,91.6l17.56,17.61L266.1,112.3,250.7,96.61c-.64.15-1.51.33-2.62.54-.74.12-1.28.22-1.64.31l4.31,18.43-12,2.8-11.92-51a68.1,68.1,0,0,1,7.23-3.18,62.27,62.27,0,0,1,7.79-2.38q10.51-2.46,16.78.56T267,74.48a18,18,0,0,1-.08,9.74A15.3,15.3,0,0,1,261.76,91.6Zm-6.17-14.45q-.89-3.83-3.37-5.13t-6.71-.33a25.27,25.27,0,0,0-4.73,1.59l3.29,14a36.61,36.61,0,0,0,4.74-.78c2.88-.67,4.89-1.75,6-3.25S256.21,79.76,255.59,77.15ZM181.7,384.51H216V367.6H162.84v80.75H181.7v-30.5h29.21V400.93H181.7ZM174.92,316l19.69,31.81H174.18L157,319.58c-1,0-2.33,0-4-.11-1.11-.07-1.95-.11-2.5-.11v28.48H132V269.06a102.34,102.34,0,0,1,11.69-2.19,95.71,95.71,0,0,1,12.23-.81q16.24,0,24.4,6.57t8.15,20.1A26.92,26.92,0,0,1,185,307,23.1,23.1,0,0,1,174.92,316Zm-4.08-23.3q0-5.88-3.19-8.67t-9.72-2.78a37.69,37.69,0,0,0-7.46.71V303.7a53.26,53.26,0,0,0,7.21.49q6.69,0,9.92-2.7T170.84,292.73Zm83.72,38.52h-35.1V314.89H249V298.3H219.46V283.68h34.61V267.09H200.84v80.75h53.72Zm93-217.55,15.31-14.43,5.47,20.32,13.25,3.75-8.84-31.75,21.93-20.31-12.93-3.67L368.49,80,363.68,62.5l-13.31-3.78,8.22,29.05-23.24,21.4-.07,1ZM210.46,72.15l-31.94,15.2,23,48.46,32.23-15.34-4.73-10-21.07,10-4.67-9.82,17.74-8.44-4.74-10-17.74,8.44L194.42,92l20.77-9.88ZM490.3,236.41,529,219.74l5.9,13.69,10.56-4.54L528.73,190l-10.56,4.54,5.9,13.7-38.74,16.67ZM337.73,68.2l.73-11-35.3-2.34-3.54,53.55,35.62,2.35,0-.54-.82-.23.89-.82.62-9.41-23.28-1.53.72-10.86,19.6,1.3.73-11-19.6-1.3.64-9.69ZM432,448.35V384.89h22.44V367.6H390.63v17.29h22.44v63.46ZM175.54,114.48a10.27,10.27,0,0,1-1.73,6.69,11,11,0,0,1,7.6-.64,13.61,13.61,0,0,1,6.93,5.18,14.88,14.88,0,0,1,3.35,8.41q.19,4.27-3,9t-10.27,10.2q-2.44,1.86-5.8,4c-2.24,1.45-4.3,2.69-6.18,3.7L134.86,119.9a63.53,63.53,0,0,1,5.44-6,69.15,69.15,0,0,1,6.27-5.49q8.79-6.72,15.14-6.88t11,6A12.93,12.93,0,0,1,175.54,114.48Zm-10.33,5.35a5.39,5.39,0,0,0-1.32-4.63,6.51,6.51,0,0,0-2.68-2.22,4.66,4.66,0,0,0-3.15,0,14.33,14.33,0,0,0-4.08,2.35,29,29,0,0,0-4.21,4l6.83,8.92,4.77-3.65Q164.69,122,165.21,119.83Zm3.25,12.29-5.6,4.28,7.67,10a52.81,52.81,0,0,0,4.48-3.11,19.61,19.61,0,0,0,4.21-4.09,5.42,5.42,0,0,0,1.14-3.5,6.77,6.77,0,0,0-1.52-3.47q-2.06-2.67-4.48-2.73C172.74,129.48,170.77,130.34,168.46,132.12ZM312.85,336l15.86-41.52v53.36h17.58V267.09h-23l-17.73,47.36-18.31-47.36h-23v80.75h17.58V296.23L297.63,336ZM184.72,515.35a38.49,38.49,0,0,0-3.55-8.05,229.71,229.71,0,0,1-95.7-130.54H80.39A234.69,234.69,0,0,0,184.72,515.35Zm80-327.67,22.85,19.41-7.08,29.12L306,220.48l25.51,15.73-7.08-29.12,22.84-19.41-29.88-2.27L306,157.69l-11.4,27.72ZM65.81,268.62A110.43,110.43,0,0,1,89,266.06q17,0,25.38,7.2t8.35,22.53q0,14.68-8.12,22.21t-23.89,7.53c-1,0-2.33,0-4-.11l-2.06-.06v22.48H65.81Zm18.86,41A47.8,47.8,0,0,0,91,310q7.08,0,10.31-3.27T104.51,296q0-7.53-3.32-10.93t-10.38-3.41a31.79,31.79,0,0,0-6.14.49Zm28.46-169.2L164,163.15l-7.84,9.44-12.41-5.77-10.82,13,8,11.12-7.75,9.33-31.72-45.8Zm.41,12.39,12.78,17.87,7.15-8.61Zm-10.48,36.9a10.28,10.28,0,0,1,1.35,6.78,11,11,0,0,1,6.57-3.88,13.59,13.59,0,0,1,8.49,1.66,14.88,14.88,0,0,1,6.68,6.11q2,3.77,1.21,9.46t-4.82,13.65c-.92,1.83-2.08,3.88-3.46,6.17s-2.7,4.29-4,6l-46.34-23.4a64,64,0,0,1,2.29-7.76,67,67,0,0,1,3.27-7.67q5-9.88,10.63-12.78t12.52.56A13,13,0,0,1,103.06,189.68Zm-7,9.31a5.43,5.43,0,0,0-3.21-3.59,6.45,6.45,0,0,0-3.37-.83A4.64,4.64,0,0,0,86.67,196,14.47,14.47,0,0,0,84,199.84,29.44,29.44,0,0,0,82,205.23l10,5.07,2.71-5.36Q96.57,201.21,96.09,199Zm5.08,15.95,11.27,5.69a54,54,0,0,0,2.68-4.76,19.53,19.53,0,0,0,2-5.5,5.42,5.42,0,0,0-.49-3.65,6.62,6.62,0,0,0-2.88-2.46q-3-1.53-5.23-.52c-1.47.67-2.87,2.3-4.18,4.91ZM597.08,327.17c.14-2.2,1.89-5,3.59-7.65,2.27-3.6,4.84-7.68,4.84-12.26s-2.57-8.66-4.84-12.26c-1.69-2.68-3.44-5.45-3.59-7.66s1.22-5.29,2.55-8.21c1.84-4,3.73-8.19,3.13-12.65S599,258.26,596.3,255c-2-2.43-4.15-4.94-4.6-7.12s.49-5.39,1.41-8.46c1.27-4.24,2.58-8.64,1.36-13s-4.8-7.62-8-10.47c-2.36-2.13-4.8-4.33-5.54-6.43s-.26-5.4.23-8.56c.68-4.38,1.38-8.92-.43-13.07s-5.79-6.88-9.3-9.27c-2.64-1.79-5.36-3.64-6.39-5.62s-1-5.3-.93-8.5c.07-4.43.14-9-2.22-12.9s-6.67-6-10.47-7.9c-2.85-1.41-5.81-2.88-7.1-4.71s-1.69-5.11-2.08-8.28c-.51-4.2-1.08-9-3.95-12.48s-7.42-5.06-11.44-6.41c-3-1-6.15-2.07-7.68-3.7s-2.37-4.83-3.17-7.92c-1.08-4.1-2.3-8.74-5.61-11.84s-8-4-12.2-4.8c-3.13-.59-6.37-1.21-8.12-2.63s-3-4.46-4.21-7.41c-1.62-3.92-3.46-8.36-7.17-11s-8.49-2.87-12.72-3.09c-3.19-.17-6.49-.35-8.41-1.52s-3.57-4-5.18-6.75c-2.14-3.67-4.56-7.82-8.6-9.92s-8.6-1.7-13-1.32c-3.19.26-6.48.54-8.55-.36s-4.07-3.47-6-6c-2.62-3.34-5.6-7.13-9.89-8.66s-8.74-.5-13.07.47c-3.12.71-6.35,1.43-8.52.83s-4.51-2.88-6.79-5.09c-3.06-3-6.53-6.29-11-7.22s-8.71.7-12.86,2.26c-3,1.12-6.1,2.28-8.35,2s-4.85-2.23-7.41-4.1c-3.44-2.51-7.33-5.35-11.89-5.66s-8.52,1.87-12.41,4c-2.83,1.53-5.75,3.11-8,3.11s-5.2-1.58-8-3.11c-3.89-2.1-7.89-4.27-12.41-4s-8.46,3.15-11.89,5.66c-2.56,1.87-5.21,3.8-7.41,4.1s-5.35-.86-8.35-2c-4.15-1.56-8.43-3.18-12.86-2.26s-7.94,4.27-11,7.22c-2.28,2.21-4.65,4.49-6.79,5.09s-5.4-.12-8.52-.83c-4.33-1-8.81-2-13.07-.47s-7.27,5.32-9.89,8.66c-2,2.5-4,5.08-6,6s-5.37.62-8.55.36c-4.42-.38-9-.76-13,1.32s-6.47,6.25-8.61,9.92c-1.6,2.75-3.27,5.59-5.17,6.75s-5.22,1.35-8.41,1.51c-4.23.23-9,.48-12.72,3.1s-5.55,7.06-7.17,11c-1.22,2.94-2.48,6-4.22,7.4s-5,2-8.12,2.64c-4.16.79-8.88,1.69-12.19,4.79S97,96.11,96,100.21c-.81,3.08-1.65,6.27-3.18,7.91s-4.66,2.69-7.68,3.71c-4,1.35-8.57,2.88-11.44,6.4s-3.44,8.28-4,12.49c-.38,3.17-.78,6.44-2.08,8.28s-4.24,3.29-7.1,4.71c-3.8,1.88-8.11,4-10.47,7.9s-2.29,8.46-2.22,12.9c0,3.2.11,6.5-.93,8.5s-3.75,3.83-6.38,5.62C37,181,33,183.72,31.22,187.9s-1.11,8.68-.43,13.07c.49,3.16,1,6.43.23,8.56s-3.18,4.3-5.54,6.43c-3.15,2.85-6.73,6.08-7.95,10.47s.09,8.75,1.36,13c.92,3.07,1.87,6.24,1.41,8.46s-2.56,4.69-4.6,7.12C13,258.26,9.86,262,9.24,266.47s1.29,8.64,3.13,12.66c1.33,2.92,2.7,5.94,2.55,8.21s-1.9,5-3.59,7.66c-2.27,3.6-4.84,7.68-4.84,12.26s2.57,8.66,4.84,12.25c1.69,2.69,3.44,5.46,3.59,7.66s-1.22,5.29-2.55,8.21c-1.84,4-3.73,8.2-3.13,12.66s3.72,8.22,6.46,11.48c2,2.43,4.15,4.94,4.6,7.11s-.49,5.4-1.41,8.46c-1.27,4.25-2.58,8.64-1.37,13s4.81,7.63,8,10.48c2.36,2.13,4.8,4.33,5.54,6.42s.26,5.4-.23,8.56c-.68,4.39-1.38,8.92.43,13.07s5.8,6.89,9.31,9.27c2.63,1.79,5.35,3.64,6.38,5.62s1,5.31.93,8.5c-.07,4.44-.14,9,2.22,12.9s6.67,6,10.47,7.91c2.85,1.41,5.81,2.87,7.1,4.7s1.69,5.11,2.08,8.28c.51,4.21,1.08,9,4,12.49s7.42,5.05,11.44,6.4c3,1,6.15,2.07,7.68,3.71s2.37,4.83,3.17,7.92c1.08,4.1,2.3,8.74,5.61,11.84s8,4,12.2,4.79c3.13.6,6.37,1.22,8.12,2.64s3,4.46,4.21,7.4c1.62,3.92,3.46,8.36,7.17,11s8.49,2.87,12.72,3.09c3.19.17,6.49.34,8.41,1.51s3.57,4,5.18,6.76c2.14,3.66,4.56,7.82,8.6,9.91s8.6,1.7,13,1.33c3.19-.27,6.48-.55,8.55.35a10.16,10.16,0,0,1,3.07,2.41c-.07-3-.19-6.27-.36-9.67-3.77-1.5-7.9-1.17-11.91-.83-3.33.28-6.76.57-8.79-.48s-3.79-4.05-5.48-6.94c-2.09-3.58-4.26-7.28-7.84-9.47s-7.89-2.41-12-2.63c-3.33-.18-6.78-.36-8.65-1.68s-3.2-4.53-4.48-7.62c-1.58-3.83-3.23-7.8-6.48-10.45s-7.48-3.46-11.57-4.24c-3.28-.63-6.67-1.28-8.35-2.84s-2.55-4.91-3.4-8.14c-1-4-2.14-8.18-5-11.25s-6.94-4.44-10.88-5.76c-3.16-1.07-6.44-2.17-7.89-3.95s-1.87-5.21-2.27-8.52c-.5-4.13-1-8.39-3.44-11.83s-6.27-5.34-10-7.18c-3-1.49-6.1-3-7.3-5s-1.13-5.4-1.08-8.74c.07-4.15.14-8.45-1.81-12.19s-5.47-6.13-8.9-8.47c-2.77-1.88-5.63-3.83-6.55-5.94s-.39-5.5.12-8.8c.64-4.11,1.29-8.36-.12-12.34s-4.58-6.81-7.66-9.59c-2.48-2.24-5.06-4.57-5.68-6.8s.37-5.48,1.33-8.67c1.19-4,2.43-8.12,1.57-12.26s-3.6-7.37-6.26-10.53c-2.16-2.57-4.39-5.23-4.7-7.53s1.12-5.38,2.49-8.4c1.73-3.8,3.52-7.72,3.24-12s-2.56-7.78-4.77-11.28c-1.79-2.84-3.65-5.78-3.65-8.11s1.86-5.27,3.65-8.12c2.21-3.49,4.49-7.11,4.77-11.27s-1.51-8.16-3.24-12c-1.37-3-2.8-6.15-2.49-8.39s2.54-5,4.7-7.53c2.66-3.17,5.42-6.44,6.26-10.54s-.38-8.26-1.57-12.25c-1-3.19-1.94-6.49-1.33-8.68s3.2-4.55,5.68-6.8c3.08-2.78,6.26-5.65,7.66-9.59s.76-8.23.12-12.34c-.51-3.3-1-6.7-.12-8.79s3.78-4.07,6.55-5.95c3.43-2.33,7-4.74,8.91-8.46s1.87-8,1.81-12.2c-.06-3.34-.11-6.79,1.08-8.74s4.29-3.5,7.29-5c3.72-1.84,7.57-3.75,10-7.18s3-7.7,3.45-11.83c.4-3.31.81-6.74,2.26-8.52s4.73-2.88,7.9-3.94c3.93-1.33,8-2.7,10.87-5.77s4-7.23,5-11.24c.85-3.24,1.72-6.58,3.4-8.15s5.07-2.21,8.35-2.84c4.08-.77,8.3-1.58,11.56-4.24s4.9-6.62,6.49-10.45c1.28-3.09,2.6-6.29,4.48-7.62s5.31-1.5,8.64-1.67c4.16-.22,8.45-.45,12.05-2.64s5.74-5.89,7.83-9.47c1.69-2.89,3.44-5.88,5.48-6.94s5.47-.76,8.79-.48c4.15.35,8.43.71,12.3-1s6.49-5,9-8.3c2.07-2.63,4.21-5.36,6.39-6.13s5.51,0,8.76.73c4.06.91,8.26,1.86,12.33.72s7.1-4.09,10.08-7c2.42-2.33,4.91-4.74,7.19-5.21s5.44.75,8.55,1.92c3.9,1.47,7.94,3,12.13,2.41s7.59-3.08,10.93-5.52c2.72-2,5.52-4,7.85-4.18s5.27,1.48,8.19,3.05c3.68,2,7.48,4,11.72,4s8-2.05,11.72-4c2.92-1.57,5.95-3.19,8.19-3.05s5.13,2.2,7.84,4.18c3.35,2.44,6.8,5,10.94,5.52s8.23-.94,12.13-2.41c3.11-1.16,6.33-2.37,8.55-1.92s4.77,2.88,7.19,5.21c3,2.87,6.06,5.85,10.09,7s8.26.19,12.32-.72c3.25-.74,6.61-1.49,8.76-.73s4.32,3.5,6.39,6.13c2.56,3.26,5.2,6.63,9,8.3s8.15,1.32,12.3,1c3.33-.28,6.76-.57,8.79.48s3.79,4.05,5.48,6.94c2.09,3.59,4.25,7.29,7.84,9.47s7.89,2.42,12,2.64c3.33.17,6.78.36,8.65,1.68s3.2,4.52,4.47,7.61c1.59,3.84,3.23,7.8,6.49,10.46s7.48,3.46,11.56,4.24c3.29.62,6.68,1.27,8.36,2.84s2.55,4.91,3.4,8.14c1,4,2.14,8.17,5,11.25s6.94,4.44,10.88,5.76c3.16,1.07,6.44,2.17,7.89,4s1.87,5.2,2.27,8.52c.5,4.12,1,8.39,3.44,11.83s6.27,5.33,10,7.18c3,1.48,6.1,3,7.3,5s1.13,5.41,1.08,8.74c-.07,4.16-.14,8.46,1.8,12.2s5.48,6.13,8.91,8.46c2.77,1.89,5.63,3.83,6.55,5.95s.39,5.5-.12,8.79c-.64,4.11-1.29,8.37.12,12.34s4.58,6.82,7.66,9.59c2.48,2.25,5.06,4.57,5.68,6.8s-.37,5.49-1.33,8.68c-1.19,4-2.43,8.12-1.57,12.26s3.6,7.36,6.26,10.53c2.16,2.57,4.39,5.23,4.7,7.53s-1.12,5.37-2.49,8.4c-1.73,3.79-3.52,7.72-3.24,11.95s2.56,7.78,4.77,11.27c1.79,2.85,3.65,5.79,3.65,8.12s-1.86,5.27-3.65,8.11c-2.21,3.5-4.49,7.12-4.77,11.28s1.51,8.15,3.24,12c1.37,3,2.8,6.15,2.49,8.39s-2.54,5-4.7,7.53c-2.66,3.17-5.42,6.45-6.26,10.54s.38,8.27,1.57,12.26c1,3.19,1.94,6.49,1.33,8.67s-3.2,4.56-5.69,6.81c-3.07,2.77-6.25,5.64-7.65,9.59s-.76,8.22-.12,12.34c.51,3.29,1,6.7.12,8.79s-3.78,4.06-6.55,6c-3.43,2.33-7,4.74-8.91,8.46s-1.87,8-1.81,12.2c.06,3.33.11,6.78-1.08,8.74s-4.3,3.5-7.29,5c-3.72,1.84-7.57,3.75-10,7.17s-2.95,7.71-3.45,11.84c-.4,3.31-.81,6.74-2.26,8.51s-4.73,2.89-7.9,3.95c-3.93,1.33-8,2.69-10.88,5.76s-4,7.23-5,11.25c-.85,3.23-1.72,6.58-3.4,8.14s-5.07,2.22-8.35,2.84c-4.08.78-8.3,1.59-11.56,4.24s-4.9,6.62-6.49,10.46c-1.28,3.09-2.6,6.29-4.48,7.61s-5.31,1.51-8.65,1.68c-4.15.22-8.44.44-12,2.64s-5.74,5.88-7.83,9.46c-1.69,2.89-3.44,5.88-5.48,6.94s-5.47.77-8.79.49c-4.15-.36-8.43-.72-12.3,1s-6.33,4.85-8.82,8c1.31,1.59,3,3.71,5,6.21l.89-1.13c2-2.5,4-5.09,6-6s5.36-.62,8.55-.35c4.42.38,9,.76,13-1.33s6.47-6.25,8.61-9.91c1.6-2.75,3.27-5.59,5.17-6.76s5.22-1.34,8.41-1.51c4.23-.22,9-.47,12.72-3.09s5.55-7.06,7.17-11c1.22-3,2.48-6,4.22-7.41s5-2,8.12-2.63c4.16-.8,8.87-1.7,12.19-4.79s4.54-7.75,5.61-11.85c.81-3.08,1.65-6.28,3.18-7.92s4.65-2.68,7.68-3.7c4-1.35,8.57-2.88,11.44-6.4s3.44-8.29,3.95-12.49c.38-3.17.78-6.45,2.08-8.29s4.24-3.28,7.1-4.7c3.8-1.88,8.1-4,10.47-7.9s2.29-8.46,2.22-12.9c0-3.2-.11-6.5.93-8.5s3.75-3.83,6.38-5.62c3.51-2.39,7.49-5.1,9.31-9.27s1.11-8.69.43-13.08c-.49-3.16-1-6.42-.24-8.55s3.19-4.3,5.55-6.43c3.15-2.85,6.73-6.08,8-10.47s-.09-8.75-1.36-13c-.92-3.07-1.87-6.25-1.41-8.47s2.56-4.68,4.6-7.11c2.74-3.26,5.84-6.95,6.46-11.48s-1.29-8.63-3.13-12.66C598.3,332.46,596.92,329.44,597.08,327.17ZM363.5,565.87s27,30.34,50.83,75.23c0,0-12-5.69-33.35-5.65-28.45,0-33.61,7.93-55.46,10.52-17.43,2.14-22.24-3.57-21.74-8.92,1-7.39,20-4.83,22.41-5.07a3.81,3.81,0,0,0,3.81-3.81c.06-2.07-1.4-3.58-4.19-4.49-2-.65-6.32-2.13-19.16-1.24h0c-16.63.83-40.7,4.74-77.09,18.08a3,3,0,0,0,0-.42c1.27-12.64,2.25-28.58,2.3-47.82,0-34.88-2.54-61.12-7.53-75.25a36.72,36.72,0,0,0-8.49-14.57c20.16-7.87,57.94-20.58,87.58-20.58,9.19,0,22.12,4.54,27.05,19.93.31.87.6,1.81.88,2.79,3.34,11.8,5,31.44,5,56.88,0,9.7-.35,18.33-.84,25.93a291.65,291.65,0,0,0,2.06-84.35c6.55-2.16,12.62-4.49,21.24-6.89,35.89-9.27,55.45-6.79,55.45-6.79C384.59,522.58,363.5,565.87,363.5,565.87ZM318,576q0-7.93-4-12.74A18.87,18.87,0,0,0,303.1,557a17.41,17.41,0,0,0,9.26-6.53,18.39,18.39,0,0,0,3.44-11.12q0-11.77-8.74-17.48t-27.55-5.72a129.55,129.55,0,0,0-14.15.83,122.32,122.32,0,0,0-13.54,2.22v79.47q5.38.78,12.18,1.25t12,.47q15.15,0,24.42-2.83t13.43-8.18Q318,584,318,576Zm-25.14-28.67c2-1.45,3-3.74,3-6.85a9.12,9.12,0,0,0-1.33-5.19,7.82,7.82,0,0,0-4.27-2.91,26.84,26.84,0,0,0-7.94-.95,54.79,54.79,0,0,0-9.77.89v17.2h10.21C287.52,549.56,290.89,548.84,292.88,547.37Zm2.34,20.29q-3.23-2.32-10.66-2.33h-12v19.31q4.17.39,9.27.39a37.18,37.18,0,0,0,9.91-1,9.27,9.27,0,0,0,5.16-3.2,9.45,9.45,0,0,0,1.52-5.63Q298.43,570,295.22,567.66ZM546,267.09H523l-17.73,47.36-18.31-47.36h-23v80.75h17.58V296.23L497.33,336h15.22l15.86-41.52v53.36H546ZM434.65,96.29q2.61,6.84-2.24,15.81-4.64,8.58-11.76,10.41t-16.35-3.14c-.58-.31-1.35-.76-2.32-1.34l-1.19-.68-7.1,13.14-11-6,25-46.32a73,73,0,0,1,14.39,5.84Q432,89.45,434.65,96.29ZM423.2,99c-.58-2-2.24-3.78-5-5.27a21.22,21.22,0,0,0-3.74-1.66l-8.69,16.08a31.92,31.92,0,0,0,3.54,2.24q4.14,2.23,7.06,1.35c2-.6,3.72-2.36,5.31-5.3S423.77,101,423.2,99Zm-2.57,250q16.26,0,23.92-8.78t7.65-26.79V267.09H433.74v48.23q0,8.63-3.24,12.58t-9.87,4q-6.63,0-9.89-4t-3.27-12.58V267.09H388.62v46.27q0,18.06,7.75,26.81T420.63,348.93ZM322.18,449.44q16.26,0,23.92-8.79t7.66-26.79V367.6H335.29v48.23q0,8.63-3.24,12.57t-9.87,4q-6.63,0-9.89-4T309,415.83V367.6H290.17v46.26q0,18.06,7.76,26.82T322.18,449.44Zm-79.69-1.09H224V369.56a100.27,100.27,0,0,1,11.69-2.18,94,94,0,0,1,12.23-.82q16.25,0,24.4,6.57t8.15,20.11A27,27,0,0,1,277,407.48a23.1,23.1,0,0,1-10,9.06l19.69,31.81H266.2L249,420.08c-1,0-2.33,0-4-.11-1.11-.07-2-.1-2.5-.1Zm0-44.14a55.08,55.08,0,0,0,7.22.49q6.67,0,9.91-2.7t3.24-8.76q0-5.89-3.19-8.67c-2.12-1.86-5.37-2.79-9.72-2.79a38.53,38.53,0,0,0-7.46.71ZM427.33,215.48l-4-9.68-4,9.68-10.43.79,8,6.77-2.47,10.16,8.9-5.49,8.91,5.49L429.79,223l8-6.77ZM531.61,376.76h-5.08A229.34,229.34,0,0,1,450,493.31c-2.55,3-6.95,8.28-12.19,15.22A234.61,234.61,0,0,0,531.61,376.76ZM511.22,162q6.16,8.86,5.66,15.81T509,189.9a18,18,0,0,1-9.09,3.51,15.33,15.33,0,0,1-8.75-2l-9.9,22.81L473.52,203l8.91-20.1c-.37-.53-.86-1.28-1.46-2.24-.38-.63-.68-1.1-.89-1.4l-15.55,10.79-7-10.11,43-29.86a66.56,66.56,0,0,1,5.62,5.56A62.32,62.32,0,0,1,511.22,162Zm-5.36,13.26q.31-2.81-2.16-6.36a26.22,26.22,0,0,0-3.22-3.81l-11.85,8.23a36.87,36.87,0,0,0,2.46,4.13q2.54,3.65,5.24,4.39c1.8.49,3.8,0,6-1.55S505.66,177.14,505.86,175.28ZM480.34,130a20.34,20.34,0,0,1,0,12.4q-1.95,6.56-7.95,13.29t-12.28,9.41a20.43,20.43,0,0,1-12.31,1.44A27.24,27.24,0,0,1,429,149.81a20.32,20.32,0,0,1,0-12.37q1.92-6.54,8-13.31t12.3-9.43a20.37,20.37,0,0,1,12.29-1.44A27.34,27.34,0,0,1,480.34,130Zm-14.8-2.35a9.36,9.36,0,0,0-8.63-2.5q-4.67,1-10.24,7.3-5.81,6.53-6.38,11.3a10.41,10.41,0,0,0,12.12,10.88q4.68-1,10.22-7.28c3.85-4.32,6-8.08,6.34-11.31A9.29,9.29,0,0,0,465.54,127.68ZM245.73,205l-6.45-15.7L232.83,205l-16.93,1.29,12.95,11-4,16.5,14.44-8.91,14.45,8.91-4-16.5,12.93-11Z"/></svg>