<svg xmlns="http://www.w3.org/2000/svg" viewBox="0 0 892.72 1020.25"><defs><style>.cls-1{fill-rule:evenodd;}</style></defs><g id="Capa_2" data-name="Capa 2"><g id="Capa_1-2" data-name="Capa 1"><path class="cls-1" d="M531.08,540.8c-39.9-37.26-73.2-89-94-145.88,1.37-5.26,2.52-10,3.58-14.76,0,0,22.5-127.69,16.55-170.79a50,50,0,0,0-2.92-12.28l-2-5c-6.1-14.14-18.06-29.08-36.89-28.27l-11.32-.33c-20.95,0-38.07,10.67-42.53,26.75C348,240.5,362,315.7,387.48,413L381,428.93c-18.25,44.49-41.14,89.3-61.3,128.83l-2.64,5.15Q289.57,617,259.1,669.56l-18,9.5c-1.31.75-32.21,17.09-39.47,21.47-61.47,36.71-102.22,78.37-109,111.41-2.18,10.58-.57,24.13,10.36,30.36l17.45,8.78a53,53,0,0,0,23.71,5.71c43.78,0,94.63-54.54,164.69-176.79,80.85-26.36,172.89-48.21,253.59-60.31,61.5,34.6,137.12,58.72,184.85,58.72A86.15,86.15,0,0,0,769,676c9.14-2.4,16.88-7.62,21.56-14.76,9.26-13.94,11.13-33.11,8.62-52.79-.73-5.83-5.41-13-10.45-17.93-14.18-13.94-45.56-21.37-93.35-22-32.32-.33-71.31,2.46-112.23,8.23C564.81,566.19,545.92,554.68,531.08,540.8ZM134.66,823.59c8-21.86,39.62-65,86.34-103.35,2.95-2.4,10.2-9.17,16.82-15.46C188.91,782.73,156.18,813.83,134.66,823.59ZM411.49,186.06c14.09,0,22.11,35.54,22.78,68.74s-7.14,56.65-16.77,73.9c-8-25.55-11.86-65.89-11.86-92.25C405.64,236.45,405.06,186.06,411.49,186.06ZM328.92,640.35c9.81-17.58,20-36.06,30.45-55.71a1063.54,1063.54,0,0,0,53.4-116.54c23.78,43.22,53.37,80,88.19,109.44,4.35,3.73,9,7.36,13.79,11.09C444,602.57,382.78,619.63,328.92,640.35Zm366.6-32.46c25.75,0,33.37-.07,58.51,6.39s25.46,19.39,21.12,22.08-16.66,4.28-24.62,4.28c-25.59,0-57.31-11.77-101.78-30.84Q672.09,608,695.52,607.89ZM850.66,228.22c-22.16-30.17-53-65.41-86.87-99.35S694.65,64.23,664.45,42C613.09,4.42,588.13,0,573.88,0H79.7A79.8,79.8,0,0,0,0,79.71V940.48a79.77,79.77,0,0,0,79.7,79.77H813a79.84,79.84,0,0,0,79.72-79.65V318.83C892.72,304.54,888.32,279.63,850.66,228.22ZM623,62.2a1177.83,1177.83,0,0,1,108.33,96.6A1155.26,1155.26,0,0,1,827.9,267.09H623ZM844.8,958.38A16.86,16.86,0,0,1,828.19,975H64.5a16.73,16.73,0,0,1-16.6-16.6V61.87a16.85,16.85,0,0,1,16.6-16.6H579.16V277.7a33.2,33.2,0,0,0,33.21,33.2H844.8Z"/></g></g></svg>